<?xml version="1.0" encoding="utf-8"?>
<!-- Generator: Adobe Illustrator 16.0.0, SVG Export Plug-In . SVG Version: 6.00 Build 0)  -->
<!DOCTYPE svg PUBLIC "-//W3C//DTD SVG 1.1//EN" "http://www.w3.org/Graphics/SVG/1.1/DTD/svg11.dtd">
<svg version="1.1" id="Layer_1" xmlns="http://www.w3.org/2000/svg" xmlns:xlink="http://www.w3.org/1999/xlink" x="0px" y="0px"
	 width="400px" height="200px" viewBox="0 0 400 200" enable-background="new 0 0 400 200" xml:space="preserve">
<g>
	<g>
		<path fill="#164D7F" d="M74.827,12.91l3.967,59.957l-4,4h-3.967V16.91L74.827,12.91z"/>
		<path fill="#164D7F" d="M88.192,52.353c-0.098,0.676,1.863,1.409,1.863,2.183c0,5.37,1.836,6.947,5.515,10.733
			c3.677,3.781,6.116,6.683,11.312,6.683c5.196,0,9.862,0.288,13.336-3.725c2.273-2.636,3.562-5.429,4.446-7.812l4-4l-0.368,5.035
			c-0.808,3.673-3.758,8.165-5.263,9.682c-4.444,4.63-9.829,6.943-16.151,6.943c-6.258,0-11.624-2.304-16.081-6.918
			c-4.462-4.61-6.694-10.151-6.694-16.621c0-6.537,2.232-12.102,6.694-16.704c4.457-4.586,9.823-6.891,16.081-6.891
			c6.322,0,13.709-1.699,18.153,2.887c3.069,3.202,7.738,9.33,7.87,14.524l-4,4L88.192,52.353L88.192,52.353z M88.894,48.419h35.785
			c-0.877-2.944-2.363-5.499-4.461-7.669c-3.693-3.82-8.141-5.729-13.336-5.729c-5.195,0-9.643,1.909-13.334,5.729
			C91.356,43.049,89.805,45.605,88.894,48.419z"/>
		<path fill="#164D7F" d="M175.48,65.579l2.776,2.648c-0.76,0.995-1.621,1.973-2.577,2.904c-4.696,4.63-10.386,6.943-17.071,6.943
			c-6.617,0-12.279-2.304-16.996-6.918c-4.714-4.61-7.071-10.163-7.071-16.668c0-6.505,2.357-12.054,7.071-16.656
			c4.717-4.586,10.379-6.891,16.996-6.891c6.686,0,14.952-1.487,19.648,3.099c0.956,0.946,4,2.709,4,2.709l-7.137,6.432
			c-0.43-0.515-1.924-1.963-2.416-2.482c-3.904-3.785-8.607-5.679-14.096-5.679c-5.461,0-10.132,1.903-14.018,5.704
			c-3.887,3.81-4.649,8.257-4.649,13.629s3.279,8.36,7.166,12.162c3.886,3.801,7.039,6.351,12.5,6.351
			c5.488,0,9.192-0.828,13.097-4.64C173.196,67.737,175.054,66.098,175.48,65.579z"/>
		<path fill="#164D7F" d="M191.209,31.849V16.825l3.924-4l1.267,19.274l11.517,2.629l-4,3.889h-8.783l4,34.25l-4,4h-3.924v-38.25
			h-8.779v-3.889l4-4L191.209,31.849z"/>
		<path fill="#164D7F" d="M253.288,30.941c6.418,0,13.487-1.678,17.987,2.908c4.496,4.602,5.134,14.15,5.134,20.687
			c0,6.469-2.248,12.01-6.745,16.621c-4.499,4.614-9.958,6.918-16.376,6.918c-6.354,0-11.798-2.304-16.328-6.918
			c-4.526-4.61-6.791-10.151-6.791-16.621c0-6.537,2.265-12.102,6.791-16.704C241.49,33.247,246.936,30.941,253.288,30.941z
			 M239.771,40.75c-3.73,3.818-4.174,7.02-4.174,12.393c0,5.37,3.445,7.587,7.178,11.374c3.738,3.781,6.666,8.351,11.943,8.351
			s8.35-0.813,12.086-4.595c3.732-3.786,5.601-8.366,5.601-13.736c0-5.373-1.867-9.968-5.601-13.787
			c-3.736-3.82-8.24-5.729-13.518-5.729S243.512,36.93,239.771,40.75z"/>
		<path fill="#164D7F" d="M289.812,44.151l4,28.716l-4,4h-3.972V33.284l3.972-4v8.167c3.574-3.495,9.871-7.106,14.629-7.106
			c5.104,0,9.804,0.379,13.001,3.504c3.188,3.117,2.128,10.088,2.189,14.819l4,24.199l-4,4h-3.924V49.054
			c0-3.594-1.315-6.652-3.965-9.175c-2.646-2.527-5.787-3.785-9.433-3.785c-3.604,0-6.729,1.247-9.375,3.737
			C291.51,41.219,290.473,42.659,289.812,44.151z"/>
		<path fill="#164D7F" d="M335.19,20.946c0.78,0.745,4.299,1.123,4.299,1.123s-3.519,3.57-4.299,4.319
			c-0.778,0.741-1.693,1.106-2.755,1.106c-1.09,0-2.024-0.365-2.803-1.106c-0.783-0.749-1.162-1.672-1.162-2.77
			c0-1.033,0.379-1.928,1.162-2.672c1.705-1.63,4.141-4.227,4.56-4.452C335.126,15.992,334.412,20.203,335.19,20.946z
			 M334.452,30.728l3.918,42.139l-4,4h-3.918V34.728L334.452,30.728z"/>
		<path fill="#164D7F" d="M382.406,66.716l4.169,1.511c-0.767,0.995-1.623,1.973-2.582,2.904c-4.695,4.63-10.39,6.943-17.07,6.943
			c-6.615,0-12.279-2.304-16.996-6.918c-4.713-4.61-7.069-10.163-7.069-16.668c0-6.505,2.356-12.054,7.069-16.656
			c4.717-4.586,13.617-9.624,20.232-9.624c6.682,0,15.721,3.955,20.416,8.541l-4,4l-4.169,1.507
			c-0.431-0.515-0.893-1.038-1.387-1.557c-3.909-3.785-8.604-5.679-14.098-5.679c-5.459,0-10.133,1.903-14.019,5.704
			c-3.892,3.81-5.144,8.412-5.144,13.784s4.956,7.539,8.848,11.341c3.886,3.801,6.092,7.018,11.551,7.018
			c5.492,0,8.951-0.828,12.86-4.64C381.515,67.737,381.977,67.239,382.406,66.716z"/>
		<path fill="#164D7F" d="M227.171,38.621c-4.289-1.855-7.271,1.976-9.142,4.285c-2.586,3.185-4.768,8.41-4.736,10.178l4,20.178
			l-4,4h-3.973V35.126l3.973-4v12.325c1.652-4.235,13.091-16.51,20.857-12.204L227.171,38.621z"/>
		<path fill="#164D7F" d="M327.608,103.182c-3.189-3.125-8.908-3.02-14-3.02c-4.762,0-10.779,3.928-12.896,5.967
			c-2.092,2.012-0.438,2.387-0.438,2.387s-5.077-4.771-7.334-6.973c-3.191-3.125-5.334,0.031-10.426,0.031
			c-4.762,0-8.931,1.748-12.506,5.248l0.03-8.164l-4,4v43.57h3.97l4-4l-4-28.709c0.662-1.49,1.703-2.933,3.127-4.324
			c2.652-2.494,5.774-3.734,9.379-3.734c3.635,0,6.783,1.258,9.43,3.781c2.646,2.529,3.97,5.584,3.97,9.178v27.809h0.211h3.707
			h0.256l4-4l-4-24.514c0.248-4.924,1.704-7.127,3.128-8.52c2.647-2.494,5.776-3.734,9.379-3.734c3.641,0,6.782,1.258,9.428,3.781
			c2.646,2.529,3.973,5.584,3.973,9.178v27.809h3.918l4-4l-4-24.196C329.847,113.309,330.802,106.305,327.608,103.182z"/>
		<path fill="#164D7F" d="M347.85,122.977c-0.098,0.688,2.428,1.39,2.428,2.166c0,5.369,2.984,6.752,6.667,10.539
			c3.675,3.789,6.571,7.334,11.771,7.334c5.198,0,7.681-0.147,11.154-4.164c2.274-2.627,3.564-5.424,4.445-7.807l4-4l-0.363,5.029
			c-0.81,3.676-3.758,8.166-5.26,9.688c-4.449,4.63-9.835,6.939-16.153,6.939c-6.263,0-11.626-2.302-16.081-6.908
			c-4.463-4.615-6.696-10.156-6.696-16.627c0-6.539,2.233-12.106,6.696-16.705c4.455-4.588,9.818-6.881,16.081-6.881
			c6.318,0,13.621-1.321,18.07,3.267c3.25,3.396,7.397,9.694,7.946,14.129l-4,4H347.85L347.85,122.977z M348.558,119.049h35.776
			c-0.878-2.943-2.363-5.5-4.464-7.666c-3.689-3.82-8.133-5.73-13.331-5.73c-5.2,0-9.643,1.91-13.341,5.73
			C351.005,113.674,349.462,116.234,348.558,119.049z"/>
		<path fill="#164D7F" d="M231.598,101.574c6.42,0,14.353-0.647,18.844,3.941c4.5,4.598,4.276,13.112,4.276,19.651
			c0,6.465-2.247,12.012-6.745,16.617c-4.492,4.616-9.955,6.918-16.375,6.918c-6.357,0-11.796-2.302-16.326-6.918
			c-4.527-4.605-6.791-10.152-6.791-16.617c0-6.539,2.264-12.106,6.791-16.705C219.802,103.875,225.238,101.574,231.598,101.574z
			 M218.084,111.383c-3.734,3.814-3.477,8.381-3.477,13.756c0,5.365,2.266,7.256,6,11.043c3.735,3.789,6.726,7.168,12,7.168
			c5.281,0,8.771-0.66,12.51-4.449c3.73-3.786,5.601-8.364,5.601-13.731c0-5.373-1.87-9.971-5.601-13.785
			c-3.739-3.823-8.239-5.729-13.521-5.729C226.32,105.652,221.818,107.559,218.084,111.383z"/>
		<polygon fill="#164D7F" points="8.557,30.941 8.557,131.049 90.921,131.049 94.921,127.049 90.921,122.373 18.909,122.373 
			18.909,75.169 61.296,75.169 65.296,71.169 61.296,65.783 18.909,65.783 18.909,40.003 61.296,40.003 65.296,36.003 
			61.296,30.941 12.557,26.941 		"/>
		<polygon fill="#164D7F" points="98.083,91.247 98.083,186.809 108.384,186.809 112.384,182.809 108.384,131.049 184.61,131.049 
			184.61,186.809 194.907,186.809 198.907,182.809 194.907,91.247 188.61,87.247 184.61,91.247 184.61,122.373 108.384,122.373 
			108.384,91.247 102.083,87.247 		"/>
	</g>
	<g>
		<g>
			<path fill="#2B9AFF" d="M78.794,12.91v59.957h-3.967V12.91H78.794z"/>
			<path fill="#2B9AFF" d="M92.192,48.353c-0.098,0.676-0.139,1.409-0.139,2.183c0,5.37,1.836,9.95,5.515,13.736
				c3.677,3.781,8.118,5.682,13.313,5.682c5.195,0,9.862-1.714,13.336-5.727c2.273-2.636,3.562-5.429,4.446-7.812l3.632,1.035
				c-0.808,3.673-3.758,8.165-5.263,9.682c-4.444,4.63-9.829,6.943-16.151,6.943c-6.258,0-11.624-2.304-16.081-6.918
				c-4.462-4.61-6.694-10.151-6.694-16.621c0-6.537,2.232-12.102,6.694-16.704c4.457-4.586,9.823-6.891,16.081-6.891
				c6.322,0,11.707,2.305,16.151,6.891c3.915,4.083,5.872,8.922,5.872,14.521H92.192z M92.894,44.419h35.785
				c-0.877-2.944-2.363-5.499-4.461-7.669c-3.693-3.82-8.141-5.729-13.336-5.729c-5.195,0-9.643,1.909-13.334,5.729
				C95.356,39.049,93.805,41.605,92.894,44.419z"/>
			<path fill="#2B9AFF" d="M179.48,61.579l2.776,2.648c-0.76,0.995-1.621,1.973-2.577,2.904c-4.696,4.63-10.386,6.943-17.071,6.943
				c-6.617,0-12.279-2.304-16.996-6.918c-4.714-4.61-7.071-10.163-7.071-16.668c0-6.505,2.357-12.054,7.071-16.656
				c4.717-4.586,10.379-6.891,16.996-6.891c6.686,0,12.375,2.305,17.071,6.891c0.956,0.946,1.817,1.917,2.577,2.917l-3.137,2.432
				c-0.43-0.515-1.924-1.963-2.416-2.482c-3.904-3.785-8.607-5.679-14.096-5.679c-5.461,0-10.132,1.903-14.018,5.704
				c-3.887,3.81-5.831,8.392-5.831,13.764c0,5.372,1.944,9.958,5.831,13.759c3.886,3.801,8.557,5.706,14.018,5.706
				c5.488,0,10.191-1.915,14.096-5.727C177.196,63.737,179.054,62.098,179.48,61.579z"/>
			<path fill="#2B9AFF" d="M195.209,30.728V12.825h3.924v17.903h8.783v3.889h-8.783v38.25h-3.924v-38.25h-8.779v-3.889H195.209z"/>
			<path fill="#2B9AFF" d="M257.288,26.941c6.418,0,11.877,2.305,16.376,6.891c4.497,4.602,6.745,10.167,6.745,16.704
				c0,6.469-2.248,12.01-6.745,16.621c-4.499,4.614-9.958,6.918-16.376,6.918c-6.354,0-11.798-2.304-16.328-6.918
				c-4.526-4.61-6.791-10.151-6.791-16.621c0-6.537,2.265-12.102,6.791-16.704C245.49,29.247,250.936,26.941,257.288,26.941z
				 M243.771,36.75c-3.73,3.818-5.599,8.414-5.599,13.787c0,5.37,1.867,9.95,5.599,13.736c3.738,3.781,8.237,5.682,13.517,5.682
				c5.276,0,9.78-1.9,13.517-5.682c3.733-3.786,5.602-8.366,5.602-13.736c0-5.373-1.867-9.968-5.602-13.787
				c-3.734-3.82-8.238-5.729-13.517-5.729S247.512,32.93,243.771,36.75z"/>
			<path fill="#2B9AFF" d="M293.812,40.151v32.716h-3.972V29.284h3.972v4.167c3.574-3.495,7.742-5.242,12.5-5.242
				c5.103,0,9.237,1.564,12.436,4.689c3.189,3.117,4.822,7.039,4.885,11.77v28.199h-3.924V45.054c0-3.594-1.315-6.652-3.965-9.175
				c-2.646-2.527-5.787-3.785-9.432-3.785c-3.604,0-6.729,1.247-9.375,3.737C295.51,37.219,294.473,38.659,293.812,40.151z"/>
			<path fill="#2B9AFF" d="M339.19,16.946c0.78,0.745,1.168,1.639,1.168,2.672c0,1.098-0.388,2.021-1.168,2.77
				c-0.778,0.741-1.693,1.106-2.755,1.106c-1.09,0-2.024-0.365-2.803-1.106c-0.783-0.749-1.162-1.672-1.162-2.77
				c0-1.033,0.379-1.928,1.162-2.672c0.777-0.743,1.713-1.114,2.803-1.114C337.497,15.832,338.412,16.203,339.19,16.946z
				 M338.37,30.728v42.139h-3.918V30.728H338.37z"/>
			<path fill="#2B9AFF" d="M386.406,62.716l4.169,1.511c-0.767,0.995-1.623,1.973-2.582,2.904c-4.695,4.63-10.39,6.943-17.07,6.943
				c-6.615,0-12.279-2.304-16.996-6.918c-4.713-4.61-7.069-10.163-7.069-16.668c0-6.505,2.356-12.054,7.069-16.656
				c4.717-4.586,10.381-6.891,16.996-6.891c6.683,0,12.375,2.305,17.07,6.891c0.959,0.946,1.815,1.917,2.582,2.917l-4.169,1.507
				c-0.431-0.515-0.893-1.038-1.387-1.557c-3.909-3.785-8.604-5.679-14.098-5.679c-5.459,0-10.133,1.903-14.019,5.704
				c-3.892,3.81-5.831,8.392-5.831,13.764c0,5.372,1.939,9.958,5.831,13.759c3.886,3.801,8.56,5.706,14.019,5.706
				c5.492,0,10.188-1.915,14.098-5.727C385.515,63.737,385.977,63.239,386.406,62.716z"/>
			<path fill="#2B9AFF" d="M231.171,34.621c-4.289-1.855-7.271,1.976-9.142,4.285c-2.586,3.185-4.768,8.41-4.736,10.178v24.178
				h-3.973V31.126h3.973v8.325c1.652-4.235,9.091-12.51,16.857-8.204L231.171,34.621z"/>
		</g>
		<path fill="#2B9AFF" d="M329.024,102.262c-3.189-3.125-7.338-4.688-12.43-4.688c-4.761,0-9.767,2.517-11.882,4.555
			c-2.092,2.012-2.738,3.502-2.738,3.502s-0.771-1.168-3.029-3.369c-3.19-3.125-7.338-4.688-12.43-4.688
			c-4.762,0-8.931,1.749-12.506,5.249v-4.164h-3.97v43.569h3.97V109.52c0.662-1.489,1.703-2.932,3.127-4.323
			c2.652-2.494,5.774-3.734,9.379-3.734c3.635,0,6.783,1.258,9.43,3.781c2.646,2.528,3.97,5.584,3.97,9.178v27.81h0.211h3.707h0.256
			v-28.515c0.248-4.924,1.704-7.127,3.128-8.52c2.647-2.494,5.776-3.734,9.379-3.734c3.641,0,6.782,1.258,9.428,3.781
			c2.646,2.528,3.973,5.584,3.973,9.178v27.81h3.918v-28.197C333.847,109.309,332.218,105.385,329.024,102.262z"/>
		<path fill="#2B9AFF" d="M351.85,118.977c-0.098,0.688-0.144,1.416-0.144,2.191c0,5.371,1.836,9.945,5.518,13.732
			c3.676,3.789,8.115,5.68,13.315,5.68c5.198,0,9.855-1.713,13.331-5.729c2.274-2.627,3.564-5.425,4.445-7.808l3.637,1.029
			c-0.81,3.676-3.758,8.166-5.26,9.688c-4.449,4.629-9.835,6.939-16.153,6.939c-6.263,0-11.626-2.301-16.081-6.908
			c-4.463-4.615-6.696-10.156-6.696-16.627c0-6.539,2.233-12.107,6.696-16.705c4.455-4.588,9.818-6.881,16.081-6.881
			c6.318,0,11.704,2.293,16.153,6.881c3.909,4.086,5.863,8.924,5.863,14.514H351.85V118.977z M352.558,115.049h35.776
			c-0.878-2.943-2.363-5.5-4.464-7.666c-3.689-3.82-8.133-5.73-13.331-5.73c-5.2,0-9.643,1.91-13.341,5.73
			C355.005,109.674,353.462,112.234,352.558,115.049z"/>
		<path fill="#2B9AFF" d="M235.598,97.574c6.42,0,11.883,2.301,16.375,6.889c4.498,4.598,6.745,10.166,6.745,16.705
			c0,6.465-2.247,12.012-6.745,16.617c-4.492,4.617-9.955,6.918-16.375,6.918c-6.357,0-11.796-2.301-16.326-6.918
			c-4.527-4.605-6.791-10.152-6.791-16.617c0-6.539,2.264-12.107,6.791-16.705C223.802,99.875,229.238,97.574,235.598,97.574z
			 M222.084,107.383c-3.734,3.814-5.602,8.412-5.602,13.785c0,5.367,1.865,9.945,5.602,13.732c3.734,3.789,8.236,5.68,13.514,5.68
			c5.28,0,9.78-1.891,13.521-5.68c3.729-3.787,5.601-8.365,5.601-13.732c0-5.373-1.869-9.971-5.601-13.785
			c-3.739-3.824-8.239-5.73-13.521-5.73C230.32,101.652,225.818,103.559,222.084,107.383z"/>
		<polygon fill="#2B9AFF" points="12.557,26.941 12.557,127.049 94.921,127.049 94.921,118.373 22.909,118.373 22.909,71.169 
			65.296,71.169 65.296,61.783 22.909,61.783 22.909,36.003 65.296,36.003 65.296,26.941 		"/>
		<polygon fill="#2B9AFF" points="102.083,87.247 102.083,182.809 112.384,182.809 112.384,127.049 188.61,127.049 188.61,182.809 
			198.907,182.809 198.907,87.247 188.61,87.247 188.61,118.373 112.384,118.373 112.384,87.247 		"/>
	</g>
</g>
</svg>
