<svg xmlns="http://www.w3.org/2000/svg" width="433.618" height="181.1" viewBox="0 0 433.618 181.1">
  <g id="Group_6" data-name="Group 6" transform="translate(-260 -815.9)">
    <path id="Path_64" data-name="Path 64" d="M546.767,639.546l-32.892,25.26s13.312,16.989,31.7,11.556,45.332-29.665,39.714-45.1c-2.545-4.039-4.656-3.872-6.095-4-9.064-.236-20.655,12.3-22.33,12.287S546.767,639.546,546.767,639.546Z" transform="translate(107.577 228.848)" fill="#a5a5af"/>
    <path id="Path_65" data-name="Path 65" d="M463.361,640.22,447.5,652.388a96.949,96.949,0,0,0,13.342,15.038c7.605,6.975,18.316,14.079,26.978,14.092,17.5.026,77.976-42.7,80.434-62s-29.32-30.084-41.158-23.044-33.147,44.161-44.841,46.894S463.361,640.22,463.361,640.22Z" transform="translate(96.279 223.241)" fill="#a5a5af"/>
    <path id="Path_66" data-name="Path 66" d="M490.986,631.617,511.4,608.372s-18.01-16.192-26.091-15.448-17.066,6.066-29.6,20.7-22.229,32.31-22.6,34.218.218,7.872,7.542,4.847,40.691-30.642,40.691-30.642Z" transform="translate(93.815 223)" fill="#a5a5af"/>
    <path id="Path_67" data-name="Path 67" d="M439.185,622.917l-8.582,12.45s-6.715-4.327-4.57-7.439S439.185,622.917,439.185,622.917Z" transform="translate(92.552 228.109)" fill="#a5a5af"/>
    <text id="NETWORKS" transform="translate(306 974)" fill="#a5a5af" font-size="64" font-family="Avenir-Medium, Avenir" font-weight="500"><tspan x="0" y="0">NETWORKS</tspan></text>
    <text id="ACCESS" transform="translate(260 908)" fill="#a5a5af" font-size="64" font-family="Avenir-Medium, Avenir" font-weight="500"><tspan x="0" y="0">ACCESS</tspan></text>
  </g>
</svg>
