<?xml version="1.0" encoding="UTF-8"?>
<!DOCTYPE svg PUBLIC "-//W3C//DTD SVG 1.1//EN" "http://www.w3.org/Graphics/SVG/1.1/DTD/svg11.dtd">
<svg version="1.1" xmlns="http://www.w3.org/2000/svg" xmlns:xlink="http://www.w3.org/1999/xlink" x="0" y="0" width="200" height="43" viewBox="0, 0, 200, 43">
  <g id="Layer_2" transform="translate(-0, -53.5)">
    <path d="M175,53.5 L173.3,59.7 L164.4,59.7 L155.9,88.9 L147.3,88.9 L155.9,59.7 L147,59.7 L148.8,53.5 z" fill="#A5A5AF" id="_Path_"/>
    <path d="M116.3,53.5 L107.8,82.7 L124.7,82.7 L122.8,88.9 L97.4,88.9 L107.8,53.5 z" fill="#A5A5AF" id="_Path_2"/>
    <path d="M32,83 L19.5,83 L6.1,96.5 L0,91.2 L37.1,53.5 L49.1,53.5 L38.8,88.9 L32,83 z M33.8,76.8 L37.5,64.7 L25.5,76.8 L33.8,76.8 z" fill="#A5A5AF" id="_Compound_Path_"/>
    <path d="M136.7,53.5 L132.5,67.9 L128.3,53.5 L119.9,53.5 L128.2,82.5 L126.4,88.9 L134.9,88.9 L145.2,53.5 z" fill="#A5A5AF" id="_Path_3"/>
    <path d="M102.4,59.7 L89.5,59.7 L87.6,66.4 L100.5,66.4 L98.8,72.1 L85.9,72.1 L82.9,82.7 L95.7,82.7 L93.9,88.9 L72.5,88.9 L82.8,53.5 L104.3,53.5 z" fill="#A5A5AF" id="_Path_4"/>
    <path d="M63.6,53.5 C71.6,53.5 78.4,56.5 76,65.3 L72.5,77.2 C69.2,87 67.1,88.9 56.6,88.9 L42.6,88.9 L52.9,53.5 L63.6,53.5 L63.6,53.5 z M57.6,82.6 C60.7,82.6 62.4,82.2 63.4,79.1 L67.8,64.1 C68.5,61.7 67.3,59.8 64.2,59.8 L59.4,59.8 L52.8,82.7 L57.6,82.6 L57.6,82.6 z" fill="#A5A5AF" id="_Compound_Path_2"/>
    <path d="M198.2,59.7 L185.3,59.7 L183.3,66.4 L196.2,66.4 L194.6,72.1 L181.7,72.1 L178.6,82.7 L191.5,82.7 L189.7,88.9 L168.2,88.9 L178.6,53.5 L200,53.5 z" fill="#A5A5AF" id="_Path_5"/>
  </g>
</svg>
