<svg xmlns="http://www.w3.org/2000/svg" width="436" height="38.471" viewBox="0 0 436 38.471">
  <g id="Group_6" data-name="Group 6" transform="translate(-258 -381)">
    <g id="Group_5" data-name="Group 5" transform="translate(258 381)">
      <path id="Path_4" data-name="Path 4" d="M25.265-90.332C22.284-88.913,22-87.777,22-76.847v11.782H33.64v-8.11H46.131v8.11H57.487V-77.131c0-11.782-.142-12.207-3.691-13.485C48.97-92.461,29.239-92.319,25.265-90.332ZM46.131-75.286H33.64V-89.426H46.131Z" transform="translate(-22 103.391)" fill="#a5a5af"/>
      <path id="Path_5" data-name="Path 5" d="M75.555-90.48C73.426-89.344,73-87.073,73-77.563c0,9.085.426,11.214,1.7,9.936,2.271-2.271,8.659-2.129,14.9.426,11.5,4.826,14.621,2.413,14.621-11.5V-89.06l-4.684.852A21.677,21.677,0,0,1,89.466-89.77C83.22-92.325,79.1-92.609,75.555-90.48Z" transform="translate(-0.607 103.397)" fill="#a5a5af"/>
      <path id="Path_6" data-name="Path 6" d="M124.03-90h6.347v24.841h12.066L142.418-90h6.437v-1.7H124.03S124.019-90.965,124.03-90Z" transform="translate(20.796 103.482)" fill="#a5a5af"/>
      <path id="Path_7" data-name="Path 7" d="M171-78.515V-65.03h11.356V-77.805h11.356V-65.03h11.356V-92H193.712v12.775H182.356V-92H171Z" transform="translate(40.501 103.356)" fill="#a5a5af"/>
      <path id="Path_8" data-name="Path 8" d="M226.265-90.581C223.284-89.3,223-88.309,223-78.657c0,13.343.426,13.627,19.731,13.627h14.337v-4.258c0-3.975-.284-4.258-5.678-4.258-5.11,0-5.678.284-5.678,3.549,0,3.123-.568,3.549-5.678,3.549h-5.678V-78.072h12.065v-1.39H234.356V-90.581h5.678c5.11,0,5.678.284,5.678,3.549,0,3.123.568,3.549,5.678,3.549,5.394,0,5.678-.284,5.678-4.258V-92l-13.769.142C235.633-91.858,227.968-91.29,226.265-90.581Z" transform="translate(62.314 103.356)" fill="#a5a5af"/>
      <path id="Path_9" data-name="Path 9" d="M277.265-90.622C274.284-89.345,274-88.351,274-77.137v12.065h11.356V-89.913h11.356v24.841h11.214V-89.913h13.059v24.841H332.2V-77.137c0-11.782-.142-12.207-3.691-13.485C323.965-92.326,281.523-92.326,277.265-90.622Z" transform="translate(83.707 103.398)" fill="#a5a5af"/>
      <text id="TM" transform="translate(422 9)" fill="#a5a5af" font-size="9" font-family="HelveticaNeue, Helvetica Neue"><tspan x="0" y="0">TM</tspan></text>
    </g>
  </g>
</svg>

