<svg xmlns="http://www.w3.org/2000/svg" width="999.066" height="489.171" viewBox="0 0 999.066 489.171">
  <g id="AppleTV" transform="translate(-6.163 -10.1)">
    <path id="Path_1" data-name="Path 1" d="M336.524,268.245c.687,73.461,64.536,98.177,65.223,98.521a271.508,271.508,0,0,1-33.641,69c-20.253,29.522-41.193,59.044-74.491,59.73-32.611.687-42.91-19.224-80.327-19.224-37.074,0-48.745,18.537-79.64,19.91-31.582,1.03-55.954-32.268-76.551-61.79C15.559,373.974-16.365,263.782,26.544,189.634c21.283-37.074,59.387-60.417,100.58-60.76,31.238-.687,61.1,21.283,80.327,21.283s55.268-26.089,93.028-22.313c15.791.687,60.417,6.522,88.909,48.059-2.4,1.373-53.208,30.895-52.865,92.342M275.42,87.681c16.821-20.6,28.492-49.089,25.4-77.581-24.373,1.03-53.895,16.134-71.745,36.731-15.791,18.194-29.522,47.372-25.746,75.178,27.119,2.06,55.268-14.074,72.088-34.328" transform="translate(0 0)" fill="#a5a5af"/>
    <path id="Path_2" data-name="Path 2" d="M322.17,480.228a239.745,239.745,0,0,1-64.536,8.582c-51.148,0-76.551-28.835-76.551-86.849V146.219H136.8V99.876h46.686V39.459L244.932,14.4v85.819h71.058v46.342H245.276V388.229c0,18.537,3.089,31.238,8.925,38.79S270.678,438,285.439,438c8.582,0,20.6-1.716,36.731-4.806Z" transform="translate(317.811 10.461)" fill="#a5a5af"/>
    <path id="Path_3" data-name="Path 3" d="M407.648,422.641H332.127L193.1,39.543h67.969l84.1,249.219c3.089,9.612,11.328,37.417,24.373,83.76L381.9,330.986l13.731-41.88L482.826,39.2h67.626Z" transform="translate(454.777 70.794)" fill="#a5a5af"/>
  </g>
</svg>
