<svg xmlns="http://www.w3.org/2000/svg" width="402.141" height="120.863" viewBox="0 0 402.141 120.863">
  <g id="Group_8" data-name="Group 8" transform="translate(-301.569 -825)">
    <g id="Araknis_LogoNEW" transform="translate(290.363 1024)">
      <path id="Path_27" data-name="Path 27" d="M338.336-198.028l-1.336.911v43.061c0,38.324.121,43.122.972,43.972a2.8,2.8,0,0,0,4.13,0c.79-.729.972-2.429.972-8.624v-7.713l6.377-6.377c6.316-6.316,6.377-6.316,7.531-5.162.668.668,6.134,7.227,12.208,14.576s11.479,13.6,11.965,13.848a3.035,3.035,0,0,0,4.191-1.7c.486-2,.607-1.883-13.119-18.524l-11.661-14.151,12.511-12.511c8.26-8.26,12.511-12.937,12.511-13.787a3.8,3.8,0,0,0-3.34-3.28c-.729,0-8.685,7.531-20.164,18.949l-19.01,19.01v-61.585l-1.336-.911a5.819,5.819,0,0,0-1.7-.972A5.819,5.819,0,0,0,338.336-198.028Z" transform="translate(-122.256)" fill="#a5a5af"/>
      <path id="Path_28" data-name="Path 28" d="M552.984-186.708c-2.065,2.915-.547,7.774,2.369,7.774,2.186,0,3.34-1.579,3.34-4.494C558.693-187.619,555.049-189.684,552.984-186.708Z" transform="translate(-206.688 -4.275)" fill="#a5a5af"/>
      <path id="Path_29" data-name="Path 29" d="M46.386-152.846c-18.221,6.013-26.238,27.877-16.7,45.916,4.009,7.531,12.511,13.544,21.2,15a28.608,28.608,0,0,0,24.233-8.017l3.583-3.523v4.98c0,4.13.182,5.223,1.093,6.013,1.4,1.275,2.794,1.336,4.009.061.85-.85.972-4.434.972-30.55,0-22.168-.182-29.76-.729-30.307A3.735,3.735,0,0,0,81.734-154c-2.551,0-3.037,1.033-3.037,6.438v4.98l-3.34-3.219a32.74,32.74,0,0,0-7.9-5.527c-4.312-2.126-5.041-2.308-11.115-2.49C51.245-153.939,49.119-153.757,46.386-152.846ZM64.91-145.8a27.125,27.125,0,0,1,11.175,11.6,25.731,25.731,0,0,1-5.831,30.125c-4.737,4.373-8.989,6.134-15.305,6.134a15.3,15.3,0,0,1-8.564-1.822,23,23,0,0,1-11.843-11.6c-2-4.009-2.308-5.162-2.49-10.143-.3-6.863.729-10.811,4.069-15.913a24.059,24.059,0,0,1,10.932-9.11c2.915-1.215,4.191-1.4,8.867-1.215C60.477-147.562,61.995-147.258,64.91-145.8Z" transform="translate(0 -17.669)" fill="#a5a5af"/>
      <path id="Path_30" data-name="Path 30" d="M151.607-152.852c-.364.79-.607,11.418-.607,30.307,0,27.392.061,29.153,1.093,30.064,1.4,1.275,2.794,1.336,4.009.061.85-.79.972-3.037.972-15.366,0-14.091.061-14.516,1.579-18.221,4.98-12.39,13.119-20.528,21.5-21.622,4.92-.668,5.466-.911,5.831-2.369a4.216,4.216,0,0,0-.364-2.733c-1.4-2.612-10.811-.972-16.945,2.915a49.716,49.716,0,0,0-10.2,10.082l-1.336,1.822v-7.349c-.061-4.8-.3-7.531-.79-8.017C155.191-154.431,152.336-154.188,151.607-152.852Z" transform="translate(-49.224 -17.663)" fill="#a5a5af"/>
      <path id="Path_31" data-name="Path 31" d="M232.219-152.846c-13.18,4.251-22.411,18.828-20.832,33.1C213.512-99.7,232.1-87.009,250.2-93.265c4.13-1.4,9.961-5.284,12.451-8.321l1.883-2.308v5.284c0,3.948.243,5.466.972,6.195a2.6,2.6,0,0,0,4.069-.121c.911-1.033,1.032-4.009,1.032-30.55,0-22.108-.182-29.639-.729-30.185a3.735,3.735,0,0,0-2.308-.729c-2.551,0-3.037,1.033-3.037,6.62v5.162l-2.733-2.915a27.84,27.84,0,0,0-21.2-8.807A30.507,30.507,0,0,0,232.219-152.846Zm18.828,7.349c14.7,7.835,17.8,28.06,6.134,40.389-9.11,9.657-22.715,9.778-32.19.3-12.815-12.754-8.685-34.74,7.835-41.725,2.976-1.215,4.251-1.4,8.928-1.215C246.613-147.562,247.645-147.319,251.046-145.5Z" transform="translate(-72.865 -17.669)" fill="#a5a5af"/>
      <path id="Path_32" data-name="Path 32" d="M439.729-153.277c-.547.547-.729,8.138-.729,30.307,0,26.116.121,29.7.972,30.55a2.606,2.606,0,0,0,4.069-.121c.85-.911.972-3.7,1.154-21.075l.182-20.043,1.64-3.037c4.859-9.11,14.941-13.362,23.808-10.021a21.173,21.173,0,0,1,12.026,12.268c.425,1.215.85,9.657,1.033,22.047l.364,20.043,1.64.547a2.305,2.305,0,0,0,2.915-.547c1.154-1.033,1.215-1.761,1.215-19.435,0-10.082-.3-19.86-.607-21.622a26.167,26.167,0,0,0-14.394-18.342c-3.826-1.822-4.616-1.944-10.507-1.944s-6.681.121-10.386,1.883a36.018,36.018,0,0,0-6.559,4.191l-2.49,2.247v-3.1a14.041,14.041,0,0,0-.607-4.373C443.737-154.188,440.883-154.431,439.729-153.277Z" transform="translate(-162.306 -17.663)" fill="#a5a5af"/>
      <path id="Path_33" data-name="Path 33" d="M552.972-153.021c-.85.85-.972,4.373-.972,30.064,0,28.3.061,29.153,1.215,30.307a4.085,4.085,0,0,0,2.126,1.215,4.084,4.084,0,0,0,2.126-1.215c1.154-1.154,1.215-2,1.215-30.125,0-18.706-.243-29.274-.607-30.064C557.284-154.236,554.308-154.418,552.972-153.021Z" transform="translate(-206.676 -17.676)" fill="#a5a5af"/>
      <path id="Path_34" data-name="Path 34" d="M603.329-153.28a22.231,22.231,0,0,0-10.021,5.648c-2.976,3.462-3.948,5.77-4.009,9.778a12.385,12.385,0,0,0,6.134,11.115c4.191,2.733,6.256,3.462,14.7,5.284,10.264,2.247,13,3.523,16.338,7.835,2.551,3.34,1.458,8.564-2.429,11.479a20.257,20.257,0,0,1-16.4,4.069c-4.494-.85-7.774-2.186-13.362-5.527-3.34-2-4.251-2.369-5.284-1.822a3.237,3.237,0,0,0-1.518,3.887c.182.547,2.126,2.126,4.251,3.523,10.811,6.985,22.229,8.381,31.7,3.7,6.924-3.4,10.446-8.5,10.446-15.123,0-9.535-6.5-14.759-21.986-17.674-7.9-1.518-12.086-3.28-14.516-6.074-1.7-1.944-1.883-2.429-1.64-5.1.243-2.429.729-3.4,2.672-5.405,3.1-3.158,6.742-4.494,12.39-4.494a15.176,15.176,0,0,1,8.5,1.944c2.186,1.093,4.92,2.551,6.073,3.28,1.579.972,2.672,1.215,3.826.911a2.766,2.766,0,0,0,1.275-4.677c-1.64-1.822-7.9-5.162-11.722-6.256A41.1,41.1,0,0,0,603.329-153.28Z" transform="translate(-220.531 -17.721)" fill="#a5a5af"/>
      <path id="Path_35" data-name="Path 35" d="M312.1-24.005c-.364.425-.729,2.672-.85,4.98l-.182,4.191-3.523-4.737c-2.794-3.644-3.826-4.677-4.859-4.494-1.275.182-1.336.547-1.518,5.952-.182,6.863.121,8.685,1.579,8.381.85-.182,1.093-1.093,1.336-4.98l.3-4.859,3.523,4.737c5.588,7.349,6.5,7.045,6.5-2.429,0-4.494-.243-6.377-.85-6.863S312.587-24.612,312.1-24.005Z" transform="translate(-108.169 -68.526)" fill="#a5a5af"/>
      <path id="Path_36" data-name="Path 36" d="M439.285-24.042c-.182.547.729,3.887,2,7.47,1.944,5.284,2.612,6.5,3.583,6.5s1.518-.911,2.733-4.373a47.144,47.144,0,0,1,1.883-4.737c.243-.182,1.154,1.822,2.065,4.555,1.4,4.191,1.822,4.92,2.855,4.737,1.7-.243,6.62-13.665,5.284-14.455-1.275-.85-2.065.243-3.583,5.1-.79,2.49-1.579,4.434-1.822,4.312a28.167,28.167,0,0,1-1.822-4.8c-1.336-4.251-2.612-5.952-3.644-4.8a36.718,36.718,0,0,0-2.126,5.648l-1.7,5.162L443.233-19C441.532-24.042,440.075-25.925,439.285-24.042Z" transform="translate(-162.409 -68.368)" fill="#a5a5af"/>
      <path id="Path_37" data-name="Path 37" d="M502.766-23.937C500.215-22.662,499-20.293,499-16.649c0,2.369.3,3.1,2.065,4.859,1.822,1.822,2.429,2.065,5.162,2.065,2.672,0,3.4-.3,5.223-1.944a7.073,7.073,0,0,0,1.944-8.5A7.807,7.807,0,0,0,502.766-23.937Zm7.349,3.34c2.49,3.037.3,8.442-3.523,8.442a4.842,4.842,0,0,1-4.98-4.373c-.3-1.944-.061-2.49,1.579-4.191,1.64-1.579,2.247-1.822,3.887-1.518A6.143,6.143,0,0,1,510.115-20.6Z" transform="translate(-185.865 -68.412)" fill="#a5a5af"/>
      <path id="Path_38" data-name="Path 38" d="M598.784-24.276c-.547.3-.729,2.369-.607,7.41.182,6.013.3,6.924,1.275,7.106.79.182,1.033-.243,1.033-1.883a4.119,4.119,0,0,1,1.275-3.219c1.4-1.275,1.4-1.275,5.223,3.644.85,1.032,1.7,1.579,2.308,1.336,1.4-.486,1.154-1.154-1.518-4.555a17.039,17.039,0,0,1-2.429-3.644,8.2,8.2,0,0,1,2.126-2.429c2.126-1.822,2.672-3.28,1.518-4.009-.364-.243-2.369,1.336-4.555,3.4l-3.948,3.766v-3.4C600.485-24.216,600.06-25.066,598.784-24.276Z" transform="translate(-224.793 -68.498)" fill="#a5a5af"/>
      <path id="Path_39" data-name="Path 39" d="M646.644-24.514a4.332,4.332,0,0,0-3.037,4.191c0,2.308,1.458,3.583,4.737,4.251,2.247.486,3.462,1.64,2.915,3.037-.364.972-2.429.972-6.559-.061-1.336-.364-1.7-.243-1.7.547,0,1.336,3.1,2.794,5.891,2.794,6.62,0,7.47-6.985,1.093-8.564-3.462-.85-4.555-2.065-3.158-3.4.85-.85,1.336-.911,3.462-.243,3.948,1.154,5.223-.547,1.518-2.126A6.835,6.835,0,0,0,646.644-24.514Z" transform="translate(-242.407 -68.382)" fill="#a5a5af"/>
      <path id="Path_40" data-name="Path 40" d="M351.082-16.894l.182,7.167h5.162c4.434,0,5.162-.121,5.345-1.032.182-.972-.3-1.093-4.069-1.093H353.39v-1.822c0-1.7.061-1.761,3.462-1.944,2.733-.121,3.583-.425,3.7-1.215.182-.85-.364-1.032-3.34-1.215-3.462-.182-3.523-.182-3.523-2v-1.822l4.13-.182c3.1-.121,4.069-.364,4.069-1.032,0-.729-1.093-.911-5.466-.911H350.9Z" transform="translate(-127.714 -68.714)" fill="#a5a5af"/>
      <path id="Path_41" data-name="Path 41" d="M394.183-22.968c.121.79.85,1.154,2.429,1.275l2.247.182.182,5.891c.182,5.041.364,5.891,1.275,6.074s1.032-.425,1.032-5.891V-21.51l2.247-.182c1.64-.121,2.369-.486,2.49-1.275.182-.911-.425-1.032-5.952-1.032S394-23.879,394.183-22.968Z" transform="translate(-144.698 -68.714)" fill="#a5a5af"/>
      <path id="Path_42" data-name="Path 42" d="M551.082-16.894c.182,6.134.3,7.167,1.215,7.349.79.182,1.033-.364,1.215-2.429.243-3.826,2.065-3.887,5.041-.243,1.276,1.579,2.612,2.794,3.1,2.794,1.518,0,1.518-1.275,0-3.34l-1.579-2.065,1.518-1.518c1.822-1.883,1.944-3.948.243-6.074C560.678-23.879,560.253-24,555.759-24H550.9Zm8.867-2.733c.243,1.944-1.458,3.1-4.312,2.794-1.761-.182-1.943-.364-2.126-2.49l-.182-2.308,3.219.182C559.524-21.267,559.767-21.145,559.95-19.627Z" transform="translate(-206.244 -68.714)" fill="#a5a5af"/>
    </g>
    <path id="Path_43" data-name="Path 43" d="M260.907,633.222s4.1-8.514,11.94-11.537,19.4-.555,19.4-.555" transform="translate(57 222)" fill="none" stroke="#a5a5af" stroke-linecap="round" stroke-width="5"/>
    <path id="Path_44" data-name="Path 44" d="M260.907,641.282s6.641-13.776,19.319-18.667,31.394-.9,31.394-.9" transform="translate(44 208.94)" fill="none" stroke="#a5a5af" stroke-linecap="round" stroke-width="5"/>
  </g>
</svg>
