<svg id="Layer_1" data-name="Layer 1" xmlns="http://www.w3.org/2000/svg" viewBox="0 0 658.59 75">
  <defs>
    <style>
      .cls-1 {
        fill: #a5a5af;
      }
    </style>
  </defs>
  <title>logo-audio-control</title>
  <g>
    <path class="cls-1" d="M658.59,61.15V75H.25V61.15Z"/>
    <path class="cls-1" d="M570.84,34.36c-3.81.29-7.55.33-11.2.92s-5.65,3.27-5.78,7.47c-.06,1.94,0,3.88,0,5.82s0,3.78,0,5.8H529.22V11.48h22.63v9.1l.24,0c.28-.83.54-1.67.84-2.5,2.42-6.66,7.08-8.87,14-8,3.85.48,3.84.62,3.84,4.55,0,4.92,0,9.84.16,14.8l.44-2.37c1.49-8,6.5-12.77,14.06-15.11,7.17-2.22,14.53-2.29,21.92-1.83a38.19,38.19,0,0,1,12.27,2.65c7.52,3.09,11.31,8.85,12,16.77a30.41,30.41,0,0,1-.94,11.53c-2.15,7.12-7.19,11.24-14.05,13.38a54.49,54.49,0,0,1-20.92,1.84,46.16,46.16,0,0,1-9.3-1.72C577,51.77,571.92,45.39,571,35.68Zm38.23-.79H609c0-.47,0-.95,0-1.42-.29-4.07-2.16-6.37-5.87-6.8-5.35-.63-9.61,1.45-9.48,8.17a15.83,15.83,0,0,0,.26,2.39c.68,3.93,3.32,6.12,7.4,6.2s6.67-2,7.49-6C608.93,35.26,609,34.41,609.08,33.57Z"/>
    <path class="cls-1" d="M0,54.51l3.34-9.82Q10.16,24.66,17,4.62c.28-.81.57-1.21,1.54-1.2,12.72,0,25.45,0,38.17,0l.76,0L74.3,54.42c-.54,0-1,.09-1.43.09-7.95,0-15.89,0-23.84,0-1.11,0-1.59-.34-1.84-1.39-.32-1.33-.84-2.61-1.17-3.93a1.19,1.19,0,0,0-1.35-1.09q-7.24,0-14.47,0a1.2,1.2,0,0,0-1.38,1c-.4,1.5-.86,3-1.4,4.45a1.46,1.46,0,0,1-1,.84C17.69,54.52,9,54.51,0,54.51ZM42.6,33.69,37.73,16.28,32.37,33.69Z"/>
    <path class="cls-1" d="M173.78,16.5c0-4.85,0-9.71,0-14.57,0-.32.54-.92.84-.92,7.61,0,15.23,0,22.84,0,0,0,.08,0,.23.14V54.43H173.91V51.13a5,5,0,0,0-.78.45,19.87,19.87,0,0,1-12.18,4.78,40.09,40.09,0,0,1-9.57-.63c-7-1.41-11.54-5.78-13.51-12.66a36.57,36.57,0,0,1-.25-19.61c2-7.72,7.46-12.29,15.38-13.22a31.57,31.57,0,0,1,10.58.2,19.18,19.18,0,0,1,9.32,5.11l1,1S174,16.54,173.78,16.5ZM160.22,34.14h.09c0,.61,0,1.23,0,1.84.36,3.92,2.82,6.43,6.48,6.62,4.82.26,7.52-1.48,8.21-5.51a16.39,16.39,0,0,0,.06-4.93,7.26,7.26,0,0,0-7.46-6.4c-4.12,0-6.53,2-7.22,6.11A22.35,22.35,0,0,0,160.22,34.14Z"/>
    <path class="cls-1" d="M350.31,35.27c0,5.84,0,11.42,0,17a1.41,1.41,0,0,1-.83,1,87.74,87.74,0,0,1-29.05,3A43.8,43.8,0,0,1,305.81,53c-9.07-4-13.48-11.2-14.24-20.83a32.14,32.14,0,0,1,1.71-14.52c2.67-6.79,7.82-10.84,14.55-13.12C315.35,2,323.13,1.67,331,2.14c5.94.35,11.86,1.06,17.79,1.62.47,0,.93.15,1.48.25V24.13c-2.14-.35-4.21-.74-6.29-1-5.54-.75-11.11-1.27-16.67-.39a17.8,17.8,0,0,0-5.44,1.87c-2.38,1.26-3.34,3.49-3.18,6.19a6.11,6.11,0,0,0,4,5.57c3.53,1.54,7.28,1.43,11,1.31A65.34,65.34,0,0,0,350.31,35.27Z"/>
    <path class="cls-1" d="M476.87,54.46H452.26c0-.54,0-1,0-1.54,0-5.77,0-11.54,0-17.32a18.45,18.45,0,0,0-.61-4.47,4.41,4.41,0,0,0-4.27-3.34c-5.06-.43-7.53,1.85-7.62,7.28-.1,5.91,0,11.83,0,17.74,0,.51,0,1,0,1.61h-24.6v-43h23.4v7.45a5.89,5.89,0,0,0,.43-.51c3.76-5.62,9.29-8,15.79-8.39a28.34,28.34,0,0,1,11.61,1.29,16.09,16.09,0,0,1,10.6,14.84c0,9.08,0,18.17,0,27.25C477,53.69,476.91,54,476.87,54.46Z"/>
    <path class="cls-1" d="M74.08,11.42H98.7c0,.55,0,1,0,1.55q0,11.64,0,23.27a12.67,12.67,0,0,0,.12,2.12A4.9,4.9,0,0,0,106,42.2c2.13-1,2.58-2.92,2.62-5,.07-4,0-7.95,0-11.92,0-4.58,0-9.16,0-13.85h24.07a3.31,3.31,0,0,1,.13.66c0,8.94.13,17.88-.12,26.82-.23,8.16-4.24,13.29-12.12,15.46a60.35,60.35,0,0,1-12.27,2,67.24,67.24,0,0,1-20-1.33,30,30,0,0,1-3.25-1c-7.22-2.64-11-7.78-11.06-15.47-.1-8.7,0-17.41,0-26.11C74,12.16,74.05,11.84,74.08,11.42Z"/>
    <path class="cls-1" d="M381.95,56.5c-5.81,0-11.52-.54-16.95-2.79-8.37-3.47-12.49-10-12.92-18.81a35.61,35.61,0,0,1,.7-9.14c1.6-7.39,6.67-11.62,13.64-13.8,7.21-2.25,14.62-2.32,22.06-1.85a38.1,38.1,0,0,1,12.27,2.66c7.51,3.1,11.38,8.89,11.9,16.82a38.3,38.3,0,0,1-.7,10.41c-1.67,7.73-7,12.16-14.31,14.45A51.69,51.69,0,0,1,381.95,56.5Zm8.21-22.86c-.09-6-2.7-8.69-8.33-8.39-4.09.22-6.51,2.32-7,6.37A15.19,15.19,0,0,0,375,36c.65,3.92,3.35,6.07,7.45,6.12s6.58-2,7.4-6C390,35.33,390.06,34.48,390.16,33.64Z"/>
    <path class="cls-1" d="M260.39,56.5c-7.1,0-13-.59-18.64-3.1-7.4-3.33-11.26-9.17-12.15-17.14a30.7,30.7,0,0,1,.47-10c1.66-7.62,6.65-12.05,13.85-14.29s14.53-2.3,21.91-1.84a37.45,37.45,0,0,1,12.4,2.71c7.21,3,11,8.55,11.87,16.28a30.55,30.55,0,0,1-.76,11.39c-2.14,7.89-7.75,12.13-15.28,14.26A50.05,50.05,0,0,1,260.39,56.5Zm7.25-23.57c-.44-4.87-2-7.08-6-7.58-4.2-.54-8.78.58-9.52,6.05a14.54,14.54,0,0,0,.35,5.32c.91,3.7,3.76,5.5,7.93,5.38a6.79,6.79,0,0,0,6.85-5.79A30.36,30.36,0,0,0,267.64,32.93Z"/>
    <path class="cls-1" d="M509.74,2.51v8.8H526.4a11.88,11.88,0,0,1,.13,1.19c0,4.78,0,9.56,0,14.34,0,1.08-.32,1.38-1.37,1.36-4.21,0-8.42,0-12.63,0h-1.71c0,3.75-.14,7.33.06,10.9C511,41,512.38,42,514.63,42c2.5,0,5-.18,7.5-.27.56,0,1.12,0,1.86,0-.81,3.58-1.59,7.05-2.39,10.52-.55,2.38-.57,2.37-2.9,2.76a99.26,99.26,0,0,1-20.06,1.42,22.47,22.47,0,0,1-5-.75c-5.34-1.44-8.06-5-8.12-10.53-.05-5.06,0-10.13,0-15.19,0-.52,0-1,0-1.75h-6.85c0-3,0-5.75,0-8.52,0-.37.49-.76.82-1.07q8.09-7.76,16.21-15.48a1.87,1.87,0,0,1,1-.61C501,2.49,505.25,2.51,509.74,2.51Z"/>
    <path class="cls-1" d="M658.54,54.46H634.43V1.07h24.11Z"/>
    <path class="cls-1" d="M203.18,54.38V12.14h24.06V54.38Z"/>
    <path class="cls-1" d="M215,0c3.12,0,6.24,0,9.35,0,1.37,0,2.19.54,2.22,2,0,1.7.11,3.4,0,5.09-.13,1.87-.61,2.24-2.53,2.25-5.39,0-10.77,0-16.16,0-.85,0-1.7,0-2.55,0-1.34,0-2.14-.63-2.14-2.06,0-1.7-.07-3.4,0-5.1S203.77,0,205.5,0C208.67,0,211.83,0,215,0Z"/>
  </g>
</svg>
