<?xml version="1.0" encoding="utf-8"?>
<!-- Generator: Adobe Illustrator 23.0.2, SVG Export Plug-In . SVG Version: 6.00 Build 0)  -->
<svg version="1.0" id="Layer_1" xmlns="http://www.w3.org/2000/svg" xmlns:xlink="http://www.w3.org/1999/xlink" x="0px" y="0px"
	 width="200px" height="133.65px" viewBox="0 0 200 133.65" style="enable-background:new 0 0 200 133.65; fill:#A5A5AF" xml:space="preserve">
<g>
	<g>
		<path d="M196.88,133.65H3.12c-1.72,0-3.12-1.4-3.12-3.12V3.12C0,1.4,1.4,0,3.12,0h193.76C198.6,0,200,1.4,200,3.12v127.4
			C200,132.25,198.6,133.65,196.88,133.65z M3.12,0.94c-1.2,0-2.19,0.98-2.19,2.19v127.4c0,1.21,0.98,2.19,2.19,2.19h193.76
			c1.2,0,2.19-0.98,2.19-2.19V3.12c0-1.21-0.98-2.19-2.19-2.19C196.88,0.94,3.12,0.94,3.12,0.94z"/>
	</g>
	<g>
		<path d="M16.78,110.42l-2.17-4.4c-0.49-0.98-1.09-2.05-2.01-2.35v6.75h-1.71v-13.9c0.86-0.5,1.95-0.78,3.07-0.78
			c2.6,0,4.3,1.51,4.3,4.06c0,2.1-1.45,3.57-3.49,3.91v0.04c0.59,0.5,1.14,1.37,1.54,2.12l2.4,4.54
			C18.71,110.42,16.78,110.42,16.78,110.42z M13.98,96.9c-0.52,0-0.97,0.08-1.38,0.27v5.63c0.34,0.09,0.67,0.13,1.03,0.13
			c1.79,0,2.96-1.26,2.96-3.09C16.59,98.08,15.68,96.9,13.98,96.9z"/>
		<path d="M29.21,110.42V95.96h5.84v1.26h-4.1v5.11h3.7v1.24h-3.7v5.59h4.1v1.26C35.05,110.42,29.21,110.42,29.21,110.42z"/>
		<path d="M48.07,110.63c-1.07,0-2.17-0.29-2.94-0.8l0.49-1.2c0.58,0.4,1.51,0.63,2.29,0.63c1.49,0,2.42-1.14,2.42-2.57
			c0-3.59-5.07-2.75-5.07-7.34c0-2.21,1.64-3.62,3.83-3.62c1.03,0,1.98,0.29,2.61,0.8l-0.44,1.1c-0.53-0.38-1.22-0.61-1.98-0.61
			c-1.37,0-2.31,0.97-2.31,2.33c0,3.53,5.13,2.67,5.13,7.32C52.09,109.03,50.43,110.63,48.07,110.63z"/>
		<path d="M62.97,110.42V95.96h1.75v14.46H62.97z"/>
		<path d="M79.36,110.63c-1.37,0-2.61-0.34-3.23-0.8V96.52c0.82-0.46,1.81-0.78,3.19-0.78c3.38,0,5.21,2.88,5.21,7.29
			C84.53,107.46,82.87,110.63,79.36,110.63z M79.27,96.97c-0.55,0-1.09,0.12-1.43,0.27v11.81c0.31,0.17,0.88,0.3,1.45,0.3
			c2.39,0,3.45-2.35,3.45-6.33C82.75,99.17,81.54,96.97,79.27,96.97z"/>
		<path d="M95.49,110.42V95.96h5.85v1.26h-4.1v5.11h3.71v1.24h-3.71v5.59h4.1v1.26C101.34,110.42,95.49,110.42,95.49,110.42z"/>
		<path d="M119.27,110.42l-5.17-10.78c-0.38-0.8-0.54-1.41-0.63-1.66h-0.04c0.02,0.29,0.08,0.88,0.08,1.68v10.76h-1.45V95.95h1.89
			l4.84,10.19c0.27,0.57,0.52,1.26,0.63,1.6h0.04c-0.02-0.27-0.09-0.86-0.09-1.66V95.95h1.46v14.46L119.27,110.42L119.27,110.42z"/>
		<path d="M135.56,97.22v13.2h-1.75v-13.2h-2.54v-1.26h6.83v1.26H135.56z"/>
		<path d="M148.6,110.42V95.96h1.75v14.46H148.6z"/>
		<path d="M168.77,110.42l-1.13-4.4h-4.21l-1.15,4.4h-1.64l4.14-14.46h1.66l4.15,14.46H168.77z M165.95,99.57
			c-0.17-0.7-0.31-1.43-0.4-2h-0.04c-0.07,0.57-0.19,1.28-0.38,2l-1.41,5.32h3.61L165.95,99.57z"/>
		<path d="M180.87,110.42V95.96h1.75v13.2h3.76v1.26H180.87z"/>
	</g>
	<g>
		<path d="M150.03,32.89h-4.22v2.73h4.22c0.76,0,1.37-0.61,1.37-1.36C151.4,33.5,150.79,32.89,150.03,32.89z"/>
		<path d="M125.14,37.85h-4.22v2.98h4.22c0.82,0,1.49-0.67,1.49-1.49C126.63,38.52,125.96,37.85,125.14,37.85z"/>
		<path d="M136.07,32.64c-1.58,0-2.86,1.28-2.86,2.85v1.37h5.71v-1.37C138.92,33.92,137.64,32.64,136.07,32.64z"/>
		<path d="M126.51,34.25c0-0.75-0.61-1.37-1.37-1.37h-4.22v2.73h4.22C125.89,35.62,126.51,35.01,126.51,34.25z"/>
		<path d="M111.87,23.86V73.8h74.91V23.86H111.87z M125.14,43.07h-6.46V30.65h6.46c1.99,0,3.6,1.61,3.6,3.6
			c0,0.95-0.37,1.81-0.97,2.45c0.68,0.67,1.1,1.61,1.1,2.64C128.86,41.4,127.2,43.07,125.14,43.07z M141.15,43.07h-2.23V39.1h-5.71
			v3.97h-2.24v-7.57c0-2.81,2.28-5.09,5.09-5.09c2.81,0,5.09,2.28,5.09,5.09V43.07z M153.76,43.07h-2.23v-3.72
			c0-0.82-0.67-1.49-1.49-1.49h-4.22v5.21h-2.23V30.65h6.45c1.99,0,3.6,1.61,3.6,3.6c0,0.95-0.37,1.81-0.97,2.45
			c0.68,0.67,1.1,1.61,1.1,2.64V43.07z M164.93,43.07h-3.72c-3.43,0-6.21-2.78-6.21-6.21c0-3.43,2.78-6.21,6.21-6.21h3.72v2.24
			h-3.72c-2.2,0-3.98,1.78-3.98,3.97s1.78,3.97,3.98,3.97h3.72V43.07z M181.82,38.1h-1.99c-0.73,0-1.37,0.45-1.62,1.1
			c-0.94,2.41-3.28,4.11-6.01,4.11c-2.74,0-5.07-1.7-6.02-4.1c-0.25-0.65-0.88-1.11-1.62-1.11h-1.99v-2.49h1.99
			c0.74,0,1.37-0.46,1.62-1.11c0.94-2.4,3.28-4.1,6.02-4.1c2.73,0,5.07,1.71,6.01,4.11c0.25,0.64,0.88,1.1,1.62,1.1h1.99V38.1z"/>
		<path d="M172.2,32.64c-2.33,0-4.22,1.89-4.22,4.22c0,2.33,1.89,4.22,4.22,4.22c2.33,0,4.22-1.89,4.22-4.22
			C176.42,34.53,174.53,32.64,172.2,32.64z M172.2,39.25c-1.32,0-2.39-1.07-2.39-2.39c0-1.31,1.07-2.38,2.39-2.38
			c1.32,0,2.38,1.07,2.38,2.38C174.58,38.18,173.51,39.25,172.2,39.25z"/>
	</g>
</g>
</svg>
