<svg id="Layer_1" data-name="Layer 1" xmlns="http://www.w3.org/2000/svg" viewBox="0 0 407.31 75">
  <defs>
    <style>
      .cls-1 {
        fill: #a5a5af;
      }
    </style>
  </defs>
  <title>logo-brown-jordan</title>
  <g>
    <g>
      <path class="cls-1" d="M31.6,25.38a35.24,35.24,0,0,1,.85,12.94c4.62-1.11,11.59-1.94,21.44-2.56v-5.3A64.46,64.46,0,0,1,43,29,64.36,64.36,0,0,1,31.6,25.38Z"/>
      <g>
        <polygon class="cls-1" points="39.12 61.87 40.95 61.84 40.93 59.22 39.12 61.87"/>
        <path class="cls-1" d="M34.84,57.63a1.34,1.34,0,1,0-.05,2.68A1.34,1.34,0,0,0,36.15,59,1.38,1.38,0,0,0,34.84,57.63Z"/>
        <path class="cls-1" d="M37.5,0A37.5,37.5,0,1,0,75,37.5,37.5,37.5,0,0,0,37.5,0ZM28.58,63.53l0-5.77-1.11,0,.43-.77h1.47l0,6.53Zm7.67-2.85-2.22,3-.6-.42,1.73-2.36a1.18,1.18,0,0,1-.63.14,2,2,0,0,1-1.91-2,2.16,2.16,0,0,1,2.16-2.16A2.19,2.19,0,0,1,37,59,2.94,2.94,0,0,1,36.25,60.68Zm5.49,2.85h-.79l0-1-3.18,0,4-5.85,0,5.13.72,0,0,.73-.76,0Zm3.94.14a2.26,2.26,0,0,1-2-1.15l.61-.59a1.68,1.68,0,0,0,1.45,1,1.56,1.56,0,0,0,1.55-1.57,1.53,1.53,0,0,0-2.73-1L45.37,57H48l0,.76-2.06,0-.38,1.32.44-.05a2.19,2.19,0,0,1,2.1,2.29A2.32,2.32,0,0,1,45.68,63.67Zm12.3-10h-4.1V39.88c-11.78.74-19.39,1.81-23.22,3.25-6.46,2.43-8.9,11-8.93,11.07l-4-1.09c.11-.41,2.75-9.75,10.33-13.36a30.35,30.35,0,0,0-1.17-15.49,4.12,4.12,0,0,0-1.79-2.11,52.31,52.31,0,0,1-7.83-5.56L20,13.49A54.8,54.8,0,0,0,43.72,25a55.83,55.83,0,0,0,12.16,1.43L58,26.35v27.3Z"/>
      </g>
    </g>
    <g>
      <path class="cls-1" d="M96.62,25.05h3.14c4.85,0,9.42,1.26,9.42,7.06A5.53,5.53,0,0,1,106.42,37v.07a6.62,6.62,0,0,1,5.15,6.52c0,5.15-4.4,7.2-8.94,7.2h-6Zm3.21,11.4h.82c3,0,5.53-.61,5.53-4.3s-2.46-4.23-5.46-4.23h-.89Zm0,11.46h2.46c3,0,6.07-.89,6.07-4.54S104.68,39,101.81,39h-2Z"/>
      <path class="cls-1" d="M135.11,50.78h-3.89l-7.58-10.88h-1.33V50.78H119.1V25.05H123c2.29,0,4.74,0,6.79,1.19a7.12,7.12,0,0,1,3.38,6.14,7,7,0,0,1-6.18,7.2Zm-12.8-13.55h1c3.28,0,6.82-.61,6.82-4.71s-3.82-4.61-7-4.61h-.85Z"/>
      <path class="cls-1" d="M166.46,37.92a13.48,13.48,0,0,1-27,0,13.48,13.48,0,0,1,27,0Zm-3.21,0a10.27,10.27,0,1,0-20.54,0,10.27,10.27,0,1,0,20.54,0Z"/>
      <path class="cls-1" d="M180.79,43.48l7.27-19,7.27,19,7.2-18.43H206L195.33,51.8l-7.27-18.87L180.79,51.8,170.11,25.05h3.48Z"/>
      <path class="cls-1" d="M213.3,23.82l19.31,20.23v-19h3.21V51.84L216.5,31.6V50.78H213.3Z"/>
      <path class="cls-1" d="M266.85,25.05V41.4c0,4.95-1,9.93-7,9.93a7.55,7.55,0,0,1-4-1.13l1.6-2.73a4.27,4.27,0,0,0,2.56.85c3.69,0,3.62-4.3,3.62-6.93V25.05Z"/>
      <path class="cls-1" d="M300.43,37.92a13.48,13.48,0,0,1-27,0,13.48,13.48,0,0,1,27,0Zm-3.21,0a10.27,10.27,0,1,0-20.54,0,10.27,10.27,0,1,0,20.54,0Z"/>
      <path class="cls-1" d="M323.22,50.78h-3.89l-7.58-10.88h-1.33V50.78h-3.21V25.05h3.89c2.29,0,4.74,0,6.79,1.19a7.12,7.12,0,0,1,3.38,6.14,7,7,0,0,1-6.18,7.2Zm-12.8-13.55h1c3.28,0,6.82-.61,6.82-4.71s-3.82-4.61-7-4.61h-.85Z"/>
      <path class="cls-1" d="M330.51,25.05h5.32c7.88,0,14.43,4.16,14.43,12.73,0,8.77-6.41,13-14.54,13h-5.22Zm3.21,22.79h1.13c6.55,0,12.22-2.46,12.22-9.93S341.39,28,334.84,28h-1.13Z"/>
      <path class="cls-1" d="M360.26,44.33l-2.93,6.45h-3.45L366.17,24l12.28,26.82H375l-2.93-6.45ZM366.17,31,361.59,41.4h9.14Z"/>
      <path class="cls-1" d="M384.79,23.82,404.1,44.06v-19h3.21V51.84L388,31.6V50.78h-3.21Z"/>
    </g>
  </g>
</svg>
