<?xml version="1.0" encoding="UTF-8"?>
<!DOCTYPE svg PUBLIC "-//W3C//DTD SVG 1.1//EN" "http://www.w3.org/Graphics/SVG/1.1/DTD/svg11.dtd">
<svg version="1.1" xmlns="http://www.w3.org/2000/svg" xmlns:xlink="http://www.w3.org/1999/xlink" x="0" y="0" width="200.025" height="58.563" viewBox="0, 0, 200.025, 58.563">
  <g id="Layer_1" transform="translate(-0, 0)">
    <g>
      <path d="M146.925,34.963 L146.925,33.463 C147.025,33.863 147.325,34.163 147.625,34.263 C148.525,34.363 149.525,34.263 150.325,33.863 C150.325,33.263 150.025,32.663 149.425,32.263 C148.525,32.363 147.625,32.463 146.825,32.763 L146.825,18.463 L151.125,18.463 L151.125,12.863 L135.325,12.863 L135.325,18.463 L139.625,18.463 L139.625,29.863 C138.325,28.763 137.025,29.363 135.625,29.663 C136.925,31.063 138.125,30.563 139.625,30.363 L139.625,33.063 C133.825,33.463 127.925,35.063 122.725,36.263 C122.425,36.363 118.825,36.863 122.425,38.563 C124.725,39.663 126.625,41.463 127.925,43.663 C129.825,46.663 130.825,50.163 130.725,53.763 C130.725,54.763 130.425,55.863 131.425,56.663 C132.025,56.863 132.625,56.963 133.225,56.763 C140.025,55.163 146.825,53.663 153.725,51.663 C153.925,51.663 154.025,51.463 154.025,51.363 C154.625,48.063 153.125,39.063 146.925,34.963 z" fill="#A5A5AF"/>
      <path d="M99.625,24.063 C100.425,24.263 101.325,24.263 102.225,24.063 L120.425,21.163 C121.225,21.163 121.925,20.863 122.525,20.263 C123.025,19.363 122.525,18.563 122.225,17.763 C121.125,14.763 120.725,11.563 121.025,8.363 C121.125,6.763 121.425,5.263 121.625,3.663 C121.725,2.763 122.025,1.963 121.325,1.063 C120.425,0.763 119.425,0.763 118.425,1.063 C112.625,2.063 106.925,3.063 101.125,4.063 C99.525,4.163 98.225,5.363 98.025,6.863 C97.025,10.963 96.925,15.263 97.725,19.463 C98.025,21.163 98.625,22.663 99.625,24.063 z" fill="#A5A5AF"/>
      <path d="M121.525,22.163 C115.325,23.163 109.025,24.263 102.725,25.263 C102.025,25.263 101.425,25.563 101.025,26.063 C100.825,27.063 101.625,27.663 102.225,28.163 C104.825,30.463 107.625,32.463 110.725,34.063 C113.325,35.363 116.225,35.863 119.125,35.263 C123.425,34.463 127.625,33.863 131.925,33.063 C133.425,32.863 135.025,32.563 136.425,32.163 C136.625,32.063 136.725,31.863 136.625,31.563 C136.625,31.463 136.525,31.363 136.425,31.363 C134.925,30.463 133.625,29.763 132.325,28.963 C130.725,27.963 129.225,26.863 127.825,25.663 C126.425,24.563 125.325,23.063 123.825,22.163 C123.125,22.063 122.325,22.063 121.525,22.163 z" fill="#A5A5AF"/>
      <path d="M159.325,43.163 C158.225,43.463 157.225,43.863 156.225,44.363 C155.725,45.163 155.925,45.663 156.525,46.363 C157.725,46.063 158.825,45.663 159.825,45.163 C160.025,44.263 160.125,43.663 159.325,43.163 z" fill="#A5A5AF"/>
      <path d="M160.125,46.863 C159.025,47.063 157.925,47.363 156.825,47.863 C156.525,48.463 156.525,49.263 157.025,49.863 C158.325,49.463 159.625,49.363 160.625,48.563 C160.825,47.963 160.625,47.263 160.125,46.863 z" fill="#A5A5AF"/>
      <path d="M126.725,45.363 C125.725,45.763 124.725,45.963 124.125,46.863 C124.325,47.363 124.325,48.063 125.125,48.263 C125.925,48.063 126.725,47.663 127.425,47.163 C127.525,46.463 127.325,45.763 126.725,45.363 z" fill="#A5A5AF"/>
      <path d="M126.025,43.863 C125.925,43.263 125.425,42.663 124.825,42.563 L122.725,43.563 C122.525,44.263 122.825,45.063 123.525,45.363 C124.325,44.963 125.425,44.863 126.025,43.863 z" fill="#A5A5AF"/>
      <path d="M126.025,56.763 C125.725,57.363 125.725,58.063 126.125,58.563 C127.025,58.463 127.925,58.063 128.725,57.563 C129.225,56.963 129.125,56.163 128.525,55.663 C127.625,55.763 126.825,56.163 126.025,56.763 z" fill="#A5A5AF"/>
      <path d="M127.925,48.963 C126.925,49.063 126.025,49.363 125.225,49.963 C125.025,50.563 125.225,51.163 125.725,51.563 C126.625,51.463 127.425,51.163 128.125,50.663 C128.425,50.063 128.325,49.363 127.925,48.963 z" fill="#A5A5AF"/>
      <path d="M122.325,40.063 C121.425,40.363 120.625,40.863 119.925,41.463 C120.225,41.963 120.425,42.363 121.225,42.563 C122.125,42.363 123.025,41.963 123.725,41.363 C123.425,40.563 122.925,40.163 122.325,40.063 z" fill="#A5A5AF"/>
      <path d="M128.625,54.163 C128.825,53.463 128.925,52.963 128.325,52.463 C127.425,52.463 126.525,52.763 125.825,53.363 C125.625,53.963 125.725,54.563 126.025,55.063 C127.025,54.963 127.825,54.663 128.625,54.163 z" fill="#A5A5AF"/>
      <path d="M96.425,7.863 C96.825,7.263 97.225,6.863 96.825,6.163 C95.825,5.963 94.925,6.363 94.125,6.663 C93.725,7.263 93.525,7.863 94.125,8.463 L96.425,7.863 z" fill="#A5A5AF"/>
      <path d="M124.825,7.963 C125.425,7.563 125.725,6.863 125.425,6.163 C124.325,6.063 123.225,6.363 122.325,6.963 C122.325,7.363 122.025,7.763 122.525,8.263 C123.425,8.263 124.125,8.163 124.825,7.963 z" fill="#A5A5AF"/>
      <path d="M95.925,10.963 C96.325,10.463 96.725,9.963 96.325,9.163 C95.325,9.163 94.425,9.363 93.525,9.763 C93.425,10.063 93.325,10.263 93.225,10.563 C93.125,10.963 93.225,11.263 93.525,11.563 L95.925,10.963 z" fill="#A5A5AF"/>
      <path d="M126.325,0.063 C125.325,-0.137 124.425,0.163 123.525,0.663 C123.125,1.063 123.125,1.663 123.325,2.063 C126.125,1.963 126.325,1.863 126.325,0.063 z" fill="#A5A5AF"/>
      <path d="M125.825,3.063 C124.825,2.963 123.825,3.163 123.025,3.763 C122.725,4.163 122.625,4.663 122.925,5.163 C125.625,5.063 125.825,4.963 125.825,3.063 z" fill="#A5A5AF"/>
      <path d="M125.525,15.363 C124.925,15.863 123.825,15.363 123.225,16.263 C123.225,16.863 123.625,17.263 124.125,17.463 C124.925,17.363 125.725,17.163 126.425,16.763 C126.625,16.163 126.225,15.463 125.625,15.363 C125.625,15.363 125.625,15.363 125.525,15.363 z" fill="#A5A5AF"/>
      <path d="M125.125,11.063 C125.325,10.463 125.325,9.963 124.825,9.663 C124.025,9.463 123.125,9.663 122.525,10.063 C122.225,10.563 122.325,11.263 122.725,11.663 C123.525,11.663 124.325,11.463 125.125,11.063 z" fill="#A5A5AF"/>
      <path d="M125.325,20.263 C126.125,20.163 126.925,19.963 127.625,19.563 C127.825,18.963 127.525,18.663 127.125,18.163 C126.225,18.063 125.325,18.263 124.525,18.863 C124.425,19.563 124.725,20.063 125.325,20.263 z" fill="#A5A5AF"/>
      <path d="M128.825,25.163 C129.525,24.663 130.525,24.963 131.325,24.163 C131.125,23.663 130.725,23.163 130.125,23.063 C129.325,23.163 128.525,23.363 127.825,23.763 C127.725,24.463 128.125,24.763 128.825,25.163 z" fill="#A5A5AF"/>
      <path d="M126.825,22.663 C127.625,22.663 128.325,22.463 129.125,22.163 C129.225,21.563 128.925,21.063 128.425,20.863 C127.625,20.863 126.625,20.663 125.925,21.463 C125.825,22.063 126.225,22.563 126.825,22.663 z" fill="#A5A5AF"/>
      <path d="M100.425,32.063 C101.625,33.563 102.925,32.863 104.325,32.263 C103.025,30.563 101.725,31.763 100.425,32.063 z" fill="#A5A5AF"/>
      <path d="M125.625,13.963 C125.825,13.463 125.625,12.963 125.225,12.663 C124.425,12.463 123.525,12.563 122.725,12.963 C122.625,13.663 122.625,14.163 123.325,14.563 C124.025,14.163 124.925,14.463 125.625,13.963 z" fill="#A5A5AF"/>
      <path d="M134.125,26.263 C132.525,24.563 131.125,25.463 129.525,25.863 C131.125,27.463 132.425,26.463 134.125,26.263 z" fill="#A5A5AF"/>
      <path d="M105.825,35.263 C107.425,36.563 108.725,35.663 110.325,35.263 C108.525,33.763 107.325,34.763 105.825,35.263 z" fill="#A5A5AF"/>
      <path d="M132.725,27.963 C134.225,29.563 135.525,28.463 136.825,28.063 C135.525,26.863 134.225,27.463 132.725,27.963 z" fill="#A5A5AF"/>
      <path d="M103.025,33.563 C104.825,34.763 104.825,34.763 107.325,33.563 C105.825,32.363 104.625,33.363 103.025,33.563 z" fill="#A5A5AF"/>
      <path d="M108.925,36.863 C110.325,37.763 111.525,36.763 113.325,36.463 C111.325,35.463 110.625,35.563 108.925,36.863 z" fill="#A5A5AF"/>
      <path d="M112.425,37.963 C114.125,39.363 115.325,38.263 116.825,37.663 C115.125,36.063 113.925,37.263 112.425,37.963 z" fill="#A5A5AF"/>
      <path d="M117.025,39.363 C118.425,40.963 119.525,39.863 120.825,39.263 C119.225,37.363 118.225,38.663 117.025,39.363 z" fill="#A5A5AF"/>
      <path d="M99.425,31.463 C100.125,30.963 101.125,31.263 101.925,30.463 C101.725,29.963 101.325,29.463 100.725,29.363 C100.025,29.463 99.225,29.663 98.625,29.963 L98.425,28.863 C98.925,28.863 99.325,28.663 99.725,28.463 C99.825,27.863 99.525,27.363 99.025,27.163 L98.025,27.163 L95.925,12.963 L85.525,12.963 L81.825,40.863 L89.325,40.863 L89.725,35.863 L92.325,35.863 L92.725,40.863 L100.125,40.863 L98.625,30.963 C98.825,31.163 99.125,31.263 99.425,31.463 z M89.625,30.863 C89.825,28.363 90.325,24.463 91.025,19.163 C91.425,23.863 91.725,27.763 92.125,30.863 L89.625,30.863 z" fill="#A5A5AF"/>
      <path d="M159.125,29.063 L163.625,29.063 L163.625,23.763 L159.125,23.763 L159.125,18.463 L163.925,18.463 L163.925,12.863 L151.825,12.863 L151.825,34.463 C151.225,34.663 150.625,34.963 150.025,35.263 C149.825,35.863 150.025,36.563 150.625,36.863 C151.025,36.863 151.425,36.763 151.825,36.663 L151.825,40.663 L155.325,40.663 L155.025,40.863 C154.825,41.463 155.025,42.163 155.625,42.463 C156.625,42.363 157.625,42.063 158.425,41.563 C158.525,41.263 158.625,40.963 158.625,40.663 L164.525,40.663 L164.525,35.263 L159.225,35.263 L159.225,29.063 z" fill="#A5A5AF"/>
      <path d="M178.725,13.563 C175.825,12.063 172.325,11.963 169.225,13.163 C168.125,13.663 167.125,14.363 166.425,15.363 C165.825,16.163 165.325,17.163 165.225,18.263 C165.025,19.763 165.025,21.263 165.025,22.763 L165.025,30.963 C164.925,33.063 165.125,35.063 165.725,37.063 C166.225,38.463 167.125,39.563 168.425,40.263 C170.025,41.063 171.825,41.463 173.625,41.363 C175.425,41.463 177.225,40.963 178.825,39.963 C180.025,39.263 181.025,38.163 181.525,36.763 C182.025,34.763 182.225,32.663 182.125,30.663 L182.125,28.663 L174.825,28.663 L174.825,33.063 C174.925,34.063 174.825,35.063 174.625,35.963 C174.425,36.363 174.025,36.663 173.525,36.563 C173.025,36.663 172.625,36.363 172.425,35.963 C172.225,35.063 172.125,34.163 172.225,33.263 L172.225,20.263 C172.125,19.363 172.225,18.363 172.425,17.463 C172.625,17.063 173.125,16.763 173.525,16.863 C173.925,16.763 174.325,17.063 174.525,17.363 C174.725,18.263 174.825,19.163 174.725,19.963 L174.725,23.963 L182.025,23.963 L182.025,22.163 C182.125,20.263 181.925,18.263 181.325,16.363 C180.925,15.363 180.025,14.263 178.725,13.563 z" fill="#A5A5AF"/>
      <path d="M192.725,12.863 L192.725,22.863 L190.625,22.863 L190.625,12.863 L183.325,12.863 L183.325,40.763 L190.625,40.763 L190.625,29.063 L192.725,29.063 L192.725,40.763 L200.025,40.763 L200.025,12.863 z" fill="#A5A5AF"/>
      <path d="M18.425,12.863 L25.725,12.863 L25.725,40.763 L18.425,40.763 z" fill="#A5A5AF"/>
      <path d="M37.325,25.463 L33.225,12.863 L27.225,12.863 L27.225,40.763 L33.225,40.763 L33.225,28.063 L37.025,40.763 L43.425,40.763 L43.425,12.863 L37.325,12.863 z" fill="#A5A5AF"/>
      <path d="M52.225,29.063 L56.725,29.063 L56.725,23.763 L52.225,23.763 L52.225,18.463 L57.025,18.463 L57.025,12.863 L44.925,12.863 L44.925,40.763 L57.525,40.763 L57.525,35.263 L52.225,35.263 z" fill="#A5A5AF"/>
      <path d="M69.925,25.963 L68.925,18.863 C68.625,16.563 68.325,14.663 68.025,12.963 L58.625,12.963 L58.625,40.863 L65.025,40.863 L65.025,22.363 L67.725,40.763 L72.225,40.763 L74.725,21.963 L74.725,40.763 L81.025,40.763 L81.025,12.863 L71.625,12.863 L69.925,25.963 z" fill="#A5A5AF"/>
      <path d="M13.825,13.563 C12.225,12.663 10.425,12.263 8.525,12.363 C7.125,12.363 5.625,12.563 4.325,13.163 C3.225,13.663 2.225,14.363 1.525,15.363 C0.825,16.263 0.425,17.263 0.325,18.263 C0.125,19.763 0.025,21.263 0.025,22.763 L0.025,30.963 C-0.075,33.063 0.125,35.063 0.725,37.063 C1.225,38.463 2.125,39.563 3.425,40.263 C5.025,41.063 6.825,41.463 8.725,41.363 C10.525,41.463 12.325,40.963 13.925,39.963 C15.125,39.263 16.125,38.163 16.625,36.763 C17.125,34.763 17.325,32.663 17.225,30.663 L17.225,28.663 L9.925,28.663 L9.925,33.063 C10.025,34.063 9.925,35.063 9.725,35.963 C9.525,36.363 9.125,36.663 8.625,36.563 C8.125,36.663 7.725,36.363 7.525,35.963 C7.325,35.063 7.225,34.163 7.325,33.263 L7.325,20.263 C7.225,19.363 7.325,18.363 7.525,17.463 C7.725,17.063 8.225,16.763 8.625,16.863 C9.025,16.763 9.425,17.063 9.625,17.363 C9.825,18.263 9.925,19.163 9.825,19.963 L9.825,23.963 L17.125,23.963 L17.125,22.163 C17.225,20.263 17.025,18.263 16.425,16.363 C16.025,15.363 15.025,14.263 13.825,13.563 z" fill="#A5A5AF"/>
    </g>
  </g>
</svg>
