<?xml version="1.0" encoding="UTF-8"?>
<!DOCTYPE svg PUBLIC "-//W3C//DTD SVG 1.1//EN" "http://www.w3.org/Graphics/SVG/1.1/DTD/svg11.dtd">
<svg version="1.1" xmlns="http://www.w3.org/2000/svg" xmlns:xlink="http://www.w3.org/1999/xlink" x="0" y="0" width="2645.004" height="367.186" viewBox="0, 0, 2645.004, 367.186">
  <g id="Layer_1" transform="translate(0, 0)">
    <path d="M2468.44,367.186 L2515.25,254.681 L2410.815,4.218 L2423.479,4.218 C2431.186,4.218 2438.087,8.813 2441.06,15.924 L2527.987,224.145 L2615.151,15.922 C2618.124,8.812 2625.024,4.218 2632.733,4.218 L2645.004,4.218 L2498.682,355.44 C2495.722,362.573 2488.812,367.186 2481.082,367.186 L2468.44,367.186 z" fill="#A5A5AF"/>
    <path d="M2281.944,264.81 C2279.505,264.758 2277.226,263.893 2275.431,262.373 C2273.839,261.103 2272.485,259.591 2271.403,257.877 L2271.224,257.595 L2165.158,4.218 L2178.112,4.218 L2178.215,4.223 C2185.658,4.607 2192.283,9.019 2195.506,15.737 L2195.59,15.922 L2282.755,224.147 L2369.75,15.784 C2372.679,8.771 2379.479,4.231 2387.077,4.218 L2399.948,4.218 L2397.611,9.77 C2396.727,11.868 2309.09,220.02 2293.26,258.504 L2293.112,258.869 L2292.893,259.199 C2291.944,260.624 2290.77,261.863 2289.402,262.883 C2287.695,264.147 2285.678,264.811 2283.563,264.811 L2281.944,264.81 z" fill="#A5A5AF"/>
    <path d="M1952.668,264.81 C1942.296,264.591 1933.926,256.04 1933.926,245.749 L1933.926,4.325 L1937.926,4.325 C1948.436,4.325 1956.987,12.876 1956.987,23.386 L1956.987,41.255 C1965.481,30.311 1976.105,21.108 1988.23,14.268 C2004.397,5.16 2022.749,0.346 2041.302,0.346 C2041.802,0.346 2042.302,0.35 2042.803,0.357 L2043.45,0.354 C2057.855,0.354 2071.88,3.204 2085.133,8.824 C2111.33,19.785 2131.849,40.251 2142.892,66.447 C2148.612,79.879 2151.46,94.103 2151.356,108.71 L2151.356,264.634 L2147.356,264.634 C2136.983,264.634 2128.544,256.195 2128.544,245.822 L2128.544,107.618 C2128.315,96.175 2125.894,84.958 2121.355,74.358 C2117.056,64.272 2110.913,55.262 2103.091,47.569 C2087.049,31.952 2065.863,23.342 2043.45,23.342 L2042.168,23.343 C2030.98,23.343 2020.037,25.442 2009.642,29.581 C1999.507,33.539 1990.412,39.349 1982.581,46.86 C1974.885,54.33 1968.736,63.097 1964.324,72.901 C1959.704,83.18 1957.164,94.108 1956.773,105.38 L1956.992,264.81 L1952.668,264.81 z" fill="#A5A5AF"/>
    <path d="M1794.143,268.577 C1793.6,268.577 1793.059,268.573 1792.516,268.567 L1792.046,268.567 C1774.251,268.569 1756.932,265.026 1740.568,258.04 C1724.585,251.254 1710.214,241.612 1697.864,229.386 C1685.541,217.111 1675.856,202.782 1669.071,186.786 C1661.965,170.139 1658.424,152.516 1658.549,134.416 C1658.319,99.266 1671.277,65.577 1695.034,39.609 C1706.279,27.366 1719.613,17.602 1734.673,10.582 C1749.553,3.659 1766.088,0 1782.492,0 L1783.579,0 C1799.407,0 1814.734,3.342 1829.135,9.932 C1843.51,16.484 1856.366,25.573 1867.344,36.944 C1893.195,63.939 1907.105,99.376 1906.526,136.738 L1906.464,140.675 L1680.98,140.746 C1681.379,154.162 1684.332,167.193 1689.775,179.535 C1695.492,192.6 1703.547,204.28 1713.721,214.263 C1723.958,224.211 1735.852,232.041 1749.059,237.519 C1762.521,243.152 1776.727,246.004 1791.296,246.005 L1791.905,246.003 C1792.415,246.009 1792.858,246.011 1793.3,246.011 C1807.446,246.011 1821.309,243.439 1834.504,238.367 C1840.585,236.057 1846.444,233.158 1851.934,229.739 L1859.078,225.452 C1862.027,223.741 1865.329,222.852 1868.677,222.852 C1873.224,222.852 1877.625,224.483 1881.072,227.442 L1885.634,231.266 L1882.263,234.35 C1858.133,256.422 1826.838,268.577 1794.143,268.577 M1883.467,117.403 C1881.93,105.443 1878.484,93.889 1873.199,83 C1867.504,71.208 1859.882,60.591 1850.54,51.438 C1841.473,42.567 1830.979,35.494 1819.35,30.418 C1807.844,25.395 1795.647,22.848 1783.096,22.848 L1782.08,22.849 C1769.59,22.849 1757.456,25.394 1746.014,30.415 C1734.487,35.472 1724.072,42.499 1715.062,51.3 C1705.762,60.423 1698.135,70.998 1692.401,82.727 C1686.979,93.71 1683.321,105.352 1681.498,117.403 L1883.467,117.403 z" fill="#A5A5AF"/>
    <path d="M1486.783,8.218 L1533.56,8.218 L1533.56,216.94 L1635.546,216.94 L1635.546,260.81 L1486.713,260.81 z" fill="#A5A5AF"/>
    <path d="M1195.955,134.692 C1195.856,111.633 1201.976,88.972 1213.673,69.099 C1219.354,59.421 1226.235,50.505 1234.155,42.557 C1242.04,34.665 1250.913,27.829 1260.555,22.216 C1270.343,16.528 1280.825,12.134 1291.74,9.14 C1314.408,2.978 1338.314,2.978 1360.983,9.14 C1382.752,15.114 1402.603,26.628 1418.603,42.557 C1426.53,50.399 1433.401,59.236 1439.048,68.851 C1444.73,78.585 1449.149,89.007 1452.196,99.858 C1458.475,122.477 1458.475,146.375 1452.196,168.994 C1449.148,179.849 1444.732,190.266 1439.048,200.002 C1433.403,209.615 1426.529,218.453 1418.603,226.295 C1402.614,242.22 1382.776,253.73 1361.018,259.712 C1349.752,262.814 1338.116,264.365 1326.432,264.319 C1308.994,264.44 1291.722,260.965 1275.687,254.113 C1260.226,247.536 1246.147,238.098 1234.191,226.295 C1222.288,214.482 1212.78,200.474 1206.196,185.048 C1199.367,169.143 1195.88,152.003 1195.955,134.692 M1242.484,134.692 C1242.409,145.858 1244.681,156.918 1249.146,167.151 C1253.448,177.031 1259.61,185.993 1267.289,193.551 C1274.993,201.061 1284.033,207.071 1293.938,211.27 C1314.651,220.044 1338.039,220.044 1358.751,211.27 C1378.825,202.807 1394.85,186.911 1403.471,166.904 C1412.367,146.216 1412.367,122.778 1403.471,102.09 C1394.808,82.136 1378.793,66.289 1358.751,57.83 C1338.038,49.056 1314.65,49.056 1293.938,57.83 C1284.033,62.032 1274.997,68.039 1267.289,75.548 C1259.614,83.11 1253.455,92.072 1249.146,101.948 C1244.623,112.264 1242.353,123.426 1242.484,134.692" fill="#A5A5AF"/>
    <path d="M1072.955,8.396 C1081.888,8.371 1090.779,9.562 1099.39,11.94 C1116.134,16.532 1131.422,25.338 1143.793,37.524 C1156.266,49.729 1165.299,65.009 1169.98,81.82 C1172.397,90.566 1173.588,99.606 1173.524,108.681 C1173.549,116.435 1172.667,124.164 1170.902,131.715 C1169.2,139.079 1166.629,146.216 1163.248,152.977 C1159.921,159.593 1155.905,165.84 1151.27,171.617 C1146.659,177.361 1141.404,182.556 1135.607,187.102 L1172.744,260.916 L1130.504,260.916 C1124.752,260.92 1119.497,257.648 1116.967,252.482 L1094.358,206.415 C1090.858,207.332 1087.306,208.065 1083.727,208.611 C1080.095,209.181 1076.42,209.468 1072.742,209.463 L1021.749,209.463 L1021.749,260.811 L974.973,260.811 L974.973,8.396 L1072.955,8.396 z M1128.236,108.398 C1128.257,101.247 1126.935,94.152 1124.338,87.49 C1121.829,80.924 1118.236,74.829 1113.707,69.453 C1109.05,64.07 1103.455,59.581 1097.193,56.2 C1090.957,52.734 1084.109,50.509 1077.029,49.644 C1073.958,49.195 1070.863,48.853 1067.744,48.616 C1064.626,48.38 1061.425,48.262 1058.141,48.262 L1021.748,48.262 L1021.748,168.463 L1070.721,168.463 C1078.553,168.523 1086.314,166.957 1093.507,163.856 C1100.378,160.908 1106.576,156.591 1111.721,151.17 C1116.92,145.638 1121.02,139.168 1123.805,132.105 C1126.797,124.564 1128.303,116.513 1128.236,108.398" fill="#A5A5AF"/>
    <path d="M762.247,8.218 L951.407,8.218 L951.407,51.415 L880.534,51.415 L880.534,260.81 L833.758,260.81 L833.758,51.415 L762.247,51.415 z" fill="#A5A5AF"/>
    <path d="M563.695,104.677 L563.695,260.812 L517.627,260.812 L517.627,18.566 C517.627,12.85 522.259,8.219 527.975,8.219 C532.065,8.219 535.98,9.881 538.819,12.825 L688.999,168.746 L688.999,8.396 L735.067,8.396 L735.067,251.172 C735.067,256.494 730.75,260.812 725.427,260.812 C721.437,260.8 717.614,259.209 714.797,256.381 L563.695,104.677 z" fill="#A5A5AF"/>
    <path d="M231.867,134.692 C231.768,111.633 237.888,88.972 249.586,69.099 C255.266,59.421 262.148,50.505 270.068,42.557 C277.917,34.725 286.741,27.936 296.326,22.358 C306.114,16.67 316.596,12.276 327.51,9.282 C350.179,3.119 374.085,3.119 396.754,9.282 C418.562,15.192 438.462,26.66 454.515,42.557 C462.442,50.399 469.314,59.236 474.962,68.851 C480.647,78.585 485.062,89.004 488.109,99.858 C494.388,122.477 494.388,146.375 488.109,168.994 C485.062,179.849 480.647,190.266 474.962,200.002 C469.317,209.615 462.442,218.453 454.515,226.295 C438.526,242.218 418.689,253.73 396.931,259.712 C385.666,262.814 374.028,264.365 362.345,264.319 C344.906,264.44 327.635,260.965 311.6,254.113 C296.139,247.536 282.06,238.098 270.103,226.295 C258.196,214.482 248.692,200.474 242.108,185.048 C235.28,169.14 231.793,152.003 231.867,134.692 M278.608,134.692 C278.534,145.858 280.805,156.918 285.27,167.151 C289.572,177.031 295.731,185.993 303.414,193.551 C311.118,201.061 320.157,207.071 330.062,211.27 C350.775,220.044 374.163,220.044 394.876,211.27 C414.95,202.807 430.975,186.911 439.597,166.904 C448.491,146.216 448.491,122.778 439.597,102.09 C430.932,82.136 414.919,66.289 394.876,57.83 C374.163,49.056 350.775,49.056 330.062,57.83 C320.157,62.032 311.121,68.039 303.414,75.548 C295.738,83.11 289.579,92.072 285.27,101.948 C280.749,112.264 278.477,123.426 278.608,134.692" fill="#A5A5AF"/>
    <path d="M45.435,137.456 C45.325,148.346 47.498,159.136 51.814,169.136 C56.013,178.792 62.027,187.55 69.532,194.934 C77.041,202.315 85.861,208.229 95.542,212.369 C105.536,216.667 116.309,218.85 127.187,218.783 C135.533,218.839 143.829,217.521 151.745,214.886 C159.282,212.326 166.437,208.751 173.007,204.255 C175.58,202.62 178.354,201.335 181.264,200.427 C184.268,199.495 187.401,199.031 190.548,199.044 C195.095,198.921 199.616,199.778 203.801,201.56 C207.554,203.337 210.981,205.732 213.936,208.649 L224.567,219.28 C218.164,226.158 211.14,232.433 203.589,238.026 C196.172,243.502 188.245,248.246 179.917,252.2 C171.809,256.06 163.315,259.054 154.58,261.131 C145.682,263.219 136.575,264.264 127.435,264.25 C110.387,264.369 93.498,260.967 77.824,254.256 C62.725,247.857 48.968,238.657 37.285,227.148 C25.665,215.62 16.388,201.949 9.963,186.891 C3.248,171.222 -0.143,154.329 0.005,137.28 C-0.069,114.775 5.931,92.666 17.37,73.282 C22.915,63.916 29.62,55.284 37.32,47.59 C45.014,39.89 53.674,33.221 63.082,27.746 C72.636,22.197 82.867,17.909 93.523,14.989 C104.543,12.026 115.915,10.573 127.329,10.666 C136.468,10.651 145.575,11.7 154.474,13.784 C163.322,15.875 171.922,18.905 180.13,22.82 C188.457,26.775 196.384,31.523 203.801,36.995 C211.353,42.587 218.376,48.863 224.78,55.741 L214.149,66.372 C211.158,69.327 207.667,71.727 203.837,73.459 C199.715,75.309 195.24,76.227 190.725,76.152 C184.453,76.174 178.33,74.228 173.22,70.589 C166.547,66.078 159.286,62.499 151.639,59.958 C143.768,57.381 135.536,56.092 127.258,56.131 C116.379,56.063 105.606,58.246 95.613,62.545 C85.896,66.723 77.051,72.683 69.532,80.121 C62.037,87.502 56.023,96.245 51.814,105.884 C47.494,115.843 45.322,126.602 45.435,137.456" fill="#A5A5AF"/>
  </g>
</svg>
