<svg version="1.1" xmlns="http://www.w3.org/2000/svg" xmlns:xlink="http://www.w3.org/1999/xlink" x="0" y="0" viewBox="0, 0, 196.61, 43.142">
  <g id="Layer_1" transform="translate(0, 0.023)">
    <path d="M0,22.38 L0,22.31 C-0.001,18.799 1.418,15.437 3.934,12.988 C6.45,10.539 9.85,9.213 13.36,9.31 C17.195,9.187 20.914,10.631 23.66,13.31 L21.66,15.39 C19.46,13.185 16.475,11.945 13.36,11.94 C10.621,11.901 7.984,12.978 6.055,14.922 C4.126,16.866 3.07,19.512 3.13,22.25 L3.13,22.32 C3.065,25.067 4.117,27.723 6.045,29.682 C7.973,31.64 10.612,32.732 13.36,32.71 C16.98,32.71 19.36,31.38 21.89,29.08 L23.89,30.91 C21.156,33.815 17.318,35.421 13.33,35.33 C9.84,35.433 6.458,34.113 3.961,31.673 C1.464,29.232 0.067,25.881 0.09,22.39" fill="#A5A5AF"/>
    <path d="M29.54,25.68 L29.54,25.61 C29.762,20.167 34.229,15.864 39.677,15.845 C45.124,15.826 49.621,20.099 49.88,25.54 L49.88,25.61 C49.828,28.259 48.716,30.777 46.794,32.6 C44.871,34.423 42.298,35.399 39.65,35.31 C37.024,35.404 34.47,34.436 32.568,32.623 C30.665,30.811 29.573,28.308 29.54,25.68 M46.9,25.68 L46.9,25.61 C46.919,23.681 46.161,21.824 44.798,20.459 C43.434,19.094 41.579,18.334 39.65,18.35 C37.738,18.314 35.894,19.062 34.547,20.42 C33.2,21.778 32.468,23.628 32.52,25.54 L32.52,25.61 C32.496,27.53 33.247,29.38 34.604,30.739 C35.961,32.098 37.809,32.852 39.73,32.83 C41.642,32.877 43.49,32.139 44.844,30.789 C46.199,29.438 46.942,27.592 46.9,25.68" fill="#A5A5AF"/>
    <path d="M56.47,16.3 L59.38,16.3 L59.38,19.49 C60.775,17.149 63.337,15.757 66.06,15.86 C70.78,15.86 73.53,18.86 73.53,23.3 L73.53,34.84 L70.63,34.84 L70.63,23.99 C70.63,20.54 68.63,18.38 65.23,18.38 C63.663,18.309 62.138,18.898 61.026,20.004 C59.914,21.111 59.317,22.633 59.38,24.2 L59.38,34.84 L56.47,34.84 L56.47,16.26" fill="#A5A5AF"/>
    <path d="M82.89,29.96 L82.89,18.75 L80.17,18.75 L80.17,16.3 L82.89,16.3 L82.89,10.69 L85.79,10.69 L85.79,16.3 L91.98,16.3 L91.98,18.75 L85.79,18.75 L85.79,29.6 C85.79,31.86 87.11,32.69 89.07,32.69 C90.051,32.694 91.019,32.472 91.9,32.04 L91.9,34.41 C90.81,34.95 89.606,35.221 88.39,35.2 C85.26,35.2 82.88,33.73 82.88,29.95" fill="#A5A5AF"/>
    <path d="M98.43,16.3 L101.33,16.3 L101.33,21.15 C102.658,17.927 105.846,15.867 109.33,15.98 L109.33,18.98 L109.1,18.98 C104.84,18.98 101.37,21.89 101.37,27.5 L101.37,34.9 L98.47,34.9 L98.47,16.32" fill="#A5A5AF"/>
    <path d="M113.02,25.68 L113.02,25.61 C113.242,20.167 117.709,15.864 123.157,15.845 C128.604,15.826 133.101,20.099 133.36,25.54 L133.36,25.61 C133.308,28.259 132.196,30.777 130.274,32.6 C128.351,34.423 125.778,35.399 123.13,35.31 C120.504,35.404 117.95,34.436 116.048,32.623 C114.145,30.811 113.053,28.308 113.02,25.68 M130.38,25.68 L130.38,25.61 C130.399,23.682 129.643,21.828 128.281,20.463 C126.92,19.098 125.068,18.337 123.14,18.35 C121.228,18.314 119.384,19.062 118.037,20.42 C116.69,21.778 115.958,23.628 116.01,25.54 L116.01,25.61 C115.986,27.53 116.737,29.38 118.094,30.739 C119.451,32.098 121.299,32.852 123.22,32.83 C125.132,32.877 126.98,32.139 128.334,30.789 C129.689,29.438 130.432,27.592 130.39,25.68" fill="#A5A5AF"/>
    <path d="M140.22,8.65 L143.13,8.65 L143.13,34.88 L140.22,34.88 z" fill="#A5A5AF"/>
    <path d="M164.06,27.49 L178.42,27.5 L178.42,36.45 L182.82,36.45 L182.82,23.8 L169.01,23.81 L180.72,7.62 L175.25,7.62 L163.04,24.6 L164.06,27.49 z" fill="#A5A5AF"/>
    <path d="M179.3,42.2 C177.826,42.474 176.329,42.605 174.83,42.59 C164.472,42.582 155.817,34.704 154.837,24.392 C153.856,14.081 160.872,4.713 171.043,2.753 C181.213,0.793 191.208,6.883 194.13,16.82 C192.187,8.17 185.149,1.59 176.388,0.232 C167.627,-1.125 158.928,3.015 154.458,10.671 C149.987,18.327 150.656,27.938 156.144,34.901 C161.633,41.863 170.822,44.759 179.31,42.2" fill="#A5A5AF"/>
    <path d="M192.51,6.13 L192.51,6.13 C192.51,4.998 193.428,4.08 194.56,4.08 C195.692,4.08 196.61,4.998 196.61,6.13 L196.61,6.13 C196.61,7.262 195.692,8.18 194.56,8.18 C193.428,8.18 192.51,7.262 192.51,6.13 z M196.37,6.13 L196.37,6.13 C196.37,5.128 195.557,4.315 194.555,4.315 C193.553,4.315 192.74,5.128 192.74,6.13 L192.74,6.13 C192.743,7.132 193.558,7.943 194.56,7.94 C195.562,7.937 196.373,7.122 196.37,6.12 z M193.79,5.06 L194.71,5.06 C194.899,5.031 195.092,5.085 195.239,5.207 C195.386,5.329 195.474,5.509 195.48,5.7 C195.481,6.002 195.267,6.262 194.97,6.32 L195.55,7.12 L195.14,7.12 L194.62,6.37 L194.13,6.37 L194.13,7.12 L193.8,7.12 L193.8,5.06 z M194.67,6.06 C194.783,6.081 194.9,6.05 194.988,5.977 C195.077,5.904 195.129,5.795 195.13,5.68 C195.127,5.567 195.073,5.462 194.984,5.392 C194.896,5.323 194.78,5.296 194.67,5.32 L194.12,5.32 L194.12,6.06 L194.67,6.06 z" fill="#A5A5AF"/>
  </g>
</svg>
