<svg version="1.1" xmlns="http://www.w3.org/2000/svg" xmlns:xlink="http://www.w3.org/1999/xlink" x="0" y="0" viewBox="0, 0, 151.199, 17.4">
  <g id="Layer_1" transform="translate(-38.4, -71.3)">
    <g>
      <path d="M69.45,75.611 C69.291,75.497 69.136,75.414 68.999,75.347 C68.866,75.282 68.749,75.234 68.661,75.195 C68.557,75.147 68.462,75.212 68.468,75.326 C68.601,77.96 67.724,79.577 66.08,80.955 C64.711,82.104 62.843,83.12 59.742,83.62 L59.727,83.62 C59.345,83.682 58.944,83.736 58.522,83.78 C57.25,83.916 55.967,83.833 54.982,83.622 C52.01,82.983 50.151,81.167 51.751,79.746 C51.886,79.625 51.726,79.427 51.58,79.533 C49.566,81.007 50.464,82.136 51.449,83.011 C51.706,83.243 52.355,83.63 52.355,83.63 C55.395,85.244 61.498,85.041 66.05,83.712 C66.149,83.682 66.248,83.651 66.346,83.626 L66.346,83.622 C71.198,82.127 74.481,79.163 69.45,75.611" fill="#A5A5AF"/>
      <path d="M56.639,71.3 C59.778,71.435 65.629,71.729 66.549,75.78 C67.667,80.706 62.154,83.066 58.221,83.228 C56.306,83.232 54.146,83.094 52.728,81.494 C52.608,81.359 52.788,81.182 52.922,81.303 C55.309,83.472 61.818,82.663 63.285,80.378 C64.481,78.514 63.741,77.034 62.352,75.693 C60.868,74.262 58.576,73.038 54.043,71.76 C53.886,71.717 53.897,71.521 54.057,71.493 C54.283,71.453 54.613,71.377 55.133,71.348 L56.583,71.3 L56.639,71.3 z" fill="#A5A5AF"/>
      <path d="M40.701,76.44 C45.096,75.044 48.296,74.62 51.46,74.67 C54.423,74.716 57.385,75.135 59.976,76.652 C62.865,78.342 61.362,81.635 56.352,81.622 C56.169,81.622 56.162,81.886 56.346,81.895 C59.653,82.055 60.977,81.17 61.955,80.282 C64.602,77.878 60.678,74.713 55.787,73.212 C50.768,71.671 44.241,71.658 40.846,75.673 C40.735,75.806 40.666,75.923 40.62,76.025 C40.578,76.119 40.557,76.198 40.532,76.259 C40.485,76.381 40.579,76.48 40.701,76.44" fill="#A5A5AF"/>
      <path d="M50.492,75.261 C53.366,75.246 56.509,75.174 58.919,76.987 C59.904,77.862 60.801,78.991 58.788,80.466 C58.641,80.57 58.48,80.372 58.616,80.253 C60.77,78.337 56.792,75.693 51.845,76.217 C47.999,76.626 45.829,77.751 44.288,79.043 C42.875,80.228 42.029,81.589 41.903,83.619 L41.895,83.625 L41.903,83.625 C41.883,83.953 41.881,84.303 41.9,84.674 C41.906,84.785 41.819,84.855 41.699,84.824 C41.606,84.801 41.495,84.738 41.362,84.674 C41.222,84.606 41.075,84.502 40.916,84.389 C40.552,84.131 40.231,83.877 39.951,83.627 C36.291,80.347 39.661,77.648 44.316,76.288 C47.664,75.462 45.62,75.886 50.492,75.261 z" fill="#A5A5AF"/>
      <path d="M69.667,83.559 C69.606,83.577 69.547,83.597 69.486,83.62 L69.472,83.62 C65.177,84.969 62.025,85.378 58.907,85.331 C56.136,85.286 53.363,84.917 50.896,83.626 L50.894,83.626 C50.724,83.538 50.557,83.446 50.391,83.349 C47.502,81.66 49.007,78.365 54.015,78.376 C54.199,78.377 54.205,78.112 54.021,78.103 C50.715,77.943 49.391,78.828 48.411,79.717 C47.077,80.929 47.413,82.334 48.7,83.627 L48.704,83.627 C49.973,84.893 52.158,86.044 54.58,86.787 C59.598,88.328 66.126,88.342 69.52,84.326 C69.632,84.192 69.7,84.076 69.747,83.974 C69.789,83.879 69.81,83.801 69.834,83.74 C69.851,83.699 69.849,83.66 69.836,83.627 C69.813,83.565 69.747,83.533 69.667,83.559" fill="#A5A5AF"/>
      <path d="M52.145,76.77 C54.061,76.765 56.221,76.904 57.638,78.503 C57.76,78.639 57.578,78.817 57.445,78.695 C55.058,76.527 48.55,77.336 47.081,79.621 C46.085,81.173 46.432,82.462 47.381,83.622 L47.381,83.624 C47.569,83.855 47.783,84.081 48.015,84.306 C49.499,85.737 51.79,86.961 56.326,88.238 C56.48,88.283 56.47,88.477 56.31,88.504 C56.085,88.543 55.754,88.619 55.235,88.65 C47.515,89.094 44.086,86.502 43.693,83.625 C43.249,80.384 46.666,76.784 52.145,76.77 z" fill="#A5A5AF"/>
      <path d="M84.256,81.378 C83.724,82.615 82.736,83.234 81.37,83.234 C79.466,83.234 78.664,82.154 79.089,80.155 C79.514,78.154 80.777,77.061 82.681,77.061 C84.173,77.061 84.884,77.822 84.727,79.234 L89.805,79.234 C90.34,75.965 88.097,74.125 83.305,74.125 C78.196,74.125 75.156,76.187 74.312,80.155 C73.469,84.12 75.633,86.185 80.743,86.185 C85.313,86.185 88.254,84.518 89.382,81.376 L84.256,81.378 L84.256,81.378 z" fill="#A5A5AF"/>
      <path d="M166.19,74.125 C161.081,74.125 158.041,76.187 157.197,80.154 C156.354,84.122 158.518,86.183 163.628,86.183 C168.738,86.183 171.777,84.122 172.621,80.154 C173.465,76.188 171.301,74.125 166.19,74.125 M167.682,80.155 C167.256,82.155 165.996,83.235 164.092,83.235 C162.188,83.235 161.385,82.155 161.811,80.155 C162.235,78.156 163.499,77.063 165.405,77.063 C167.307,77.062 168.105,78.156 167.682,80.155" fill="#A5A5AF"/>
      <path d="M183.945,74.427 L182.543,81.027 L179.519,74.427 L174.268,74.427 L171.831,85.883 L176.02,85.883 L177.447,79.172 L180.827,85.883 L185.811,85.883 L188.246,74.427 z" fill="#A5A5AF"/>
      <path d="M157.922,77.506 C158.158,76.395 157.883,75.523 157.135,75.014 C156.5,74.571 155.277,74.429 153.467,74.429 L144.74,74.429 L142.304,85.885 L146.81,85.885 L147.552,82.393 L150.202,82.393 C151.298,82.393 151.649,82.678 151.561,83.536 C151.466,84.504 151.133,85.329 151.364,85.886 L156.298,85.886 L156.337,85.712 C155.854,85.441 156.052,84.504 156.325,82.855 C156.537,81.554 156.53,80.919 155.416,80.414 C156.705,79.95 157.635,78.854 157.922,77.506 M152.844,78.331 C152.668,79.155 152.002,79.379 150.782,79.379 L148.196,79.379 L148.63,77.332 L151.107,77.332 C152.406,77.331 153.029,77.458 152.844,78.331" fill="#A5A5AF"/>
      <path d="M144.336,74.427 L131.596,74.427 L131.246,76.063 C130.555,74.719 128.499,74.126 125.045,74.126 C120.57,74.126 118.219,75.188 117.662,77.807 C117.254,79.726 118.404,80.885 121.08,81.218 L124.307,81.631 C125.344,81.757 125.807,82.044 125.702,82.536 C125.585,83.091 124.925,83.36 123.735,83.36 C122.512,83.36 121.891,82.995 121.94,82.392 L116.561,82.392 C116.524,82.579 116.506,82.756 116.499,82.931 L108.536,82.931 L108.857,81.423 L115.094,81.423 L115.693,78.599 L109.458,78.599 L109.748,77.235 L117.443,77.235 L118.04,74.426 L105.9,74.426 L103.464,85.881 L115.983,85.881 L116.512,83.395 C116.719,85.202 118.7,86.231 122.408,86.231 C127.675,86.231 130.455,85.026 131.064,82.155 C131.466,80.267 130.445,79.171 127.999,78.805 L124.074,78.234 C122.967,78.076 122.441,77.933 122.55,77.425 C122.644,76.98 123.266,76.663 124.315,76.663 C125.696,76.663 126.36,77.044 126.317,77.758 L131.475,77.758 C131.496,77.609 131.506,77.467 131.511,77.329 L135.117,77.329 L133.3,85.881 L137.742,85.881 L139.56,77.329 L143.718,77.329 L144.336,74.427 z" fill="#A5A5AF"/>
      <path d="M104.594,77.506 C104.83,76.395 104.555,75.523 103.806,75.014 C103.171,74.571 101.948,74.429 100.138,74.429 L91.411,74.429 L88.977,85.885 L93.483,85.885 L94.226,82.393 L96.875,82.393 C97.969,82.393 98.321,82.678 98.234,83.536 C98.139,84.504 97.805,85.329 98.036,85.886 L102.971,85.886 L103.008,85.712 C102.526,85.441 102.725,84.504 102.997,82.855 C103.21,81.554 103.202,80.919 102.087,80.414 C103.377,79.95 104.306,78.854 104.594,77.506 M99.515,78.331 C99.34,79.155 98.673,79.379 97.452,79.379 L94.867,79.379 L95.302,77.332 L97.779,77.332 C99.078,77.331 99.702,77.458 99.515,78.331" fill="#A5A5AF"/>
      <path d="M188.854,84.195 C188.854,83.886 188.671,83.752 188.302,83.752 L187.71,83.752 L187.71,85.313 L187.944,85.313 L187.944,84.636 L188.217,84.636 L188.629,85.313 L188.893,85.313 L188.45,84.624 C188.68,84.597 188.854,84.475 188.854,84.195 M187.945,84.436 L187.945,83.952 L188.267,83.952 C188.432,83.952 188.609,83.989 188.609,84.182 C188.609,84.422 188.428,84.436 188.228,84.436 L187.945,84.436 z" fill="#A5A5AF"/>
      <path d="M188.232,83.18 C187.486,83.18 186.855,83.752 186.855,84.53 C186.855,85.315 187.486,85.886 188.232,85.886 C188.97,85.886 189.599,85.315 189.599,84.53 C189.6,83.75 188.971,83.18 188.232,83.18 M188.232,85.66 C187.612,85.66 187.128,85.18 187.128,84.529 C187.128,83.886 187.611,83.404 188.232,83.404 C188.845,83.404 189.328,83.886 189.328,84.529 C189.328,85.182 188.846,85.66 188.232,85.66" fill="#A5A5AF"/>
    </g>
  </g>
</svg>
