<?xml version="1.0" encoding="UTF-8"?>
<!DOCTYPE svg PUBLIC "-//W3C//DTD SVG 1.1//EN" "http://www.w3.org/Graphics/SVG/1.1/DTD/svg11.dtd">
<svg version="1.1" xmlns="http://www.w3.org/2000/svg" xmlns:xlink="http://www.w3.org/1999/xlink" x="0" y="0" width="200" height="25.709" viewBox="0, 0, 200, 25.709">
  <g id="Layer_1" transform="translate(0, -0)">
    <g>
      <path d="M187,25.209 L183.9,25.209 C184.2,23.309 184.5,21.509 184.8,19.709 C185.1,17.909 185.7,14.209 185.7,14.209 L188.8,14.209 L189.9,15.909 L191,17.509 C191.4,18.109 191.8,18.609 192.1,19.209 C192.5,19.809 192.8,20.309 193.2,20.809 L193.3,20.809 C193.7,18.609 194.4,14.209 194.4,14.209 L197.5,14.209 C197.5,14.209 196.3,21.509 195.7,25.209 L192.6,25.209 L188.1,18.509 C187.8,19.709 187.7,20.809 187.5,21.909 C187.3,23.009 187.2,24.109 187,25.209 z" fill="#A5A5AF"/>
      <path d="M174.6,25.609 C173.6,25.609 172.5,25.409 171.6,25.009 C169.8,24.209 168.7,22.509 168.8,20.309 C168.8,18.709 169.6,17.209 170.8,16.109 C173,14.109 175.5,13.409 178.4,14.109 C178.7,14.209 179.1,14.309 179.4,14.509 C181.6,15.609 182.6,17.709 182,20.109 C181.2,23.109 179.2,24.809 176.2,25.509 C176,25.609 175.7,25.609 175.5,25.609 C175.1,25.609 174.8,25.609 174.6,25.609 z M174.6,22.809 C176.5,22.809 178,21.809 178.6,20.209 C179.2,18.709 178.5,17.209 176.8,16.709 C175.2,16.309 173.5,17.009 172.5,18.309 C171.9,19.209 171.8,20.309 172.3,21.309 C172.8,22.209 173.6,22.809 174.6,22.809 z" fill="#A5A5AF"/>
      <path d="M111.6,25.709 C110.6,25.709 109.6,25.509 108.7,25.009 C107.1,24.309 106,22.709 106,20.909 C105.9,19.509 106.3,18.209 107.1,17.109 C108.9,14.509 112.6,13.209 115.6,14.109 C115.9,14.209 116.2,14.309 116.4,14.409 C118.7,15.409 119.8,17.609 119.1,20.009 C118.3,23.009 116.3,24.709 113.3,25.409 C112.8,25.509 112.2,25.609 111.6,25.709 z M112.1,22.809 C113.8,22.809 115.2,21.809 115.8,20.209 C116.4,18.609 115.6,17.209 114,16.709 C112.2,16.309 110.3,17.109 109.5,18.809 C109.2,19.509 109.1,20.209 109.4,20.909 C109.7,22.109 110.8,22.809 112.1,22.809 z" fill="#A5A5AF"/>
      <path d="M30.4,7.509 L27.9,7.509 L28.3,5.309 L34.5,5.309 C34.3,7.009 33.7,8.509 32.6,9.709 C31.4,10.909 29.8,11.709 28.1,11.809 C27.1,11.909 26,11.809 25,11.509 C23,10.909 21.7,8.909 21.8,6.809 C22,3.509 24.3,0.709 28.1,0.109 C29.1,-0.091 30.1,0.009 31,0.209 C32.3,0.509 33.4,1.309 33.9,2.609 C34,2.609 34,2.709 34,2.809 C34,2.909 34,2.909 34,3.009 L31,4.109 L30.8,3.709 C30.5,2.909 29.7,2.409 28.9,2.409 C28.2,2.309 27.5,2.509 27,2.909 C25.5,3.809 24.8,5.509 25.1,7.309 C25.3,8.409 26.2,9.309 27.3,9.409 C28,9.509 28.8,9.309 29.4,8.909 C29.9,8.509 30.2,8.009 30.4,7.509 z" fill="#A5A5AF"/>
      <path d="M2.4,11.309 L4.2,0.309 C4.4,0.309 4.5,0.309 4.7,0.209 C6,0.209 7.3,0.209 8.7,0.209 C9.4,0.209 10.1,0.309 10.8,0.509 C13.1,1.309 14.4,3.709 13.8,6.109 C13.5,7.309 12.9,8.309 12,9.109 C10.6,10.409 8.8,11.209 6.9,11.209 C5.6,11.209 4.3,11.209 3.1,11.209 C2.8,11.409 2.7,11.409 2.4,11.309 z M6,8.909 C6.3,8.909 6.6,8.909 6.8,8.909 C7.1,8.909 7.4,8.809 7.7,8.809 C9.5,8.509 10.8,6.909 10.6,5.109 C10.6,4.209 10,3.309 9.2,3.009 C8.5,2.809 7.7,2.709 7,2.809 L6,8.909 z" fill="#A5A5AF"/>
      <path d="M100.9,20.809 L103.8,25.309 L100,25.309 L97.9,21.309 L97.8,21.309 L97.1,25.309 L94,25.309 L95.8,14.309 C96,14.309 96.1,14.309 96.3,14.309 L100.6,14.309 C101.2,14.309 101.8,14.409 102.4,14.609 C103.5,15.009 104.2,16.109 104,17.309 C103.9,18.909 102.8,20.309 101.2,20.709 L100.9,20.809 z M98.1,19.109 C98.7,19.209 99.3,19.109 99.8,18.909 C100.3,18.709 100.7,18.209 100.8,17.709 C100.9,17.209 100.6,16.809 100.2,16.609 C99.7,16.409 99.1,16.409 98.6,16.509 L98.1,19.109 z" fill="#A5A5AF"/>
      <path d="M59.5,11.309 L59,9.509 L54.7,9.509 L53.6,11.309 L50.4,11.309 C50.5,10.909 56.3,0.909 56.8,0.309 L60.2,0.309 C61.1,3.909 62.8,11.309 62.8,11.309 L59.5,11.309 z M57.9,4.009 L57.8,4.009 L56,7.109 C56.8,7.209 57.7,7.209 58.5,7.109 L57.9,4.009 z" fill="#A5A5AF"/>
      <path d="M84.4,14.209 C84.6,14.209 84.8,14.209 84.9,14.209 C86.3,14.209 87.8,14.209 89.2,14.209 C89.8,14.209 90.4,14.309 91,14.509 C92.3,14.909 92.9,15.809 92.9,17.109 C92.9,17.909 92.7,18.609 92.4,19.309 C91.8,20.609 90.7,21.309 89.3,21.509 C88.8,21.609 88.3,21.609 87.8,21.609 C87.3,21.609 86.8,21.609 86.2,21.609 L85.6,25.209 C84.6,25.209 83.6,25.209 82.5,25.209 L84.4,14.209 z M87.1,16.609 C87,17.509 86.8,18.409 86.7,19.309 C87.3,19.309 87.8,19.309 88.3,19.209 C89.2,19.109 89.6,18.509 89.7,17.609 C89.8,17.109 89.5,16.709 89,16.609 C89,16.609 88.9,16.609 88.9,16.609 C88.3,16.509 87.7,16.509 87.1,16.609 z" fill="#A5A5AF"/>
      <path d="M138.4,16.609 L134.7,16.609 L134.4,18.409 L137.8,18.409 C137.7,19.209 137.6,20.009 137.4,20.809 C136.3,20.909 135.1,20.809 133.9,20.809 L133.6,22.609 L137.2,22.609 C137.2,23.409 137.1,24.209 136.9,25.009 L130.1,25.009 L131.9,14.009 L138.7,14.009 C138.7,15.109 138.6,15.909 138.4,16.609 z" fill="#A5A5AF"/>
      <path d="M149.3,21.609 L148.7,25.009 C147.1,25.609 145.5,25.809 143.8,25.209 C143.3,25.009 142.8,24.809 142.3,24.509 C140.7,23.409 140.1,21.809 140.3,19.909 C140.5,18.709 141,17.609 141.7,16.709 C143.3,14.709 146.6,13.209 149.7,14.209 C149.9,14.309 150.1,14.409 150.3,14.409 L150,17.809 C149.9,17.809 149.8,17.709 149.8,17.709 C149,16.809 148,16.609 146.8,16.809 C145.1,17.109 143.8,18.509 143.7,20.209 C143.6,21.509 144.5,22.609 145.8,22.709 C146.8,22.909 147.9,22.609 148.8,22.009 L149.3,21.609 z" fill="#A5A5AF"/>
      <path d="M48.8,2.809 C48.3,5.709 47.4,11.309 47.4,11.309 L44.3,11.309 L45.7,2.809 L43.1,2.809 L43.5,0.309 C46.2,0.309 48.9,0.309 51.7,0.309 C51.6,1.109 51.5,1.909 51.3,2.709 L48.8,2.809 z" fill="#A5A5AF"/>
      <path d="M161.1,14.209 L160.7,16.609 L158.1,16.609 L156.7,25.209 C155.7,25.209 154.7,25.209 153.6,25.209 C153.6,25.009 153.6,24.809 153.6,24.609 C154,22.109 154.4,19.609 154.8,17.209 C154.8,17.009 154.8,16.909 154.9,16.609 L152.4,16.609 L152.8,14.209 L161.1,14.209 z" fill="#A5A5AF"/>
      <path d="M67.1,0.409 L70.2,0.409 L68.8,9.009 L72.5,9.009 L72.1,11.409 L65.2,11.409 L67.1,0.409 z" fill="#A5A5AF"/>
      <path d="M119.5,23.909 L121.6,22.209 C121.8,22.409 121.9,22.609 122.1,22.809 C122.6,23.309 123.3,23.209 123.6,22.509 C123.8,22.109 123.9,21.609 123.9,21.209 C124.3,19.009 125.1,14.409 125.1,14.309 C126.1,14.209 127.1,14.309 128.2,14.309 C128,15.309 127.9,16.209 127.7,17.109 C127.5,18.509 127.2,20.009 127,21.409 C127,21.709 126.9,22.009 126.8,22.309 C126.2,24.609 123.9,26.009 121.6,25.509 C120.7,25.309 119.9,24.709 119.5,23.909 z" fill="#A5A5AF"/>
      <path d="M165.2,25.209 L162.1,25.209 L163.9,14.209 L167,14.209 L165.2,25.209 z" fill="#A5A5AF"/>
      <path d="M18.5,11.309 L15.4,11.309 L17.2,0.309 L20.3,0.309 L18.5,11.309 z" fill="#A5A5AF"/>
      <path d="M39,11.309 L35.9,11.309 L37.7,0.309 L40.8,0.309 L39,11.309 z" fill="#A5A5AF"/>
      <path d="M0,25.109 L74.8,25.009 L81.7,11.309 L198.1,11.309 L200,0.209 L82.8,0.209 L75.8,13.909 L2.1,13.909 z" fill="#A5A5AF"/>
    </g>
  </g>
</svg>
