<?xml version="1.0" encoding="utf-8"?>
<!-- Generator: Adobe Illustrator 23.0.2, SVG Export Plug-In . SVG Version: 6.00 Build 0)  -->
<svg version="1.0" id="Layer_1" xmlns="http://www.w3.org/2000/svg" xmlns:xlink="http://www.w3.org/1999/xlink" x="0px" y="0px"
	 width="200px" height="20.68px" viewBox="0 0 200 20.68" style="enable-background:new 0 0 200 20.68;fill:#A5A5AF" xml:space="preserve">
<g>
	<polygon points="187.2,0 187.2,1.1 198.9,1.1 198.9,19.58 187.2,19.58 187.2,20.68 200,20.68 200,0 	"/>
	<polygon points="12.67,1.1 12.67,0 0,0 0,20.68 12.67,20.68 12.67,19.58 1.1,19.58 1.1,1.1 	"/>
	<path d="M16.64,4.81h1.23v11.03h-1.23V4.81z"/>
	<path d="M28.11,5.99c0,0-2.22-0.27-3.14-0.27c-1.56,0-2.39,0.56-2.39,1.8c0,1.43,0.77,1.67,2.7,2.1c2.2,0.49,3.17,1.04,3.17,2.97
		c0,2.44-1.34,3.4-3.52,3.4c-1.31,0-3.49-0.35-3.49-0.35l0.13-1.02c0,0,2.17,0.29,3.3,0.29c1.56,0,2.36-0.69,2.36-2.22
		c0-1.24-0.65-1.59-2.46-1.95c-2.28-0.49-3.43-1.04-3.43-3.14c0-2.14,1.4-2.97,3.56-2.97c1.31,0,3.33,0.32,3.33,0.32L28.11,5.99z"/>
	<path d="M33.13,12.13v3.72H31.9V4.81h4.03c2.41,0,3.52,1.16,3.52,3.56c0,2.41-1.12,3.76-3.52,3.76H33.13z M35.92,11.05
		c1.61,0,2.28-0.97,2.28-2.68c0-1.69-0.67-2.47-2.28-2.47h-2.79v5.15H35.92z"/>
	<path d="M42.11,15.85V4.81h1.23v9.93h4.85v1.1H42.11z"/>
	<path d="M53.5,4.81h2.68l3.03,11.03H58l-0.8-2.84h-4.72l-0.8,2.84h-1.21L53.5,4.81z M52.75,11.91h4.18l-1.67-6.04h-0.83
		L52.75,11.91z"/>
	<path d="M64.85,15.85h-1.23v-4.64L60.1,4.81h1.39l2.74,5.17l2.74-5.17h1.39l-3.51,6.39L64.85,15.85L64.85,15.85z"/>
	<path d="M76.46,4.81h7.97v1.1h-3.36v9.93h-1.21V5.91h-3.4L76.46,4.81L76.46,4.81z"/>
	<path d="M87.45,4.81h6.71V5.9h-5.48v3.81h4.53v1.07h-4.53v3.99h5.48v1.08h-6.71V4.81z"/>
	<path d="M103.94,15.67c-0.78,0.16-1.99,0.33-3.05,0.33c-3.3,0-4.03-2.01-4.03-5.64c0-3.73,0.72-5.71,4.03-5.71
		c1.13,0,2.34,0.21,3.05,0.35l-0.05,1.04c-0.72-0.13-2.01-0.29-2.87-0.29c-2.46,0-2.89,1.47-2.89,4.61c0,3.08,0.4,4.54,2.92,4.54
		c0.89,0,2.07-0.14,2.84-0.29L103.94,15.67z"/>
	<path d="M114.01,10.86h-5.61v4.99h-1.23V4.81h1.23v4.94h5.61V4.81h1.21v11.03h-1.21V10.86z"/>
	<path d="M118.91,4.81h2.3l4.22,9.95h0.34V4.81h1.21v11.03h-2.25l-4.29-9.95h-0.3v9.95h-1.23L118.91,4.81L118.91,4.81z"/>
	<path d="M129.99,10.38c0-3.64,0.94-5.72,4.35-5.72c3.41,0,4.37,2.06,4.37,5.72c0,3.79-0.94,5.63-4.37,5.63
		C130.91,16.01,129.99,14.08,129.99,10.38z M137.43,10.38c0-2.98-0.57-4.64-3.09-4.64c-2.53,0-3.09,1.64-3.09,4.64
		c0,3.01,0.54,4.55,3.09,4.55C136.91,14.92,137.43,13.49,137.43,10.38z"/>
	<path d="M141.63,15.85V4.81h1.23v9.93h4.85v1.1H141.63z"/>
	<path d="M149.83,10.38c0-3.64,0.94-5.72,4.35-5.72c3.41,0,4.37,2.06,4.37,5.72c0,3.79-0.94,5.63-4.37,5.63
		C150.76,16.01,149.83,14.08,149.83,10.38z M157.28,10.38c0-2.98-0.57-4.64-3.09-4.64c-2.54,0-3.09,1.64-3.09,4.64
		c0,3.01,0.54,4.55,3.09,4.55C156.75,14.92,157.28,13.49,157.28,10.38z"/>
	<path d="M166.23,10.2h3.04v5.42c-0.33,0.06-2.38,0.38-3.59,0.38c-3.38,0-4.27-2.07-4.27-5.64c0-3.67,0.92-5.71,4.24-5.71
		c1.67,0,3.62,0.42,3.62,0.42l-0.05,1.02c0,0-1.98-0.33-3.43-0.33c-2.55,0-3.11,1.48-3.11,4.61c0,3.06,0.54,4.56,3.09,4.56
		c0.8,0,1.87-0.14,2.28-0.22v-3.4h-1.83V10.2z"/>
	<path d="M173.02,4.81h1.23v11.03h-1.23V4.81z"/>
	<path d="M178.22,4.81h6.71V5.9h-5.48v3.81h4.53v1.07h-4.53v3.99h5.48v1.08h-6.71V4.81z"/>
	<path d="M194.56,5.99c0,0-2.22-0.27-3.14-0.27c-1.56,0-2.39,0.56-2.39,1.8c0,1.43,0.77,1.67,2.69,2.1c2.2,0.49,3.17,1.04,3.17,2.97
		c0,2.44-1.34,3.4-3.52,3.4c-1.31,0-3.49-0.35-3.49-0.35l0.13-1.02c0,0,2.17,0.29,3.3,0.29c1.56,0,2.36-0.69,2.36-2.22
		c0-1.24-0.65-1.59-2.46-1.95c-2.28-0.49-3.43-1.04-3.43-3.14c0-2.14,1.4-2.97,3.56-2.97c1.31,0,3.33,0.32,3.33,0.32L194.56,5.99z"
		/>
	<path d="M9.04,4.81H5.11v1.08h3.93c2.29,0,2.82,1.88,2.82,4.27c0,2.39-0.53,4.58-2.82,4.58H6.34v-5.6H5.11v6.68h3.93
		c3.25,0,4.07-2.51,4.07-5.67C13.12,7.03,12.24,4.81,9.04,4.81z"/>
</g>
</svg>
