<svg id="Layer_1" data-name="Layer 1" xmlns="http://www.w3.org/2000/svg" viewBox="0 0 319 75">
  <defs>
    <style>
      .cls-1 {
        fill: #a5a5af;
      }
    </style>
  </defs>
  <title>logo-doorbird</title>
  <g>
    <g id="bUXmxe">
      <g>
        <path class="cls-1" d="M64.54,29.85a.34.34,0,0,1,.05-.4c.11-.11,4.53-3.29,4.53-3.29-1-2-3.64-2.54-6.83-2.2-.61.06-1.15-10.9-11.77-15.31-7.55-3.14-20-.77-25,8-2.63,4.67-4.1,9.48-3,14.89a29,29,0,0,1,.58,7.67c-.21,3.38-1.5,5.45-4.79,6.1-7,1.39-10.83-.41-10.83-.41a7.19,7.19,0,0,0,1.11,1.36C15.36,53,26.7,57.7,35,59v8.39h2.51s0-6.37,0-8.18c0,0,.7.07,1.36.07a12.11,12.11,0,0,0,1.44-.12l0,8.23h2.73V58.79A31,31,0,0,0,61.38,40s.64-3,1.42-3.74a35.54,35.54,0,0,1,4.27-2.57c.2-.1.32-.16.15-.42S64.6,30,64.54,29.85Zm-9-2.51a6.36,6.36,0,0,1-6.88,2.94,7.21,7.21,0,0,1-5.08-6.08c-.07-.54-.07-1.08-.08-1.28a8,8,0,0,1,2.24-6.1A6,6,0,0,1,55,17.3,9,9,0,0,1,55.5,27.34Z"/>
        <path class="cls-1" d="M74.55,30.78c2.54-2.92,2.84-11.16-6.7-13.22A2.91,2.91,0,0,1,66,16a40.49,40.49,0,0,0-2.68-4.64,24.59,24.59,0,0,0-17-11.1c-4.2-.68-8.38.22-12,1.12C28.32,2.87,22.93,7.06,19.21,13.15c-3.36,5.5-4.87,11.84-4,17,.09.56.21,1.6.32,2.6.15,1.29.29,2.51.39,3a3,3,0,0,1-.27,2.57,2.1,2.1,0,0,1-1.83.5A48,48,0,0,1,8.29,38,6.8,6.8,0,0,0,.81,41.35C-.67,44.13,0,47.19,2,49.7a50.47,50.47,0,0,0,10.77,9.11,62.57,62.57,0,0,0,13,6c2.13.61,2,1.29,2,1.93.16,2.12.05,8.25,7.83,8.25,2.93,0,5.86.12,8.78,0a6.31,6.31,0,0,0,6.11-6.36c0-.9,0-1.81,0-2.71a1.63,1.63,0,0,1,1-1.71c8.21-4,13.28-10.77,16.43-19.1a8,8,0,0,1,3.68-4.53c3.46-1.95,3.68-5.68,2.55-8.76C74,31.08,74,31.38,74.55,30.78ZM73.06,31a9.85,9.85,0,0,1,.46,2.49q0,.29,0,.56a5.68,5.68,0,0,1-.15,1.06,5.09,5.09,0,0,1-.59,1.45,5.72,5.72,0,0,1-.65.87A8.5,8.5,0,0,1,70.19,39l-.32.2a7.9,7.9,0,0,0-1.12.89A7.53,7.53,0,0,0,67.32,42a10.64,10.64,0,0,0-.46,1l-.14.35a42.19,42.19,0,0,1-4,8l-.44.66q-.89,1.32-1.9,2.54a30.23,30.23,0,0,1-4.54,4.45q-.63.5-1.3,1l-.68.46a30.91,30.91,0,0,1-3.65,2.08,2.08,2.08,0,0,0-.63.44,1.39,1.39,0,0,0-.14.18,1.58,1.58,0,0,0-.23,1c0,.43,0,.86,0,1.28s0,.64,0,1c0,.11,0,.21,0,.32a8.11,8.11,0,0,1-.34,2.35q-.08.27-.19.53a6,6,0,0,1-.8,1.41,4.87,4.87,0,0,1-4.6,2.33H35.5c-5.19,0-6.52-3.92-6.52-7.19a2.32,2.32,0,0,0-2-2.56C19.16,61.74,9.19,57,2.42,49.33A6.57,6.57,0,0,1,1.29,41.6a6.26,6.26,0,0,1,6.89-3.09,48.58,48.58,0,0,0,5.55.81A2.59,2.59,0,0,0,16,38.65a3.44,3.44,0,0,0,.4-3c-.1-.47-.24-1.73-.39-3-.12-1.05-.24-2-.33-2.62-.81-5,.68-11.2,4-16.59,3.64-6,8.92-10.07,14.84-11.55C38,1,42.15.11,46.25.77A24.07,24.07,0,0,1,62.92,11.64a30.17,30.17,0,0,1,2.63,4.56,3,3,0,0,0,1.54,1.63,3.93,3.93,0,0,0,.78.31c2.7.76,5.18,1.9,6.54,4.59a7.34,7.34,0,0,1,.4,1.33q0,.22.07.43a6,6,0,0,1,0,.85,5.71,5.71,0,0,1-.17,1.24,6.5,6.5,0,0,1-.87,2,8.41,8.41,0,0,1-.55.75l-.15.21a1.57,1.57,0,0,0-.19.41,1.44,1.44,0,0,0-.05.42A2.51,2.51,0,0,0,73.06,31Z"/>
        <path class="cls-1" d="M52,19.62a3.58,3.58,0,0,0-3.22,3l2.84,1.29-2.77,1.54A3.51,3.51,0,0,0,52,28.22c1.86,0,3.37-1.93,3.37-4.3S53.85,19.62,52,19.62Z"/>
      </g>
    </g>
    <g>
      <path class="cls-1" d="M263.1,16.76a3.53,3.53,0,1,1-3.46,3.57A3.5,3.5,0,0,1,263.1,16.76Z"/>
      <path class="cls-1" d="M253.7,44.68c0-6.79-6.26-7.94-6.67-8.14,1.47-1,2.83-1.68,3.65-3.07a8.94,8.94,0,0,0-4.4-12.64,16.53,16.53,0,0,0-5.69-1.11c-4.33,0-14.58,0-14.58,0v35s12,0,17.14,0a12.7,12.7,0,0,0,5.25-1.2A9.05,9.05,0,0,0,253.7,44.68ZM240.18,24.94c3.43,0,4.76,1.37,5.26,3.13.88,3.08-1.16,6.48-7.12,6.48h-6.48V24.94Zm7.28,21.25c-.5,1.76-1.83,3.13-5.26,3.13H231.83V39.71h8.5C246.3,39.71,248.34,43.11,247.46,46.19Z"/>
      <path class="cls-1" d="M131.55,27.61c-2.91-4.84-7.51-7-12.92-7.6-4.81-.58-16.07-.3-16.07-.3l0,35s9.34,0,13,0a24.19,24.19,0,0,0,4.57-.44C128,52.82,132.6,48,133.66,40.17,134.26,35.78,133.88,31.49,131.55,27.61Zm-3.64,11c-.57,6.94-4.69,10.35-12.25,10.58-1.94.06-7.31,0-7.31,0V25.17a88.55,88.55,0,0,1,9.83.32C125.6,26.66,128.5,31.46,127.91,38.63Z"/>
      <path class="cls-1" d="M313.35,17.54V31.93a12.17,12.17,0,0,0-3.19-2.8c-4.92-2.85-11.82-1.27-15.52,3.55-2.66,3.47-3,7.42-2.47,11.58A12.66,12.66,0,0,0,306.83,55a11.89,11.89,0,0,0,6.52-4v4H319V17.54Zm-2.6,30.69a6.87,6.87,0,0,1-5.18,1.92c-5.28,0-8.84-4.69-7.9-10.31.82-4.87,4.77-7.81,9.49-7.06a6.53,6.53,0,0,1,3.13,1.51A9.57,9.57,0,0,1,310.74,48.23Z"/>
      <path class="cls-1" d="M152.83,27.66a13.76,13.76,0,1,0-.25,27.53c8.12,0,14.14-5.79,14.17-13.69A13.62,13.62,0,0,0,152.83,27.66Zm-.07,22.46c-4.94,0-8.29-3.58-8.25-8.76s3.46-8.63,8.42-8.6,8.22,3.53,8.2,8.77S157.77,50.15,152.76,50.12Z"/>
      <path class="cls-1" d="M185.16,27.66a13.56,13.56,0,0,0-13.8,13.82c0,7.91,6,13.72,14,13.7A13.47,13.47,0,0,0,199.1,41.34,13.53,13.53,0,0,0,185.16,27.66Zm.13,22.46c-5,0-8.41-3.53-8.4-8.63s3.37-8.73,8.29-8.74,8.38,3.52,8.41,8.63S190.23,50.1,185.3,50.12Z"/>
      <path class="cls-1" d="M279.4,33.9s3.07-5.82,8.67-5.82v5.28c-.62,0-8.6-.54-8.6,9.31V54.92h-5.53V28.14h5.46Z"/>
      <rect class="cls-1" x="260.33" y="28.14" width="5.63" height="26.78"/>
      <path class="cls-1" d="M210.92,33.9s3.07-5.82,8.67-5.82v5.28c-.62,0-8.6-.54-8.6,9.31V54.92h-5.53V28.14h5.46Z"/>
    </g>
  </g>
</svg>
