<svg version="1.1" xmlns="http://www.w3.org/2000/svg" xmlns:xlink="http://www.w3.org/1999/xlink" x="0" y="0" viewBox="0, 0, 166.8, 75">
  <g id="Layer_2" transform="translate(-16.6, -37.5)">
    <path d="M70,53.8 L70,53.5 C70,51 69.2,48.7 67.3,46.9 C65.3,44.7 62.8,43.7 60,43.7 C57.2,43.7 54.7,44.7 52.7,46.9 C50.7,49.1 49.7,51.5 49.7,54.5 C49.7,57.5 50.7,60 52.7,62 C54.7,64.2 57.2,65.2 60,65.2 C62.8,65.2 65.3,64.2 67.3,62 C68,61.3 69.3,59.2 69.6,57.5 L69.8,57.2 L67.5,56.5 L67.3,56.8 C67,57.6 66.5,59 65.5,60.1 C64.2,61.6 62.3,62.4 60,62.4 C57.8,62.4 56,61.6 54.5,60.1 C53,58.6 52.2,56.6 52.2,54.5 C52.2,54.3 52.2,54.2 52.2,54 L70,53.8 z M59.9,46.3 C62.1,46.3 63.9,47.1 65.4,48.6 C66.1,49.4 66.7,50.3 67.1,51.3 L52.6,51.3 C52.9,50.3 53.6,49.5 54.3,48.6 C55.9,47.1 57.8,46.3 59.9,46.3 z" fill="#fff"/>
    <path d="M82.5,46.3 C84.8,46.3 86.8,47.1 88.3,48.6 L88.6,48.9 C88.9,49.2 89.3,49.6 89.3,49.7 L89.6,49.9 L91.6,48.4 L91.4,48.1 C91.1,47.6 90.7,47.3 90.2,46.8 C88,44.6 85.4,43.6 82.4,43.6 C79.4,43.6 76.8,44.6 74.8,46.8 C72.6,49 71.6,51.4 71.6,54.4 C71.6,57.4 72.8,59.9 74.8,62 C77,64.2 79.4,65.2 82.4,65.2 C85.4,65.2 88,64.2 90.2,62 C90.7,61.7 91,61.2 91.4,60.7 L91.6,60.4 L89.8,58.7 L89.6,58.9 C89.4,59.1 89.1,59.4 88.8,59.7 C88.6,59.9 88.5,60 88.5,60 C86.8,61.7 84.8,62.3 82.7,62.3 C80.4,62.3 78.6,61.5 76.9,60 C75.2,58.3 74.4,56.5 74.4,54.4 C74.4,52.1 75.2,50.3 76.9,48.8 C78.3,47.1 80.3,46.3 82.5,46.3 z" fill="#fff"/>
    <path d="M98.9,37.5 L96.4,37.5 L96.4,45.3 L92.6,45.3 L92.6,47.8 L96.4,47.8 L96.4,64.5 L98.9,64.5 L98.9,47.8 L102.7,47.8 L102.7,45.3 L98.9,45.3 z" fill="#fff"/>
    <path d="M124,65 C127,65 129.5,64 131.5,61.8 C133.5,59.6 134.5,57.2 134.5,54.3 C134.5,51.3 133.5,48.8 131.5,46.7 C129.5,44.5 127,43.5 124,43.5 C121.2,43.5 118.7,44.5 116.5,46.7 C114.5,48.9 113.3,51.3 113.3,54.3 C113.3,57.3 114.3,59.8 116.5,61.8 C118.5,64 121,65 124,65 z M124,46.3 C126.2,46.3 128.1,47.1 129.6,48.6 C131.1,50.3 131.9,52.1 131.9,54.4 C131.9,56.7 131.1,58.5 129.4,60 C127.9,61.7 126.1,62.3 123.9,62.3 C121.7,62.3 119.9,61.5 118.3,60 C116.8,58.5 116,56.5 116,54.4 C116,52.2 116.8,50.3 118.3,48.6 C119.8,47.1 121.7,46.3 124,46.3 z" fill="#fff"/>
    <path d="M137.7,44.6 L137.7,64.5 L140.2,64.5 L140.2,49.9 C140.5,49.4 140.9,48.7 141.4,48.2 C142.6,47.2 143.7,46.7 145.2,46.7 C146.7,46.7 148,47.2 149,48.2 C150,49.2 150.7,50.4 150.7,51.9 L150.7,64.5 L153.2,64.5 L153.2,51.8 C153.2,49.6 152.4,47.8 150.9,46.3 C149.6,45 147.7,44.1 145.4,44.1 C143.6,44.1 141.9,44.8 140.4,45.9 L140.4,44.6 C140.4,44.6 137.7,44.6 137.7,44.6 z" fill="#fff"/>
    <path d="M157,39.5 C156.7,39.8 156.3,40.3 156.3,41 C156.3,41.7 156.5,42.2 157,42.5 C157.5,42.8 158,43.2 158.5,43.2 C159,43.2 159.5,43 160,42.5 C160.5,42.2 160.7,41.5 160.7,41 C160.7,40.5 160.5,40 160,39.5 C159.2,38.7 157.8,38.7 157,39.5 z" fill="#fff"/>
    <path d="M157.2,45.3 L159.7,45.3 L159.7,64.5 L157.2,64.5 z" fill="#fff"/>
    <path d="M173.6,65 C176.6,65 179.2,64 181.4,61.8 C181.9,61.3 182.2,61 182.6,60.5 L182.9,60 L180.2,59 L180,59.2 C179.8,59.4 179.7,59.7 179.5,59.9 C177.8,61.6 175.8,62.2 173.7,62.2 C171.4,62.2 169.6,61.4 167.9,59.9 C166.2,58.2 165.4,56.4 165.4,54.3 C165.4,52 166.2,50.2 167.9,48.7 C169.6,47.2 171.6,46.4 173.7,46.4 C176,46.4 178,47.2 179.5,48.7 C179.7,48.9 179.8,49.2 180.2,49.4 L180.4,49.6 L183.1,48.6 L182.8,48.1 C182.5,47.6 182.1,47.3 181.6,46.8 C179.4,44.6 177,43.6 173.8,43.6 C170.8,43.6 168.2,44.6 166.2,46.8 C163.7,49.1 162.7,51.6 162.7,54.6 C162.7,57.6 163.9,60.1 165.9,62.2 C167.9,64 170.6,65 173.6,65 z" fill="#fff"/>
    <path d="M104.2,45.5 L104.2,64.7 L106.7,64.7 L106.7,53.7 C106.7,53 107.5,50.9 108.7,49.4 C109.7,48.2 110.7,47.1 112.2,47.7 L112.5,47.9 L114.5,45.7 L114,45.4 C112.8,44.7 111.5,44.6 110.2,45.1 C108.7,45.6 107.5,46.8 106.9,47.8 L106.9,45.5 L104.2,45.5 L104.2,45.5 z" fill="#fff"/>
    <path d="M149.9,74.5 C147.7,74.5 145.4,75.7 144.4,76.7 C143.9,77.2 143.6,77.5 143.4,77.9 C143.2,77.6 142.9,77.2 142.4,76.9 C140.9,75.4 139.1,74.7 136.8,74.7 C135,74.7 133.1,75.4 131.8,76.5 L131.8,75.2 L129.3,75.2 L129.3,95.1 L131.8,95.1 L131.8,80.5 C132.1,80 132.5,79.3 133,78.8 C134.2,77.8 135.3,77.3 136.8,77.3 C138.3,77.3 139.6,77.8 140.6,78.8 C141.8,79.8 142.3,81.1 142.3,82.5 L142.3,94.6 L142.5,94.9 L145,94.9 L145,82.1 C145.2,79.9 145.7,79.1 146.2,78.6 C147.4,77.6 148.5,77.1 150,77.1 C151.5,77.1 152.8,77.6 153.8,78.6 C155,79.6 155.5,80.9 155.5,82.3 L155.5,94.9 L158,94.9 L158,82.1 C158,79.9 157.2,78.1 155.7,76.6 C154.2,75.1 152.2,74.5 149.9,74.5 z" fill="#fff"/>
    <path d="M183.4,84.6 L183.4,84.3 C183.4,81.8 182.6,79.5 180.7,77.7 C178.7,75.5 176.2,74.5 173.4,74.5 C170.6,74.5 168.1,75.5 166.1,77.7 C164.1,79.9 163.1,82.3 163.1,85.3 C163.1,88.3 164.1,90.8 166.1,92.8 C168.1,94.8 170.6,96 173.4,96 C176.2,96 178.7,95 180.7,92.8 C181.5,92 182.7,90 183.2,88.3 L183.4,88 L180.9,87.3 L180.7,87.6 C180.4,88.4 179.9,89.8 178.9,90.9 C177.6,92.4 175.7,93.2 173.4,93.2 C171.2,93.2 169.4,92.4 167.9,90.9 C166.4,89.4 165.6,87.4 165.6,85.3 C165.6,85.1 165.6,85 165.6,84.8 L183.4,84.8 L183.4,84.6 z M166.1,82.1 C166.4,81.1 167.1,80.3 167.8,79.4 C169.3,77.7 171.1,77.1 173.3,77.1 C175.5,77.1 177.3,77.9 178.8,79.4 C179.5,80.2 180.1,81.1 180.5,82.1 L166.1,82.1 z" fill="#fff"/>
    <path d="M114.4,74.5 C111.6,74.5 109.1,75.5 106.9,77.7 C104.9,79.9 103.7,82.3 103.7,85.3 C103.7,88.3 104.7,90.8 106.9,92.8 C108.9,95 111.4,96 114.4,96 C117.4,96 119.9,95 121.9,92.8 C123.9,90.6 124.9,88.2 124.9,85.3 C124.9,82.3 123.9,79.8 121.9,77.7 C119.8,75.5 117.3,74.5 114.4,74.5 z M122.3,85.3 C122.3,87.5 121.5,89.4 120,90.9 C118.5,92.6 116.7,93.2 114.4,93.2 C112.1,93.2 110.4,92.4 108.8,90.9 C107.3,89.4 106.5,87.4 106.5,85.3 C106.5,83.1 107.3,81.2 108.8,79.5 C110.3,77.8 112.1,77.2 114.4,77.2 C116.6,77.2 118.5,78 120,79.5 C121.7,81.1 122.3,83 122.3,85.3 z" fill="#fff"/>
    <path d="M21.9,63.9 L40.5,63.9 L40.5,58.9 L21.9,58.9 L21.9,48.5 L40.5,48.5 L40.5,43.6 L16.6,43.6 L16.6,88.3 L53.5,88.3 L53.5,83.6 L21.9,83.6 z" fill="#fff"/>
    <path d="M93.4,83.6 L61.1,83.6 L61.1,70 L55.8,70 L55.8,112.5 L61.1,112.5 L61.1,88.3 L93.4,88.3 L93.4,112.5 L98.8,112.5 L98.8,70 L93.4,70 z" fill="#fff"/>
    <path d="M43.8,37.5 L46.3,37.5 L46.3,64.5 L43.8,64.5 z" fill="#fff"/>
  </g>
</svg>
