<?xml version="1.0" encoding="utf-8"?>
<!-- Generator: Adobe Illustrator 23.0.2, SVG Export Plug-In . SVG Version: 6.00 Build 0)  -->
<svg version="1.0" id="Layer_1" xmlns="http://www.w3.org/2000/svg" xmlns:xlink="http://www.w3.org/1999/xlink" x="0px" y="0px"
	 width="200px" height="29.77px" viewBox="0 0 200 29.77" style="enable-background:new 0 0 200 29.77; fill:#A5A5AF" xml:space="preserve">
<title>elan</title>
<g>
	<path d="M156.74,7.67v0.86c0,5.97,0,11.95,0,17.92c0.05,0.79-0.21,1.57-0.72,2.18c-0.54,0.64-1.35,0.99-2.19,0.96
		c-1.96,0-3.93,0-5.89,0c-0.26,0-0.54,0-0.81,0c-0.8,0.03-1.57-0.28-2.12-0.85c-1.33-1.28-2.66-2.54-3.99-3.82L122.26,6.96
		c-0.18-0.17-0.36-0.33-0.56-0.52c-0.21,0.19-0.4,0.35-0.57,0.52c-7.56,7.23-15.12,14.46-22.67,21.69
		c-0.74,0.74-1.74,1.14-2.79,1.13c-13,0-26,0-39,0c-0.45,0-0.9-0.07-1.33-0.21c-0.99-0.33-1.68-1.23-1.76-2.27
		c-0.03-0.29-0.04-0.58-0.03-0.87c0-6.57,0-13.14,0-19.72V5.87H5.49c-0.05,2.08,0,4.16-0.02,6.27c0.14,0.03,0.29,0.06,0.44,0.07
		c0.21,0,0.41,0,0.62,0c12.4,0,24.8,0,37.2,0c1.32,0,2.27,0.56,2.83,1.74c0.66,1.29,0.14,2.88-1.16,3.53
		c-0.33,0.17-0.68,0.26-1.05,0.28c-0.31,0.03-0.62,0.02-0.93,0.02H5.51v6.28c0.13,0.03,0.26,0.05,0.4,0.07c0.2,0,0.41,0,0.62,0H43.3
		c0.33,0,0.66,0.02,0.99,0.06c0.29,0.05,0.56,0.13,0.83,0.26c1.03,0.49,1.77,1.26,1.77,2.47s-0.74,2.02-1.81,2.51
		c-0.51,0.23-1.07,0.34-1.63,0.32c-13.33,0-26.66,0-39.99,0c-0.47,0.01-0.93-0.04-1.39-0.15C0.88,29.3,0.16,28.26,0,26.93
		C0,26.84,0,26.76,0,26.67C0,18.89,0,11.1,0,3.31c0-0.58,0.15-1.15,0.44-1.66C0.89,0.8,1.76,0.27,2.72,0.27c0.23,0,0.45,0,0.68,0
		c17.4,0,34.8,0,52.21,0c0.23,0,0.45,0,0.68,0c1.48,0.03,2.66,1.24,2.66,2.72c0,0.31-0.02,0.62-0.02,0.93v20.24
		c0.26,0,0.46,0.03,0.66,0.03c11.7,0,23.4,0,35.09,0c0.35,0.01,0.69-0.12,0.93-0.37c7.98-7.65,15.97-15.29,23.96-22.93
		c1.16-1.17,3.05-1.18,4.22-0.02c0.01,0.01,0.01,0.01,0.02,0.02c7.95,7.6,15.89,15.2,23.83,22.8c0.24,0.26,0.58,0.39,0.93,0.38
		c0.89-0.02,1.77,0,2.72,0c0.01-0.28,0.03-0.52,0.03-0.78c0-6.59,0-13.19,0-19.78c-0.01-0.33,0.01-0.66,0.05-0.99
		c0.32-1.94,2.27-2.91,3.99-1.97c2.5,1.36,4.99,2.75,7.49,4.13c10.32,5.71,20.65,11.41,30.97,17.12c0.21,0.12,0.43,0.23,0.74,0.4
		c0-0.32,0.03-0.55,0.03-0.78c0-5.99,0-11.99,0-17.98c-0.01-0.27,0-0.54,0.03-0.8c0.17-1.4,1.39-2.44,2.81-2.37
		c1.38,0.08,2.48,1.18,2.57,2.56c0,0.17,0,0.33,0,0.5c0,7.75,0,15.5,0,23.25c0.01,0.35-0.03,0.69-0.11,1.03
		c-0.35,1.43-1.78,2.3-3.21,1.96c-0.09-0.02-0.18-0.05-0.27-0.08c-0.25-0.09-0.5-0.2-0.73-0.34c-11.33-6.26-22.67-12.52-34-18.79
		c-1.45-0.8-2.89-1.6-4.34-2.39C157.18,7.88,157.01,7.8,156.74,7.67z"/>
	<path d="M109.55,29.2l11.83-10.77c3.98,3.57,7.9,7.13,11.85,10.71C132.74,29.3,110.69,29.36,109.55,29.2z"/>
</g>
</svg>
