<svg id="Layer_1" data-name="Layer 1" xmlns="http://www.w3.org/2000/svg" viewBox="0 0 335.22 75">
  <defs>
    <style>
      .cls-1 {
        fill: #a5a5af;
      }
    </style>
  </defs>
  <title>logo-focal</title>
  <g>
    <path class="cls-1" d="M28.49,0C39,.21,49.4,1,59.63,3.4a35.12,35.12,0,0,1,8.44,3c.64.34.79.62.45,1.35-1.25,2.68-2.42,5.39-3.56,8.12-.28.67-.57.74-1.24.58a143.68,143.68,0,0,0-22.89-3.78A125.16,125.16,0,0,0,7,14.21c-2,.38-2.25.27-3.07-1.53C2.66,10,1.5,7.28.2,4.62c-.42-.86-.15-1.1.59-1.39A42.13,42.13,0,0,1,10.94.89,126.39,126.39,0,0,1,28.49,0Z"/>
    <path class="cls-1" d="M16.63,22.27a145.62,145.62,0,0,1,29.91,6c3,.95,6,2,9,3.1.65.24.74.46.44,1.1-1.15,2.38-2.24,4.79-3.31,7.21-.27.6-.48.81-1.2.56a150,150,0,0,0-26.06-6.76c-3.13-.5-6.29-.9-9.46-1.1-.82-.05-.94-.28-.85-1.05.3-2.7.51-5.42.74-8.13C15.86,22.54,15.9,22,16.63,22.27Z"/>
    <path class="cls-1" d="M28.14,45a24.44,24.44,0,0,0,3.8,10.85,20.33,20.33,0,0,0,10.6,7.93c.84.29.85.59.53,1.29-1.43,3.1-2.8,6.21-4.2,9.33-.17.37-.23.77-.85.45-5.3-2.79-9.62-6.55-12.07-12.14A17.48,17.48,0,0,1,28.14,45Z"/>
    <path class="cls-1" d="M19.11,20.28c4.5-2,8.81-4.1,13.34-5.69a12.71,12.71,0,0,1,5.6-.28c5.8.6,11.59,1.18,17.39,1.8.27,0,.8-.21.83.34s-.49.45-.78.52a121.69,121.69,0,0,0-18.08,6.14,6,6,0,0,1-3.58,0L19.42,20.5C19.37,20.49,19.32,20.43,19.11,20.28Z"/>
    <path class="cls-1" d="M32.26,53A16.58,16.58,0,0,1,30.46,43a2,2,0,0,1,.75-1.33q2.3-1.81,4.61-3.61a1.72,1.72,0,0,1,1.66-.31c4.2,1.23,8.42,2.44,12.73,3.68a8.44,8.44,0,0,1-2.06,1c-2.22,1-4.45,2-6.67,3a21.07,21.07,0,0,0-8.62,7.07c-.12.17-.24.34-.37.51S32.36,53,32.26,53Z"/>
    <g>
      <path class="cls-1" d="M85.62,7.79h38.17v8.36H95V26h18.73v8.36H95V56.44H85.62Z"/>
      <path class="cls-1" d="M151.91,7C167.23,7,178,17.64,178,32.15s-10.8,25.16-26.11,25.16S125.8,46.67,125.8,32.15,136.6,7,151.91,7Zm0,8c-10,0-16.36,7.35-16.36,17.19s6.36,17.19,16.36,17.19,16.36-7.42,16.36-17.19S161.83,15,151.91,15Z"/>
      <path class="cls-1" d="M183.63,32.15C183.63,17.2,195.34,7,210,7c10.72,0,17.08,5.11,20.91,10.94l-7.66,4.35A15.34,15.34,0,0,0,210,15.41c-9.73,0-16.39,6.53-16.39,16.74S200.32,48.89,210,48.89c5.9,0,10.8-2.78,13.25-6.86L231,46.37C227,52.21,220.77,57.31,210,57.31,195.34,57.31,183.63,47.1,183.63,32.15Z"/>
      <path class="cls-1" d="M267,7.79H256.06l-22.3,48.65h10.48l4.81-11H273.9l4.9,11h10.48Zm-5.46,8.92,8.4,18.91h-16.8Z"/>
      <path class="cls-1" d="M296.32,7.79h9.59V48.08h29.31v8.36h-38.9Z"/>
    </g>
  </g>
</svg>
