<?xml version="1.0" encoding="utf-8"?>
<!-- Generator: Adobe Illustrator 23.0.2, SVG Export Plug-In . SVG Version: 6.00 Build 0)  -->
<svg version="1.0" id="Layer_1" xmlns="http://www.w3.org/2000/svg" xmlns:xlink="http://www.w3.org/1999/xlink" x="0px" y="0px"
	 width="200px" height="72.9px" viewBox="0 0 200 72.9" style="enable-background:new 0 0 200 72.9;fill:#A5A5AF" xml:space="preserve">
<g>
	<path d="M0,1.42c7.35,0,14.56,0,21.77,0c0.08,0.2,0.18,0.33,0.18,0.45c0.01,0.28-0.02,0.56-0.05,1.04c-6.72,0-20.23,0-20.23,0
		v20.83h12.65c0-7.93,5.26-16.6,13.84-20.62c8.53-4,16.74-2.76,24.73,2.61c0.07-1.54,0.18-4.27,0.18-4.27S64.1,1.37,68.83,1.37
		c5.61,0,9.72,2.67,12.31,7.46c4.83,8.91-0.28,19.79-10.18,22c-0.54,0.12-1.08,0.25-1.94,0.45c3.75,5.36,7.38,10.56,11.08,15.85
		c-0.46,0.34-0.83,0.6-1.34,0.97c-4.31-6.16-8.56-12.22-13.03-18.6c0.96,0,1.59,0.02,2.22,0c5.34-0.17,9.36-2.63,11.8-7.33
		c2.47-4.76,2.12-9.59-0.95-13.97c-2.37-3.38-5.74-5.26-10.02-5.22C64.7,3.03,55.45,3.07,54.76,3.12c0,1.45,0,2.79,0,4.31
		c4.67,4.69,7.29,10.44,7.28,17.28c-0.01,6.79-2.58,12.51-7.45,17.39c0,1.71,0,3.49,0,5.36c-0.55,0-0.95,0-1.5,0
		c-0.06-1.18-0.12-2.33-0.2-3.8c-8,5.36-16.3,6.6-24.89,2.51c-8.55-4.07-12.9-11.2-13.7-20.66c-4.23,0-12.77,0-12.77,0L1.5,47.47H0
		C0,47.47,0,16.87,0,1.42z M52.94,8.17c-6.42-5.93-17.02-7.95-26.1-2.52c-7.67,4.55-10.7,11.83-10.7,18.09c1.72,0,3.77,0,5.72,0
		c-0.03,0.64-0.06,1.1-0.09,1.72c-1.96,0-3.73,0-5.49,0c0.34,8.07,4.09,15.17,12.17,19.15c8.83,4.34,19,1.97,24.49-3.48
		C52.94,30.18,52.94,19.18,52.94,8.17z M54.75,38.9c0.14,0.03,0.29,0.07,0.43,0.1c3.77-4.57,5.59-9.85,5.19-15.81
		c-0.33-4.86-2.08-9.2-5.27-12.87c-0.12,0.03-0.24,0.07-0.36,0.1C54.75,19.91,54.75,29.4,54.75,38.9z"/>
	<path d="M179.06,4.2c4.07-3.87,8.64-4.93,13.69-2.41c3.64,1.82,5.59,4.94,6.15,9.02c-0.27,0.12-0.47,0.25-0.68,0.29
		c-0.22,0.05-0.46,0.01-0.82,0.01c-0.13-0.51-0.26-1-0.4-1.49c-1.11-3.88-3.58-6.4-7.55-7.27c-3.98-0.87-7.18,0.58-9.63,3.69
		c-2.69,3.41-3.02,7.28-1.61,11.27c1.14,3.21,3.84,4.38,6.97,4.77c1.22,0.15,2.45,0.18,3.68,0.24c5.19,0.25,8.95,3.14,10.36,8.16
		c1.29,4.57,1.15,8.99-1.87,12.96c-4.2,5.52-12.01,6.8-17.78,2.91c-0.54-0.37-1.07-0.75-1.64-1.14c-5.5,3.72-11.03,4.13-16.52,0.17
		c-3.36-2.43-5.49-7.08-4.87-10.37c0.37,0,0.77,0,1.26,0c0.62,5.84,3.52,9.85,9.37,11.22c3.46,0.81,6.61-0.08,9.53-2.37
		c-1.79-2.52-3-5.14-2.93-8.37c0.51-0.03,0.94-0.05,1.48-0.08c0.33,2.61,0.83,5.05,2.74,7.14c0.41-0.48,0.8-0.86,1.1-1.31
		c2.72-4.09,2.22-11.09-1.04-14.76c-1.44-1.62-3.27-2.54-5.41-2.86c-0.84-0.12-1.7-0.13-2.54-0.2c-1.08-0.08-2.18-0.09-3.25-0.28
		c-5.01-0.88-7.6-3.48-8.35-8.48c-0.53-3.5,0.13-6.78,2.21-9.71c4.17-5.87,11.92-6.68,17.24-1.81C178.3,3.49,178.64,3.81,179.06,4.2
		z M179.28,43.98c0.45,0.37,0.81,0.73,1.23,1.01c3.67,2.39,7.52,2.66,11.46,0.77c4.64-2.22,6.81-6.58,6.2-12.26
		c-0.66-6.07-4.49-9.64-10.38-9.61c-1.91,0.01-3.87-0.34-5.72-0.85c-2.6-0.72-4.42-2.5-5.38-5.05c-0.81-2.16-1.22-4.42-0.75-6.68
		c0.4-1.92,1.1-3.77,1.74-5.9c-0.11-0.14-0.39-0.51-0.71-0.84c-3.67-3.73-9.62-3.87-13.42-0.25c-2.74,2.61-3.92,5.86-3.48,9.63
		c0.55,4.7,2.79,6.98,7.49,7.65c1.26,0.18,2.54,0.18,3.81,0.25c3.49,0.19,6.41,1.49,8.56,4.32c2.85,3.77,3.93,11.85,0.11,16.68
		C179.79,43.17,179.58,43.53,179.28,43.98z"/>
	<path d="M0.34,55.36c0-0.33,0-0.55,0-1.02c65.78,0,131.51,0,197.36,0c-0.09,0.54-0.12,0.76-0.16,1.02
		C131.78,55.36,66.08,55.36,0.34,55.36z"/>
	<path d="M197.93,71.88c0,0.32,0,0.55,0,0.76c-1.49,0.4-196.19,0.33-197.32-0.08c0.03-0.2,0.06-0.41,0.1-0.68
		C66.49,71.88,132.19,71.88,197.93,71.88z"/>
	<path d="M106.78,1.37c0.66,0,1.17,0,1.68,0c4.63,0,9.27,0.03,13.91-0.01c5.31-0.05,9.28,2.38,12.03,6.75
		c5.41,8.6,0.53,20.27-9.38,22.64c-0.68,0.16-1.36,0.3-2.35,0.52c3.73,5.35,7.34,10.52,11.03,15.8c-0.4,0.34-0.74,0.63-1.26,1.08
		c-4.33-6.18-8.59-12.26-13.07-18.65c1.14,0,1.92,0.02,2.7,0c5.3-0.17,10.23-3.81,12.08-8.89c1.84-5.08,0.47-10.93-3.51-14.43
		c-2.33-2.06-5.02-3.27-8.25-3.2l-14.04,0.15c0,14.79,0,29.47,0,44.31c-0.6,0.03-1.03,0.06-1.57,0.09
		C106.78,32.12,106.78,16.87,106.78,1.37z"/>
	<path d="M137.28,1.32c0,0,14.99,0,22.52,0l0.1,1.51h-20.86v20.75h20.73l0.12,1.71c0,0-13.94,0-20.95,0c0,7.03,0,20.9,0,20.9h20.66
		l0.09,1.54h-22.4L137.28,1.32L137.28,1.32z"/>
	<polygon points="104.82,1.61 104.82,3.07 92.63,3.16 92.48,47.57 90.88,47.57 90.88,3.17 78.64,3.17 78.64,1.61 	"/>
	<path d="M196.95,60.18c-0.31,0.25-0.58,0.48-1.04,0.85c-0.36-0.45-0.64-0.89-1.01-1.24c-1.91-1.81-4.75-1.74-6.62,0.14
		c-1.88,1.9-1.89,4.88-0.03,6.75c1.85,1.86,4.75,1.93,6.64,0.13c0.58-0.55,1.12-1.16,0.87-2.23c-1.16,0-2.32,0-3.59,0
		c-0.07-0.47-0.12-0.8-0.19-1.26c1.82,0,3.5,0,5.38,0c0.18,1.68-0.17,3.15-1.38,4.37c-1.75,1.77-4.69,2.25-6.96,1.18
		c-2.43-1.14-3.86-3.65-3.55-6.22c0.32-2.63,2.25-4.74,4.77-5.37C192.87,56.63,195.77,57.99,196.95,60.18z"/>
	<path d="M151.98,60.76c0,2.77,0,5.54,0,8.43c-0.49,0.03-0.82,0.05-1.27,0.07c0-4.07,0-8.02,0-12.36c1.28,1.11,2.17,2.18,3.13,3.17
		c0.99,1.02,1.94,2.07,2.93,3.08c0.98,1,1.98,1.98,3.2,3.19c0.38-3.08-0.01-5.93,0.26-8.87c0.35-0.04,0.68-0.08,1.15-0.14
		c0,4.17,0,8.21,0,12.61c-3.22-3.12-5.96-6.37-8.97-9.33C152.26,60.66,152.12,60.71,151.98,60.76z"/>
	<path d="M71.65,69.26c-0.62,0-0.98,0-1.39,0c-0.54-1.2-1.05-2.36-1.58-3.56c-1.51,0-2.96,0-4.51,0c-0.51,1.17-1.02,2.33-1.55,3.53
		c-0.43,0-0.81,0-1.42,0c1.73-4.26,3.39-8.36,5.05-12.45c0.11-0.02,0.21-0.04,0.32-0.05C68.24,60.83,69.9,64.94,71.65,69.26z
		 M68.03,64.14c-0.51-1.4-0.8-2.6-1.75-3.82c-0.57,1.41-1.01,2.51-1.54,3.82C65.96,64.14,66.86,64.14,68.03,64.14z"/>
	<path d="M33.48,63.42c0,1.62,0,2.97,0,4.54c1.53,0,2.96,0,4.5,0c0,0.56,0,0.89,0,1.29c-1.98,0-3.85,0-5.83,0c0-3.98,0-7.87,0-11.85
		c1.96,0,3.83,0,5.83,0c0.02,0.35,0.03,0.69,0.06,1.2c-1.54,0-2.93,0-4.5,0c0,1.21,0,2.24,0,3.46c1.43,0,2.78,0,4.24,0
		c0.03,0.51,0.06,0.84,0.09,1.36C36.38,63.42,35.03,63.42,33.48,63.42z"/>
	<path d="M7.48,59.11c-0.35,0.29-0.6,0.49-0.88,0.72c-0.18-0.15-0.34-0.25-0.45-0.38c-0.52-0.6-1.13-0.99-1.96-0.94
		c-0.86,0.06-1.39,0.53-1.64,1.33c-0.24,0.76,0.11,1.31,0.71,1.68c0.84,0.52,1.71,1.01,2.61,1.41c2.06,0.93,2.58,2.68,1.75,4.4
		c-0.85,1.75-3.14,2.6-4.97,1.83c-1.1-0.46-1.88-1.22-2.18-2.54c0.29-0.18,0.58-0.37,0.92-0.58c0.33,0.46,0.58,0.85,0.89,1.2
		c1.04,1.2,2.86,1.13,3.82-0.12c0.74-0.97,0.63-2-0.39-2.68c-0.82-0.54-1.72-0.99-2.61-1.42c-1.26-0.6-2.08-1.46-1.99-2.95
		c0.08-1.3,0.88-2.37,2.09-2.76c1.45-0.47,2.7-0.1,3.75,0.98C7.12,58.49,7.25,58.76,7.48,59.11z"/>
	<path d="M101.09,58.52c-1.03,0.07-1.83,0.12-2.88,0.19c0,3.52,0,6.97,0,10.57c-0.6-0.03-0.94-0.05-1.43-0.08c0-3.5,0-6.89,0-10.39
		c-0.54-0.08-0.94-0.16-1.34-0.2c-0.42-0.04-0.84-0.05-1.38-0.08c-0.03-0.37-0.06-0.71-0.1-1.14c2.38,0,4.63,0,7.01,0
		C101.01,57.71,101.04,58.05,101.09,58.52z"/>
	<path d="M125.82,69.22c-0.38,0-0.72,0-1.14,0c0-3.93,0-7.78,0-11.75c0.34-0.04,0.68-0.08,1.14-0.14
		C125.82,61.33,125.82,65.22,125.82,69.22z"/>
</g>
</svg>
