<svg id="Layer_1" data-name="Layer 1" xmlns="http://www.w3.org/2000/svg" viewBox="0 0 170.43 75">
  <defs>
    <style>
      .cls-1 {
        fill: #9d9ea1;
      }
    </style>
  </defs>
  <title>logo-future-automation</title>
  <g>
    <path class="cls-1" d="M0,69.19c.93-3.35,3.49-4.07,6.51-4.07h6.28c.8-2.77-.45-4.49-3.22-4.51s-5.27,0-8,0V58c3.58.2,7.16-.41,10.68.35a4.26,4.26,0,0,1,3.47,4.24c.16,4,0,8,0,12.2-4-.16-8,.31-12-.25C1.73,74.3.62,72.79,0,70.89ZM12.92,67.8c-2.8,0-5.52-.06-8.23,0C3.46,67.87,3,68.87,3,70s.48,2.09,1.64,2.14c2.76.12,5.52,0,8.32,0Z"/>
    <path class="cls-1" d="M67.94,58.1h2.43l.11,2C72,57.79,74.35,58,76.57,58.08s4.64-.63,5.89,2.21c1.12-2,3-2.29,5-2.23,1.22,0,2.44,0,3.67,0,2.36.06,4.06,1.33,4.36,3.64.56,4.32.08,8.66.25,13H92.82c0-.78,0-1.56,0-2.34,0-2.93,0-5.85,0-8.78a2.71,2.71,0,0,0-3-3c-1.14,0-2.27,0-3.41,0-2.2.07-3.32,1.23-3.32,3.45,0,3.52,0,7,0,10.65H80.3c0-.79,0-1.59,0-2.4,0-3.1,0-6.19-.12-9.28a2.37,2.37,0,0,0-2.51-2.39,35.47,35.47,0,0,0-4.09,0c-1.89.11-3,1.4-3,3.48,0,3.47,0,6.93,0,10.4a.85.85,0,0,1-.08.21H67.94Z"/>
    <path class="cls-1" d="M108.42,43.83v2.63c-3.64-.11-7.25.26-10.84-.2-2.65-.33-3.91-2-3.92-4.62q0-3.33,0-6.65c0-3.24,1.36-4.89,4.58-5.25a30,30,0,0,1,7.14,0,3.87,3.87,0,0,1,3.7,3.71,8.28,8.28,0,0,1,.07,1.19c0,1.47,0,2.94,0,4.47H96.51c0,.93,0,1.8.16,2.65a2.23,2.23,0,0,0,2.55,2.06Zm-2-6.93c0-.71,0-1.32,0-1.94,0-2.06-.72-2.75-2.79-2.76-1.11,0-2.22,0-3.32,0-3.54-.1-4.08,1.2-3.62,4.71Z"/>
    <path class="cls-1" d="M100,60.61V58.06h2.35c2.24,0,4.49,0,6.73,0,3,.09,5,1.82,5.12,4.75.17,3.94,0,7.88,0,12-1.49,0-2.93,0-4.36,0-2.47-.06-4.95.24-7.4-.16-2.71-.45-4.05-2.24-3.94-5.08a4.42,4.42,0,0,1,4.38-4.27c2.77-.13,5.55,0,8.27,0,.73-3.15-.44-4.64-3.41-4.65Zm11.33,7.18c-2.81,0-5.52-.07-8.23,0-1.1,0-1.62.87-1.68,2s.33,2.12,1.53,2.28a77.82,77.82,0,0,0,8.38.16Z"/>
    <path class="cls-1" d="M64,66.4c0,1.08,0,2.16,0,3.24,0,3.14-1.4,4.84-4.51,5.1a35.12,35.12,0,0,1-7.65-.08,4.1,4.1,0,0,1-3.74-4.17c-.08-2.64-.07-5.28,0-7.93a4.29,4.29,0,0,1,4.34-4.44c2.44-.1,4.89-.1,7.33,0A4.21,4.21,0,0,1,64,62.39c.06,1.33,0,2.67,0,4Zm-2.79,0c0-1,0-2,0-3a2.66,2.66,0,0,0-2.7-2.79,27.81,27.81,0,0,0-5,0A2.42,2.42,0,0,0,51,63a60.63,60.63,0,0,0-.07,6.63c.1,1.87,1.08,2.63,3,2.66,1.42,0,2.84,0,4.26,0a2.86,2.86,0,0,0,3-3C61.25,68.28,61.23,67.34,61.22,66.4Z"/>
    <path class="cls-1" d="M170.42,74.79h-2.83c0-.32,0-.62,0-.93,0-3.47,0-6.94,0-10.4a2.52,2.52,0,0,0-2.77-2.82c-1.51,0-3,0-4.52,0a2.9,2.9,0,0,0-3,3.14c0,3.63,0,7.27,0,11H154.5V58.06H157l.12,1.7a5,5,0,0,1,3.76-1.7,30.91,30.91,0,0,1,5.78.08,3.77,3.77,0,0,1,3.55,3.47C170.65,66,170.26,70.34,170.42,74.79Z"/>
    <path class="cls-1" d="M72.68,45.13c-2.12,2-9.53,1.87-11.56-.23a5.34,5.34,0,0,1-1.35-3.33,8.36,8.36,0,0,1,0-.85c0-3.66,0-7.32,0-11h2.83q0,4,0,8.06,0,1.36,0,2.73c0,2.18.89,3.21,3.06,3.37a25.69,25.69,0,0,0,3.83,0c2.3-.17,3.41-1.42,3.42-3.73,0-3.46,0-6.92,0-10.44h2.68V46.4h-2.2l-.18-1.27c0-.19,0-.23-.06-.69A2.56,2.56,0,0,1,72.68,45.13Z"/>
    <path class="cls-1" d="M19.58,58h2.77c0,3.34,0,6.62,0,9.91,0,3.53.82,4.34,4.37,4.34,5.43,0,5.92-.5,5.92-5.95q0-4,0-8c0-.08.06-.15.12-.28h2.49c.2.63.26,15.56.07,16.73H33.17l-.25-1.45c-3.43,2.33-7.17,1.91-10.85.78-1.75-.54-2.44-2.26-2.47-4C19.54,66.07,19.58,62.1,19.58,58Z"/>
    <path class="cls-1" d="M121.09,52.15v5.9h4.23v2.37H121c0,3.26-.13,6.41.05,9.55.1,1.68,1.69,2,3.11,2.26.33.06.68,0,1.09.07v2.41C121,75.15,117.88,73.3,118,69c.12-5.59,0-11.18,0-16.84Z"/>
    <path class="cls-1" d="M52.66,32c0,3.18,0,6.22,0,9.26,0,1.45,1.06,2.12,2.35,2.41.61.14,1.23.18,1.9.28v2.39c-4.43.72-7.28-1.64-7.29-6,0-5.51,0-11,0-16.59h3.06v5.92h4.35V32Z"/>
    <path class="cls-1" d="M42.13,58.06h4.36v2.38H42.15c0,3.27-.15,6.42.06,9.54.11,1.69,1.73,2.06,3.2,2.25.3,0,.61.05,1,.08V74.7c-4.21.47-7.35-1.35-7.3-5.73.05-5.31,0-10.62,0-15.93,0-.28,0-.56,0-.89h3Z"/>
    <path class="cls-1" d="M22.7,29.44H27v2.39H22.53V46.4H19.79a3.31,3.31,0,0,1-.07-.48c0-5.29,0-10.58,0-15.86,0-4.52,3-7.13,7.34-6.51V26C23.65,26.52,22.72,27.25,22.7,29.44Z"/>
    <path class="cls-1" d="M82.38,46.41h-2.7V29.69h2.45l.11,1.69c2.26-2.43,5.2-1.52,8-1.78v2.57H86.37c-2.8,0-4,1.22-4,4C82.38,39.56,82.38,42.94,82.38,46.41Z"/>
    <path class="cls-1" d="M130.94,74.77h-2.78V58.11h2.78Z"/>
    <path class="cls-1" d="M131.11,54.15h-2.84V51.88h2.84Z"/>
    <path class="cls-1" d="M145,43.64l-.27.3-.1-.08.26-.34Z"/>
    <path class="cls-1" d="M150.6,66.4c0,1.08,0,2.16,0,3.24,0,3.14-1.4,4.84-4.51,5.1a35.12,35.12,0,0,1-7.65-.08,4.1,4.1,0,0,1-3.74-4.17c-.08-2.64-.07-5.28,0-7.93A4.29,4.29,0,0,1,139,58.13c2.44-.1,4.89-.1,7.33,0a4.21,4.21,0,0,1,4.22,4.27c.06,1.33,0,2.67,0,4Zm-2.79,0c0-1,0-2,0-3a2.66,2.66,0,0,0-2.7-2.79,27.81,27.81,0,0,0-5,0A2.42,2.42,0,0,0,137.6,63a60.63,60.63,0,0,0-.07,6.63c.1,1.87,1.08,2.63,3,2.66,1.42,0,2.84,0,4.26,0a2.86,2.86,0,0,0,3-3C147.83,68.28,147.81,67.34,147.81,66.4Z"/>
    <path class="cls-1" d="M43,45.13c-2.12,2-9.53,1.87-11.56-.23a5.34,5.34,0,0,1-1.35-3.33,8.36,8.36,0,0,1,0-.85c0-3.66,0-7.32,0-11h2.83q0,4,0,8.06,0,1.36,0,2.73c0,2.18.89,3.21,3.06,3.37a25.69,25.69,0,0,0,3.83,0c2.3-.17,3.41-1.42,3.42-3.73,0-3.46,0-6.92,0-10.44h2.68V46.4h-2.2l-.18-1.27c0-.19,0-.23-.06-.69A2.56,2.56,0,0,1,43,45.13Z"/>
    <path class="cls-1" d="M146,.26c-4.4-1.05-8.12,1.13-9.15,5.37,0,.17,0,.34-.06.51a20.25,20.25,0,0,0-3.69-.21,26.15,26.15,0,0,1,3.29-4.2A16.37,16.37,0,0,0,132.53,6a14.21,14.21,0,0,0-9.21,5.13,16.76,16.76,0,0,1,2.92-5A19.21,19.21,0,0,1,134.9.52c-10.46,1.14-18.71,11.94-18.75,22.55,0,10.9,7.26,20.46,17.51,22.91,4.4,1.05,8.12-1.13,9.15-5.37a22.54,22.54,0,0,0,4.86-.52A31.28,31.28,0,0,1,145,43.32,16.24,16.24,0,0,0,148.27,40,13.32,13.32,0,0,0,154.19,37c.85-.84,1.61-1.78,2.4-2.68-.08.28-.16.55-.26.83a16.76,16.76,0,0,1-2.92,5,19.21,19.21,0,0,1-8.66,5.61c10.46-1.14,18.71-11.94,18.75-22.55C163.54,12.27,156.23,2.71,146,.26ZM123.29,11.17,138,32.27c-1.58-.6-3.24-1-4.85-1.57A11.37,11.37,0,0,1,129,28.31c-3.84-3.25-6.22-7.27-6.44-12.4a16.07,16.07,0,0,1,6.25-2.25,23.7,23.7,0,0,0,.14,13.68c0,.1.07.2.1.3A11.41,11.41,0,0,0,133.13,30c1.61.54,3.26,1,4.85,1.57a7.1,7.1,0,0,1,4.93,7.25h0A7.08,7.08,0,0,0,138,32.27Zm4.93,7.36s0,.06,0,.09S142.9,39.67,142.9,39.64Zm6.51-6.39a17.11,17.11,0,0,1-13-4.22c-4.81-4.07-6.55-9.38-6.08-15.54h0a14.74,14.74,0,0,1,7.52.92C145.84,17.3,150.24,24.51,149.41,33.25Zm1.56-.16a24.34,24.34,0,0,0-.69-14.77,11.63,11.63,0,0,0-3.77-2.07c-1.61-.54-3.26-1-4.85-1.57a7.1,7.1,0,0,1-4.93-7.2A7.08,7.08,0,0,0,141.67,14c1.58.6,3.24,1,4.85,1.57a11.37,11.37,0,0,1,4.16,2.39c3.84,3.25,6.22,7.27,6.44,12.4,0,.2,0,.4,0,.6A16.52,16.52,0,0,1,151,33.09Z"/>
  </g>
</svg>
