<svg id="Layer_1" data-name="Layer 1" xmlns="http://www.w3.org/2000/svg" viewBox="0 0 254.87 75">
  <defs>
    <style>
      .cls-1 {
        fill: #a5a5af;
      }
    </style>
  </defs>
  <title>logo-iport</title>
  <g>
    <path class="cls-1" d="M17.4,54l8.1-8.11C30.19,50.6,35,55.41,39.77,60.2c3.18,3.17,4.75,3.2,7.87.09q9.57-9.53,19.09-19.11c2.87-2.89,2.87-4.53,0-7.4q-9.63-9.69-19.32-19.33c-2.83-2.81-4.58-2.79-7.41,0Q25.57,28.91,11.17,43.39a23.77,23.77,0,0,0-2.2,3l-9-9c11-11,21.86-22.24,33.06-33.1,6.18-6,15.68-5.62,21.86.42q10.9,10.65,21.54,21.56a15.78,15.78,0,0,1,0,22.35c-7,7.2-14,14.51-21.41,21.23-2.87,2.59-7,4.85-10.71,5.12-3.44.24-7.8-1.56-10.48-3.91C27.95,65.84,22.81,59.71,17.4,54Z"/>
    <path class="cls-1" d="M120.51,49.45V65.31h-9.27c-.07-.81-.22-1.7-.23-2.59,0-10.06-.1-20.11,0-30.17.14-11.7,6.12-19.85,16.28-22.56a21.66,21.66,0,1,1,8.61,42.4C130.93,53.1,130.18,53,120.51,49.45Zm12.24-6.11a12.32,12.32,0,1,0-.24-24.63,12.32,12.32,0,0,0,.24,24.63Z"/>
    <path class="cls-1" d="M178.16,23.09A21.58,21.58,0,0,1,199.7,44.68c.07,11.72-9.64,21.64-21.16,21.63-12.5,0-22.16-9.42-22.15-21.58A21.52,21.52,0,0,1,178.16,23.09Zm-12.38,21.5A12.39,12.39,0,0,0,178,57.14a12.41,12.41,0,1,0,0-24.82A12.31,12.31,0,0,0,165.78,44.59Z"/>
    <path class="cls-1" d="M232.57,14h8.71v9.24h13.59v9.4H241.58c0,4.86-.36,9.36.1,13.78.5,4.9,5,8.79,10,9.53,1,.15,2,.28,3.23.44v8.72c-9.07,1.63-18.86-4.91-21.61-14.79-.93-3.36-.94-7-1-10.57-.11-8.17,0-16.34,0-24.51A8.34,8.34,0,0,1,232.57,14Z"/>
    <path class="cls-1" d="M204,65.32c0-8.13-.42-16,.1-23.8.75-11.17,11.76-19.38,23.9-18.27v8.85c-1.05.16-2.15.37-3.26.49-7.22.8-11.49,5.4-11.59,12.75-.09,6.58,0,13.17,0,20Z"/>
    <path class="cls-1" d="M102.9,65.69H93.81V27.11h9.09Z"/>
    <path class="cls-1" d="M37,38.1A7.19,7.19,0,0,1,44,30.85a7.4,7.4,0,0,1,7.4,7.32,7.45,7.45,0,0,1-7.31,7.11A7.24,7.24,0,0,1,37,38.1Z"/>
    <path class="cls-1" d="M104.31,15.15a6,6,0,1,1-11.95.26,6,6,0,0,1,11.95-.26Z"/>
  </g>
</svg>
