<svg xmlns="http://www.w3.org/2000/svg" width="567.113" height="112.333" viewBox="0 0 567.113 112.333">
  <g id="Group_5" data-name="Group 5" transform="translate(-152 -512)">
    <g id="download" transform="translate(152 512)">
      <path id="Path_47" data-name="Path 47" d="M212.334-99.239A3,3,0,0,0,210.3-96.3c0,3.392-77.9,81.067-87.964,87.738A129.557,129.557,0,0,1,87.624,7.493c-12.55,3.279-34.711,3.392-47.148.113C21.256,2.406,6.784-5.622,6.784-11.388c0-2.261-.565-2.714-3.392-2.714C1.47-14.1,0-13.65,0-13.084,0-10.71,11.533-2.23,20.917,2.292,39.007,11,58.115,14.051,80.162,11.9,103.68,9.529,116.795,4.78,134.885-8.109c5.992-4.3,23.63-20.691,50.087-47.035,22.5-22.274,41.607-40.364,42.738-40.364,3.166,0,1.357-2.714-2.261-3.5C221.605-99.917,215.047-100.03,212.334-99.239Z" transform="translate(0 99.768)" fill="#a5a5af"/>
      <path id="Path_48" data-name="Path 48" d="M371.819-69.927c-8.932,2.94-14.811,6.105-28.492,15.49-11.419,7.914-34.6,19.673-38.668,19.673-3.279,0-1.922-2.94,4.975-11.193,11.306-13.568,13.681-20.691,7.349-22.274-4.183-1.018-23.065,9.384-46.243,25.439-3.731,2.6-7.01,4.409-7.349,4.07s.9-3.392,2.714-6.671c2.827-5.314,3.166-6.671,2.261-10.4-.791-3.053-1.809-4.523-3.392-4.749-2.827-.339-17.525,8.254-24.535,14.359-6.671,5.992-8.028,5.992-5.992,0,2.148-5.992,2.148-8.367-.113-10.628-1.7-1.7-2.035-1.583-4.862.226-12.55,8.367-32.336,20.578-32.675,20.238-.226-.226,1.922-3.844,4.749-8.028,2.827-4.07,5.2-7.914,5.2-8.48,0-1.809-3.731-2.261-6.105-.565-1.357.9-7.236,5.2-13.115,9.61a192.566,192.566,0,0,1-18.2,11.872c-23.97,12.663-6.105-7.575,20.351-23.178,5.879-3.392,6.332-3.5,7.688-1.583s1.7,1.922,5.314.113c5.427-2.6,7.914-6.558,6.671-10.628-1.7-4.862-5.088-4.523-14.246,1.131C183.568-58.847,164.46-44.6,157.224-37.7c-12.1,11.306-11.759,20.578.678,18.2,4.862-.9,10.4-3.618,21.482-10.4,4.523-2.827,8.367-4.975,8.48-4.749a35,35,0,0,1,1.7,3.5c2.6,6.105,10.289,3.618,29.17-9.384a83.442,83.442,0,0,1,8.593-5.54c.339,0,.226,1.922-.339,4.183-1.131,5.2,1.131,9.384,4.975,9.384,1.47,0,7.123-3.392,12.776-7.462,10.176-7.462,16.96-11.646,16.055-9.837-5.427,10.854-5.54,11.533-3.844,14.811,2.374,4.523,4.636,6.219,7.462,5.314,1.357-.452,11.646-6.9,22.726-14.359,11.193-7.575,20.578-13.342,20.917-13,.452.339-2.148,4.523-5.653,9.384-6.9,9.384-8.028,14.359-4.3,17.751,3.618,3.279,9.271,2.261,21.6-3.731,6.332-3.166,11.759-5.653,12.1-5.653.226,0,.452,1.583.452,3.392,0,4.862,4.409,9.045,9.5,9.045,12.55,0,45.565-8.028,68.517-16.733,6.558-2.374,12.1-3.957,12.324-3.392.226.678-.678,2.487-1.809,4.183-1.922,2.487-3.618,3.166-11.872,4.183-11.08,1.47-16.055,3.731-18.429,8.367-2.261,4.409-2.148,7.462.565,10.176,4.523,4.523,15.038,1.7,25.1-6.9l5.314-4.409,15.6,2.261c56.871,8.48,88.19,8.819,102.775,1.357,8.254-4.183,10.628-9.271,4.3-9.271a3.812,3.812,0,0,0-3.731,2.487c-4.523,11.872-28.944,13.907-71.909,5.879-13.115-2.374-39.912-8.932-40.929-9.95-.226-.226.9-3.053,2.487-6.445C432.535-50.48,434-60.769,432.2-60.769c-.339,0-5.2,2.035-10.967,4.409-27.361,11.533-71.23,23.178-79.6,21.03-2.94-.678-3.392-3.618-1.018-6.9,1.583-2.035,1.7-2.035,2.374-.226,1.018,2.487,5.653,2.6,14.472.339,16.055-4.183,29.057-14.359,29.057-22.613C386.518-71.171,381.317-73.093,371.819-69.927Zm7.914,6.105c0,2.6-5.992,7.349-13.907,11.08-8.141,3.731-17.751,5.653-17.751,3.5,0-1.922,9.837-8.254,19.221-12.324C376.455-65.518,379.734-66.2,379.734-63.822Z" transform="translate(19.381 103.471)" fill="#a5a5af"/>
      <path id="Path_49" data-name="Path 49" d="M382.761-37.283l-.668.2s-8.62,1.8-12.711,3.592-4.329,2.935-3.65,3.583,1.868,1.08,5.568-.935S382.761-37.283,382.761-37.283Z" transform="translate(48.871 108.767)" fill="#fff"/>
    </g>
    <text id="LOUDSPEAKER" transform="translate(308 619)" fill="#a5a5af" font-size="23" font-family="HelveticaNeue, Helvetica Neue" letter-spacing="0.54em"><tspan x="0" y="0">LOUDSPEAKER</tspan></text>
  </g>
</svg>
