<svg xmlns="http://www.w3.org/2000/svg" width="448" height="75.2" viewBox="0 0 448 75.2">
  <g id="logo_footer" transform="translate(0 75.2)">
    <path id="Path_54" data-name="Path 54" d="M0-65.5V-56H18V-75H0Z" fill="#a5a5af"/>
    <path id="Path_55" data-name="Path 55" d="M39-49.4v25.6l-2.9,2.9a10.07,10.07,0,0,1-13.8.5c-2.4-2.1-2.8-3.2-3.1-9.5L18.8-37H0v8.3c0,7,.4,9.2,2.6,13.6C5.7-8.9,11-4.7,18.3-2.5c6,1.8,19.4,2,24.8.4C51.7-4.7,58-13.3,60-25.1c.5-3.5,1-16.2,1-28.2V-75H39Z" fill="#a5a5af"/>
    <path id="Path_56" data-name="Path 56" d="M85.5-74C76-71.7,69.2-66.1,66.6-58.4,64-50.8,63.8-51,74.9-51h9.9L86-54.5C87.5-59,91.3-61,98.5-61c4.6,0,6,.4,8,2.5,2.5,2.4,2.5,2.7,2.5,18.7,0,10.9-.4,17.1-1.3,18.7-2.1,4.1-6,6.2-12.4,6.8-5.2.5-6.2.3-8.7-1.9a6.893,6.893,0,0,1-2.8-6.1c0-6.3,2.7-8.2,13.5-10.1l7.2-1.2.3-6.2c.3-7.2,1.4-6.8-13.1-4.7-13.1,2-18.4,3.8-22.6,7.7-4.5,4.2-6.1,8.5-6.1,16,.1,7.9,2.2,12.3,7.8,16.3l4.4,3,17.4.3L110-.8V-5.3l2.3,2.1c2,1.9,3.5,2.2,10.1,2.2h7.7l-.3-29.2c-.3-26-.5-29.7-2.1-33-2.2-4.4-7.5-8.2-14.2-10.3C108.2-75.1,91-75.4,85.5-74Z" fill="#a5a5af"/>
    <path id="Path_57" data-name="Path 57" d="M130-74.1c0,1.6,23.2,40.1,23.9,39.6.4-.2,2.7-5.3,5-11.3l4.3-10.9-5.7-9.1L151.8-75H140.9C134.9-75,130-74.6,130-74.1Z" fill="#a5a5af"/>
    <path id="Path_58" data-name="Path 58" d="M174.1-72.8c-.5,1.3-7,17.8-14.5,36.6C152.1-17.3,146-1.6,146-1.4c0,.3,4.8.3,10.6.2l10.6-.3,14.4-36C189.5-57.3,196-73.8,196-74.2c0-.5-4.7-.8-10.5-.8C175.5-75,174.9-74.9,174.1-72.8Z" fill="#a5a5af"/>
    <path id="Path_59" data-name="Path 59" d="M203-37.5V0h19V-75H203Z" fill="#a5a5af"/>
    <path id="Path_60" data-name="Path 60" d="M226-65.4c0,8.8.2,9.5,1.8,8.9,6.1-2.7,8.9-2.8,12.3-.9,5.3,3.1,5.8,6,5.8,32.6L246-1h20.9l.3-25.5.3-25.5,3.2-3.2c2.8-2.7,3.9-3.2,8.3-3.2,4.1,0,5.6.5,7.6,2.6,3.8,3.7,4.3,8.1,4.4,32.5V-1h20.1l-.3-28.8c-.3-27.2-.4-28.9-2.5-32.7-5.1-9.6-10.2-11.7-29-12.3L265-75.2v4.5l-2.3-2.1c-2.2-2.1-3.2-2.2-19.5-2.2H226Z" fill="#a5a5af"/>
    <path id="Path_61" data-name="Path 61" d="M333.4-73a24.568,24.568,0,0,0-16.9,18.7l-.7,3.3h20l1.2-3c2.1-5,5.5-7,12.1-7,4.7,0,6.3.5,8.6,2.4l2.8,2.4v16.4c0,14-.3,16.8-1.8,19.1-2.6,4.1-6.1,5.8-12.4,6.4-4.9.4-6.2.2-8.5-1.7-2.2-1.7-2.8-3-2.8-6.1,0-4.9,3.5-8.6,8.9-9.5,2-.3,5.4-.9,7.6-1.3l4-.7.3-6.2c.2-4.6,0-6.2-1-6.2-4.2.1-23,3.3-27,4.6-4.9,1.6-11.1,7.4-12.8,12-1.6,4.2-1.1,13.5.9,18.1a17.922,17.922,0,0,0,6.2,7c4.2,2.8,4.5,2.8,21.5,3.1,17.1.4,17.2.3,17.6-1.8l.3-2.2,2.7,2.1c2.1,1.7,4,2.1,9.7,2.1H381V-29.3c-.1-35.6-.4-36.8-11.9-42.5-5-2.4-6.8-2.7-17.6-2.9C341.8-74.9,338.3-74.6,333.4-73Z" fill="#a5a5af"/>
    <path id="Path_62" data-name="Path 62" d="M405-73.1c-6.9,2.4-12.9,8.7-15.5,16.2-1.5,4.5-1.9,9.6-2.3,30.6L386.8-1H409V-25.5c0-29.6.3-30.7,9-31.6,7.4-.7,10.6,2.4,11.5,11.5l.7,6.6H448v-8.3c-.1-12.8-4.2-19.7-14.9-24.4C425.3-75.2,412.7-75.8,405-73.1Z" fill="#a5a5af"/>
    <path id="Path_63" data-name="Path 63" d="M429-9.5V0h19V-19H429Z" fill="#a5a5af"/>
  </g>
</svg>

