<svg id="Layer_1" data-name="Layer 1" xmlns="http://www.w3.org/2000/svg" viewBox="0 0 79.49 75">
  <defs>
    <style>
      .cls-1 {
        fill: #a5a5af;
      }
    </style>
  </defs>
  <title>logo-jl-audio</title>
  <g>
    <g>
      <path class="cls-1" d="M.14,71.29h1.3v.77c0,1.54.4,1.86,2.18,1.86H6.05c1.6,0,2.27-.26,2.27-1.51V65.11H9.71v7c0,2.26-1,2.85-3.55,2.85H3.53C1.09,75,.14,74.2.14,72.37Z"/>
      <path class="cls-1" d="M10.59,65.11H12v8.7h8v1.08H10.59Z"/>
      <path class="cls-1" d="M29.87,65.11H31.6l6.1,9.78H36.13l-1.28-2.07H26.62l-1.28,2.07H23.77Zm.87,1.08-3.45,5.55h6.89Z"/>
      <path class="cls-1" d="M37.63,65.11H39v7.31c0,.95.34,1.5,2.23,1.5h4.82c1.89,0,2.23-.55,2.23-1.5V65.11h1.39v7.32c0,2-1,2.57-3.66,2.57H41.28c-2.61,0-3.66-.58-3.66-2.57Z"/>
      <path class="cls-1" d="M50.58,65.11h8.3c3.45,0,4.38,1,4.38,4.89,0,3.59-.94,4.89-4.42,4.89H50.58Zm11.29,4.42c0-2.82-.92-3.34-2.62-3.34H52v7.62h7c1.69,0,2.85-.35,2.85-3.28Z"/>
      <path class="cls-1" d="M64.09,65.11h1.39v9.78H64.09Z"/>
      <path class="cls-1" d="M66.26,68.67c0-2.47.88-3.66,3.66-3.66h5.91c2.78,0,3.66,1.19,3.66,3.66v2.67c0,2.47-.88,3.66-3.66,3.66H69.91c-2.78,0-3.66-1.19-3.66-3.66Zm11.84-.5c0-1.7-1.08-2.08-2.41-2.08H70.06c-1.33,0-2.41.38-2.41,2.08v3.67c0,1.7,1.08,2.08,2.41,2.08h5.63c1.33,0,2.41-.38,2.41-2.08Z"/>
    </g>
    <polygon class="cls-1" points="37.5 62.81 0 62.81 0 52.21 19.8 42.59 28.46 0 37.5 0 37.5 62.81"/>
    <polygon class="cls-1" points="41.98 62.81 79.49 62.81 79.49 52.21 59.69 42.59 51.02 0 41.98 0 41.98 62.81"/>
  </g>
</svg>
