<svg xmlns="http://www.w3.org/2000/svg" width="301.12" height="340.586" viewBox="0 0 301.12 340.586">
  <g id="Group_5" data-name="Group 5" transform="translate(-252.391 -288.844)">
    <path id="Path_59" data-name="Path 59" d="M193.391,254.352l57.95-33.548-57.95-33.539" transform="translate(59.001 283.91)" fill="#a5a5af"/>
    <path id="Path_60" data-name="Path 60" d="M193.391,175.457l57.95-33.543-57.95-33.543" transform="translate(59.001 271.636)" fill="#a5a5af"/>
    <path id="Path_61" data-name="Path 61" d="M199.391,260.255,257.336,293.8V226.7" transform="translate(59.934 290.045)" fill="#a5a5af"/>
    <path id="Path_62" data-name="Path 62" d="M199.391,181.363,257.336,214.9V147.824" transform="translate(59.934 277.774)" fill="#a5a5af"/>
    <path id="Path_63" data-name="Path 63" d="M199.391,102.464l57.945,33.552V68.926" transform="translate(59.934 265.5)" fill="#a5a5af"/>
    <path id="Path_64" data-name="Path 64" d="M261.535,214.9l57.95-33.539-57.95-33.539" transform="translate(69.602 277.774)" fill="#a5a5af"/>
    <path id="Path_65" data-name="Path 65" d="M261.535,136.016l57.95-33.552-57.95-33.539" transform="translate(69.602 265.5)" fill="#a5a5af"/>
    <path id="Path_66" data-name="Path 66" d="M267.535,299.7l57.945,33.548V266.156" transform="translate(70.535 296.183)" fill="#a5a5af"/>
    <path id="Path_67" data-name="Path 67" d="M267.535,220.8l57.945,33.548V187.266" transform="translate(70.535 283.91)" fill="#a5a5af"/>
    <path id="Path_68" data-name="Path 68" d="M267.535,141.914l57.945,33.543V108.371" transform="translate(70.535 271.636)" fill="#a5a5af"/>
    <path id="Path_69" data-name="Path 69" d="M329.684,333.247,387.625,299.7l-57.941-33.543" transform="translate(80.203 296.183)" fill="#a5a5af"/>
    <path id="Path_70" data-name="Path 70" d="M329.684,254.352,387.625,220.8l-57.941-33.539" transform="translate(80.203 283.91)" fill="#a5a5af"/>
    <path id="Path_71" data-name="Path 71" d="M329.684,175.457l57.941-33.543-57.941-33.543" transform="translate(80.203 271.636)" fill="#a5a5af"/>
    <path id="Path_72" data-name="Path 72" d="M329.684,96.576l57.941-33.552L329.684,29.48" transform="translate(80.203 259.363)" fill="#a5a5af"/>
    <path id="Path_73" data-name="Path 73" d="M335.684,260.255,393.629,293.8V226.7" transform="translate(81.137 290.045)" fill="#a5a5af"/>
    <path id="Path_74" data-name="Path 74" d="M335.684,102.464l57.945,33.552V68.926" transform="translate(81.137 265.5)" fill="#a5a5af"/>
    <path id="Path_75" data-name="Path 75" d="M397.824,293.8l57.945-33.543L397.824,226.7" transform="translate(90.804 290.045)" fill="#a5a5af"/>
    <path id="Path_76" data-name="Path 76" d="M397.824,136.016l57.945-33.552L397.824,68.926" transform="translate(90.804 265.5)" fill="#a5a5af"/>
    <path id="Path_77" data-name="Path 77" d="M403.828,220.8l57.945,33.548V187.266" transform="translate(91.738 283.91)" fill="#a5a5af"/>
    <path id="Path_78" data-name="Path 78" d="M403.828,141.914l57.945,33.543V108.371" transform="translate(91.738 271.636)" fill="#a5a5af"/>
  </g>
</svg>

