<svg version="1.1" xmlns="http://www.w3.org/2000/svg" xmlns:xlink="http://www.w3.org/1999/xlink" x="0" y="0" viewBox="0, 0, 976.163, 136.768">
  <g id="Layer_1" transform="translate(0.5, 0)">
    <path d="M955.102,125.977 C946.512,125.977 939.546,119.011 939.546,110.421 C939.546,101.826 946.512,94.86 955.102,94.86 C963.697,94.86 970.663,101.826 970.663,110.421 C970.663,119.011 963.697,125.977 955.102,125.977 z" fill-opacity="0" stroke="#A5A5AF" stroke-width="2.488"/>
    <path d="M956.326,109.201 Q957.977,109.201 958.936,108.544 Q959.899,107.883 959.899,106.164 Q959.899,104.31 958.553,103.639 Q957.833,103.284 956.632,103.284 L950.904,103.284 L950.904,109.201 z M948.555,101.268 L956.573,101.268 Q958.553,101.268 959.841,101.848 Q962.279,102.955 962.279,105.939 Q962.279,107.496 961.636,108.486 Q960.992,109.476 959.841,110.074 Q960.853,110.488 961.366,111.159 Q961.879,111.834 961.938,113.341 L962.018,115.663 Q962.055,116.653 962.185,117.139 Q962.396,117.963 962.941,118.197 L962.941,118.588 L960.061,118.588 Q959.944,118.363 959.872,118.008 Q959.805,117.657 959.755,116.644 L959.615,113.755 Q959.534,112.054 958.355,111.478 Q957.68,111.159 956.245,111.159 L950.904,111.159 L950.904,118.588 L948.555,118.588 z" fill="#A5A5AF"/>
    <path d="M71.464,34.416 C70.317,34.299 69.151,34.24 67.981,34.24 C66.811,34.24 65.655,34.299 64.516,34.411 L60.979,0.355 C63.283,0.121 65.614,-0 67.981,-0 C70.321,-0 72.63,0.117 74.911,0.346 L71.464,34.416 L71.464,34.416 z" fill="#A5A5AF"/>
    <path d="M57.428,36.045 C56.33,36.382 55.237,36.783 54.152,37.246 C53.077,37.696 52.033,38.209 51.029,38.758 L34.469,8.788 C36.49,7.668 38.596,6.646 40.769,5.724 C42.925,4.806 45.098,4.018 47.281,3.334 L57.428,36.045 L57.428,36.045 z" fill="#A5A5AF"/>
    <path d="M45.958,42.241 C45.085,42.984 44.23,43.771 43.42,44.622 C42.605,45.463 41.845,46.332 41.134,47.232 L14.179,26.118 C15.605,24.3 17.144,22.536 18.787,20.835 C20.411,19.152 22.099,17.572 23.849,16.092 L45.958,42.241 L45.958,42.241 z" fill="#A5A5AF"/>
    <path d="M37.642,52.623 C37.111,53.64 36.616,54.693 36.18,55.782 C35.739,56.866 35.361,57.964 35.041,59.062 L2.133,49.585 C2.781,47.367 3.541,45.153 4.428,42.961 C5.301,40.797 6.282,38.691 7.344,36.675 L37.642,52.623 L37.642,52.623 z" fill="#A5A5AF"/>
    <path d="M33.911,65.281 C33.794,66.433 33.74,67.594 33.74,68.76 C33.74,69.939 33.794,71.091 33.911,72.229 L-0.149,75.762 C-0.383,73.458 -0.5,71.127 -0.5,68.755 C-0.5,66.415 -0.388,64.116 -0.154,61.834 L33.911,65.281 L33.911,65.281 z" fill="#A5A5AF"/>
    <path d="M35.55,79.317 C35.887,80.419 36.288,81.508 36.747,82.597 C37.206,83.668 37.71,84.717 38.263,85.716 L8.293,102.285 C7.177,100.255 6.151,98.145 5.229,95.976 C4.315,93.82 3.519,91.647 2.844,89.464 L35.55,79.317 L35.55,79.317 z" fill="#A5A5AF"/>
    <path d="M41.737,90.787 C42.48,91.665 43.276,92.52 44.118,93.325 C44.964,94.144 45.832,94.909 46.732,95.611 L25.614,122.575 C23.8,121.14 22.036,119.601 20.335,117.963 C18.652,116.343 17.068,114.651 15.588,112.9 L41.737,90.787 L41.737,90.787 z" fill="#A5A5AF"/>
    <path d="M52.119,99.103 C53.14,99.639 54.193,100.129 55.287,100.575 C56.367,101.007 57.46,101.394 58.563,101.704 L49.086,134.613 C46.863,133.969 44.653,133.209 42.462,132.318 C40.293,131.445 38.191,130.468 36.166,129.406 L52.119,99.103 L52.119,99.103 z" fill="#A5A5AF"/>
    <path d="M64.403,102.357 C65.551,102.469 66.707,102.523 67.882,102.523 C69.056,102.523 70.208,102.469 71.347,102.357 L74.884,136.413 C72.58,136.651 70.249,136.768 67.882,136.768 C65.542,136.768 63.233,136.651 60.952,136.417 L64.403,102.357 L64.403,102.357 z" fill="#A5A5AF"/>
    <path d="M78.434,100.719 C79.532,100.39 80.626,99.985 81.71,99.522 C82.786,99.063 83.83,98.563 84.833,98.01 L101.398,127.984 C99.373,129.087 97.267,130.117 95.093,131.044 C92.938,131.958 90.764,132.745 88.577,133.429 L78.434,100.719 L78.434,100.719 z" fill="#A5A5AF"/>
    <path d="M89.905,94.531 C90.778,93.793 91.633,92.992 92.443,92.155 C93.262,91.309 94.022,90.427 94.729,89.541 L121.684,110.65 C120.257,112.468 118.718,114.232 117.08,115.938 C115.456,117.612 113.764,119.2 112.013,120.681 L89.905,94.531 L89.905,94.531 z" fill="#A5A5AF"/>
    <path d="M98.221,84.141 C98.757,83.128 99.252,82.071 99.688,80.986 C100.125,79.906 100.507,78.808 100.827,77.706 L133.731,87.187 C133.087,89.406 132.322,91.606 131.436,93.802 C130.563,95.971 129.582,98.073 128.52,100.098 L98.221,84.141 L98.221,84.141 z" fill="#A5A5AF"/>
    <path d="M102.046,71.964 C102.159,70.816 102.217,69.651 102.217,68.481 C102.217,67.311 102.159,66.159 102.046,65.016 L136.107,61.474 C136.341,63.778 136.462,66.114 136.462,68.481 C136.462,70.821 136.341,73.134 136.111,75.415 L102.046,71.964 L102.046,71.964 z" fill="#A5A5AF"/>
    <path d="M100.417,57.933 C100.079,56.83 99.674,55.741 99.211,54.652 C98.752,53.577 98.253,52.537 97.703,51.534 L127.669,34.969 C128.785,36.999 129.811,39.1 130.734,41.278 C131.647,43.434 132.443,45.598 133.118,47.79 L100.417,57.933 L100.417,57.933 z" fill="#A5A5AF"/>
    <path d="M94.225,46.462 C93.483,45.585 92.691,44.734 91.845,43.915 C90.999,43.105 90.13,42.34 89.23,41.629 L110.344,14.679 C112.162,16.11 113.926,17.649 115.627,19.287 C117.315,20.907 118.894,22.594 120.375,24.349 L94.225,46.462 L94.225,46.462 z" fill="#A5A5AF"/>
    <path d="M83.839,38.137 C82.813,37.602 81.765,37.116 80.676,36.675 C79.591,36.234 78.498,35.86 77.4,35.541 L86.872,2.632 C89.095,3.28 91.305,4.041 93.501,4.927 C95.665,5.805 97.767,6.777 99.792,7.843 L83.839,38.137 L83.839,38.137 z" fill="#A5A5AF"/>
    <path d="M432.643,126.94 L463.963,126.94 L463.963,35.118 L508.671,35.118 L508.671,10.602 L387.81,10.602 L387.81,35.118 L432.643,35.118 L432.643,126.94 z" fill="#A5A5AF"/>
    <path d="M642.33,67.567 C642.33,102.177 669.19,129.91 714.852,129.897 C760.005,129.87 787.374,102.181 787.374,67.567 C787.374,31.959 760.477,6.885 714.825,6.885 C669.159,6.88 642.33,31.954 642.33,67.567 L642.33,67.567 z M678.613,70.015 C678.613,49.023 686.389,30.523 714.519,30.222 C742.959,29.92 754.438,48.487 752.823,69.417 C751.324,88.866 742.644,105.624 714.519,105.624 C687.294,105.628 678.613,88.87 678.613,70.015 L678.613,70.015 z" fill="#A5A5AF"/>
    <path d="M796.779,126.94 L828.229,126.94 L828.229,52.636 L828.643,52.636 L888.93,126.94 L925.181,126.94 L925.181,10.44 L893.389,10.602 L893.389,86.278 L892.975,86.278 L832.603,10.602 L796.779,10.602 L796.779,126.94 z" fill="#A5A5AF"/>
    <path d="M152.563,127.026 L251.136,127.026 L251.136,102.262 L183.987,102.262 L183.987,10.44 L152.563,10.44 L152.563,127.026 z" fill="#A5A5AF"/>
    <path d="M380.677,10.44 L349.362,10.44 L349.362,81.675 C349.362,99.486 339.286,106.542 316.143,106.542 C293.499,106.542 283.059,99.585 283.095,81.675 L283.095,10.44 L251.856,10.44 L251.856,81.675 C251.856,114.268 276.475,129.897 316.143,129.897 C355.608,129.897 380.677,114.102 380.677,81.675 L380.677,10.44 L380.677,10.44 z" fill="#A5A5AF"/>
    <path d="M515.483,126.94 L544.558,126.94 L544.558,81.621 L591.605,81.621 C603.836,81.436 606.055,87.408 608.039,99.805 C610.51,115.114 612.485,127.476 621.265,126.94 L645.925,126.94 C638.801,128.362 636.713,108.027 635.219,98.442 C631.21,72.778 626.845,71.518 614.866,71.041 L614.726,70.614 C629.837,65.83 639.418,54.202 639.053,40.099 C638.581,21.352 625.531,8.536 595.03,10.435 L515.479,10.435 L515.479,126.94 L515.483,126.94 z M544.144,34.344 L583.114,34.344 C597.59,34.344 607.652,36.409 607.652,47.992 C607.652,60.088 597.59,61.686 583.114,61.686 L544.144,61.686 L544.144,34.344 L544.144,34.344 z" fill="#A5A5AF"/>
  </g>
</svg>
