<svg version="1.1" xmlns="http://www.w3.org/2000/svg" xmlns:xlink="http://www.w3.org/1999/xlink" x="0" y="0" viewBox="0, 0, 200, 27.4">
  <g id="Layer_2" transform="translate(0, -111.8)">
    <path d="M-0,139.2 L6.3,139.2 L24.9,118.8 L24.9,133 L28.7,133 L42,118.8 L42,133 L47.2,133 L47.2,111.9 L41.9,111.9 L30.3,124 L30.3,111.9 L25,111.9 L-0,139.2 z" fill="#A5A5AF"/>
    <path d="M54.1,133 L70.3,133 L70.3,129.3 L59.1,129.3 L59.1,124.2 L67.8,124.2 L67.8,120.4 L59,120.4 L59,115.7 L70,115.7 L70,112 L54.2,112 L54.1,133 z" fill="#A5A5AF"/>
    <path d="M86,111.9 C94.8,111.9 94.2,118.1 94.2,118.1 C94.2,123.5 88.8,123.9 88.8,123.9 L95,132.9 L89.2,132.9 L83.5,124.8 L81.5,124.8 L81.5,132.9 L76.2,132.9 L76.1,111.8 L86,111.8 z M84.5,115.7 L84.1,115.7 L81.4,115.7 L81.4,120.8 L84.2,120.8 C84.2,120.8 88.6,121 88.5,118.2 C88.4,116.2 86.1,115.8 84.5,115.7 z" fill="#A5A5AF"/>
    <path d="M100.1,133 L105.1,133 L105.1,111.9 L100,111.9 L100.1,133 z" fill="#A5A5AF"/>
    <path d="M123.3,111.9 C136,111.9 136,122.2 136,122.2 C136,133 123.7,133 123.7,133 L112.1,133 L112.1,111.9 L123.3,111.9 z M117.5,115.8 L117.5,128.9 L121.7,128.9 C121.7,128.9 129.9,129.4 129.9,122.3 C129.9,122.3 130.4,115.8 121.8,115.8 L117.5,115.8 z" fill="#A5A5AF"/>
    <path d="M159.3,111.9 L164,111.9 L173.4,133 L167.8,133 L165.7,127.9 L157.5,127.9 L155.3,133 L149.7,133 L159.3,111.9 z M162,117.7 L161.5,117.7 L159.1,124.1 L164.4,124.1 L162,117.7 z" fill="#A5A5AF"/>
    <path d="M177.8,133 L182.7,133 L182.7,118.8 L194.6,133 L200,133 L200,111.9 L195.3,111.9 L195.3,126.7 L183.6,111.9 L177.8,111.9 L177.8,133 z" fill="#A5A5AF"/>
    <path d="M141,133 L146,133 L146,111.9 L140.9,111.9 L141,133 z" fill="#A5A5AF"/>
  </g>
</svg>
