<svg xmlns="http://www.w3.org/2000/svg" width="292.122" height="126" viewBox="0 0 292.122 126">
  <g id="Group_11" data-name="Group 11" transform="translate(-195.688 -765)">
    <g id="logo" transform="translate(191 813.905)">
      <path id="Path_95" data-name="Path 95" d="M41.962-44.689C26.385-38.755,25.4-33.315,40.231-35.54c9.149-1.484,11.374-.989,11.374,1.731,0,5.44-13.352,23.242-32.391,43.023C2.648,26.522-2.545,37.4,5.862,37.4c2.225,0,8.407-4.2,14.341-9.4C42.7,7.483,76.331-15.759,76.331-10.814c0,.742-4.7,7.171-10.138,14.341C50.863,22.813,45.671,37.4,54.572,37.4c1.236,0,8.654-5.687,16.319-12.61C82.018,14.654,109.217-2.16,114.657-2.16c3.462,0,0,5.934-11.127,18.792C96.607,24.3,91.167,31.715,91.167,32.951c0,3.956,7.418,4.945,12.116,1.731,2.473-1.978,9.149-7.171,15.083-11.621,14.836-11.127,34.616-10.385,22.253.742-6.182,5.687-6.429,13.6-.495,13.6,2.72,0,13.352-2.225,24.232-5.192,24.479-6.429,81.6-9.149,105.333-4.945,8.9,1.484,18.05,1.978,20.275,1.236,5.687-2.225,5.192-11.621-.247-10.385a5.193,5.193,0,0,0-4.2,4.7c.247,3.462-1.236,3.462-13.6.495-19.534-4.7-62.31-6.429-85.552-3.709-10.879,1.236-20.275,1.731-21.017,1.236-.742-.742,1.484-3.462,4.945-6.182,23.984-19.039,25.715-25.468,7.418-25.468a131.341,131.341,0,0,0-20.523,1.978l-9.4,1.978,3.956-6.182c2.225-3.462,3.462-7.418,2.473-8.9-2.225-3.709-23-.989-38.573,4.945l-11.374,4.2,3.709-6.676c1.978-3.709,2.967-8.407,2.225-10.879-1.978-4.945-7.912-4.2-30.66,3.214-7.171,2.473-13.1,3.956-13.1,3.709,0-.495,2.225-4.451,4.945-8.9,8.16-13.6,6.923-16.814-6.676-16.566A77.213,77.213,0,0,0,41.962-44.689Z" transform="translate(2.792 0)" fill="#a5a5af"/>
    </g>
    <path id="Path_96" data-name="Path 96" d="M140.688,650.428H430.84" transform="translate(55 207)" fill="none" stroke="#707070" stroke-width="1"/>
    <path id="Path_97" data-name="Path 97" d="M140.688,650.428H430.84" transform="translate(55 211)" fill="none" stroke="#707070" stroke-width="1"/>
    <text id="Middle_Atlantic_Products" data-name="Middle  Atlantic  Products" transform="translate(196 887)" fill="#a5a5af" font-size="18" font-family="Helvetica" letter-spacing="0.186em"><tspan x="0" y="0" xml:space="preserve">Middle  Atlantic  Products</tspan></text>
  </g>
</svg>
