<svg version="1.1" xmlns="http://www.w3.org/2000/svg" xmlns:xlink="http://www.w3.org/1999/xlink" x="0" y="0" viewBox="0, 0, 1500, 396.048">
  <g id="Layer_2" transform="translate(-50, -27)">
    <path d="M50,287.333 L50,36.667 L100,36.667 L100,64.667 C100,64.667 119.333,34 166.667,34 C166.667,34 189.333,31.333 218,51.333 C218,51.333 246,71.333 249.333,109.333 L249.333,287.333 L198.667,287.333 L198.667,135.333 C198.667,135.333 199.333,84.667 148.667,84.667 C148.667,84.667 100.667,84.667 100.667,136 L100.667,286.667 L50,287.333 z" fill="#A5A5AF"/>
    <path d="M399.778,33.836 C430.922,34.698 457.95,50.843 478,74 C478,74 498,98 498,131.333 L498,182 L342.667,182 C342.667,182 342,237.333 392,241.333 C392,241.333 423.333,250 456.667,218 L494,250.667 C494,250.667 464.667,290.667 397.333,290.667 C397.333,290.667 329.333,292.667 304,232 C304,232 273.333,160.667 308,84.667 C308,84.667 328.667,33.882 396.667,33.882 C397.702,33.814 398.741,33.837 399.778,33.836 z M396.155,82.234 C386.488,82.322 376.633,84.16 368,88.667 C341.333,105.333 342,140 342,140 L447.333,140 C447.333,106 424.667,90 424.667,90 C415.697,84.73 406.4,82.756 396.155,82.234 z" fill="#A5A5AF"/>
    <path d="M524.667,36.667 L586,36.667 L634.667,117.333 L684.667,36.667 L745.333,36.667 L664,160 L749.333,287.333 L687.333,287.333 L635.333,205.333 L582.667,287.333 L520.667,287.333 L605.333,160 L524.667,36.667 z" fill="#A5A5AF"/>
    <path d="M775.333,36.667 L826,36.667 L826,182.667 C826,182.667 821.333,239.333 874,239.333 C874,239.333 924.667,243.333 924.667,184 L924.667,36.667 L976.667,36.667 L976.667,287.333 L924,287.333 L924,261.333 C924,261.333 906,290.674 854.667,290.674 C854.667,290.674 775.333,286.667 775.333,196.667 L775.333,36.667 z" fill="#A5A5AF"/>
    <path d="M1189.333,105.333 L1220.667,68.667 C1220.667,68.667 1182.667,33.882 1127.333,33.882 C1127.333,33.882 1078,31.103 1052,56.667 C1052,56.667 1028.667,74 1028.667,116.667 C1028.667,116.667 1029.333,152.667 1062,170.667 C1062,170.667 1072.667,182 1131.333,185.333 C1131.333,185.333 1161.333,185.333 1170.667,196 C1170.667,196 1187.333,214 1164,233.333 C1164,233.333 1143.333,248 1103.333,240 C1103.333,240 1074,236.667 1048,209.333 L1012,246.667 C1012,246.667 1037.333,271.333 1075.333,283.333 C1075.333,283.333 1130,300.667 1175.333,280.667 C1175.333,280.667 1220.667,270.667 1226.667,218.667 C1226.667,218.667 1230.667,180 1206,158 C1206,158 1192.667,137.333 1129.333,136.667 C1129.333,136.667 1084,141.333 1079.333,114 C1079.333,114 1074.667,88.461 1108,82.23 C1108,82.23 1148.667,75.333 1189.333,105.333 z" fill="#A5A5AF"/>
    <path d="M1307.5,136 L1342,136 C1342,136 1338.5,115 1358.5,114 C1358.5,114 1367.5,113 1372,121.5 C1372,121.5 1377,129.5 1371.5,140 L1308,219 L1308,247 L1408,247 L1408,212.5 L1356,212.5 L1400,156.5 C1400,156.5 1417.5,131 1400,102.5 C1400,102.5 1386.5,79.5 1357,79.5 C1357,79.5 1334.5,78.5 1319,98.5 C1319,98.5 1307.5,109.5 1307.5,136 z" fill="#A5A5AF"/>
    <path d="M1433,100.5 L1433,140 L1455,123 L1455,247 L1489.5,247 L1489.5,82.23 L1459,82.23 L1433,100.5 z" fill="#A5A5AF"/>
    <path d="M1550,27 L1550,305 L1253.5,305 L1253.5,27 L1550,27 z M1526.5,50 L1277.5,50 L1277.5,281.5 L1526.5,281.5 L1526.5,50 z" fill="#A5A5AF"/>
    <path d="M92,375 L104,375 C104,375 102.75,354.75 87.5,349.75 C87.5,349.75 73.25,346 63.25,355 C63.25,355 56,362.25 54,372.25 C54,372.25 50.5,387.5 56,406.25 C56,406.25 62,423 77.75,423 C77.75,423 90.5,424 98.25,413.5 C98.25,413.5 104,404 104,394.5 L92.25,394.5 C92.25,394.5 92,410 78.75,409.75 C78.75,409.75 65.75,408 65,389.25 C65,389.25 64.25,383.75 65.5,375.75 C65.5,375.75 68.75,361.75 79,361.75 C79,361.75 89.75,360.25 92,375 z" fill="#A5A5AF"/>
    <path d="M354.333,375 L366.333,375 C366.333,375 365.083,354.75 349.833,349.75 C349.833,349.75 335.583,346 325.583,355 C325.583,355 318.333,362.25 316.333,372.25 C316.333,372.25 312.833,387.5 318.333,406.25 C318.333,406.25 324.333,423 340.083,423 C340.083,423 352.833,424 360.583,413.5 C360.583,413.5 366.333,404 366.333,394.5 L354.583,394.5 C354.583,394.5 354.333,410 341.083,409.75 C341.083,409.75 328.083,408 327.333,389.25 C327.333,389.25 326.583,383.75 327.833,375.75 C327.833,375.75 331.083,361.75 341.333,361.75 C341.333,361.75 352.083,360.25 354.333,375 z" fill="#A5A5AF"/>
    <path d="M167.353,348.872 C172.315,349.078 176.778,350.781 181,353.25 C181,353.25 191.25,360.5 193.25,379.25 C193.25,379.25 194.75,392.75 190.75,404 C190.75,404 187.25,413.75 179.5,419 C179.5,419 168.5,427 155.5,420 C155.5,420 148.25,417.5 143.25,406.75 C143.25,406.75 140,405 139.5,384.5 C139.488,384 138.75,363.25 152.25,353 C155.376,350.943 159.049,349.572 162.766,349.099 C164.284,348.906 165.824,348.948 167.353,348.872 z M166.307,362.384 C162.639,362.671 159.204,364.219 156.75,367 C150.75,375 151.492,384.647 151.5,385 C151.75,396 154.25,400.75 154.25,400.75 C158,410.25 165.75,409.5 165.75,409.5 C175,409.25 177.75,402.25 177.75,402.25 C181.75,395 180.75,383.75 180.75,383.75 C180.75,371.25 175.25,365.75 175.25,365.75 C171.758,363.067 170.435,362.901 166.307,362.384 z" fill="#A5A5AF"/>
    <path d="M230.75,350.25 L230.75,421.75 L243,421.75 L243,376.25 L265,421.5 L277.75,421.5 L277.75,350.5 L266,350.5 L266,397 L243.25,350.25 L230.75,350.25 z" fill="#A5A5AF"/>
    <path d="M403.8,350.25 L403.8,421.75 L446.4,421.75 L446.4,408.6 L416.8,408.6 L416.8,391.8 L443,391.8 L443,378.6 L416.6,378.6 L416.6,363.6 L445.2,363.6 L445.2,350.25 L403.8,350.25 z" fill="#A5A5AF"/>
    <path d="M511,350.25 L532,421.75 L519,421.75 L514.5,405.75 L494.25,406 L490,421.75 L477.25,421.75 L498,350.25 L511,350.25 z M504.25,368.75 L498,393.25 L511,393.25 L504.25,368.75 z" fill="#A5A5AF"/>
    <path d="M565.25,350.25 L565.25,421.75 L604.75,421.75 L604.75,408.5 L577.5,408.5 L577.5,350.25 L565.25,350.25 z" fill="#A5A5AF"/>
    <path d="M640.5,421.75 L652.25,421.75 L652.25,373 L665.25,421.75 L675,421.75 L688.5,372.75 L688.5,421.75 L700.25,421.75 L700.25,350.25 L682.75,350.25 L670.25,398.5 L657.75,350.25 L640.5,350.25 L640.5,421.75 z" fill="#A5A5AF"/>
    <path d="M901,350.25 L901,364 L917.5,364 L917.5,421.75 L930.25,421.75 L930.25,363.75 L946.75,363.75 L946.75,350.25 L901,350.25 z" fill="#A5A5AF"/>
    <path d="M1005.25,398 C1005.25,398 1004,407.129 1010.75,415 C1010.75,415 1015.75,422.871 1028.75,422.871 C1028.75,422.871 1037.75,424.75 1046.25,416.25 C1046.25,416.25 1052,411.75 1052,400.75 C1052,400.75 1053.75,388.5 1043,382.25 C1043,382.25 1033.5,378 1028.75,377 C1028.75,377 1023.5,376.25 1020,372.5 C1020,372.5 1016.5,365.763 1022.75,362.382 C1022.75,362.382 1026.25,359.513 1034,362.382 C1034,362.382 1038.25,364.25 1038.25,371.5 L1050.5,371.5 C1050.5,371.5 1050.75,360.75 1044.25,354.25 C1044.25,354.25 1041,351.45 1035,348.975 C1035,348.975 1025,346.75 1018.5,350.25 C1018.5,350.25 1011.5,353.75 1008.75,360.25 C1008.75,360.25 1004,370.75 1009.5,380.75 C1009.5,380.75 1013.5,388.75 1025.25,391 C1025.25,391 1034.25,393 1038,396.75 C1038,396.75 1044.25,404.278 1035,409.514 C1035,409.514 1028,412 1022,408.25 C1022,408.25 1017.5,406.25 1017.5,398 L1005.25,398 z" fill="#A5A5AF"/>
    <path d="M1082,350.25 L1096.5,350.25 L1109,377 L1121.5,350.25 L1135.5,350.25 L1115.5,393.25 L1115.25,421.75 L1102.25,421.75 L1102.25,393.25 L1082,350.25 z" fill="#A5A5AF"/>
    <path d="M739.733,350.25 L739.733,421.75 L782.333,421.75 L782.333,408.6 L752.733,408.6 L752.733,391.8 L778.933,391.8 L778.933,378.6 L752.533,378.6 L752.533,363.6 L781.133,363.6 L781.133,350.25 L739.733,350.25 z" fill="#A5A5AF"/>
    <path d="M819,350.25 L819,421.75 L831.25,421.75 L831.25,376.25 L853.25,421.5 L866,421.5 L866,350.5 L854.25,350.5 L854.25,397 L831.5,350.25 L819,350.25 z" fill="#A5A5AF"/>
    <path d="M1165.811,397.952 C1165.811,397.952 1164.561,407.081 1171.311,414.952 C1171.311,414.952 1176.311,422.823 1189.311,422.823 C1189.311,422.823 1198.311,424.702 1206.811,416.202 C1206.811,416.202 1212.561,411.702 1212.561,400.702 C1212.561,400.702 1214.311,388.452 1203.561,382.202 C1203.561,382.202 1194.061,377.952 1189.311,376.952 C1189.311,376.952 1184.061,376.202 1180.561,372.452 C1180.561,372.452 1177.061,365.715 1183.311,362.334 C1183.311,362.334 1186.811,359.465 1194.561,362.334 C1194.561,362.334 1198.811,364.202 1198.811,371.452 L1211.061,371.452 C1211.061,371.452 1211.311,360.702 1204.811,354.202 C1204.811,354.202 1201.561,351.402 1195.561,348.927 C1195.561,348.927 1185.561,346.702 1179.061,350.202 C1179.061,350.202 1172.061,353.702 1169.311,360.202 C1169.311,360.202 1164.561,370.702 1170.061,380.702 C1170.061,380.702 1174.061,388.702 1185.811,390.952 C1185.811,390.952 1194.811,392.952 1198.561,396.702 C1198.561,396.702 1204.811,404.23 1195.561,409.466 C1195.561,409.466 1188.561,411.952 1182.561,408.202 C1182.561,408.202 1178.061,406.202 1178.061,397.952 L1165.811,397.952 z" fill="#A5A5AF"/>
    <path d="M1244.25,350.25 L1244.25,364 L1260.75,364 L1260.75,421.75 L1273.5,421.75 L1273.5,363.75 L1290,363.75 L1290,350.25 L1244.25,350.25 z" fill="#A5A5AF"/>
    <path d="M1325.067,350.25 L1325.067,421.75 L1367.667,421.75 L1367.667,408.6 L1338.067,408.6 L1338.067,391.8 L1364.267,391.8 L1364.267,378.6 L1337.867,378.6 L1337.867,363.6 L1366.467,363.6 L1366.467,350.25 L1325.067,350.25 z" fill="#A5A5AF"/>
    <path d="M1404.583,421.75 L1416.333,421.75 L1416.333,373 L1429.333,421.75 L1439.083,421.75 L1452.583,372.75 L1452.583,421.75 L1464.333,421.75 L1464.333,350.25 L1446.833,350.25 L1434.333,398.5 L1421.833,350.25 L1404.583,350.25 L1404.583,421.75 z" fill="#A5A5AF"/>
    <path d="M1500.145,397.952 C1500.145,397.952 1498.895,407.081 1505.645,414.952 C1505.645,414.952 1510.645,422.823 1523.645,422.823 C1523.645,422.823 1532.645,424.702 1541.145,416.202 C1541.145,416.202 1546.895,411.702 1546.895,400.702 C1546.895,400.702 1548.645,388.452 1537.895,382.202 C1537.895,382.202 1528.395,377.952 1523.645,376.952 C1523.645,376.952 1518.395,376.202 1514.895,372.452 C1514.895,372.452 1511.395,365.715 1517.645,362.334 C1517.645,362.334 1521.145,359.465 1528.895,362.334 C1528.895,362.334 1533.145,364.202 1533.145,371.452 L1545.395,371.452 C1545.395,371.452 1545.645,360.702 1539.145,354.202 C1539.145,354.202 1535.895,351.402 1529.895,348.927 C1529.895,348.927 1519.895,346.702 1513.395,350.202 C1513.395,350.202 1506.395,353.702 1503.645,360.202 C1503.645,360.202 1498.895,370.702 1504.395,380.702 C1504.395,380.702 1508.395,388.702 1520.145,390.952 C1520.145,390.952 1529.145,392.952 1532.895,396.702 C1532.895,396.702 1539.145,404.23 1529.895,409.466 C1529.895,409.466 1522.895,411.952 1516.895,408.202 C1516.895,408.202 1512.395,406.202 1512.395,397.952 L1500.145,397.952 z" fill="#A5A5AF"/>
  </g>
</svg>
