<?xml version="1.0" encoding="UTF-8"?>
<!DOCTYPE svg PUBLIC "-//W3C//DTD SVG 1.1//EN" "http://www.w3.org/Graphics/SVG/1.1/DTD/svg11.dtd">
<svg version="1.1" xmlns="http://www.w3.org/2000/svg" xmlns:xlink="http://www.w3.org/1999/xlink" x="0" y="0" width="480" height="157.282" viewBox="0, 0, 480, 157.282">
  <g id="Layer_1" transform="translate(0, 0)">
    <path d="M57.333,41.73 C57.991,41.62 33.333,53.063 31.667,81.397 C31.667,81.397 30.667,106.063 52.667,119.063 C52.667,119.063 74.667,135.063 98.333,119.73 C98.333,119.73 121.667,109.397 120.333,78.397 C120.333,78.397 118.333,54.73 95,41.73 C95,41.73 129,44.73 151.333,95.73 C151.333,95.73 145.667,126.73 123.667,141.063 C123.667,141.063 105.667,157.063 77.667,157.063 C77.667,157.063 51.667,159.73 28.667,141.73 C28.667,141.73 3,125.063 0,87.063 C0,87.063 17.333,48.397 57.333,41.73 z" fill="#A5A5AF"/>
    <path d="M0,78.063 C0,78.063 0.667,41.397 32,17.063 C32,17.063 50.333,1.397 80.667,1.73 C80.667,1.73 115.333,0.063 145,26.397 C145,26.397 169.667,47.73 190,91.73 C190,91.73 206.667,124.397 218.667,151.063 L181.333,151.063 C181.333,151.063 162,111.397 158.333,103.397 C158.333,103.397 146,73.063 128.333,55.73 C128.333,55.73 110.667,35.063 75.333,35.063 C75.333,35.063 48,34.397 24,52.063 C24,52.063 13,59.063 0,78.063 z" fill="#A5A5AF"/>
    <path d="M220,144.397 C219.789,144.818 203.333,108.397 202.667,108.063 C202.667,108.063 229,55.73 237,46.063 C237,46.063 260.667,5.021 322.667,1.709 C322.667,1.709 275,11.73 265.333,63.063 C265.333,63.063 235.667,113.063 220,144.397 z" fill="#A5A5AF"/>
    <path d="M265,151.063 L297.667,151.063 C297.667,151.063 296.333,90.063 299.667,74.397 C299.667,74.397 301.333,39.063 348.333,30.73 L348.333,0.063 C348.333,0.063 315,0.063 291.333,22.73 C291.333,22.73 272.333,37.397 265.667,77.063 C265.667,77.063 264.667,115.063 265,151.063 z" fill="#A5A5AF"/>
    <path d="M458,53.397 L477.667,27.397 C477.667,27.397 459,0.063 418,0.063 C418,0.063 389.667,-2.27 363.333,21.397 C363.333,21.397 338.333,40.73 338.333,79.397 C338.333,79.397 339,104.73 348.333,116.063 C348.333,116.063 386.667,143.73 426.333,123.73 C426.333,123.73 398,129.063 381.333,106.063 C381.333,106.063 371.333,95.063 371.333,77.73 C371.333,77.73 370.667,65.397 380.333,51.73 C380.333,51.73 386,39.397 407,33.063 C407,33.063 424,29.397 440.333,38.063 C440.333,38.063 449.667,42.063 458,53.397 z" fill="#A5A5AF"/>
    <path d="M458.667,95.73 L480,122.73 C480,122.73 469,140.397 448.667,149.73 C448.667,149.73 437.667,157.203 417,157.203 C417,157.203 398,158.73 380.333,148.397 C380.333,148.397 363,139.063 352.333,124.063 C352.333,124.063 387.333,141.73 417.667,131.656 C417.667,131.656 441.667,125.73 458.667,95.73 z" fill="#A5A5AF"/>
  </g>
</svg>
