<svg xmlns="http://www.w3.org/2000/svg" width="441.791" height="167" viewBox="0 0 441.791 167">
  <g id="Group_6" data-name="Group 6" transform="translate(-250.209 -815)">
    <g id="Screen_Shot_2020-08-31_at_1.38.02_PM" data-name="Screen Shot 2020-08-31 at 1.38.02 PM" transform="translate(250.209 815)">
      <path id="Path_48" data-name="Path 48" d="M40.189-100.509c-.994,2.083-.6,5.928-.6,5.928s-.47,31.4-.123,89.441l7.914-28.295,7.79-28.141H72.608s-.581,2.035-.9,3.18c-.954,3.975-1.272,3.975,7-.795,11.924-6.678,27.505-3.975,32.434,5.724,8.744,16.694-6.519,46.584-26.551,52.148-8.267,2.385-19.375,1.152-22.4-2.346A27.689,27.689,0,0,0,59.467-5.93L51.914,20.661H156.26s2.975-.155,4.476-1.605,1.529-4.2,1.529-4.2V-80.63a12.2,12.2,0,0,0-6.513,1.068c-3.677,1.875-7.542,9.038-9.478,13.535-.829,1.925-1.748,4.452-1.748,4.452H156.5l3.4,8.108-4.15,7.154s-11.111-.187-14.261,0l-.463,1.272c-.636.954-3.816,10.97-7,22.417l-5.565,21.3c-14.945.159-20.845,0-20.845,0l14.193-44.994h-5.909l1.618-15.263h8.394s.481-1.431,2.548-8.426c4.77-16.376,12.878-24.484,26.074-26.074,1.359-.163,7.723,0,7.723,0a5.894,5.894,0,0,0-1.379-5.138c-2.544-2.862-6.821-1.7-60.241-1.7H43.568A4.7,4.7,0,0,0,40.189-100.509Z" transform="translate(-39.342 123.582)" fill="#a5a5af"/>
      <path id="Path_50" data-name="Path 50" d="M196.2-59.5Z" transform="translate(53.186 149.329)"/>
      <path id="Path_54" data-name="Path 54" d="M63.076-64.488c-7.154,4.929-10.16,17.77-5.55,22.38,2.7,2.7,12.386,4.171,17.792,1.309,8.426-4.293,12.4-18.443,6.837-23.53-1.286-1.125-3.33-1.889-6.145-2.356C71.916-67.378,66.238-66.7,63.076-64.488Z" transform="translate(-29.914 144.937)" fill="#a5a5af"/>
      <text id="sense" transform="translate(128.791 122)" fill="#a5a5af" font-size="122" font-family="AvenirNext-Bold, Avenir Next" font-weight="700" letter-spacing="-0.047em"><tspan x="0" y="0">sense</tspan></text>
    </g>
  </g>
</svg>
