<?xml version="1.0" encoding="utf-8"?>
<!-- Generator: Adobe Illustrator 23.0.2, SVG Export Plug-In . SVG Version: 6.00 Build 0)  -->
<svg version="1.0" id="Layer_1" xmlns="http://www.w3.org/2000/svg" xmlns:xlink="http://www.w3.org/1999/xlink" x="0px" y="0px"
	 width="200px" height="28.22px" viewBox="0 0 200 28.22" style="enable-background:new 0 0 200 28.22;fill:#A5A5AF" xml:space="preserve">
<title>ravya</title>
<g>
	<path d="M14.74,18.2H3.57c-0.01,0.31-0.04,0.6-0.04,0.88c0,2.6,0,5.2,0,7.79c0.01,0.23,0,0.47-0.01,0.7
		c-0.04,0.43-0.18,0.59-0.6,0.6c-0.88,0.03-1.74,0-2.66,0c-0.09-0.26-0.17-0.52-0.23-0.79C0,27.13-0.01,26.87,0,26.61V3.84
		c0-1.45,0.14-1.58,1.6-1.58c4.64,0,9.29,0.02,13.92,0c1.66-0.04,3.32,0.09,4.95,0.37c2.14,0.4,3.94,1.37,5.14,3.28
		C26.24,6.89,26.5,8,26.6,9.13c0.11,1.34,0.02,2.67-0.47,3.95c-0.76,1.99-2.15,3.36-4.07,4.21c-0.55,0.24-1.16,0.37-1.73,0.56
		c-0.24,0.08-0.47,0.18-0.75,0.27c0.07,0.12,0.15,0.24,0.23,0.35c0.83,0.9,1.67,1.79,2.49,2.7c1.38,1.53,2.75,3.07,4.13,4.6
		c0.35,0.39,0.74,0.75,1.08,1.14c0.16,0.16,0.27,0.37,0.33,0.59c0.09,0.44-0.1,0.7-0.54,0.7c-1.05,0.02-2.1,0-3.15,0
		c-0.33-0.02-0.63-0.17-0.82-0.43c-0.85-0.92-1.7-1.84-2.54-2.77c-0.68-0.76-1.32-1.55-2-2.3C17.45,21.18,16.1,19.7,14.74,18.2z
		 M3.57,14.8c0.41,0.01,0.73,0.03,1.04,0.03c3.79,0,7.58,0,11.37,0c0.87,0.01,1.74-0.04,2.61-0.14c1.66-0.23,3.03-0.96,3.86-2.51
		c0.27-0.51,0.34-1.04,0.41-1.59c0.19-1.16-0.17-2.35-0.96-3.22c-1.06-1.2-2.49-1.61-4-1.62C13.32,5.7,8.74,5.72,4.16,5.72
		C3.96,5.74,3.77,5.76,3.57,5.8L3.57,14.8z"/>
	<path d="M192.59,21.01h-15.66c-0.33,0.63-0.67,1.3-1.01,1.97c-0.7,1.4-1.42,2.8-2.1,4.22c-0.35,0.7-0.81,1.1-1.64,1.01
		c-0.58-0.04-1.17-0.04-1.75,0c-0.38,0-0.7-0.09-0.88-0.51c0.09-0.63,0.46-1.2,0.77-1.79c0.66-1.3,1.34-2.58,2.01-3.87
		c1.82-3.55,3.65-7.1,5.48-10.64c1.38-2.66,2.78-5.31,4.14-7.99c0.41-0.8,0.99-1.17,1.87-1.15c0.7,0.02,1.4,0,2.1,0
		c0.76,0,1.34,0.3,1.67,1.03c0.25,0.56,0.55,1.1,0.83,1.64c1.25,2.44,2.51,4.87,3.76,7.31c1.67,3.24,3.34,6.47,5.02,9.71l2.45,4.73
		c0.09,0.15,0.17,0.31,0.24,0.47c0.27,0.7,0.04,1.05-0.72,1.06c-0.67,0.01-1.34-0.03-2.02,0.01c-0.58,0.03-0.93-0.26-1.19-0.72
		c-0.2-0.35-0.36-0.73-0.55-1.09c-0.85-1.65-1.71-3.31-2.57-4.96C192.78,21.3,192.69,21.18,192.59,21.01z M190.91,17.61L184.8,5.58
		c-2.03,4.11-4.12,7.99-6.09,12.03L190.91,17.61z"/>
	<path d="M66.72,21.02H51.03c-0.35,0.64-0.73,1.26-1.05,1.9c-0.7,1.4-1.38,2.83-2.08,4.24c-0.1,0.21-0.26,0.39-0.36,0.6
		c-0.12,0.28-0.4,0.45-0.7,0.43c-0.85,0-1.69,0.03-2.54,0c-0.55-0.02-0.74-0.29-0.59-0.8c0.1-0.33,0.24-0.66,0.41-0.96
		c0.78-1.53,1.57-3.06,2.37-4.58c1.66-3.21,3.33-6.41,4.99-9.62c0.84-1.64,1.69-3.27,2.53-4.89c0.71-1.37,1.43-2.74,2.13-4.12
		c0.28-0.6,0.89-0.97,1.54-0.94c0.76-0.01,1.52,0,2.28,0c0.79,0,1.4,0.32,1.74,1.07c0.19,0.42,0.42,0.83,0.63,1.25
		c2.09,4.07,4.19,8.13,6.28,12.19c1.72,3.34,3.43,6.69,5.19,10.01c0.63,1.2,0.25,1.5-0.89,1.42c-0.61-0.04-1.23-0.02-1.84,0
		c-0.42,0.03-0.81-0.21-0.97-0.6c-0.18-0.37-0.36-0.73-0.55-1.09C68.62,24.69,67.68,22.88,66.72,21.02z M58.91,5.6
		c-0.22,0.42-0.35,0.64-0.47,0.88c-0.81,1.61-1.62,3.22-2.43,4.83c-0.94,1.84-1.89,3.67-2.82,5.51c-0.12,0.23-0.39,0.47-0.13,0.86
		c0.16,0,0.35,0,0.56,0l11.1-0.04c0.02,0,0.05-0.03,0.07-0.05c0.02-0.02,0.03-0.05,0.11-0.16C62.98,13.54,60.94,9.67,58.91,5.6
		L58.91,5.6z"/>
	<path d="M144.08,24.92c0.21-0.32,0.35-0.5,0.45-0.7c1.75-3.46,3.48-6.92,5.23-10.38c1.79-3.53,3.6-7.06,5.36-10.6
		c0.25-0.57,0.81-0.94,1.43-0.96c0.64-0.05,1.29-0.05,1.93,0c0.76,0.06,1.02,0.53,0.7,1.23c-0.32,0.7-0.75,1.37-1.1,2.07
		c-1.38,2.66-2.74,5.34-4.12,8.01c-1.68,3.26-3.37,6.52-5.06,9.78c-0.66,1.27-1.34,2.52-1.98,3.8c-0.36,0.73-0.85,1.12-1.72,1.05
		c-0.76-0.06-1.52-0.06-2.28,0c-0.86,0.07-1.36-0.34-1.72-1.05c-0.66-1.33-1.34-2.66-2.02-3.98c-1.79-3.47-3.58-6.94-5.38-10.4
		c-1.51-2.92-3.03-5.84-4.56-8.76c-0.07-0.13-0.13-0.26-0.2-0.39c-0.56-1.05-0.05-1.25,0.8-1.35c0.55-0.04,1.11-0.05,1.66-0.01
		c0.66,0.02,1.16,0.29,1.45,0.93c0.26,0.59,0.57,1.15,0.86,1.72c1.9,3.74,3.8,7.48,5.7,11.23c1.39,2.73,2.78,5.45,4.17,8.18
		C143.8,24.49,143.92,24.65,144.08,24.92z"/>
	<path d="M98.4,14.76l4.01-4.25c1.2-1.27,2.41-2.53,3.61-3.81c1.15-1.23,2.28-2.49,3.44-3.72c0.41-0.46,1-0.73,1.62-0.74
		c0.73,0,1.46,0,2.19,0c0.09,0,0.17,0,0.26,0.01c0.76,0.15,0.93,0.67,0.41,1.25c-0.48,0.54-0.97,1.09-1.47,1.61
		c-1.88,1.96-3.76,3.91-5.64,5.87c-1.33,1.39-2.66,2.78-3.99,4.17c-0.72,0.76-1.41,1.55-2.16,2.29c-0.32,0.3-0.49,0.72-0.46,1.16
		c0.02,2.68,0.01,5.37,0.01,8.06c0,0.21,0.01,0.41,0,0.61c-0.06,0.66-0.28,0.89-0.93,0.91c-0.55,0.02-1.11,0.01-1.66,0
		c-0.85-0.01-1.04-0.2-1.05-1.03c0-1.17,0-2.33,0-3.51c0-1.69-0.01-3.39,0.01-5.08c0.03-0.41-0.12-0.8-0.41-1.09
		c-1.65-1.69-3.29-3.39-4.92-5.1s-3.24-3.35-4.86-5.03c-1.11-1.16-2.21-2.32-3.32-3.48c-0.31-0.32-0.66-0.67-0.47-1.14
		s0.67-0.49,1.12-0.49c0.55,0,1.11,0,1.66,0c0.73-0.03,1.44,0.27,1.94,0.81c1.45,1.56,2.93,3.08,4.4,4.62
		c1.23,1.29,2.45,2.57,3.68,3.86C96.39,12.59,97.36,13.64,98.4,14.76z"/>
	<path d="M101.69,3.36c0.27,1.56-1.73,3.41-3.28,3.33c-2.01-0.1-3.24-1.53-3.4-3.37c-0.13-1.53,1.79-3.41,3.4-3.32
		C100.18,0.11,101.76,1.4,101.69,3.36z"/>
</g>
</svg>
