<svg xmlns="http://www.w3.org/2000/svg" width="999" height="310.165" viewBox="0 0 999 310.165">
  <g id="Group_2" data-name="Group 2" transform="translate(-3371.292 5860.099)">
    <g id="g3021" transform="translate(3528.632 -5758.113)">
      <path id="path3023" d="M0,0C0-28.38-22.832-51.235-50.751-51.235H-75.919V50.781h25.168A50.924,50.924,0,0,0,0,0M114.486,203.374H22.1L-51.25,101.585H-75.919v101.57h-81.421V-101.986H-40.7C26.543-101.986,81.428-56.261,81.428,0c0,34.313-21.041,64.96-53.064,83.711l86.122,119.663" fill="#a5a5af"/>
    </g>
    <g id="g3025" transform="translate(3734.942 -5739.802)">
      <path id="path3027" d="M0,0C-21.5,0-39.792,29.226-39.792,65.406S-21.5,130.849,0,130.849c22,0,40.261-29.264,40.261-65.443S22,0,0,0M125.324,65.406c0,69.117-56.208,124.463-125.324,124.463A124.357,124.357,0,0,1-124.886,65.406,124.371,124.371,0,0,1,0-59.034c69.117,0,125.324,55.376,125.324,124.44" fill="#a5a5af"/>
    </g>
    <g id="g3029" transform="translate(4051.335 -5793.774)">
      <path id="path3031" d="M0,0-93.793,93.778V-.31H-175.2V238.813h81.406v-97l97.92,97H106.588L-17.844,114.365,85.222,11.337V153.243c0,47.116,28.334,90.6,99.688,90.6,33.874,0,64.96-19.212,80.068-36.6l36.6,31.569h17.376V0H237.551V154.619c-9.168,16-21.94,26.059-41.682,26.059-20.028,0-29.219-11.873-29.219-49.852V0Z" fill="#a5a5af"/>
    </g>
  </g>
</svg>
