<svg xmlns="http://www.w3.org/2000/svg" width="433.618" height="103.204" viewBox="0 0 433.618 103.204">
  <g id="Roon_Labs_Logo_full" transform="translate(0 1190)">
    <path id="Path_22" data-name="Path 22" d="M0-1138.4v51.6l51.585-.017,51.576-.026.009-51.584.009-51.576H0Zm51.689.009v29.053l-.694-.043c-.382-.026-1.015-.078-1.4-.1a32.878,32.878,0,0,1-4.111-.6,28.839,28.839,0,0,1-14.431-7.927,28.515,28.515,0,0,1-8.118-16.114,28.944,28.944,0,0,1,19.262-31.672,30.53,30.53,0,0,1,9-1.639l.494-.017Zm6.548-.009v25.367l-1.4.026-1.414.017v-50.821l1.414.017,1.4.026Zm11.665,0v18.126H67.039v-36.251H69.9Zm-6.2-10.875.434.052-.026,10.806c-.009,5.941-.035,10.815-.052,10.832s-.659.052-1.431.087l-1.4.052v-21.786l.286-.035A14.141,14.141,0,0,1,63.7-1149.273ZM75.8-1138.4v3.642l-1.448-.017-1.457-.026-.026-3.625-.017-3.616H75.8Z" fill="#a5a5af"/>
    <path id="Path_23" data-name="Path 23" d="M2143.442-1082.672a41.24,41.24,0,0,0-8.083,1.37,41.313,41.313,0,0,0-24.916,19.938,44.32,44.32,0,0,0-5.334,17.874c-.113,1.44-.113,5.516,0,6.86a42.646,42.646,0,0,0,14.527,28.75,40.46,40.46,0,0,0,20.381,9.366,40.838,40.838,0,0,0,11.17.078A40.913,40.913,0,0,0,2178-1013.993a42.955,42.955,0,0,0,8.811-23.156,60.314,60.314,0,0,0-.139-7.493,42.911,42.911,0,0,0-4.336-14.908,41.6,41.6,0,0,0-14.622-16.608,39.667,39.667,0,0,0-17.684-6.357C2148.932-1082.637,2144.379-1082.75,2143.442-1082.672Zm6.323,8.534a31.207,31.207,0,0,1,17.909,8.9,35.064,35.064,0,0,1,10.165,21.8,50.555,50.555,0,0,1-.087,7.632,34.911,34.911,0,0,1-3.313,11.057,33.95,33.95,0,0,1-10.225,12.28,32.784,32.784,0,0,1-9.626,4.787,31.014,31.014,0,0,1-12.229,1.058,31.086,31.086,0,0,1-16.174-6.886,42.56,42.56,0,0,1-4.414-4.345,34.593,34.593,0,0,1-7.988-23.919,35.082,35.082,0,0,1,10.147-23.347,31.3,31.3,0,0,1,19.47-9.193A41.525,41.525,0,0,1,2149.765-1074.138Z" transform="translate(-1922.465 -97.997)" fill="#a5a5af"/>
    <path id="Path_24" data-name="Path 24" d="M3191.885-1082.682a39.842,39.842,0,0,0-12.142,2.74,42.179,42.179,0,0,0-24.448,27.136,44.235,44.235,0,0,0,.26,26.052,43.266,43.266,0,0,0,6.366,12.228,40.676,40.676,0,0,0,27.171,16.088,40.2,40.2,0,0,0,23.607-4.111,41.976,41.976,0,0,0,20.467-24.032,43.727,43.727,0,0,0-.919-29.816,42.58,42.58,0,0,0-17.813-20.866,40.084,40.084,0,0,0-15.871-5.256C3197.409-1082.656,3192.925-1082.76,3191.885-1082.682Zm5.68,8.447a31.125,31.125,0,0,1,19.1,9.531,34.366,34.366,0,0,1,8.4,14.613,36.3,36.3,0,0,1,.867,16.01,33.332,33.332,0,0,1-21.638,25.983,28.214,28.214,0,0,1-9.93,1.63,28.337,28.337,0,0,1-8.326-1.11c-12.193-3.356-21.568-14.318-23.459-27.414a34.374,34.374,0,0,1-.3-7.5,34.824,34.824,0,0,1,12.922-25.133,40.7,40.7,0,0,1,4.553-3.035,30.768,30.768,0,0,1,12.159-3.66A47.592,47.592,0,0,1,3197.565-1074.235Z" transform="translate(-2879.975 -97.986)" fill="#a5a5af"/>
    <path id="Path_25" data-name="Path 25" d="M4232.545-1082.682a34.783,34.783,0,0,0-21.725,8.837,33.4,33.4,0,0,0-10.095,18.776c-.555,3.1-.521.954-.546,28.186-.026,18.23-.009,24.9.061,25.281a4.264,4.264,0,0,0,1.206,2.22,4.375,4.375,0,0,0,7.233-1.639l.191-.494.043-24.76c.052-27.214.008-25.064.563-27.8a24.341,24.341,0,0,1,15.09-18,28.2,28.2,0,0,1,7.371-1.752,37.645,37.645,0,0,1,6.765.1,25.415,25.415,0,0,1,14.743,6.99,24.731,24.731,0,0,1,7.242,16.218c.052.789.086,9.436.086,24.934,0,26-.035,24.188.5,25.185a4.989,4.989,0,0,0,2.828,2.186,4.979,4.979,0,0,0,2.229-.035,4.431,4.431,0,0,0,3.113-3.356c.07-.382.087-6.964.07-25.064-.026-22.644-.043-24.639-.183-25.8a33.85,33.85,0,0,0-8.282-19.192,32.092,32.092,0,0,0-5.2-4.666,35.054,35.054,0,0,0-16.625-6.192C4238.053-1082.656,4233.717-1082.76,4232.545-1082.682Z" transform="translate(-3835.905 -97.986)" fill="#a5a5af"/>
    <path id="Path_26" data-name="Path 26" d="M1633.719-1080.588c-13.156.989-22.826,7.345-27.492,18.074a47.046,47.046,0,0,0-1.812,5.29,47.967,47.967,0,0,0-1.067,6.21c-.13,1.119-.147,3.851-.173,26.052-.026,22.28-.017,24.864.1,25.419a4.447,4.447,0,0,0,3.122,3.2,5.482,5.482,0,0,0,2.125.035,4.6,4.6,0,0,0,3.14-2.81l.2-.52.052-24.934c.052-26.035.035-25.281.425-27.613a27.329,27.329,0,0,1,3.538-9.8,22.122,22.122,0,0,1,15.021-9.93,35.491,35.491,0,0,1,9.089-.434c3.14.147,4.163-.035,5.134-.937a4.289,4.289,0,0,0,.277-5.845c-.642-.729-1.457-1.041-3.486-1.344A73.887,73.887,0,0,0,1633.719-1080.588Z" transform="translate(-1464.126 -99.864)" fill="#a5a5af"/>
  </g>
</svg>
