<svg version="1.1" xmlns="http://www.w3.org/2000/svg" xmlns:xlink="http://www.w3.org/1999/xlink" x="0" y="0" viewBox="0, 0, 1958.003, 576">
  <g id="Layer_2" transform="translate(0.002, 0)">
    <path d="M504.897,-0 L520.295,6.383 L512.248,24.537 L467.783,101.553 L467.783,101.553 L496.85,18.149 L504.897,-0 z" fill="#A5A5AF"/>
    <path d="M552.556,28.533 L565.077,39.49 L551.624,54.113 L484.868,112.865 L484.868,112.865 L539.097,43.139 L552.556,28.533 z" fill="#A5A5AF"/>
    <path d="M591.167,71.033 L599.449,85.481 L582.003,94.955 L499.765,128.848 L499.765,128.848 L573.697,80.494 L591.167,71.033 z" fill="#A5A5AF"/>
    <path d="M304.731,247.619 C304.731,247.619 301.897,231.072 309.233,224.006 C316.551,216.914 328.651,224.568 328.651,224.568 L363.69,244.883 C363.69,244.883 392.018,261.414 398.752,262.362 C405.153,263.253 411.92,260.481 414.696,253.806 C416.87,248.577 412.639,242.823 411.491,240.958 C409.489,237.753 403.424,230.609 403.424,230.609 L372.09,198.364 C372.09,198.364 355.778,183.292 355.174,174.357 C354.758,168.188 376.916,154.831 376.916,154.831 C376.916,154.831 399.067,143.45 421.155,130.843 C443.259,118.218 429.473,101.362 422.7,100.116 C415.929,98.902 387.067,105.05 387.067,105.05 C387.067,105.05 357.219,111.206 334.207,112.44 C311.194,113.669 303.422,97.044 303.422,97.044 C303.422,97.044 292.413,77.968 287.784,68.733 C283.17,59.501 280.827,57.749 273.421,61.45 C267.528,64.39 277.325,85.471 277.325,85.471 C277.325,85.471 283.17,98.596 285.934,104.428 C288.707,110.285 289.643,115.139 284.102,117.906 C278.561,120.678 274.543,110.287 274.543,110.287 L258.555,81.051 C258.555,81.051 253.457,73.006 251.548,70.598 C242.617,59.267 221.161,83.793 221.097,87.93 C220.868,101.26 237.866,87.726 242.312,97.045 C244.808,102.271 250.547,114.838 252.088,118.221 C253.626,121.619 263.23,145.92 246.009,152.992 C228.769,160.068 158.08,191.738 66.066,191.738 C34.242,191.738 18.623,187.971 18.623,187.971 C18.623,187.971 -12.594,178.953 5.802,205.326 C5.802,205.326 18.846,221.213 22.868,234.076 C29.389,254.93 25.425,286.666 21.156,297.758 C16.889,308.844 4.413,322.221 4.413,322.221 C4.413,322.221 11.34,481.098 8.357,499.574 C5.209,519.1 10.657,534.863 10.657,534.863 C10.657,534.863 12.103,548.937 28.833,559.541 C41.896,567.824 42.472,557.271 42.472,550.437 C42.472,543.629 34.792,533.391 29.681,528.262 C24.573,523.158 26.268,513.361 26.268,513.361 L41.526,338.875 C41.526,338.875 45.716,321.363 56.681,334.996 C65.595,346.051 54.413,358.019 54.413,358.019 C54.413,358.019 61.295,485.355 61.295,502.599 C61.295,522.785 59.201,534.244 60.889,541.056 C62.595,547.894 72.533,557.271 84.478,561.244 C96.429,565.228 94.723,555.56 94.723,555.56 C94.723,555.56 92.815,539.879 83.634,535.951 C77.655,533.392 78.509,504.672 78.509,504.672 L81.771,403.401 C81.771,403.401 79.343,323.963 115.835,313.958 C146.07,305.667 207.34,319.104 207.34,319.104 C207.34,319.104 250.716,325.698 259.762,360.048 C269.727,397.946 282.975,514.403 282.975,514.403 C282.975,514.403 294.855,573.372 331.744,562.389 C333.008,562.024 334.227,561.493 334.227,561.493 C334.227,561.493 344.031,557.518 327.961,546.825 C311.91,536.091 307.524,536.596 300.229,500.548 C292.926,464.532 289.479,360.655 288.979,352.38 C288.5,344.11 287.037,329.03 287.037,329.03 C287.037,329.03 289.203,319.444 294.836,326.592 C301.238,334.726 309.232,374.674 309.232,374.674 C309.232,374.674 323.909,462.021 326.335,473.912 C327.939,481.808 331.978,516.023 353.464,532.465 C370.009,545.14 394.003,536.226 394.003,536.226 C394.003,536.226 400.821,522.592 381.821,520.656 C365.106,518.941 355.538,512.349 349.218,493.373 C342.882,474.398 304.731,247.619 304.731,247.619 z" fill="#A5A5AF"/>
    <path d="M430.169,521.752 C451.941,511.922 470.829,509.602 495.589,515.887 C522.13,522.623 533.087,538.041 524.11,552.869 C528.783,541.707 514.504,528.969 487.758,522.185 C463.538,516.031 448.204,515.75 430.169,521.752 z" fill="#A5A5AF"/>
    <path d="M393.269,502.559 C389.706,495.877 364.251,446.58 365.765,405.334 C366.027,398.348 366.911,391.465 368.062,384.512 C374.214,347.491 371.064,341.039 335.062,273.864 L341.083,263.037 C377.087,330.215 380.255,336.668 374.104,373.686 C372.926,380.639 372.049,387.52 371.778,394.531 C370.252,436.334 396.44,486.43 399.432,492.01 C421.731,533.434 461.19,564.807 493.822,564.807 C507.881,564.807 518.621,558.973 525.477,549.047 C519.899,565.666 507.045,576 488.331,576 C455.482,576 415.437,544.521 393.245,502.6 L393.269,502.559 z" fill="#A5A5AF"/>
    <g>
      <path d="M330.69,256.424 C330.69,256.424 246.735,193.418 236.211,158.246 C234.352,152.102 208.587,165.6 208.587,165.6 C208.587,165.6 270.973,230.968 317.191,258.874 C327.896,265.334 330.69,256.424 330.69,256.424 z" fill="#A5A5AF"/>
      <path d="M330.69,256.424 C330.69,256.424 246.735,193.418 236.211,158.246 C234.352,152.102 208.587,165.6 208.587,165.6 C208.587,165.6 270.973,230.968 317.191,258.874 C327.896,265.334 330.69,256.424 330.69,256.424 z" fill-opacity="0" stroke="#A5A5AF" stroke-width="2"/>
    </g>
    <path d="M329.159,277.838 C320.904,277.838 314.189,271.123 314.189,262.867 C314.189,254.61 320.904,247.891 329.159,247.891 C337.409,247.891 344.12,254.61 344.12,262.867 C344.12,271.123 337.409,277.838 329.159,277.838 z M329.159,253.893 C324.214,253.893 320.189,257.918 320.189,262.869 C320.189,267.815 324.212,271.84 329.159,271.84 C334.099,271.84 338.12,267.818 338.12,262.869 C338.12,257.918 334.101,253.893 329.159,253.893 z" fill="#A5A5AF"/>
    <path d="M1936.738,168.951 C1948.3,168.951 1958.001,178.016 1958.001,189.93 C1958.001,202.06 1948.304,211.142 1936.738,211.142 C1925.174,211.142 1915.474,202.06 1915.474,190.163 C1915.476,178.019 1925.175,168.951 1936.738,168.951 z M1936.738,208.072 C1946.667,208.072 1954.601,200.256 1954.601,189.928 C1954.601,179.775 1946.663,172.002 1936.738,172.002 C1926.813,172.002 1918.874,179.773 1918.874,190.158 C1918.874,200.256 1926.812,208.072 1936.738,208.072 z M1928.854,177.963 L1937.817,177.963 C1943.658,177.963 1946.436,180.117 1946.436,184.992 C1946.436,189.359 1943.6,191.232 1939.967,191.631 L1946.999,202.41 L1943.311,202.41 L1936.622,191.91 L1932.26,191.91 L1932.26,202.41 L1928.856,202.41 L1928.854,177.963 L1928.854,177.963 z M1932.261,188.844 L1936.456,188.844 C1939.853,188.844 1943.033,188.672 1943.033,184.824 C1943.033,181.412 1940.137,181.012 1937.531,181.012 L1932.26,181.012 L1932.26,188.844 z" fill="#A5A5AF"/>
    <path d="M846.767,202.033 L846.767,315.121 C846.767,366.762 869.759,380.34 898.788,380.34 C931.205,380.34 953.449,359.606 953.449,313.99 L953.449,202.033 L992.65,202.033 L992.65,410.875 L956.838,410.875 L956.838,388.254 L956.089,388.254 C945.532,406.346 921.027,416.152 894.638,416.152 C870.895,416.152 850.158,408.617 835.079,395.422 C817.736,380.338 807.558,356.961 807.558,315.119 L807.558,202.033 L846.767,202.033 z" fill="#A5A5AF"/>
    <path d="M1208.272,271.394 C1201.869,258.202 1186.785,232.189 1149.46,232.189 C1098.946,232.189 1080.857,274.411 1080.857,306.082 C1080.857,342.279 1103.851,380.344 1148.711,380.344 C1178.107,380.344 1198.09,363.387 1207.893,341.897 L1251.622,341.897 C1235.79,388.258 1195.075,416.16 1148.714,416.16 C1080.105,416.16 1041.651,359.988 1041.651,306.086 C1041.651,249.536 1083.128,196.391 1149.087,196.391 C1208.276,196.391 1243.716,240.49 1251.626,271.402 L1208.275,271.402 L1208.272,271.394 L1208.272,271.394 z" fill="#A5A5AF"/>
    <path d="M1653.501,313.992 C1653.501,359.604 1631.263,380.34 1598.837,380.34 C1569.816,380.34 1546.82,366.762 1546.82,315.121 L1546.82,202.033 L1507.615,202.033 L1507.615,315.121 C1507.615,356.963 1517.802,380.34 1535.136,395.424 C1550.226,408.617 1570.948,416.154 1594.699,416.154 C1621.084,416.154 1645.586,406.342 1656.137,388.256 L1656.899,388.256 L1656.899,410.877 L1692.711,410.877 L1692.711,202.033 L1653.501,202.033 L1653.501,313.992 L1653.501,313.992 z" fill="#A5A5AF"/>
    <path d="M1401.835,300.416 L1477.599,202.033 L1428.947,202.008 L1357.589,303.396 L1440.667,410.875 L1489.667,410.875 z" fill="#A5A5AF"/>
    <path d="M1296.522,132.01 L1335.725,132.01 L1335.725,410.864 L1296.522,410.864 z" fill="#A5A5AF"/>
    <path d="M609.072,223.435 L657.534,223.435 C703.519,223.435 719.353,245.659 719.353,263.789 C719.353,305.602 659.04,306.186 642.454,306.186 L621.054,306.186 L695.492,389.965 L715.373,410.732 L774.561,410.732 L693.545,330.172 C711.642,330.172 760.065,321.096 760.065,263.785 C760.065,245.654 752.152,225.77 734.428,212.619 C719.733,201.793 699.371,194.492 660.168,194.492 L568.356,194.492 L568.356,410.873 L609.068,410.873 L609.072,223.435 L609.072,223.435 z" fill="#A5A5AF"/>
    <path d="M1859.275,256.283 C1855.982,239.102 1843.445,230.906 1826.539,230.906 C1808.697,230.906 1796.131,240.461 1796.131,254.424 C1796.131,272.803 1815.043,277.526 1835.522,282.797 C1854.658,287.697 1908.899,300.776 1908.899,349.658 C1908.899,385.445 1879.014,414.953 1827.438,414.953 C1796.285,414.953 1741.906,397.9 1741.483,343.611 L1785.301,343.549 C1787.09,366.92 1802.572,381.613 1828.395,381.613 C1850.531,381.613 1865.291,369.635 1865.291,351.926 C1865.291,332.617 1845.437,325.572 1821.395,318.41 C1794.688,310.105 1752.444,300.209 1752.444,256.795 C1752.444,226.308 1783.085,197.58 1828.899,197.58 C1861.784,197.58 1903.094,217.373 1903.094,256.213 L1859.275,256.283 z" fill="#A5A5AF"/>
  </g>
</svg>
