<svg xmlns="http://www.w3.org/2000/svg" width="433.609" height="82.333" viewBox="0 0 433.609 82.333">
  <g id="Group_7" data-name="Group 7" transform="translate(-231.009 -803.719)">
    <g id="salamander-logo-2" transform="translate(231.98 803.719)">
      <path id="Path_57" data-name="Path 57" d="M5.206-42.652c-2.18,1.453-3.2,3.633-3.2,7.121,0,6.394,2.906,7.993,14.823,7.993,9.591,0,13.806,1.453,12.207,4.214-1.308,2.035-16.421,2.18-17.584.145l-.385-1.073H2.009c-.066.806,0,1.56,0,2.526,0,4.36,4.505,5.813,18.747,5.813,14.532,0,17.584-1.453,17.584-8.719,0-6.83-3.2-8.719-15.259-8.719-10.463,0-14.968-1.889-10.754-4.505,2.761-1.744,13.951-1.6,15.114.145a5.818,5.818,0,0,1,.382,1.07H35.5s1.428-2.263-1.815-6.011C29.185-45.849,9.711-45.849,5.206-42.652Z" transform="translate(-1.98 45.677)" fill="#a5a5af"/>
      <path id="Path_58" data-name="Path 58" d="M28.517-16.1h9.889s.694-1.453,5.781-11.19L50-37.9l5.813,10.463C59.424-20.92,62.338-16.1,62.338-16.1H71L54.279-45.275H45.673Z" transform="translate(10.048 45.575)" fill="#a5a5af"/>
      <path id="Path_59" data-name="Path 59" d="M61.4-45.319v29.674H89.883v-7.411H69.538V-45.319Z" transform="translate(24.951 45.555)" fill="#a5a5af"/>
      <path id="Path_61" data-name="Path 61" d="M116.759-30.281v14.532H125.1V-35.421l14.242,19.672,15.55-18.9v18.9h7.266V-45.413H151.884s-2.73,3.745-12.54,17.69c-9.746-14.788-11.86-17.69-11.86-17.69H116.759Z" transform="translate(50.042 45.513)" fill="#a5a5af"/>
      <path id="Path_63" data-name="Path 63" d="M185-30.277v14.532h8.283V-35.757c.145-.727,19.38,20.012,19.38,20.012h10.847V-45.1h-7.993v21.7L195.509-44.955H185Z" transform="translate(80.971 45.654)" fill="#a5a5af"/>
      <path id="Path_64" data-name="Path 64" d="M217-30.269v14.823h16.572c21.074.408,21.939-2.035,21.939-14.823s-1.985-14.911-20.636-14.984L217-45.439Zm28.774-5.522c1.017,1.017,1.744,3.488,1.744,5.522,0,5.813-2.616,7.266-12.643,7.266h-9.155V-37.535h9.155C240.106-37.535,244.757-36.808,245.774-35.791Z" transform="translate(95.474 45.501)" fill="#a5a5af"/>
      <path id="Path_65" data-name="Path 65" d="M248-45.469v29.747h31.971v-7.266h-23.61v-4.36h23.61v-5.813h-23.61v-4.36h23.61v-7.948Z" transform="translate(109.524 45.487)" fill="#a5a5af"/>
      <path id="Path_66" data-name="Path 66" d="M275-30.249v15.085h8.719v-7.818s-1.867.02,8.574,0,8.719.291,9.155,3.2c.091.776,0,4.621,0,4.621h8.429v-4.476c0-2.325-.727-5.226-1.6-6.1-4.349-1.019-1.869-1.254-.316-2.635.872-.581,1.915-3.329,1.915-6.817,0-8.138-2.994-10.291-21.014-10.291H275Zm26.885-3.633c-.135,2.833,1.089,2.941-9.01,2.921-9.16.066-9.155,0-9.155,0v-6.264s.036-.044,9.155,0C301.7-37.113,302.02-36.716,301.885-33.883Z" transform="translate(121.761 45.481)" fill="#a5a5af"/>
      <path id="Path_75" data-name="Path 75" d="M28.517-16.1h9.889s.694-1.453,5.781-11.19L50-37.9l5.813,10.463C59.424-20.92,62.338-16.1,62.338-16.1H71L54.279-45.275H45.673Z" transform="translate(89.975 45.575)" fill="#a5a5af"/>
      <path id="Path_76" data-name="Path 76" d="M28.517-16.1h9.889s.694-1.453,5.781-11.19L50-37.9l5.813,10.463C59.424-20.92,62.338-16.1,62.338-16.1H71L54.279-45.275H45.673Z" transform="translate(190.248 45.575)" fill="#a5a5af"/>
    </g>
    <g id="Group_6" data-name="Group 6" transform="translate(232.009 862.387)">
      <path id="Path_67" data-name="Path 67" d="M173.34,649.212v18.347h20.785l2.787-2.577V652.633l-2.787-3.421Z" transform="translate(-173.34 -647.581)" fill="none" stroke="#a5a5af" stroke-width="2"/>
      <path id="Path_68" data-name="Path 68" d="M247.849,649.212H227.614v19.161h20.235" transform="translate(-150.961 -647.581)" fill="none" stroke="#a5a5af" stroke-width="2"/>
      <path id="Path_69" data-name="Path 69" d="M227.614,655.525h19.256" transform="translate(-150.956 -644.72)" fill="none" stroke="#a5a5af" stroke-width="2"/>
      <path id="Path_70" data-name="Path 70" d="M299.471,654.185v-4.068l-2.861-1.7H278.822l-1.6,1.7v5.393l1.6,2.607H296.61l2.861,2.1v5.575l-2.861,3.361h-16.6l-2.783-3.361V663.6" transform="translate(-130.523 -647.942)" fill="none" stroke="#a5a5af" stroke-width="2"/>
      <path id="Path_71" data-name="Path 71" d="M325.5,648.417v21.725" transform="translate(-110.313 -647.942)" fill="none" stroke="#a5a5af" stroke-width="2"/>
      <path id="Path_72" data-name="Path 72" d="M385.709,654.806v-2.823l-2.414-3.238H365.257l-3.5,3.238v13.194l3.5,3.417H383.3l2.414-3.417V659.86H373.233" transform="translate(-95.714 -647.793)" fill="none" stroke="#a5a5af" stroke-width="2"/>
      <path id="Path_73" data-name="Path 73" d="M411.484,670.484V649.221h1.987l21.045,20.293h1.661V648.09" transform="translate(-75.245 -648.09)" fill="none" stroke="#a5a5af" stroke-width="2"/>
      <path id="Path_74" data-name="Path 74" d="M299.471,654.185v-4.068l-2.861-1.7H278.822l-1.6,1.7v5.393l1.6,2.607H296.61l2.861,2.1v5.575l-2.861,3.361h-16.6l-2.783-3.361V663.6" transform="translate(132.138 -646.488)" fill="none" stroke="#a5a5af" stroke-width="2"/>
    </g>
  </g>
</svg>
