<svg xmlns="http://www.w3.org/2000/svg" width="433.618" height="131.952" viewBox="0 0 433.618 131.952">
  <g id="download-1" transform="translate(-10 140.934)">
    <path id="Path_47" data-name="Path 47" d="M164.671-137.562C150.636-130.132,143-117.955,143-102.889c0,25.179,22.083,42.309,48.5,37.356,8.255-1.651,20.432-11.351,24.973-20.226,4.128-7.843,4.128-26.417.206-34.054-4.128-7.636-13.415-16.3-20.639-18.988C187.58-142.1,171.894-141.483,164.671-137.562ZM194.8-116.51c7.843,8.049,8.049,17.956.619,26.83-9.287,11.145-26,7.843-31.784-5.779C155.59-115.272,179.737-131.576,194.8-116.51Z" transform="translate(141.494 0)" fill="#a5a5af"/>
    <path id="Path_48" data-name="Path 48" d="M204.671-137.562C190.636-130.132,183-117.955,183-102.889c0,25.179,22.083,42.309,48.5,37.356C242.646-67.6,259.363-84.314,259.363-93.6c0-1.032-3.921-2.064-8.875-2.064-7.224,0-10.113,1.238-14.86,6.192-14.86,15.685-40.245-.826-31.99-20.845,5.16-12.177,19.194-16.1,29.513-8.049,3.715,2.889,8.255,4.128,15.685,4.128h10.732l-3.1-5.779c-3.921-7.43-13.209-16.1-20.432-18.781C227.58-142.1,211.894-141.483,204.671-137.562Z" transform="translate(184.049 0)" fill="#a5a5af"/>
    <path id="Path_49" data-name="Path 49" d="M20.319-137.313C13.715-134.011,10-126.581,10-116.674c0,11.145,8.255,19.194,21.877,21.051,5.572.619,11.558,1.445,13.209,1.651s3.1,2.27,3.1,4.541c0,3.715-1.651,4.128-18.575,4.747l-18.575.619.619,8.049.826,8.255H34.147c21.051,0,21.671-.206,27.656-5.985,4.953-4.953,5.985-7.843,5.985-15.685s-1.032-10.732-5.985-15.685c-5.16-4.953-7.843-5.985-16.1-5.985-11.558,0-18.575-3.921-16.511-9.081,1.032-2.683,4.541-3.3,20.226-3.3,16.3,0,17.661.655,17.543-3.3-.065-1.042.034-2.562,0-4.842-.028-.7,0-2.642,0-3.812,0-4.953-1.445-4.555-21.258-4.555C33.528-140,23.415-138.964,20.319-137.313Z" transform="translate(0 0.99)" fill="#a5a5af"/>
    <path id="Path_50" data-name="Path 50" d="M42-103.882v36.118H99.788V-84.276H80.182c-19.607,0-19.607,0-19.607-5.16s.206-5.16,18.575-5.16H97.724V-113.17H79.15c-18.368,0-18.575,0-18.575-5.16s0-5.16,19.607-5.16H99.788V-140H42Z" transform="translate(34.044 0.994)" fill="#a5a5af"/>
    <path id="Path_51" data-name="Path 51" d="M87.59-105.533C80.572-86.339,75-70.241,75-69.416c0,1.032,4.128,1.651,9.287,1.651,8.049,0,9.7-.826,11.764-5.16,2.064-4.541,3.509-5.16,13-5.16s10.938.619,13,5.16,3.715,5.16,12.59,5.16h10.319l-2.683-6.811c-1.445-3.509-7.636-19.813-13.622-36.118L117.928-140H100.386Zm27.656,3.1c.826,3.3,0,6.6-2.683,9.907a7.139,7.139,0,0,1-3.706,1.109,8.073,8.073,0,0,1-3.724-1.522c-3.1-4.747-3.1-5.779.206-16.1l3.509-10.939,2.683,6.192C112.769-110.28,114.626-105.327,115.245-102.438Z" transform="translate(69.151 0.994)" fill="#a5a5af"/>
    <path id="Path_52" data-name="Path 52" d="M113-103.882v36.118h57.788v-16.3L151.8-84.688l-19.194-.619-.619-27.449L131.368-140H113Z" transform="translate(109.578 0.994)" fill="#a5a5af"/>
    <path id="Path_53" data-name="Path 53" d="M165.058-98.127a21.032,21.032,0,0,1-2.889,5.779c-2.477,3.3-3.509,3.509-7.636,1.238-4.334-2.27-4.54-2.27-3.3,1.238,2.683,6.811,2.477,7.636-2.683,10.319L143.8-77.076l4.54,1.445c3.509,1.238,4.334,2.683,3.715,7.224-.826,5.572-.413,5.779,4.747,4.747,4.54-.826,5.779-.206,7.017,3.715l1.651,4.953,1.857-4.953c1.445-4.128,2.683-4.54,7.843-3.509,5.779,1.032,6.192.826,4.128-2.889-2.889-5.366-2.683-5.572,3.715-9.081,3.509-2.064,4.334-3.1,2.27-3.3-5.779,0-8.668-5.16-5.985-10.319,2.27-4.128,2.064-4.334-1.857-2.064-5.16,2.683-8.049,1.238-10.526-4.953C165.883-98.333,165.058-99.365,165.058-98.127Z" transform="translate(142.345 44.978)" fill="#a5a5af"/>
    <path id="Path_54" data-name="Path 54" d="M190.33-97.023c0,1.032-1.445,2.064-3.1,2.064s-3.1.826-3.1,1.857,1.445,2.889,3.1,4.334c3.921,3.3,3.921,6.192,0,6.192-1.651,0-3.509-2.27-4.334-5.16-1.238-4.953-4.953-7.224-4.953-3.1,0,1.032-1.445,2.064-3.1,2.064-4.747,0-2.477,9.287,2.27,9.494,8.049.413,9.287.826,8.049,3.1-.826,1.032-3.715,1.857-6.6,1.445-4.54-.619-5.366.206-5.985,5.16-.413,4.334.206,5.572,2.27,4.747a2.965,2.965,0,0,1,3.921,1.445c.826,1.857,1.651,1.857,2.27.206a45.394,45.394,0,0,1,4.128-6.192c3.921-5.572,6.192-2.064,2.27,3.715-4.128,5.779-4.128,8.668-.206,7.017q3.1-.929,3.1,2.477c.206,3.3.206,3.3,2.889,0,1.445-2.064,3.3-3.1,3.921-2.27.826.619,1.445-.206,1.445-2.064s-.826-3.921-2.064-4.541c-1.032-.619-2.064-2.683-2.064-4.541,0-2.683.619-2.683,3.1-.619,1.651,1.445,3.1,3.921,3.1,5.366,0,1.651,1.032,2.889,2.064,2.889a2.121,2.121,0,0,0,2.064-2.27c0-1.238,1.238-1.857,2.889-1.238,2.27.826,2.889-.206,2.27-4.334-.413-3.921-1.651-5.366-4.128-4.953A12.871,12.871,0,0,1,199-75.352c-2.889-1.032-2.889-1.445-.413-3.1a11.038,11.038,0,0,1,7.43-.826c3.715,1.032,4.54.206,4.54-4.128,0-3.1-1.238-5.366-2.683-5.366a4.276,4.276,0,0,1-3.715-2.683c-.619-1.445-1.857,0-3.3,3.1-1.238,3.3-3.1,5.779-4.334,5.779-2.683,0-2.683-4.747.206-7.636,1.857-1.857,1.651-3.3-.826-5.572Q190.33-101.357,190.33-97.023Z" transform="translate(172.591 44.699)" fill="#a5a5af"/>
    <path id="Path_55" data-name="Path 55" d="M205.843-87.236C201.509-80.838,198-73,198-69.9a14.643,14.643,0,0,0,15.066,15.066c17.13,0,21.051-15.066,8.668-33.435C217.607-94.047,214.1-99,213.892-99S209.97-93.634,205.843-87.236Z" transform="translate(200.007 44.612)" fill="#a5a5af"/>
  </g>
</svg>
