<?xml version="1.0" encoding="UTF-8"?>
<!DOCTYPE svg PUBLIC "-//W3C//DTD SVG 1.1//EN" "http://www.w3.org/Graphics/SVG/1.1/DTD/svg11.dtd">
<svg version="1.1" xmlns="http://www.w3.org/2000/svg" xmlns:xlink="http://www.w3.org/1999/xlink" x="0" y="0" width="743.231" height="163.5" viewBox="0, 0, 743.231, 163.5">
  <g id="Layer_2" transform="translate(0, -0.5)">
    <g>
      <path d="M195.731,70.1 C195.731,71.177 193.731,84.5 217.531,97.5 C217.531,97.5 231.331,104.1 239.131,109.9 C239.131,109.9 250.731,119.7 241.131,132.1 C241.131,132.1 236.131,139.3 226.131,139.3 C226.131,139.3 215.331,140.1 204.931,127.5 L193.531,137.5 C193.531,137.5 202.331,150.9 221.331,151.9 C221.331,151.9 239.131,153.9 250.931,141.3 C250.931,141.3 261.531,132.9 259.131,114.5 C259.131,114.5 257.531,102.5 238.131,91.9 C238.131,91.9 223.331,86.1 214.131,77.3 C214.131,77.3 206.131,67.9 214.931,58.7 C214.931,58.7 222.331,50.3 235.931,54.5 C235.931,54.5 243.131,57.7 246.131,61.5 L256.331,51.3 C256.331,51.3 248.131,41.3 231.731,40.7 C231.731,40.7 216.931,39.5 206.931,47.5 C206.931,47.5 195.731,55.1 195.731,70.1 z" fill="#A5A5AF"/>
      <path d="M195.731,70.1 C195.731,71.177 193.731,84.5 217.531,97.5 C217.531,97.5 231.331,104.1 239.131,109.9 C239.131,109.9 250.731,119.7 241.131,132.1 C241.131,132.1 236.131,139.3 226.131,139.3 C226.131,139.3 215.331,140.1 204.931,127.5 L193.531,137.5 C193.531,137.5 202.331,150.9 221.331,151.9 C221.331,151.9 239.131,153.9 250.931,141.3 C250.931,141.3 261.531,132.9 259.131,114.5 C259.131,114.5 257.531,102.5 238.131,91.9 C238.131,91.9 223.331,86.1 214.131,77.3 C214.131,77.3 206.131,67.9 214.931,58.7 C214.931,58.7 222.331,50.3 235.931,54.5 C235.931,54.5 243.131,57.7 246.131,61.5 L256.331,51.3 C256.331,51.3 248.131,41.3 231.731,40.7 C231.731,40.7 216.931,39.5 206.931,47.5 C206.931,47.5 195.731,55.1 195.731,70.1 z" fill-opacity="0" stroke="#A5A5AF" stroke-width="1"/>
    </g>
    <g>
      <path d="M309.131,40.636 L309.131,152.016 L366.931,152.016 L366.931,138.1 L324.931,138.1 L324.931,100.9 L358.531,100.9 L358.531,86.7 L324.931,86.7 L324.931,54.9 L364.731,54.9 L364.731,40.636 L309.131,40.636 z" fill="#A5A5AF"/>
      <path d="M309.131,40.636 L309.131,152.016 L366.931,152.016 L366.931,138.1 L324.931,138.1 L324.931,100.9 L358.531,100.9 L358.531,86.7 L324.931,86.7 L324.931,54.9 L364.731,54.9 L364.731,40.636 L309.131,40.636 z" fill-opacity="0" stroke="#A5A5AF" stroke-width="1"/>
    </g>
    <g>
      <path d="M414.931,40.636 L430.131,47.7 L430.131,105.9 C430.131,105.9 429.931,121.1 438.131,129.1 C438.131,129.1 445.331,137.5 458.731,137.7 C458.731,137.7 470.331,138.9 480.131,127.3 C480.131,127.3 485.131,121.3 486.131,107.9 L486.131,47.9 L501.731,40.636 L501.731,104.5 C501.731,104.5 501.931,125.7 492.131,136.3 C492.131,136.3 481.331,152.016 460.331,152.016 C460.331,152.016 441.131,153.5 429.931,142.1 C429.931,142.1 422.931,135.9 419.331,127.7 C419.331,127.7 414.931,118.7 414.531,106.7 L414.931,40.636 z" fill="#A5A5AF"/>
      <path d="M414.931,40.636 L430.131,47.7 L430.131,105.9 C430.131,105.9 429.931,121.1 438.131,129.1 C438.131,129.1 445.331,137.5 458.731,137.7 C458.731,137.7 470.331,138.9 480.131,127.3 C480.131,127.3 485.131,121.3 486.131,107.9 L486.131,47.9 L501.731,40.636 L501.731,104.5 C501.731,104.5 501.931,125.7 492.131,136.3 C492.131,136.3 481.331,152.016 460.331,152.016 C460.331,152.016 441.131,153.5 429.931,142.1 C429.931,142.1 422.931,135.9 419.331,127.7 C419.331,127.7 414.931,118.7 414.531,106.7 L414.931,40.636 z" fill-opacity="0" stroke="#A5A5AF" stroke-width="1"/>
    </g>
    <g>
      <path d="M577.931,40.636 C587.731,40.636 597.331,45.3 597.331,45.3 C607.731,49.964 612.731,58.7 612.731,58.7 C618.331,66.5 617.531,75.9 617.531,75.9 C617.531,87.7 610.731,94.5 610.731,94.5 C604.731,102.9 592.931,107.3 592.931,107.3 L634.531,152.079 L612.731,152.079 L574.931,110.1 L564.331,110.1 L564.331,152.079 L548.331,152.079 L548.331,40.636 L577.931,40.636 z M563.731,54.4 L563.731,96.15 L577.981,96.15 C577.981,96.15 586.231,96.15 594.231,89.15 C594.231,89.15 600.981,84.15 601.231,75.4 C601.231,75.4 601.981,67.4 595.231,61.65 C595.231,61.65 588.981,55.65 579.731,54.65 L563.731,54.4 z" fill="#A5A5AF"/>
      <path d="M577.931,40.636 C587.731,40.636 597.331,45.3 597.331,45.3 C607.731,49.964 612.731,58.7 612.731,58.7 C618.331,66.5 617.531,75.9 617.531,75.9 C617.531,87.7 610.731,94.5 610.731,94.5 C604.731,102.9 592.931,107.3 592.931,107.3 L634.531,152.079 L612.731,152.079 L574.931,110.1 L564.331,110.1 L564.331,152.079 L548.331,152.079 L548.331,40.636 L577.931,40.636 z M563.731,54.4 L563.731,96.15 L577.981,96.15 C577.981,96.15 586.231,96.15 594.231,89.15 C594.231,89.15 600.981,84.15 601.231,75.4 C601.231,75.4 601.981,67.4 595.231,61.65 C595.231,61.65 588.981,55.65 579.731,54.65 L563.731,54.4 z" fill-opacity="0" stroke="#A5A5AF" stroke-width="1"/>
    </g>
    <path d="M697.231,40.136 L743.231,151.516 L724.831,151.516 L715.831,127.8 L667.631,127.8 L662.031,140.2 L650.431,125.4 L686.231,40.136 L697.231,40.136 z M691.831,64.4 L672.831,113.6 L710.031,113.6 L691.831,64.4 z" fill="#A5A5AF"/>
    <path d="M71.205,23.195 C32.83,23.195 1.605,54.42 1.605,92.795 C1.605,131.17 32.83,162.395 71.205,162.395 C109.58,162.395 140.805,131.17 140.805,92.795 C140.513,54.42 109.58,23.195 71.205,23.195 L71.205,23.195 L71.205,23.195 z M71.205,164 C32.1,164 -0,131.899 -0,92.795 C-0,53.69 32.1,21.59 71.205,21.59 C110.309,21.59 142.41,53.69 142.41,92.795 C142.41,131.899 110.309,164 71.205,164 L71.205,164 L71.205,164 z" fill="#A5A5AF"/>
    <path d="M121.722,116.527 C116.429,121.82 110.401,124.466 103.197,125.054 C97.61,125.348 92.317,124.025 87.612,121.084 C85.554,119.761 83.937,118.438 82.614,116.821 C82.026,116.086 80.996,114.909 79.967,113.586 C79.967,113.586 78.938,112.263 80.261,110.205 C81.585,107.852 83.202,108.881 83.202,108.881 C84.525,109.911 86.142,110.793 87.907,111.528 C92.17,113.439 96.875,114.174 102.462,113.88 C110.107,113.292 115.988,111.234 120.252,107.558 C124.515,103.589 126.28,98.59 126.133,92.415 C125.839,86.534 123.78,82.123 120.105,78.448 C116.429,74.772 111.871,73.155 106.579,73.449 C99.962,73.743 93.64,76.83 87.76,83.005 C84.378,86.387 80.114,92.268 75.557,100.501 L73.204,104.471 C72.616,105.206 72.469,106.088 71.881,106.529 L71.881,106.529 C68.646,111.234 65.265,115.203 61.295,118.438 C56.002,122.702 50.121,125.054 44.094,125.348 C40.712,125.642 37.183,125.054 33.802,124.025 C30.42,122.996 26.892,121.378 23.951,119.32 C20.276,116.674 17.041,112.998 14.983,108.734 C12.631,104.471 11.601,99.766 11.307,94.767 C11.013,90.062 11.601,85.505 13.219,81.241 C14.836,76.977 16.894,73.302 20.129,70.361 C25.422,65.068 31.45,62.422 38.654,61.834 C44.241,61.54 49.533,62.863 54.238,65.804 C56.296,67.127 57.914,68.45 59.237,70.067 C59.825,70.802 60.854,71.979 61.883,73.302 C61.883,73.302 62.913,74.625 61.589,76.683 C60.266,79.036 58.649,78.007 58.649,78.007 C57.326,76.977 55.708,76.095 53.944,75.36 C49.68,73.449 44.976,72.714 39.389,73.008 C31.744,73.596 25.863,75.654 21.599,79.624 C17.335,83.593 15.571,88.592 15.718,94.767 C16.012,100.648 18.07,105.059 21.746,108.734 C25.422,112.41 29.979,114.027 35.566,113.733 C42.182,113.439 48.504,110.352 54.385,104.177 C57.767,100.648 62.03,94.914 66.441,86.681 L68.793,82.711 C69.088,81.976 69.529,81.094 70.117,80.653 L70.117,80.653 C73.351,75.948 76.733,71.685 80.702,68.744 C85.995,64.48 91.876,62.128 97.904,61.834 C101.286,61.54 104.814,62.128 108.196,63.157 C111.577,64.186 115.106,65.804 117.752,67.862 C121.428,70.508 124.662,74.184 126.721,78.448 C129.073,82.711 130.102,87.416 130.396,92.415 C130.69,97.12 130.102,101.677 128.485,105.941 C127.015,109.911 124.662,113.733 121.722,116.527 L121.722,116.527 z M70.705,26.842 C34.243,26.842 4.544,56.541 4.544,93.003 C4.544,129.465 34.243,159.164 70.705,159.164 C107.167,159.164 136.865,129.465 136.865,93.003 C136.865,56.541 107.167,26.842 70.705,26.842 L70.705,26.842 z" fill="#A5A5AF"/>
    <g>
      <path d="M334.131,27.342 L341.931,1.5 L356.931,1.5 L343.531,27.342 L334.131,27.342 z" fill="#A5A5AF"/>
      <path d="M334.131,27.342 L341.931,1.5 L356.931,1.5 L343.531,27.342 L334.131,27.342 z" fill-opacity="0" stroke="#A5A5AF" stroke-width="1"/>
    </g>
  </g>
</svg>
