<?xml version="1.0" encoding="utf-8"?>
<!-- Generator: Adobe Illustrator 21.0.0, SVG Export Plug-In . SVG Version: 6.00 Build 0)  -->
<svg version="1.1" id="Layer_1" xmlns="http://www.w3.org/2000/svg" xmlns:xlink="http://www.w3.org/1999/xlink" x="0px" y="0px"
	 width="200px" height="200px" viewBox="0 0 200 200" style="enable-background:new 0 0 200 200;" xml:space="preserve">
<style type="text/css">
	.st0{fill:#A5A5AF;}
</style>
<title>logo-sim2</title>
<g>
	<path class="st0" d="M67.9,90.1V79.8c5.3-0.8,9.4-1.4,15.9-2.2V63.9c0.5-0.1,69.1-8.1,94.9,6c-4.3,1.5-7.7,4.8-9.6,8.9
		c-1,2.2-2.3,7.1-2.1,9.8l10.5-1c-0.2-2.5,0.4-5,1.7-7.2c0.7-1.5,2.1-2.5,3.7-2.7c2.7-0.3,5.1,1.5,5.5,4.2c0,0.2,0,0.3,0,0.5
		c0.2,2.8-0.6,5.7-2.3,8c-2.7,3.7-6,6.9-9.7,9.4c-6.1,4.3-12.7,7.9-19.7,10.5c-0.3,0.1-0.6,0.2-0.8,0.2c-0.2,0-0.4,0-0.6-0.1
		c0-0.6-0.1-1.3-0.1-2c0-11.6,0-23.2,0-34.8v-2.2l-12.1,1l-10.4,17.1l-10.3-15.2l-12.2,1v45.2l-13.5,2.1v14.4
		c-7.2,0.5-18.1,0.9-23.3,1.2c-0.4,0-0.7,0-1.1,0c-5.3,0-10.6,0.1-15.9,0.1c-5.7,0-11.4-0.4-17.1-1c-6.3-0.6-12.5-1.6-18.6-3.2
		c-5.1-1.4-10.1-3.1-14.5-6.3c-3.3-2.3-5.7-5.2-6.3-9.3c-0.4-3.1,0.1-6.2,1.4-9c1.9-4.5,5.2-7.8,9-10.7c5-3.6,10.4-6.5,16.2-8.5
		c4.7-1.8,9.5-3.3,14.4-4.5c0.1,0,0.2,0,0.3,0.1c0,0,0.7,0.6,0.9,0.8c-0.2,0.3-0.8,1.4-1,1.9c-1.5,3.1-1.9,6.6-0.9,9.9
		c0.8,2.5,2.8,4.5,5.4,5.2c2.8,1,5.7,1.7,8.6,2.5c1,0.2,1.9,0.6,2.8,0.9c1.7,0.8,2.4,2.7,1.6,4.4c-0.2,0.3-0.4,0.6-0.6,0.9
		c-1.3,1.3-3.1,2.1-4.9,2.2c-6.6,1-13.9-1.5-13.9-1.5V125c1,0.2,2.3,0.5,3.3,0.6c5.9,0.8,11.7,1.1,17.4-0.9
		c4.7-1.7,8.5-4.4,10.6-9.1c1.6-3.3,2-7,1.2-10.5c-0.6-2.9-2.5-5.4-5.2-6.8c-2.7-1.3-5.6-2.2-8.6-2.6c-1.2-0.2-2.3-0.5-3.4-0.8
		c-1.1-0.3-2.1-0.9-2.2-2.3c-0.1-1.2,0.6-2.4,1.8-2.8c1-0.5,2-0.7,3.1-0.9c3-0.3,6-0.1,8.9,0.7C66.7,89.8,67.1,89.9,67.9,90.1z
		 M83.7,77.6v45.7l13.1-0.6v-46C96.9,76.7,87.9,77.3,83.7,77.6z"/>
	<path class="st0" d="M143.1,95.1v19.1c0,0-5.1,2-20.9,4.8V97h1l9.5,12.2l9.4-14L143.1,95.1z"/>
	<path class="st0" d="M193,101.1l6-0.4v10.9l-2.8,0.1c-0.5-1.3-0.2-2.5-0.3-3.8c-0.1-1.2,0-2.3,0-3.7l-13.9,1.2l-0.1-0.3
		c1.8-1.3,3.6-2.6,5.4-3.8c3.1-2.1,5.7-4.8,7.7-7.9c2.7-3.9,3.6-8.8,2.5-13.5c0-0.2,0-0.5,0-0.7c0.7,0.6,1.2,1.4,1.3,2.3
		c0.7,2.6,0.9,5.2,0.4,7.8c-0.5,3.4-1.8,6.6-3.9,9.3C194.6,99.4,193.9,100.1,193,101.1z"/>
	<path class="st0" d="M107.3,128.9l3.8-4.1h2.7V136h-3.1v-6.4l-3.3,3.3l-3.7-3.7v7c-1,0.1-2.8,0-2.8,0l-0.1-11.4h2.6L107.3,128.9z"
		/>
	<path class="st0" d="M172.7,132.8h-5.7c0,2.1,1.6,2.5,5.5,1.2v1.3c-2,1.3-4.5,1.5-6.5,0.3c-1.9-1.1-2.5-3.4-1.5-5.3
		c0.3-0.5,0.6-0.9,1.1-1.2C167.1,128.1,172.7,127,172.7,132.8z M170.4,131.3c0-1-0.7-1.5-1.8-1.5c-0.8,0-1.6,0.6-1.6,1.5
		c0,0,0,0,0,0H170.4z"/>
	<rect x="128.1" y="124.8" class="st0" width="2.6" height="11.2"/>
	<rect x="141.2" y="128.5" class="st0" width="2.6" height="7.5"/>
	<circle class="st0" cx="142.5" cy="125.9" r="1.4"/>
	<rect x="186.3" y="128.5" class="st0" width="2.6" height="7.5"/>
	<circle class="st0" cx="187.7" cy="125.9" r="1.4"/>
	<path class="st0" d="M146.9,128.6h2.5l0.1,1c0.7-0.8,1.8-1.3,2.9-1.2c2.1,0,2.7,1.1,2.9,1.5c0.7-1,1.8-1.5,3-1.4
		c1.1-0.1,2.2,0.4,2.8,1.2c0.4,0.7,0.6,1.5,0.5,2.3v4h-2.7v-4.2c0-0.8-0.1-1.7-1.6-1.7c-1.6,0-1.7,1.3-1.7,2.4v3.5h-2.8v-4.2
		c0-0.6,0-1.7-1.5-1.7c-0.8-0.1-1.6,0.4-1.7,1.3c0,0.2,0,0.3,0,0.5v4.2h-2.7V128.6z"/>
	<path class="st0" d="M195.9,131.1c0-1.6-1.4-1.4-4.4-0.2v-1.6c1.5-0.9,3.3-1.3,5.1-0.9c1.3,0.1,2.3,1.3,2.2,2.6c0,0,0,0,0,0
		c0.1,1.1,0,2.4,0,3.5c0,0.5,1,0.3,1.3,0.1v0.9c-1.1,1.1-2.9,1.2-4.1,0.2c-0.6,0.2-1.2,0.4-1.9,0.5c-0.7,0.1-1.4,0-2.1-0.3
		c-0.9-0.4-1.3-1.4-0.9-2.2c0.1-0.2,0.2-0.4,0.4-0.6c0.6-0.5,1.3-0.9,2.1-1.2C194.3,131.6,195.1,131.3,195.9,131.1z M195.8,132.7
		c-1.8,0.5-2.7,1.4-1.8,2.1c0.5,0.4,1.2,0.4,1.6-0.1c0.1-0.2,0.2-0.4,0.3-0.6V132.7z"/>
	<path class="st0" d="M180.9,124.8h2.7v11.3H181l-0.1-0.8c-0.2,0.3-0.8,0.9-2.7,0.9c-2,0.2-3.7-1.2-3.9-3.2c0-0.2,0-0.5,0-0.7
		c0-2.6,1.6-3.9,4-3.9c0.9,0,1.7,0.1,2.5,0.4L180.9,124.8z M178.9,134.5c1.5,0,1.7-0.8,1.7-0.8v-3.2c-0.4-0.4-1-0.6-1.5-0.6
		c-1.8,0-2,1.7-2,2.4C177.1,133.5,177.6,134.5,178.9,134.5L178.9,134.5z"/>
	<path class="st0" d="M139.4,136c-0.9,0.2-1.7,0.3-2.6,0.3c-2.7,0-2.7-1.5-2.7-2.1v-4h-1.7v-0.7l3.6-3.2h0.9v2.4h2.4v1.5h-2.4v3.4
		c0,0.7,0,1.2,1.2,1.2c0.5-0.1,1-0.1,1.4-0.3L139.4,136z"/>
	<path class="st0" d="M119.5,128.3v4.6c0,0.7,0,1.7,1.4,1.7c1.7,0,1.7-1.1,1.7-2.4v-3.9h2.7v7.8h-2.5l-0.1-1
		c-0.6,0.8-1.6,1.3-2.7,1.2c-1,0-2-0.3-2.7-1c-0.4-0.6-0.6-1.3-0.6-2.1v-4.9H119.5z"/>
</g>
</svg>
