<?xml version="1.0" encoding="UTF-8"?>
<!DOCTYPE svg PUBLIC "-//W3C//DTD SVG 1.1//EN" "http://www.w3.org/Graphics/SVG/1.1/DTD/svg11.dtd">
<svg version="1.1" xmlns="http://www.w3.org/2000/svg" xmlns:xlink="http://www.w3.org/1999/xlink" x="0" y="0" width="192.299" height="31.432" viewBox="0, 0, 192.299, 31.432">
  <g id="Layer_1" transform="translate(0, 0)">
    <path d="M0,24.41 L3.628,22.303 C3.628,22.303 4.096,25.814 8.778,26.165 C8.778,26.165 12.523,26.867 13.46,22.654 C13.46,22.654 13.694,19.377 9.012,17.855 C9.012,17.855 4.448,16.217 1.287,12.12 C1.287,12.12 -1.99,6.97 3.394,2.289 C3.394,2.289 7.257,-0.637 12.875,1.118 C12.875,1.118 16.152,2.172 17.79,5.449 L14.045,7.673 C14.045,7.673 12.875,5.332 10.768,4.981 C10.768,4.981 7.14,4.395 5.852,7.204 C5.852,7.204 5.15,10.365 7.725,11.535 C7.725,11.535 12.289,14.227 14.864,15.28 C14.864,15.28 19.663,17.855 18.61,23.356 C18.61,23.356 18.024,28.974 12.289,30.496 C12.289,30.496 7.725,31.549 3.862,29.793 C3.862,29.793 1.17,28.272 0,24.41 z" fill="#A5A5AF"/>
    <path d="M37.994,0.541 C41.743,0.574 45.131,2.169 47.987,4.513 C47.987,4.513 52.434,8.024 53.02,13.993 C53.02,13.993 53.722,21.366 49.625,25.463 C49.625,25.463 46.114,30.186 40.613,30.809 C40.613,30.809 33.825,31.549 30.665,29.559 C30.665,29.559 26.685,27.219 24.813,24.292 C24.813,24.292 22.589,22.42 22.121,15.748 C22.104,15.515 21.77,9.194 27.154,4.513 C27.154,4.513 31.367,0.557 37.453,0.557 C37.675,0.542 37.495,0.553 37.994,0.541 z M37.837,5.337 C36.062,5.393 34.265,5.726 32.654,6.502 C27.505,9.311 27.252,15.37 27.271,15.631 C27.622,20.547 29.494,22.303 29.494,22.303 C31.718,24.761 34.644,25.58 34.644,25.58 C38.741,26.867 42.252,24.995 42.252,24.995 C46.114,23.473 47.168,19.845 47.168,19.845 C49.157,14.11 46.699,10.716 46.699,10.716 C44.71,7.439 41.901,6.268 41.901,6.268 C40.563,5.539 39.312,5.454 37.837,5.337 z" fill="#A5A5AF"/>
    <path d="M57.233,30.145 L61.915,30.145 L61.915,10.833 L82.865,31.432 L82.865,1.469 L78.418,1.469 L78.418,20.547 L57.35,0.065 L57.233,30.145 z" fill="#A5A5AF"/>
    <path d="M116.807,30.079 L121.489,30.079 L121.489,10.768 L142.439,31.367 L142.439,1.404 L137.992,1.404 L137.992,20.482 L116.924,0 L116.807,30.079 z" fill="#A5A5AF"/>
    <path d="M99.953,0.065 L114.115,30.145 L108.497,30.145 L105.454,23.122 L94.569,23.122 L91.409,30.262 L85.908,30.262 L99.953,0.065 z M99.953,9.428 L96.208,18.323 L103.699,18.206 L99.953,9.428 z" fill="#A5A5AF"/>
    <path d="M171.348,8.492 L171.348,3.225 C171.348,3.225 165.379,-1.105 156.25,1.352 C156.25,1.352 149.93,3.459 147.589,10.248 C147.589,10.248 145.599,16.217 148.057,22.537 C148.057,22.537 150.632,28.155 156.25,30.262 C156.25,30.262 163.272,32.719 171.114,28.272 L171.231,22.42 C171.231,22.42 168.539,26.032 161.634,26.032 C161.634,26.032 157.069,26.633 153.441,21.249 C153.441,21.249 150.164,17.153 153.09,10.482 C153.09,10.482 154.846,6.864 159.995,5.337 C159.995,5.337 165.496,3.693 171.348,8.492 z" fill="#A5A5AF"/>
    <path d="M175.913,1.469 L175.913,30.262 L192.299,30.262 L192.299,26.032 L180.946,26.032 L180.946,16.685 L192.182,16.685 L192.182,12.471 L180.712,12.471 L180.712,5.337 L192.065,5.337 L192.065,1.352 L175.913,1.469 z" fill="#A5A5AF"/>
  </g>
</svg>
