<svg version="1.1" xmlns="http://www.w3.org/2000/svg" xmlns:xlink="http://www.w3.org/1999/xlink" x="0" y="0" viewBox="0, 0, 2500, 479">
  <g id="Layer_1" transform="translate(0, 0)">
    <path d="M1134.047,169.832 L1134.047,459.081 L1067.268,459.081 L1067.268,6.494 L1366.106,308.552 L1366.106,17.753 L1432.922,17.753 L1432.922,471.994 L1134.047,169.832 z M1826.298,-0 C1695.561,-0 1589.238,107.271 1589.238,239.226 C1589.238,371.118 1695.561,478.381 1826.298,478.381 C1956.997,478.381 2063.369,371.118 2063.369,239.226 C2063.369,107.271 1956.997,-0 1826.298,-0 z M1826.298,410.449 C1733.633,410.449 1658.185,333.62 1658.185,239.226 C1658.185,144.818 1733.633,68.003 1826.298,68.003 C1919.002,68.003 1994.368,144.818 1994.368,239.226 C1994.368,333.623 1919.002,410.449 1826.298,410.449 z M673.668,-0 C542.933,-0 436.605,107.271 436.605,239.226 C436.605,371.118 542.933,478.381 673.668,478.381 C804.429,478.381 910.728,371.118 910.728,239.226 C910.728,107.271 804.431,-0 673.668,-0 z M673.668,410.449 C580.964,410.449 505.609,333.62 505.609,239.226 C505.609,144.818 580.964,68.003 673.668,68.003 C766.34,68.003 841.774,144.818 841.774,239.226 C841.776,333.623 766.34,410.449 673.668,410.449 z M145.817,272.829 L145.547,272.715 C100.913,258.411 71.036,244.316 48.527,226.955 C16.351,202.224 -0,170.664 -0,133.172 C-0,98.06 16.182,63.843 44.379,39.104 C73.188,13.869 112.885,-0 156.121,-0 C246.624,-0 298.342,60.846 300.511,63.456 L245.597,100.891 C232.879,91.304 199.464,69.781 156.118,69.781 C101.679,69.781 69.139,102.006 69.139,133.172 C69.139,154.913 80.955,178.819 166.453,206.275 L166.783,206.329 C211.3,220.591 241.286,234.728 263.769,252.04 C295.977,276.825 312.304,308.385 312.304,345.883 C312.304,380.992 296.117,415.263 267.86,439.95 C239.113,465.136 199.43,479 156.147,479 C65.673,479 13.949,418.212 11.785,415.588 L66.743,378.156 C79.443,387.761 112.859,409.276 156.144,409.276 C210.606,409.276 243.173,377.116 243.173,345.883 C243.18,324.142 231.396,300.23 145.817,272.829 z M2333.523,272.829 L2333.227,272.715 C2288.627,258.411 2258.719,244.316 2236.254,226.953 C2204.098,202.217 2187.677,170.656 2187.677,133.164 C2187.677,98.052 2203.904,63.838 2232.122,39.099 C2260.832,13.869 2300.49,-0 2343.843,-0 C2434.34,-0 2486.087,60.846 2488.285,63.456 L2433.301,100.891 C2420.612,91.304 2387.196,69.781 2343.843,69.781 C2289.36,69.781 2256.809,102.006 2256.809,133.172 C2256.809,154.913 2268.641,178.819 2354.203,206.275 L2354.536,206.329 C2399.105,220.591 2428.987,234.728 2451.509,252.04 C2483.628,276.825 2500,308.385 2500,345.883 C2500,380.992 2483.823,415.263 2455.649,439.95 C2426.859,465.136 2387.165,479 2343.853,479 C2253.376,479 2201.695,418.212 2199.509,415.588 L2254.439,378.156 C2267.175,387.761 2300.497,409.276 2343.853,409.276 C2398.37,409.276 2430.845,377.116 2430.845,345.883 C2430.835,324.142 2419.06,300.23 2333.523,272.829 z" fill="#A5A5AF"/>
  </g>
</svg>
