<svg xmlns="http://www.w3.org/2000/svg" width="433.618" height="73.752" viewBox="0 0 433.618 73.752">
  <g id="Layer_1_1_" transform="translate(-0.1 -83.1)">
    <path id="Path_10" data-name="Path 10" d="M76.021,86.12h8.243v22.126H76.021C71.9,94.58,51.293,92.627,38.278,92.627c-11.28,0-19.74,3.037-19.74,8.677,0,6.724,15.835,6.724,28.85,8.677,16.486,2.169,40.781,1.952,40.781,23.644,0,17.137-22.776,22.993-36.876,22.993-25.379,0-33.405-7.375-39.262-7.375-1.518,0-2.386,1.518-2.386,4.772H1.185V129.287H9.427c3.037,14.967,26.03,18.221,35.791,18.221,6.941,0,24.512-1.3,24.512-9.544,0-7.809-11.28-7.375-24.946-9.327C29.818,126.467.1,126.033.1,106.076.1,90.675,17.453,83.3,36.759,83.3c22.559,0,33.622,7.375,37.093,7.375,1.3-.434,2.169-1.952,2.169-4.555Z" transform="translate(0 0.234)" fill="#a5a5af"/>
    <path id="Path_11" data-name="Path 11" d="M192.325,150.075H178.876L125.3,104.306v34.056c0,2.386,1.085,3.471,3.471,3.471h9.761v8.243H98.4v-8.243h9.761c2.386,0,3.471-1.085,3.471-3.471V96.714c0-2.386-1.085-3.471-3.471-3.471H98.4V85h33.622l46.637,39.913v-28.2c0-2.386-1.085-3.471-3.471-3.471h-9.761V85h40.13v8.243H195.8c-2.386,0-3.471,1.085-3.471,3.471v53.362Z" transform="translate(114.93 2.221)" fill="#a5a5af"/>
    <path id="Path_12" data-name="Path 12" d="M218.044,85h39.479v8.243h-7.809a10.668,10.668,0,0,0-8.243,3.471l-26.464,28.2v13.666c0,2.386,1.085,3.471,3.471,3.471h9.761v8.243h-47.5v-8.243H190.5c2.386,0,3.471-1.085,3.471-3.471v-12.8L166.852,96.714a10.668,10.668,0,0,0-8.243-3.471H150.8V85h48.373v8.243h-4.555a2,2,0,0,0-2.169,1.3,1.682,1.682,0,0,0,.434,2.169l16.052,17.136,16.052-17.136a1.993,1.993,0,0,0,.434-2.169,2.178,2.178,0,0,0-2.169-1.3h-4.772V85Z" transform="translate(176.195 2.221)" fill="#a5a5af"/>
    <path id="Path_13" data-name="Path 13" d="M98.459,83.1C67.873,83.1,47.7,98.718,47.7,119.759s20.173,36.659,50.759,36.659,50.759-15.618,50.759-36.659S129.044,83.1,98.459,83.1Zm0,9.761c17.57,0,29.067,11.5,29.067,26.9s-11.5,26.9-29.067,26.9-29.067-11.5-29.067-26.9S81.105,92.861,98.459,92.861Z" transform="translate(55.653 0)" fill="#a5a5af"/>
  </g>
</svg>
