<svg id="logo" xmlns="http://www.w3.org/2000/svg" width="433.618" height="90.295" viewBox="0 0 433.618 90.295">
  <path id="Path_71" data-name="Path 71" d="M2.992,19.26c0,9.822,9.538,16.346,26.851,18.343l17.107,1.99c6.588.711,14.442,2.388,14.442,6.453S52.976,53.3,41.811,53.3c-17.469,0-22.864-5.458-25.586-10.206l-.49-.824L0,46.48l.4,1.094C1.954,51.839,9.524,65.726,41.42,65.726c23.169,0,36.452-7.569,36.452-20.76,0-10.184-8.685-16.261-26.545-18.578L34.413,24.257c-14.925-1.564-14.925-4.47-14.925-5.686,0-4.769,9.545-6.46,17.725-6.46,17.91,0,22.21,5.33,23.894,9.346l.405,1L77.1,18.123l-.476-1.116C74.824,12.75,69.4,0,37.582,0,15.28,0,2.992,6.837,2.992,19.26Z" fill="#a5a5af"/>
  <path id="Path_72" data-name="Path 72" d="M4.038,19.4c0,9.616,9.424,16.005,26.538,17.988l17.107,1.99c6.738.711,14.761,2.473,14.761,6.809S54.058,53.839,42.5,53.839c-17.654,0-23.134-5.558-25.927-10.383l-.348-.59-15.067,4,.263.711C2.958,51.792,10.435,65.53,42.111,65.53c22.942,0,36.1-7.434,36.1-20.4,0-9.95-8.578-15.934-26.232-18.23L35.061,24.764C19.8,23.122,19.8,20.108,19.8,18.623c0-5.025,9.339-6.816,18.08-6.816,18.123,0,22.5,5.465,24.221,9.559l.291.711L77.32,17.934,77,17.223C75.216,13.094,69.85.5,38.273.5,16.2.5,4.038,7.252,4.038,19.4Z" transform="translate(-0.336 -0.145)" fill="#a5a5af"/>
  <path id="Path_73" data-name="Path 73" d="M174.83,46.025c0,15.6,12.636,25.678,32.2,25.678,20.831,0,28.428-11.961,29.438-16.147l.327-1.379h-16.1l-.327.711c-1.421,2.793-5.885,6.062-13.738,6.062-8.941-.3-14.342-3.909-16.112-10.661h46.978V49.152c0-18.2-11.144-28.315-31.378-28.492C184.5,20.6,174.83,33.367,174.83,46.025Zm30.987-14.619c8.386,0,13.248,2.679,15.28,8.365h-30c2.225-5.615,7.029-8.365,14.712-8.365Z" transform="translate(-50.577 -5.977)" fill="#a5a5af"/>
  <path id="Path_74" data-name="Path 74" d="M175.33,46.158c0,15.387,12.5,25.337,31.84,25.337,20.611,0,28.094-11.762,29.1-15.877l.227-.945H221.057l-.235.476c-1.471,2.878-6.027,6.261-14.058,6.261-9.424-.313-14.925-4.207-16.6-11.371h47.12v-.782c0-17.974-11.016-27.966-31.022-28.137C184.9,21.092,175.33,33.685,175.33,46.158Zm30.632-14.975c8.877,0,13.852,2.964,15.806,9.076H190.7c2.168-6.034,7.1-9.076,15.259-9.076Z" transform="translate(-50.721 -6.11)" fill="#a5a5af"/>
  <path id="Path_75" data-name="Path 75" d="M277.376,22.74H261.74l22.4,48.03h13.5l12.914-29.992L323.472,70.77h13.717l22.2-48.03H343.927l-13.5,30.177L316.991,22.74H304.2L290.922,52.874,277.6,22.74Z" transform="translate(-75.719 -6.578)" fill="#a5a5af"/>
  <path id="Path_76" data-name="Path 76" d="M357.71,23.24H344.377L330.624,53.928,316.957,23.24H304.605s-11.933,27.2-13.461,30.66L277.6,23.24H262.51l22.075,47.319h13.063S309.275,43.552,310.8,40c1.528,3.554,13.148,30.561,13.148,30.561H337.2L359.067,23.24Z" transform="translate(-75.941 -6.723)" fill="#a5a5af"/>
  <path id="Path_77" data-name="Path 77" d="M400.832,36.038l-.327,1.421h15.565l.249-.86c.362-1.286,1.457-5.188,13.354-5.188,8.436,0,12.722,1.62,12.722,4.819v.981c-13.624.711-44.6,2.345-44.6,19.559,0,11.8,13.965,14.925,22.217,14.925a51.256,51.256,0,0,0,22.65-5.508l.618,4.079,1.137-.1h14.925l-1.066-1.7c-.313-.5-.846-2.061-.846-6.858V38.753c0-5.9,0-18.173-27.853-18.173C418.18,20.58,403.945,23.259,400.832,36.038Zm13.2,20.127v-.178c.078-3.276,3.12-5.21,10.476-6.666a114.721,114.721,0,0,1,17.881-2.146V55.7c-5.146,2.587-12.082,5.515-20.611,5.515-2.843,0-5.053-.59-6.347-1.706a4.264,4.264,0,0,1-1.393-3.347Z" transform="translate(-115.077 -5.954)" fill="#a5a5af"/>
  <path id="Path_78" data-name="Path 78" d="M401.325,36.268l-.227.945h14.854l.171-.6c.384-1.35,1.549-5.444,13.7-5.444,8.671,0,13.077,1.734,13.077,5.174v1.315c-14.008.711-44.6,2.487-44.6,19.189,0,11.521,13.745,14.591,21.861,14.591a50.971,50.971,0,0,0,22.928-5.686l.64,4.222.8-.071H458.85l-.711-1.151c-.405-.647-.9-2.4-.9-7.05V38.9c0-5.785,0-17.818-27.5-17.818C418.453,21.08,404.381,23.71,401.325,36.268Zm14.058,23.667a4.591,4.591,0,0,1-1.549-3.625v-.178c.085-3.49,3.2-5.522,10.767-7.015a115.419,115.419,0,0,1,18.3-2.2v9.168c-5.288,2.672-12.338,5.65-20.93,5.65C419.014,61.733,416.733,61.107,415.383,59.935Z" transform="translate(-115.221 -6.098)" fill="#a5a5af"/>
  <path id="Path_79" data-name="Path 79" d="M530.175,20.58c-7.654,0-13.674,2.26-17.96,6.659V22.115H497.17v48.03h15.046V44.73c.107-3.554.327-11.059,14.733-11.137a30.056,30.056,0,0,1,6.937.711l1.528.334.462-1.286V20.8l-5.686-.22Z" transform="translate(-143.826 -5.954)" fill="#a5a5af"/>
  <path id="Path_80" data-name="Path 80" d="M512.005,28.237V22.615H497.67V69.934h14.335V44.875c.107-3.554.334-11.414,15.088-11.492a30.39,30.39,0,0,1,7.057.746l1.158.256.334-.938V21.286l-5.352-.206C520.647,21.08,515.2,24.669,512.005,28.237Z" transform="translate(-143.971 -6.098)" fill="#a5a5af"/>
  <path id="Path_81" data-name="Path 81" d="M576.11,6.38H561.42V53.138c0,9.95,6.077,14.427,19.7,14.427a104.675,104.675,0,0,0,12.963-.959l1.805-.192V54.651l-1.606.377a57.078,57.078,0,0,1-10.348,1.237c-5.174,0-7.477-1.727-7.477-5.593V29.2h19.573V17.879H576.466V6.38Z" transform="translate(-162.413 -1.846)" fill="#a5a5af"/>
  <path id="Path_82" data-name="Path 82" d="M561.92,6.88v46.4c0,9.73,5.956,14.072,19.346,14.072a104.593,104.593,0,0,0,12.928-.959l1.492-.163V55.244l-1.166.277a57.631,57.631,0,0,1-10.426,1.244c-5.352,0-7.818-1.89-7.818-5.949V29h19.573V18.379H576.255V6.88Z" transform="translate(-162.558 -1.99)" fill="#a5a5af"/>
  <path id="Path_83" data-name="Path 83" d="M135.08,6.38H120.39V53.138c0,9.95,6.077,14.427,19.708,14.427a104.7,104.7,0,0,0,12.963-.959l1.812-.192V54.651l-1.613.377a57.05,57.05,0,0,1-10.341,1.237c-5.174,0-7.484-1.727-7.484-5.593V29.2h19.573V17.879H135.436V6.38Z" transform="translate(-34.828 -1.846)" fill="#a5a5af"/>
  <path id="Path_84" data-name="Path 84" d="M120.89,6.88v46.4c0,9.73,5.97,14.072,19.353,14.072a104.527,104.527,0,0,0,12.928-.959l1.492-.163V55.244l-1.18.277a57.517,57.517,0,0,1-10.419,1.244c-5.352,0-7.818-1.89-7.818-5.949V29H154.8V18.379H135.225V6.88Z" transform="translate(-34.972 -1.99)" fill="#a5a5af"/>
  <path id="Path_85" data-name="Path 85" d="M9.17,106.1H20.314v2.928H12.39v3.113h6.979v2.928H12.39v5.686H9.17Z" transform="translate(-2.653 -30.694)" fill="#a5a5af"/>
  <path id="Path_86" data-name="Path 86" d="M73.95,106.1h3.22v14.626H73.95Z" transform="translate(-21.393 -30.694)" fill="#a5a5af"/>
  <path id="Path_87" data-name="Path 87" d="M128.9,106.1h3.22v11.705h7.292v2.928H128.9Z" transform="translate(-37.289 -30.694)" fill="#a5a5af"/>
  <path id="Path_88" data-name="Path 88" d="M192.38,106.1h3.468l3.845,6.183,3.845-6.183h3.5v14.626h-3.2v-9.552l-4.143,6.226h-.085l-4.072-6.183v9.488H192.38Z" transform="translate(-55.654 -30.694)" fill="#a5a5af"/>
  <path id="Path_89" data-name="Path 89" d="M261.77,118.507l1.9-2.274a6.709,6.709,0,0,0,4.364,1.777c1.315,0,2.132-.519,2.132-1.379V116.6c0-.817-.5-1.237-2.949-1.862-2.949-.753-4.847-1.571-4.847-4.47v-.064c0-2.651,2.132-4.406,5.117-4.406a8.465,8.465,0,0,1,5.43,1.862l-1.67,2.424a6.858,6.858,0,0,0-3.8-1.421c-1.23,0-1.883.561-1.883,1.272v.043c0,.959.625,1.272,3.156,1.926,2.971.775,4.641,1.841,4.641,4.392v.043c0,2.907-2.217,4.534-5.373,4.534a9.31,9.31,0,0,1-6.219-2.367Z" transform="translate(-75.727 -30.606)" fill="#a5a5af"/>
  <path id="Path_90" data-name="Path 90" d="M326.369,113.351v-.043A7.434,7.434,0,0,1,334,105.746,7.548,7.548,0,0,1,339.766,108l-2.047,2.36a5.4,5.4,0,0,0-3.738-1.649,4.335,4.335,0,0,0-4.264,4.556v.043a4.348,4.348,0,0,0,4.264,4.6,5.281,5.281,0,0,0,3.845-1.713l2.047,2.068a7.477,7.477,0,0,1-6,2.615,7.384,7.384,0,0,1-7.505-7.526Z" transform="translate(-94.415 -30.588)" fill="#a5a5af"/>
  <path id="Path_91" data-name="Path 91" d="M394.251,106.1h6.688a5.828,5.828,0,0,1,4.264,1.485,4.591,4.591,0,0,1,1.251,3.34V111a4.541,4.541,0,0,1-3.134,4.534l3.554,5.224h-3.76l-3.134-4.684h-2.53v4.684h-3.22Zm6.482,7.107c1.571,0,2.466-.839,2.466-2.068v-.043c0-1.379-.959-2.089-2.53-2.089h-3.2v4.2Z" transform="translate(-114.047 -30.689)" fill="#a5a5af"/>
  <path id="Path_92" data-name="Path 92" d="M460.8,106.1h11.03v2.843h-7.818v2.964h6.88v2.843H464v3.07h7.939v2.843H460.8Z" transform="translate(-133.305 -30.694)" fill="#a5a5af"/>
  <path id="Path_93" data-name="Path 93" d="M525.78,106.1h11.03v2.843h-7.818v2.964h6.894v2.843h-6.894v3.07h7.939v2.843H525.78Z" transform="translate(-152.103 -30.694)" fill="#a5a5af"/>
  <path id="Path_94" data-name="Path 94" d="M590.737,106.1H593.7l6.851,9v-9H603.7v14.626h-2.736l-7.107-9.3v9.3H590.68Z" transform="translate(-170.878 -30.694)" fill="#a5a5af"/>
</svg>
