<svg width="199px" height="66px" viewBox="0 0 199 66" class="cls-1" version="1.1" xmlns="http://www.w3.org/2000/svg" xmlns:xlink="http://www.w3.org/1999/xlink">
    <title>Group 29</title>
    <defs>
        <style>
        .cls-1 {
            fill: #a5a5af;
        }
    </style>
        <polygon id="path-1" points="0 0.208598 9.233328 0.208598 9.233328 16.285698 0 16.285698"></polygon>
        <polygon id="path-3" points="0.02847 0.064844 15.80384 0.064844 15.80384 16.025724 0.02847 16.025724"></polygon>
    </defs>
    <g id="Symbols" stroke="none" stroke-width="1" fill="none" fill-rule="evenodd">
        <g id="HEADER-02" transform="translate(-208.000000, -16.000000)">
            <g id="Group-29" transform="translate(208.000000, 16.000000)">
                <g id="Group-3" transform="translate(0.000000, 43.713280)">
                    <mask id="mask-2" fill="#A5A5AF">
                        <use xlink:href="#path-1"></use>
                    </mask>
                    <g id="Clip-2"></g>
                    <path d="M-5.2e-05,15.218138 L-5.2e-05,13.455338 L0.069628,13.409058 C1.183208,14.243918 2.389608,14.754558 4.152668,14.754558 C6.194188,14.754558 7.516288,13.734058 7.516288,12.179258 C7.516288,10.323638 6.217588,9.534798 4.152668,8.583718 C2.180828,7.678658 0.232128,6.542198 0.232128,4.268758 C0.232128,1.554098 2.459288,0.208598 5.034328,0.208598 C6.820268,0.208598 7.956988,0.533598 8.861788,0.950898 L8.861788,2.598258 L8.792368,2.621658 C7.817888,2.018198 6.588348,1.739738 5.196568,1.716858 C3.387228,1.716858 1.995188,2.459418 1.995188,4.013438 C1.995188,5.614258 3.479788,6.309758 5.335668,7.168538 C7.330908,8.096218 9.233328,9.256338 9.233328,11.924458 C9.233328,14.592318 7.238088,16.285698 4.338308,16.285698 C2.157688,16.285698 1.020968,15.821338 -5.2e-05,15.218138" id="Fill-1" fill="#A5A5AF" mask="url(#mask-2)"></path>
                </g>
                <path d="M26.859924,45.893822 L22.486984,45.893822 L22.486984,59.674082 L20.770204,59.674082 L20.770204,45.893822 L15.504164,45.893822 L15.504164,44.339542 L26.859924,44.339542 C27.289184,44.339542 27.637064,44.687682 27.637064,45.116942 C27.637064,45.545942 27.289184,45.893822 26.859924,45.893822" id="Fill-4" fill="#A5A5AF"></path>
                <path d="M47.224242,52.018304 C47.224242,47.982064 44.649202,45.592664 41.145962,45.592664 C37.642982,45.592664 35.067942,47.982064 35.067942,52.018304 C35.067942,56.055324 37.642982,58.444464 41.145962,58.444464 C44.649202,58.444464 47.224242,56.055324 47.224242,52.018304 M33.258602,52.018304 C33.258602,47.007584 36.715042,44.038124 41.145962,44.038124 C45.414642,44.038124 49.033582,46.868224 49.033582,52.018304 C49.033582,57.006404 45.577142,59.999004 41.145962,59.999004 C36.877542,59.999004 33.258602,57.168644 33.258602,52.018304" id="Fill-6" fill="#A5A5AF"></path>
                <path d="M61.010456,52.25038 C63.237616,52.25038 64.977536,51.1602 64.977536,49.00272 C64.977536,46.93806 63.794276,45.70852 61.312056,45.70852 C60.059376,45.70852 59.386496,45.75506 58.945536,45.80108 L58.945536,52.25038 L61.010456,52.25038 Z M67.534376,59.63932 L67.511236,59.709 L65.631956,59.709 L61.799296,53.64242 L61.474296,53.64242 L58.945536,53.64242 L58.945536,58.8159 C58.945536,59.28988 58.561256,59.67416 58.087276,59.67416 C57.613296,59.67416 57.229016,59.28988 57.229016,58.8159 L57.229016,44.33962 C58.365736,44.26994 59.339956,44.20078 61.149556,44.20078 C64.513436,44.20078 66.740596,45.61544 66.740596,48.86336 C66.740596,51.34584 65.325416,52.76102 63.492676,53.34082 L67.534376,59.63932 Z" id="Fill-8" fill="#A5A5AF"></path>
                <path d="M75.794784,44.339672 L77.325924,44.339672 L83.102344,54.848872 L88.623704,44.339672 L90.131704,44.339672 L91.036504,59.674212 L89.412544,59.674212 L88.670244,47.447972 L88.623704,47.447972 L83.450224,57.261152 L82.615104,57.261152 L77.302524,47.447972 L77.233104,47.447972 L76.581284,58.899412 C76.556584,59.334132 76.196744,59.674212 75.761244,59.674212 C75.288564,59.674212 74.913384,59.276152 74.941204,58.804512 L75.794784,44.339672 Z" id="Fill-10" fill="#A5A5AF"></path>
                <path d="M115.498474,54.245568 L112.644974,47.656908 L112.413054,46.984288 L112.180874,47.656908 L109.443594,54.245568 L115.498474,54.245568 Z M116.101674,55.614468 L108.886674,55.614468 L107.193294,59.674108 L105.476514,59.674108 L112.111714,44.107648 L112.807474,44.107648 L119.674334,59.674108 L117.864994,59.674108 L116.101674,55.614468 Z" id="Fill-12" fill="#A5A5AF"></path>
                <path d="M127.270832,53.80479 L127.270832,44.33975 L128.987872,44.33975 L128.987872,53.57287 C128.987872,56.82079 130.611572,58.49077 133.464812,58.49077 C136.295172,58.49077 137.919132,56.79739 137.919132,53.57287 L137.919132,45.18657 C137.919132,44.71883 138.298212,44.33975 138.765952,44.33975 C139.233692,44.33975 139.612772,44.71883 139.612772,45.18657 L139.612772,53.80479 C139.612772,57.74847 137.339332,59.99903 133.441672,59.99903 C129.497732,59.99903 127.270832,57.77187 127.270832,53.80479" id="Fill-14" fill="#A5A5AF"></path>
                <path d="M161.197296,51.902786 C161.197296,48.097946 158.877836,45.731686 154.354096,45.731686 C152.962056,45.731686 151.964436,45.801106 151.314696,45.847386 L151.314696,58.096506 C152.034116,58.142786 153.124296,58.166186 154.516336,58.166186 C158.947256,58.142786 161.197296,55.892746 161.197296,51.902786 M163.484516,51.879386 C163.484516,56.844086 159.875456,59.697326 154.330956,59.697326 C151.964436,59.697326 150.387016,59.674186 149.598436,59.627646 L149.598436,44.339646 C151.500336,44.200806 152.683336,44.154266 154.400116,44.154266 C160.153656,44.154266 163.484516,47.193146 163.484516,51.879386" id="Fill-16" fill="#A5A5AF"></path>
                <path d="M172.157414,44.339672 L173.897334,44.339672 L173.897334,58.803992 C173.897334,59.284472 173.507854,59.674212 173.027374,59.674212 C172.546894,59.674212 172.157414,59.284472 172.157414,58.803992 L172.157414,44.339672 Z" id="Fill-18" fill="#A5A5AF"></path>
                <g id="Group-22" transform="translate(182.520000, 43.973280)">
                    <mask id="mask-4" fill="#A5A5AF">
                        <use xlink:href="#path-3"></use>
                    </mask>
                    <g id="Clip-21"></g>
                    <path d="M13.99411,8.045024 C13.99411,4.008784 11.41959,1.619384 7.91583,1.619384 C4.41311,1.619384 1.83807,4.008784 1.83807,8.045024 C1.83807,12.082044 4.41311,14.471184 7.91583,14.471184 C11.41959,14.471184 13.99411,12.082044 13.99411,8.045024 M0.02847,8.045024 C0.02847,3.034304 3.48543,0.064844 7.91583,0.064844 C12.18503,0.064844 15.80397,2.894944 15.80397,8.045024 C15.80397,13.033124 12.34727,16.025724 7.91583,16.025724 C3.64767,16.025724 0.02847,13.195364 0.02847,8.045024" id="Fill-20" fill="#A5A5AF" mask="url(#mask-4)"></path>
                </g>
                <path d="M99.161764,65.81328 C98.828444,65.81328 98.558564,65.54314 98.558564,65.21008 L98.558564,40.24488 C98.558564,39.91208 98.828444,39.64194 99.161764,39.64194 C99.495084,39.64194 99.764964,39.91208 99.764964,40.24488 L99.764964,65.21008 C99.764964,65.54314 99.495084,65.81328 99.161764,65.81328" id="Fill-23" fill="#A5A5AF"></path>
                <path d="M104.319748,0.209248 L90.901928,11.746748 C90.367888,12.205908 90.607608,13.079248 91.301028,13.201448 L97.433388,14.282788 C97.778928,14.343628 98.125768,14.182168 98.301268,13.878228 L105.586728,1.259388 C106.056548,0.445848 105.032148,-0.403312 104.319748,0.209248" id="Fill-25" fill="#A5A5AF"></path>
                <path d="M93.985632,24.632114 L107.421912,13.078754 C107.955952,12.619594 107.716232,11.746254 107.022812,11.624054 L102.413792,10.811294 C102.158992,10.766314 101.897952,10.841974 101.706852,11.016174 L98.105332,14.296594 C98.041632,14.354574 97.987032,14.422434 97.943872,14.497314 L92.718132,23.583274 C92.250132,24.397074 93.274012,25.244154 93.985632,24.632114" id="Fill-27" fill="#A5A5AF"></path>
            </g>
        </g>
    </g>
</svg>