<svg id="surgex-logo" xmlns="http://www.w3.org/2000/svg" width="433.618" height="122.761" viewBox="0 0 433.618 122.761">
  <path id="Path_47" data-name="Path 47" d="M92.058,33.416a6.658,6.658,0,1,1,6.658-6.658,6.844,6.844,0,0,1-6.658,6.658m0-11.652a5.41,5.41,0,1,0,5.41,5.41,5.509,5.509,0,0,0-5.41-5.41" transform="translate(269.984 63.544)" fill="#a5a5af"/>
  <path id="Path_48" data-name="Path 48" d="M87.548,21.416h2.5c.416,0,1.248,0,1.248,1.248a1.329,1.329,0,0,1-1.248,1.248H87.965v-2.5Zm0,3.329h2.081c1.248,0,1.248.832,1.248,1.248v1.665h1.248c-.416,0-.416-.416-.416-.832V25.578c0-.832-.416-1.248-.832-1.248a2.162,2.162,0,0,0,.832-1.665C91.71,21,90.461,21,89.629,21H86.3v6.658h.832V24.745Z" transform="translate(272.829 66.39)" fill="#a5a5af"/>
  <path id="Path_49" data-name="Path 49" d="M235.082.2,179.735,33.075h15.813L62.8,122.129,202.207.2Z" transform="translate(198.536 0.632)" fill="#a5a5af"/>
  <path id="Path_50" data-name="Path 50" d="M64.5,12.5C60.34,10.832,53.266,10,45.359,10c-14.149,0-29.13,4.161-31.211,18.726-2.5,15.813,22.888,12.484,21.639,21.223-1.248,5.826-9.571,6.658-14.981,6.658S8.739,55.359,5.41,53.279L0,64.931a70.871,70.871,0,0,0,19.142,2.913c14.981,0,31.627-4.161,34.124-19.142,2.5-17.062-22.888-13.733-21.639-21.639.832-4.578,6.242-5.41,12.9-5.41a36.715,36.715,0,0,1,13.733,2.5Z" transform="translate(0 31.614)" fill="#a5a5af"/>
  <path id="Path_51" data-name="Path 51" d="M84.223,10.616H67.161L57.174,35.585C53.845,44.324,50.1,55.975,39.28,55.975c-5.826,0-8.323-3.329-7.907-7.907,0-1.248,1.248-3.329,2.081-6.242L45.938,10.2H28.46L16.808,38.5A85.7,85.7,0,0,0,13.9,48.9c-2.081,12.9,8.739,17.478,22.888,17.478,23.3,0,29.962-12.9,37.037-30.794Z" transform="translate(43.116 32.246)" fill="#a5a5af"/>
  <path id="Path_52" data-name="Path 52" d="M61.024,20.7h8.323c4.994,0,7.491,1.665,7.074,5.826-.832,5.41-6.658,6.658-14.149,6.658H56.446ZM26.9,65.647H43.962l8.323-22.055h1.665c7.491,0,8.323.416,8.739,7.907l1.248,14.149H81L78.918,48.585c-.416-3.745-1.248-9.571-6.242-9.987h0c9.987-.832,19.142-4.578,20.807-14.149C95.563,10.716,81,10.3,68.93,10.3H48.539Z" transform="translate(85.042 32.562)" fill="#a5a5af"/>
  <path id="Path_53" data-name="Path 53" d="M110.436,12.913A109.045,109.045,0,0,0,89.629,10C60.083,10,45.518,23.316,42.605,41.627c-2.081,15.4,7.907,25.8,28.3,25.8a112.4,112.4,0,0,0,22.472-2.5l12.068-30.794H78.809l-4.161,10.4h9.987L80.89,55.775a20.615,20.615,0,0,1-7.074.832c-8.739,0-15.4-4.578-13.733-14.565,1.665-10.4,9.987-20.807,27.049-20.807,7.491,0,12.9.832,17.894,2.913Z" transform="translate(133.838 31.614)" fill="#a5a5af"/>
  <path id="Path_54" data-name="Path 54" d="M56,65.647h46.192l3.745-10.4H76.807L81.8,42.759h26.633l4.161-10.82H85.962L90.54,20.7h28.3l3.745-10.4H78.055Z" transform="translate(177.039 32.562)" fill="#a5a5af"/>
  <path id="Path_55" data-name="Path 55" d="M127.431,90.728H106.623L72.5,7.5H93.307Z" transform="translate(229.202 23.711)" fill="#a5a5af"/>
  <path id="Path_56" data-name="Path 56" d="M234.566,0,179.635,32.875h15.813L62.7,121.929,202.107,0Z" transform="translate(198.22)" fill="#a5a5af"/>
</svg>
