<svg xmlns="http://www.w3.org/2000/svg" width="600.1" height="218.2" viewBox="0 0 600.1 218.2">
  <g id="svs-inc-vector-logo" transform="translate(-21.9 -211.9)">
    <g id="Group_8" data-name="Group 8">
      <path id="Path_95" data-name="Path 95" d="M21.9,211.9V430.1H240.1V211.9Zm153.7,157h35c2.7,0,5.3,1.2,7.9,3.5a9.006,9.006,0,0,1,2.3,3.9,8.4,8.4,0,0,0,.5,1.8H164.9C165.8,371.9,169.4,368.9,175.6,368.9Zm-125.3,0h35c2.7,0,5.3,1.2,7.9,3.5a9.006,9.006,0,0,1,2.3,3.9,8.4,8.4,0,0,0,.5,1.8H39.5C40.6,371.9,44.1,368.9,50.3,368.9Zm35.2,42.7H53.6c-6.1,0-10-1.2-11.8-3.3a8.483,8.483,0,0,1-2.4-5.9H79.9c2.3,0,3.5-1.2,3.5-3.8q0-3.6-3.3-3.6H50.3q-9.6,0-10.8-9.9H85.6c7.6,0,11.5,4.2,11.4,12.9C97,407.1,93.2,411.6,85.5,411.6ZM97,369.3h15.6l5,8.6H102.1Zm42.6,41.9H122l-15.6-26.1h15.5l8.5,14.5h.9l8.5-14.5h15.5Zm4.2-33.2,5-8.6h15.6l-5.2,8.6Zm67,33.6h-32c-6.1,0-10-1.2-11.8-3.3a8.483,8.483,0,0,1-2.4-5.9h40.6c2.3,0,3.5-1.2,3.5-3.8q0-3.6-3.3-3.6H175.8q-9.6,0-10.8-9.9h46.1c7.6,0,11.4,4.2,11.4,12.9C222.2,407.1,218.4,411.6,210.8,411.6Z" fill="#a5a5af"/>
    </g>
    <g id="Group_11" data-name="Group 11">
      <g id="Group_9" data-name="Group 9">
        <path id="Path_96" data-name="Path 96" d="M317.2,341l-2.6,2a4.788,4.788,0,0,0-1.8-1.5,5.214,5.214,0,0,0-2.3-.5,4.551,4.551,0,0,0-2.7.8,2.21,2.21,0,0,0-1.1,2,2.019,2.019,0,0,0,.9,1.8,11.35,11.35,0,0,0,3,1.7,12.129,12.129,0,0,1,3.3,1.8,8.047,8.047,0,0,1,3.2,3.9,6.083,6.083,0,0,1,.3,2.3,6.836,6.836,0,0,1-2.1,4.8,6.634,6.634,0,0,1-5,2,8.236,8.236,0,0,1-5-1.5,9.154,9.154,0,0,1-3.3-4.7l3-.9c1.1,2.6,2.9,3.8,5.2,3.8a3.913,3.913,0,0,0,2.9-1.1,3.023,3.023,0,0,0,1.1-2.6,3.226,3.226,0,0,0-.6-1.8,5.356,5.356,0,0,0-1.5-1.5,16.154,16.154,0,0,0-2.7-1.4c-1.2-.5-2.3-1.1-2.9-1.4a8.963,8.963,0,0,1-1.8-1.5,5.826,5.826,0,0,1-1.1-1.8,4.226,4.226,0,0,1-.3-2,4.844,4.844,0,0,1,2-4.1,7.333,7.333,0,0,1,4.7-1.7,11.265,11.265,0,0,1,3.8.8A5.668,5.668,0,0,1,317.2,341Z" fill="#a5a5af"/>
        <path id="Path_97" data-name="Path 97" d="M320.5,349.6a11.57,11.57,0,0,1,3.6-8.5,12.215,12.215,0,0,1,8.9-3.5,12.568,12.568,0,0,1,8.8,3.5,11.458,11.458,0,0,1,3.6,8.3,11.173,11.173,0,0,1-3.6,8.6,12.806,12.806,0,0,1-17.7-.1A10.4,10.4,0,0,1,320.5,349.6Zm21.7.2a8.693,8.693,0,0,0-2.7-6.4,9.536,9.536,0,0,0-6.7-2.6,8.667,8.667,0,0,0-6.4,2.6,8.418,8.418,0,0,0-2.7,6.2,8.26,8.26,0,0,0,2.7,6.2,9.536,9.536,0,0,0,6.7,2.6,9.349,9.349,0,0,0,6.4-2.6A7.388,7.388,0,0,0,342.2,349.8Z" fill="#a5a5af"/>
        <path id="Path_98" data-name="Path 98" d="M349.5,338.1h3V352a7.077,7.077,0,0,0,1.5,4.8,5.57,5.57,0,0,0,4.2,1.7,5.678,5.678,0,0,0,4.2-1.5,5.91,5.91,0,0,0,1.5-4.4V338.2h3v14.2a9.489,9.489,0,0,1-2.4,6.7c-1.5,1.7-3.6,2.4-6.4,2.4a8.581,8.581,0,0,1-6.5-2.6c-1.7-1.7-2.4-4.2-2.4-7.4V338h.3Z" fill="#a5a5af"/>
        <path id="Path_99" data-name="Path 99" d="M371.4,337.5l16.8,17.3V338.4h3v23.8l-16.8-17.1v16.1h-3Z" fill="#a5a5af"/>
        <path id="Path_100" data-name="Path 100" d="M396,338.4h5.5c4.4,0,7.6,1.2,9.7,3.5a11.554,11.554,0,0,1,3.2,7.9,11.052,11.052,0,0,1-3.3,7.9c-2.1,2.3-5.5,3.5-9.5,3.5H396Zm3,3.1V358h.2a51.992,51.992,0,0,0,5.2-.3,6.912,6.912,0,0,0,3.3-1.4,8.67,8.67,0,0,0,2.4-2.7,8.187,8.187,0,0,0,.9-3.8,7.753,7.753,0,0,0-1.5-4.7,6.988,6.988,0,0,0-3.5-2.9,16.411,16.411,0,0,0-5.5-.8H399Z" fill="#a5a5af"/>
      </g>
      <g id="Group_10" data-name="Group 10">
        <path id="Path_101" data-name="Path 101" d="M254.6,372.7h9.1a18.505,18.505,0,0,1,11.1,3.3,10.461,10.461,0,0,1,4.2,8.6,10.892,10.892,0,0,1-2.7,7.4c-1.8,2.1-4.7,3.6-8.6,4.5l12.1,17.9h-6.5l-11.7-17.3h-1.2v17.3h-5.8V372.7Zm5.6,5.1v14.5c8.5.2,12.7-2.3,12.7-7.3a6.523,6.523,0,0,0-1.5-4.4,6.73,6.73,0,0,0-3.9-2.3A43.477,43.477,0,0,0,260.2,377.8Z" fill="#a5a5af"/>
        <path id="Path_102" data-name="Path 102" d="M287.3,358h4.4v71.5h-4.4Z" fill="#a5a5af"/>
        <path id="Path_103" data-name="Path 103" d="M302.2,372.7h23.3v5.8H307.9V389h17.6v5.6H307.9V409h17.6v5.6H302.2Z" fill="#a5a5af"/>
        <path id="Path_104" data-name="Path 104" d="M328.7,372.1h6.1L348,401.8l13.3-29.7h6.1L348,415.4Z" fill="#a5a5af"/>
        <path id="Path_105" data-name="Path 105" d="M369.2,393.4a20.991,20.991,0,0,1,6.8-15.6,23.812,23.812,0,0,1,32.7,0,20.936,20.936,0,0,1,6.8,15.5,21.889,21.889,0,0,1-6.7,16.1,22.622,22.622,0,0,1-16.5,6.5,22.9,22.9,0,0,1-16.4-6.7A20.564,20.564,0,0,1,369.2,393.4Zm40.3.3a15.57,15.57,0,0,0-5-11.7,16.894,16.894,0,0,0-12.3-4.7,17.556,17.556,0,0,0-12,4.8,15.726,15.726,0,0,0-5,11.7,15.211,15.211,0,0,0,5.2,11.7,17.291,17.291,0,0,0,12.4,4.7,16.731,16.731,0,0,0,16.7-16.5Z" fill="#a5a5af"/>
        <path id="Path_106" data-name="Path 106" d="M423.9,372.7h5.6v36.4h13.6v5.6H423.7v-42Z" fill="#a5a5af"/>
        <path id="Path_107" data-name="Path 107" d="M448.1,372.1h5.8v25.8c0,3.8.9,6.8,2.7,8.9a9.665,9.665,0,0,0,7.7,3.2c3.3,0,5.9-.9,7.7-2.9a11.836,11.836,0,0,0,2.9-8.2V372.1h5.8v26.4c0,5.2-1.5,9.2-4.4,12.3q-4.35,4.5-11.7,4.5c-5,0-8.9-1.5-12-4.7-3-3.2-4.5-7.7-4.5-13.8V372.1Z" fill="#a5a5af"/>
        <path id="Path_108" data-name="Path 108" d="M486.5,372.7h25.6v5.8h-10v36.2h-5.6V378.5h-10v-5.8Z" fill="#a5a5af"/>
        <path id="Path_109" data-name="Path 109" d="M518.6,372.7h5.6v42h-5.6Z" fill="#a5a5af"/>
        <path id="Path_110" data-name="Path 110" d="M531.6,393.4a20.991,20.991,0,0,1,6.8-15.6,23.812,23.812,0,0,1,32.7,0,20.936,20.936,0,0,1,6.8,15.5,21.889,21.889,0,0,1-6.7,16.1,22.463,22.463,0,0,1-16.5,6.5,22.9,22.9,0,0,1-16.4-6.7A20.914,20.914,0,0,1,531.6,393.4Zm40.2.3a15.57,15.57,0,0,0-5-11.7,16.894,16.894,0,0,0-12.3-4.7,17.2,17.2,0,0,0-12,4.8,15.726,15.726,0,0,0-5,11.7,15.211,15.211,0,0,0,5.2,11.7,17.291,17.291,0,0,0,12.4,4.7,16.49,16.49,0,0,0,11.7-4.8A15.762,15.762,0,0,0,571.8,393.7Z" fill="#a5a5af"/>
        <path id="Path_111" data-name="Path 111" d="M585.1,370.9l31.1,31.8V372.5H622v44l-31.1-31.8v29.9h-5.8Z" fill="#a5a5af"/>
      </g>
    </g>
    <path id="Path_112" data-name="Path 112" d="M175.6,368.9h35c2.7,0,5.3,1.2,7.9,3.5a9.006,9.006,0,0,1,2.3,3.9,8.4,8.4,0,0,0,.5,1.8H164.9C165.8,371.9,169.4,368.9,175.6,368.9Z" fill="#fff"/>
    <path id="Path_113" data-name="Path 113" d="M50.3,368.9h35c2.7,0,5.3,1.2,7.9,3.5a9.006,9.006,0,0,1,2.3,3.9,8.4,8.4,0,0,0,.5,1.8H39.5C40.6,371.9,44.1,368.9,50.3,368.9Z" fill="#fff"/>
    <path id="Path_114" data-name="Path 114" d="M85.5,411.6H53.6c-6.1,0-10-1.2-11.8-3.3a8.483,8.483,0,0,1-2.4-5.9H79.9c2.3,0,3.5-1.2,3.5-3.8q0-3.6-3.3-3.6H50.3q-9.6,0-10.8-9.9H85.6c7.6,0,11.5,4.2,11.4,12.9C97,407.1,93.2,411.6,85.5,411.6Z" fill="#fff"/>
    <path id="Path_115" data-name="Path 115" d="M97,369.3h15.6l5,8.7H102.1Z" fill="#fff"/>
    <path id="Path_116" data-name="Path 116" d="M139.6,411.2H122l-15.6-26.1h15.3l8.6,14.6h.9l8.5-14.6h15.5Z" fill="#fff"/>
    <path id="Path_117" data-name="Path 117" d="M143.8,378l5.2-8.7h15.6l-5.2,8.7Z" fill="#fff"/>
    <path id="Path_118" data-name="Path 118" d="M210.8,411.6h-32c-6.1,0-10-1.2-11.8-3.3a8.483,8.483,0,0,1-2.4-5.9h40.6c2.3,0,3.5-1.2,3.5-3.8q0-3.6-3.3-3.6H175.8q-9.6,0-10.8-9.9h46.1c7.6,0,11.4,4.2,11.4,12.9C222.2,407.1,218.4,411.6,210.8,411.6Z" fill="#fff"/>
  </g>
</svg>
