<?xml version="1.0" encoding="UTF-8"?>
<!DOCTYPE svg PUBLIC "-//W3C//DTD SVG 1.1//EN" "http://www.w3.org/Graphics/SVG/1.1/DTD/svg11.dtd">
<svg version="1.1" xmlns="http://www.w3.org/2000/svg" xmlns:xlink="http://www.w3.org/1999/xlink" x="0" y="0" width="1888" height="20" viewBox="0, 0, 1888, 20">
  <g id="Layer_1" transform="translate(0, 0)">
    <path d="M4,0 L12,0 C14.209,0 16,1.791 16,4 L16,16 C16,18.209 14.209,20 12,20 L4,20 C1.791,20 0,18.209 0,16 L0,4 C0,1.791 1.791,0 4,0 z" fill="#FFFFFF"/>
    <path d="M52,0 L60,0 C62.209,0 64,1.791 64,4 L64,16 C64,18.209 62.209,20 60,20 L52,20 C49.791,20 48,18.209 48,16 L48,4 C48,1.791 49.791,0 52,0 z" fill="#FFFFFF"/>
    <path d="M100,0 L108,0 C110.209,0 112,1.791 112,4 L112,16 C112,18.209 110.209,20 108,20 L100,20 C97.791,20 96,18.209 96,16 L96,4 C96,1.791 97.791,0 100,0 z" fill="#FFFFFF"/>
    <path d="M148,0 L156,0 C158.209,0 160,1.791 160,4 L160,16 C160,18.209 158.209,20 156,20 L148,20 C145.791,20 144,18.209 144,16 L144,4 C144,1.791 145.791,0 148,0 z" fill="#FFFFFF"/>
    <path d="M196,0 L204,0 C206.209,0 208,1.791 208,4 L208,16 C208,18.209 206.209,20 204,20 L196,20 C193.791,20 192,18.209 192,16 L192,4 C192,1.791 193.791,0 196,0 z" fill="#FFFFFF"/>
    <path d="M244,0 L252,0 C254.209,0 256,1.791 256,4 L256,16 C256,18.209 254.209,20 252,20 L244,20 C241.791,20 240,18.209 240,16 L240,4 C240,1.791 241.791,0 244,0 z" fill="#FFFFFF"/>
    <path d="M292,0 L300,0 C302.209,0 304,1.791 304,4 L304,16 C304,18.209 302.209,20 300,20 L292,20 C289.791,20 288,18.209 288,16 L288,4 C288,1.791 289.791,0 292,0 z" fill="#FFFFFF"/>
    <path d="M340,0 L348,0 C350.209,0 352,1.791 352,4 L352,16 C352,18.209 350.209,20 348,20 L340,20 C337.791,20 336,18.209 336,16 L336,4 C336,1.791 337.791,0 340,0 z" fill="#FFFFFF"/>
    <path d="M388,0 L396,0 C398.209,0 400,1.791 400,4 L400,16 C400,18.209 398.209,20 396,20 L388,20 C385.791,20 384,18.209 384,16 L384,4 C384,1.791 385.791,0 388,0 z" fill="#FFFFFF"/>
    <path d="M436,0 L444,0 C446.209,0 448,1.791 448,4 L448,16 C448,18.209 446.209,20 444,20 L436,20 C433.791,20 432,18.209 432,16 L432,4 C432,1.791 433.791,0 436,0 z" fill="#FFFFFF"/>
    <path d="M484,0 L492,0 C494.209,0 496,1.791 496,4 L496,16 C496,18.209 494.209,20 492,20 L484,20 C481.791,20 480,18.209 480,16 L480,4 C480,1.791 481.791,0 484,0 z" fill="#FFFFFF"/>
    <path d="M532,0 L540,0 C542.209,0 544,1.791 544,4 L544,16 C544,18.209 542.209,20 540,20 L532,20 C529.791,20 528,18.209 528,16 L528,4 C528,1.791 529.791,0 532,0 z" fill="#FFFFFF"/>
    <path d="M580,0 L588,0 C590.209,0 592,1.791 592,4 L592,16 C592,18.209 590.209,20 588,20 L580,20 C577.791,20 576,18.209 576,16 L576,4 C576,1.791 577.791,0 580,0 z" fill="#FFFFFF"/>
    <path d="M628,0 L636,0 C638.209,0 640,1.791 640,4 L640,16 C640,18.209 638.209,20 636,20 L628,20 C625.791,20 624,18.209 624,16 L624,4 C624,1.791 625.791,0 628,0 z" fill="#FFFFFF"/>
    <path d="M676,0 L684,0 C686.209,0 688,1.791 688,4 L688,16 C688,18.209 686.209,20 684,20 L676,20 C673.791,20 672,18.209 672,16 L672,4 C672,1.791 673.791,0 676,0 z" fill="#FFFFFF"/>
    <path d="M724,0 L732,0 C734.209,0 736,1.791 736,4 L736,16 C736,18.209 734.209,20 732,20 L724,20 C721.791,20 720,18.209 720,16 L720,4 C720,1.791 721.791,0 724,0 z" fill="#FFFFFF"/>
    <path d="M772,0 L780,0 C782.209,0 784,1.791 784,4 L784,16 C784,18.209 782.209,20 780,20 L772,20 C769.791,20 768,18.209 768,16 L768,4 C768,1.791 769.791,0 772,0 z" fill="#FFFFFF"/>
    <path d="M820,0 L828,0 C830.209,0 832,1.791 832,4 L832,16 C832,18.209 830.209,20 828,20 L820,20 C817.791,20 816,18.209 816,16 L816,4 C816,1.791 817.791,0 820,0 z" fill="#FFFFFF"/>
    <path d="M868,0 L876,0 C878.209,0 880,1.791 880,4 L880,16 C880,18.209 878.209,20 876,20 L868,20 C865.791,20 864,18.209 864,16 L864,4 C864,1.791 865.791,0 868,0 z" fill="#FFFFFF"/>
    <path d="M916,0 L924,0 C926.209,0 928,1.791 928,4 L928,16 C928,18.209 926.209,20 924,20 L916,20 C913.791,20 912,18.209 912,16 L912,4 C912,1.791 913.791,0 916,0 z" fill="#FFFFFF"/>
    <path d="M964,0 L972,0 C974.209,0 976,1.791 976,4 L976,16 C976,18.209 974.209,20 972,20 L964,20 C961.791,20 960,18.209 960,16 L960,4 C960,1.791 961.791,0 964,0 z" fill="#FFFFFF"/>
    <path d="M1012,0 L1020,0 C1022.209,0 1024,1.791 1024,4 L1024,16 C1024,18.209 1022.209,20 1020,20 L1012,20 C1009.791,20 1008,18.209 1008,16 L1008,4 C1008,1.791 1009.791,0 1012,0 z" fill="#FFFFFF"/>
    <path d="M1060,0 L1068,0 C1070.209,0 1072,1.791 1072,4 L1072,16 C1072,18.209 1070.209,20 1068,20 L1060,20 C1057.791,20 1056,18.209 1056,16 L1056,4 C1056,1.791 1057.791,0 1060,0 z" fill="#FFFFFF"/>
    <path d="M1108,0 L1116,0 C1118.209,0 1120,1.791 1120,4 L1120,16 C1120,18.209 1118.209,20 1116,20 L1108,20 C1105.791,20 1104,18.209 1104,16 L1104,4 C1104,1.791 1105.791,0 1108,0 z" fill="#FFFFFF"/>
    <path d="M1156,0 L1164,0 C1166.209,0 1168,1.791 1168,4 L1168,16 C1168,18.209 1166.209,20 1164,20 L1156,20 C1153.791,20 1152,18.209 1152,16 L1152,4 C1152,1.791 1153.791,0 1156,0 z" fill="#FFFFFF"/>
    <path d="M1204,0 L1212,0 C1214.209,0 1216,1.791 1216,4 L1216,16 C1216,18.209 1214.209,20 1212,20 L1204,20 C1201.791,20 1200,18.209 1200,16 L1200,4 C1200,1.791 1201.791,0 1204,0 z" fill="#FFFFFF"/>
    <path d="M1252,0 L1260,0 C1262.209,0 1264,1.791 1264,4 L1264,16 C1264,18.209 1262.209,20 1260,20 L1252,20 C1249.791,20 1248,18.209 1248,16 L1248,4 C1248,1.791 1249.791,0 1252,0 z" fill="#FFFFFF"/>
    <path d="M1300,0 L1308,0 C1310.209,0 1312,1.791 1312,4 L1312,16 C1312,18.209 1310.209,20 1308,20 L1300,20 C1297.791,20 1296,18.209 1296,16 L1296,4 C1296,1.791 1297.791,0 1300,0 z" fill="#FFFFFF"/>
    <path d="M1348,0 L1356,0 C1358.209,0 1360,1.791 1360,4 L1360,16 C1360,18.209 1358.209,20 1356,20 L1348,20 C1345.791,20 1344,18.209 1344,16 L1344,4 C1344,1.791 1345.791,0 1348,0 z" fill="#FFFFFF"/>
    <path d="M1396,0 L1404,0 C1406.209,0 1408,1.791 1408,4 L1408,16 C1408,18.209 1406.209,20 1404,20 L1396,20 C1393.791,20 1392,18.209 1392,16 L1392,4 C1392,1.791 1393.791,0 1396,0 z" fill="#FFFFFF"/>
    <path d="M1444,0 L1452,0 C1454.209,0 1456,1.791 1456,4 L1456,16 C1456,18.209 1454.209,20 1452,20 L1444,20 C1441.791,20 1440,18.209 1440,16 L1440,4 C1440,1.791 1441.791,0 1444,0 z" fill="#FFFFFF"/>
    <path d="M1492,0 L1500,0 C1502.209,0 1504,1.791 1504,4 L1504,16 C1504,18.209 1502.209,20 1500,20 L1492,20 C1489.791,20 1488,18.209 1488,16 L1488,4 C1488,1.791 1489.791,0 1492,0 z" fill="#FFFFFF"/>
    <path d="M1540,0 L1548,0 C1550.209,0 1552,1.791 1552,4 L1552,16 C1552,18.209 1550.209,20 1548,20 L1540,20 C1537.791,20 1536,18.209 1536,16 L1536,4 C1536,1.791 1537.791,0 1540,0 z" fill="#FFFFFF"/>
    <path d="M1588,0 L1596,0 C1598.209,0 1600,1.791 1600,4 L1600,16 C1600,18.209 1598.209,20 1596,20 L1588,20 C1585.791,20 1584,18.209 1584,16 L1584,4 C1584,1.791 1585.791,0 1588,0 z" fill="#FFFFFF"/>
    <path d="M1636,0 L1644,0 C1646.209,0 1648,1.791 1648,4 L1648,16 C1648,18.209 1646.209,20 1644,20 L1636,20 C1633.791,20 1632,18.209 1632,16 L1632,4 C1632,1.791 1633.791,0 1636,0 z" fill="#FFFFFF"/>
    <path d="M1684,0 L1692,0 C1694.209,0 1696,1.791 1696,4 L1696,16 C1696,18.209 1694.209,20 1692,20 L1684,20 C1681.791,20 1680,18.209 1680,16 L1680,4 C1680,1.791 1681.791,0 1684,0 z" fill="#FFFFFF"/>
    <path d="M1732,0 L1740,0 C1742.209,0 1744,1.791 1744,4 L1744,16 C1744,18.209 1742.209,20 1740,20 L1732,20 C1729.791,20 1728,18.209 1728,16 L1728,4 C1728,1.791 1729.791,0 1732,0 z" fill="#FFFFFF"/>
    <path d="M1780,0 L1788,0 C1790.209,0 1792,1.791 1792,4 L1792,16 C1792,18.209 1790.209,20 1788,20 L1780,20 C1777.791,20 1776,18.209 1776,16 L1776,4 C1776,1.791 1777.791,0 1780,0 z" fill="#FFFFFF"/>
    <path d="M1828,0 L1836,0 C1838.209,0 1840,1.791 1840,4 L1840,16 C1840,18.209 1838.209,20 1836,20 L1828,20 C1825.791,20 1824,18.209 1824,16 L1824,4 C1824,1.791 1825.791,0 1828,0 z" fill="#FFFFFF"/>
    <path d="M1876,0 L1884,0 C1886.209,0 1888,1.791 1888,4 L1888,16 C1888,18.209 1886.209,20 1884,20 L1876,20 C1873.791,20 1872,18.209 1872,16 L1872,4 C1872,1.791 1873.791,0 1876,0 z" fill="#FFFFFF"/>
  </g>
</svg>
