<svg version="1.1" xmlns="http://www.w3.org/2000/svg" xmlns:xlink="http://www.w3.org/1999/xlink" x="0" y="0" width="60" height="60" viewBox="0, 0, 60, 60">
  <g id="Layer_1" transform="translate(0, 0)">
    <path d="M30,2 C45.4,2 58,14.6 58,30 C58,45.4 45.4,58 30,58 C14.6,58 2,45.4 2,30 C2,14.6 14.6,2 30,2 M30,0 C13.4,0 0,13.4 0,30 C0,46.6 13.4,60 30,60 C46.6,60 60,46.6 60,30 C60,13.4 46.6,0 30,0 L30,0 z" fill="#939aa2"/>
    <g>
      <path d="M26.9,17.277 C27.471,17.277 28.099,17.334 28.67,17.448 C29.241,17.563 29.812,17.734 30.44,17.905 L37.35,17.905 L37.35,19.79 L32.781,19.79 L32.781,19.904 C33.295,20.475 33.638,21.103 33.866,21.788 C34.095,22.473 34.209,23.159 34.209,23.787 C34.209,25.5 33.524,26.927 32.153,28.127 C30.726,29.326 29.127,29.897 27.299,29.897 L24.901,29.897 C24.558,30.011 24.273,30.182 23.93,30.468 C23.588,30.753 23.416,31.153 23.416,31.61 C23.416,32.067 23.531,32.466 23.816,32.695 C24.102,32.923 24.444,33.095 24.844,33.209 C25.187,33.266 25.643,33.38 26.157,33.38 C26.614,33.38 27.185,33.437 27.699,33.437 C28.327,33.437 29.07,33.494 30.097,33.551 C31.068,33.609 31.811,33.666 32.21,33.666 C32.838,33.723 33.409,33.837 34.038,34.122 C34.609,34.408 35.18,34.751 35.579,35.265 C36.093,35.778 36.55,36.35 36.836,36.978 C37.121,37.606 37.292,38.405 37.292,39.319 C37.292,40.233 37.064,41.146 36.664,41.946 C36.265,42.745 35.636,43.43 34.837,44.058 C33.98,44.687 32.895,45.143 31.696,45.486 C30.497,45.829 29.012,46 27.185,46 C24.216,46 22.046,45.543 20.561,44.687 C19.134,43.83 18.391,42.574 18.391,40.918 C18.391,39.547 18.962,38.519 19.99,37.72 C21.018,36.978 22.331,36.521 23.987,36.464 L23.987,36.178 C23.588,36.064 23.188,35.893 22.788,35.721 C22.388,35.55 21.989,35.322 21.703,35.093 C21.418,34.808 21.132,34.522 20.904,34.122 C20.675,33.78 20.561,33.323 20.561,32.752 C20.561,32.01 20.79,31.382 21.303,30.811 C21.76,30.239 22.56,29.726 23.531,29.326 L23.531,29.04 C22.274,28.469 21.303,27.67 20.618,26.756 C19.933,25.843 19.59,24.758 19.59,23.558 C19.59,21.731 20.276,20.189 21.646,19.047 C23.017,17.848 24.787,17.277 26.9,17.277 z M25.872,36.921 C24.444,37.149 23.416,37.663 22.845,38.291 C22.217,38.919 21.932,39.776 21.932,40.804 C21.932,41.26 22.046,41.717 22.217,42.117 C22.446,42.517 22.731,42.916 23.245,43.259 C23.702,43.602 24.273,43.887 25.072,44.116 C25.872,44.344 26.785,44.458 27.927,44.458 C29.869,44.458 31.411,44.116 32.496,43.373 C33.581,42.631 34.152,41.489 34.209,40.004 C34.209,39.262 34.038,38.634 33.695,38.177 C33.352,37.72 32.838,37.377 32.153,37.206 C31.753,37.149 31.011,37.092 29.869,37.035 C28.727,36.978 27.356,36.921 25.872,36.921 z M26.842,18.705 C26.214,18.705 25.7,18.876 25.244,19.104 C24.787,19.333 24.444,19.732 24.159,20.189 C23.873,20.589 23.702,21.103 23.588,21.731 C23.473,22.359 23.416,22.987 23.416,23.615 C23.416,25.043 23.759,26.242 24.387,27.156 C25.015,28.07 25.815,28.526 26.842,28.526 C27.985,28.526 28.841,28.07 29.469,27.156 C30.04,26.242 30.383,25.1 30.383,23.73 C30.383,22.188 30.097,20.989 29.469,20.075 C28.841,19.161 27.985,18.705 26.842,18.705 z" fill="#939aa2"/>
      <path d="M43.174,18.305 L43.174,22.188 L47,22.188 L47,23.673 L43.174,23.673 L43.174,27.498 L41.689,27.498 L41.689,23.673 L37.863,23.673 L37.863,22.188 L41.689,22.188 L41.689,18.305 L43.174,18.305 z" fill="#939aa2"/>
    </g>
  </g>
</svg>
