<svg version="1.1" xmlns="http://www.w3.org/2000/svg" xmlns:xlink="http://www.w3.org/1999/xlink" x="0" y="0" width="60" height="60" viewBox="0, 0, 60, 60">
  <g id="Layer_1" transform="translate(0, 0)">
    <path d="M30,2 C45.4,2 58,14.6 58,30 C58,45.4 45.4,58 30,58 C14.6,58 2,45.4 2,30 C2,14.6 14.6,2 30,2 M30,0 C13.4,0 0,13.4 0,30 C0,46.6 13.4,60 30,60 C46.6,60 60,46.6 60,30 C60,13.4 46.6,0 30,0 L30,0 z" fill="#939aa2"/>
    <path d="M13.5,42.961 C17.4,43.261 20.9,42.261 24.1,39.861 C22.1,39.761 20.4,38.961 19,37.561 C18.3,36.761 17.7,35.861 17.4,34.761 C18.5,34.961 19.5,34.861 20.6,34.661 C17,33.561 15.1,31.161 14.9,27.461 C15.9,27.961 16.9,28.261 18.1,28.261 C16.5,27.161 15.5,25.661 15.1,23.861 C14.7,21.961 15,20.261 15.9,18.661 C19.9,23.261 24.8,25.861 30.9,26.261 C30.8,25.861 30.8,25.461 30.8,25.061 C30.7,22.561 31.6,20.661 33.4,18.961 C35.1,17.561 37.1,17.061 39.3,17.361 C40.8,17.561 42.1,18.261 43.2,19.361 C43.3,19.461 43.4,19.461 43.6,19.461 C45,19.161 46.4,18.661 47.7,17.861 C47.8,17.761 47.8,17.761 47.9,17.761 C47.7,18.561 47.3,19.361 46.8,19.961 C46.3,20.661 45.7,21.161 45,21.661 C46.4,21.561 47.6,21.161 49,20.561 C48.4,21.461 47.8,22.161 47.1,22.861 C46.6,23.361 46.1,23.661 45.6,24.161 C45.3,24.361 45.2,24.461 45.2,24.661 C45.3,26.761 45,28.861 44.5,30.861 C44,32.561 43.4,34.161 42.5,35.761 C41.8,36.761 41.2,37.761 40.5,38.761 C39.7,39.861 38.6,40.861 37.6,41.661 C36.3,42.661 35,43.561 33.4,44.161 C31.7,44.961 29.8,45.461 27.9,45.761 C26.3,45.961 24.7,46.061 23,45.961 C21.3,45.861 19.6,45.561 18,44.961 C16.9,44.561 15.8,43.961 14.7,43.561 C14.3,43.361 13.9,43.161 13.5,42.961 z" fill="#939aa2"/>
  </g>
</svg>
