<svg version="1.1" xmlns="http://www.w3.org/2000/svg" xmlns:xlink="http://www.w3.org/1999/xlink" x="0" y="0" width="60" height="60" viewBox="0, 0, 60, 60">
  <g id="Layer_1" transform="translate(0, 0)">
    <path d="M30,2 C45.4,2 58,14.6 58,30 C58,45.4 45.4,58 30,58 C14.6,58 2,45.4 2,30 C2,14.6 14.6,2 30,2 M30,0 C13.4,0 0,13.4 0,30 C0,46.6 13.4,60 30,60 C46.6,60 60,46.6 60,30 C60,13.4 46.6,0 30,0 L30,0 z" fill="#939aa2"/>
    <path d="M46,31.852 L46,43 L39.572,43 L39.572,32.656 C39.572,30.045 38.568,28.237 36.359,28.237 C34.551,28.237 33.547,29.442 33.045,30.547 C32.844,31.049 32.844,31.551 32.844,32.154 L32.844,43 L26.416,43 C26.416,43 26.517,25.425 26.416,23.617 L32.844,23.617 L32.844,26.429 C32.844,26.429 32.844,26.529 32.743,26.529 L32.844,26.529 L32.844,26.429 C33.647,25.123 35.254,23.215 38.669,23.215 C42.786,23.115 46,25.927 46,31.852 z M19.587,14.277 C17.377,14.277 15.871,15.683 15.871,17.692 C15.871,19.6 17.277,21.106 19.386,21.106 L19.486,21.106 C21.696,21.106 23.202,19.6 23.202,17.692 C23.102,15.683 21.696,14.277 19.587,14.277 z M16.273,43 L22.7,43 L22.7,23.617 L16.273,23.617 L16.273,43 z" fill="#939aa2" id="LinkedIn"/>
  </g>
</svg>
