<svg version="1.1" xmlns="http://www.w3.org/2000/svg" xmlns:xlink="http://www.w3.org/1999/xlink" x="0" y="0" width="60" height="60" viewBox="0, 0, 60, 60">
  <g id="Layer_1" transform="translate(0, 0)">
    <path d="M30,2 C45.4,2 58,14.6 58,30 C58,45.4 45.4,58 30,58 C14.6,58 2,45.4 2,30 C2,14.6 14.6,2 30,2 M30,0 C13.4,0 0,13.4 0,30 C0,46.6 13.4,60 30,60 C46.6,60 60,46.6 60,30 C60,13.4 46.6,0 30,0 L30,0 z" fill="#939aa2"/>
    <path d="M37,21.391 C37,21.391 34.784,21.391 33.846,21.391 C32.738,21.391 32.483,21.817 32.483,23.01 C32.483,23.948 32.483,25.738 32.483,25.738 L36.915,25.738 L36.489,30.596 L32.483,30.596 L32.483,45 L26.687,45 L26.687,30.596 L23.704,30.596 L23.704,25.652 L26.687,25.652 C26.687,25.652 26.687,24.971 26.687,21.817 C26.687,18.152 28.647,16.277 32.909,16.277 C33.591,16.277 36.915,16.277 36.915,16.277 L36.915,21.391 L37,21.391 z" fill="#939aa2"/>
  </g>
</svg>
