<?xml version="1.0" encoding="UTF-8"?>
<!DOCTYPE svg PUBLIC "-//W3C//DTD SVG 1.1//EN" "http://www.w3.org/Graphics/SVG/1.1/DTD/svg11.dtd">
<svg version="1.1" xmlns="http://www.w3.org/2000/svg" xmlns:xlink="http://www.w3.org/1999/xlink" x="0" y="0" width="110" height="110" viewBox="0, 0, 110, 110">
  <g id="Layer_1" opacity="0.5" transform="translate(0, 0)">
    <path d="M55,105 C27.386,105 5,82.614 5,55 C5,27.386 27.386,5 55,5 C82.614,5 105,27.386 105,55 C105,82.614 82.614,105 55,105 z" fill-opacity="0" stroke="#f2f2f6" stroke-width="3"/>
    <g>
      <path d="M55,12.864 C78.271,12.864 97.136,31.729 97.136,55 C97.136,78.271 78.271,97.136 55,97.136 C31.729,97.136 12.864,78.271 12.864,55 C12.864,31.729 31.729,12.864 55,12.864 z M64.83,40.331 C60.449,40.331 56.883,43.998 56.883,48.378 C56.883,52.758 59.838,55.713 63.71,55.713 C64.524,55.713 65.442,55.611 65.747,55.407 C64.932,59.075 61.061,63.354 57.801,65.085 L63.404,69.669 C69.722,65.187 73.898,58.361 73.898,50.723 C73.898,44.1 69.618,40.331 64.83,40.331 z M44.15,40.331 C39.77,40.331 36.102,43.998 36.102,48.378 C36.102,52.758 39.158,55.713 43.029,55.713 C43.844,55.713 44.66,55.611 44.964,55.407 C44.15,59.075 40.38,63.354 37.121,65.085 L42.725,69.669 C49.041,65.187 53.217,58.361 53.217,50.723 C53.217,44.1 48.938,40.331 44.15,40.331 z" fill="#f2f2f6"/>
      <path d="M55,12.864 C78.271,12.864 97.136,31.729 97.136,55 C97.136,78.271 78.271,97.136 55,97.136 C31.729,97.136 12.864,78.271 12.864,55 C12.864,31.729 31.729,12.864 55,12.864 z M64.83,40.331 C60.449,40.331 56.883,43.998 56.883,48.378 C56.883,52.758 59.838,55.713 63.71,55.713 C64.524,55.713 65.442,55.611 65.747,55.407 C64.932,59.075 61.061,63.354 57.801,65.085 L63.404,69.669 C69.722,65.187 73.898,58.361 73.898,50.723 C73.898,44.1 69.618,40.331 64.83,40.331 z M44.15,40.331 C39.77,40.331 36.102,43.998 36.102,48.378 C36.102,52.758 39.158,55.713 43.029,55.713 C43.844,55.713 44.66,55.611 44.964,55.407 C44.15,59.075 40.38,63.354 37.121,65.085 L42.725,69.669 C49.041,65.187 53.217,58.361 53.217,50.723 C53.217,44.1 48.938,40.331 44.15,40.331 z" fill-opacity="0" stroke="#f2f2f6" stroke-width="1"/>
    </g>
  </g>
</svg>
