<svg id="Layer_1" data-name="Layer 1" xmlns="http://www.w3.org/2000/svg" viewBox="0 0 172.79 101.58">
  <defs>
    <style>
      .cls-1 {
        fill: #dcdce0;
      }

      .cls-2 {
        fill: #94949a;
      }

      .cls-3 {
        fill: #cacacc;
      }

      .cls-4 {
        fill: #fff;
      }

      .cls-4, .cls-5, .cls-7 {
        opacity: 0.5;
      }

      .cls-10, .cls-6, .cls-9 {
        fill: none;
        stroke-linecap: round;
        stroke-miterlimit: 10;
      }

      .cls-6 {
        stroke: #cacacc;
        stroke-width: 0.5px;
      }

      .cls-7, .cls-8 {
        fill: #c6aa63;
      }

      .cls-10, .cls-9 {
        stroke: #c6aa63;
        stroke-width: 0.82px;
      }

      .cls-10 {
        stroke-dasharray: 0 1.6;
      }
    </style>
  </defs>
  <title>spot-design</title>
  <g>
    <g>
      <polygon class="cls-1" points="172.79 38.64 103.93 0 0 58.78 0 59.28 103.93 0.5 172.79 39.14 172.79 38.64"/>
      <path class="cls-2" d="M0,61.78l68.82,39.8V98.46L0,58.78Z"/>
      <path class="cls-3" d="M68.82,98.46v3.12l104-59.94v-3Z"/>
      <polygon class="cls-4" points="68.82 98.46 172.79 38.64 103.93 0 0 58.78 68.82 98.46"/>
    </g>
    <g class="cls-5">
      <line class="cls-6" x1="47.43" y1="78.98" x2="76.62" y2="62.12"/>
      <line class="cls-6" x1="89.47" y1="78.91" x2="60.45" y2="62.15"/>
      <line class="cls-6" x1="53.88" y1="82.7" x2="83.07" y2="65.85"/>
      <line class="cls-6" x1="82.98" y1="82.65" x2="53.97" y2="65.9"/>
      <line class="cls-6" x1="60.32" y1="86.43" x2="89.52" y2="69.57"/>
      <line class="cls-6" x1="76.49" y1="86.4" x2="47.48" y2="69.65"/>
    </g>
    <g class="cls-5">
      <line class="cls-6" x1="82.56" y1="28.51" x2="111.75" y2="11.65"/>
      <line class="cls-6" x1="124.6" y1="28.43" x2="95.58" y2="11.68"/>
      <line class="cls-6" x1="89.01" y1="32.23" x2="118.2" y2="15.38"/>
      <line class="cls-6" x1="118.11" y1="32.18" x2="89.1" y2="15.43"/>
      <line class="cls-6" x1="95.45" y1="35.95" x2="124.65" y2="19.1"/>
      <line class="cls-6" x1="111.62" y1="35.92" x2="82.61" y2="19.17"/>
    </g>
    <g>
      <g>
        <polygon class="cls-7" points="53.51 64.24 64.45 57.94 62.95 57.07 58.42 59.68 40.82 49.5 60.05 38.42 72.06 45.36 73.56 44.49 71.74 43.44 103.58 25.09 137.73 44.84 105.89 63.2 94.98 56.88 93.48 57.75 100.57 61.85 74.93 76.63 53.51 64.24"/>
        <path class="cls-8" d="M103.58,25.38l33.65,19.46L105.89,62.91,95.23,56.74,95,56.59l-.25.14-1,.58-.75.43.75.43,6.34,3.67L74.93,76.34,54,64.24,64.2,58.37l.75-.43-.75-.43-1-.58L63,56.78l-.25.14-4.28,2.47L41.32,49.5l18.73-10.8,11.75,6.8.25.14.25-.14,1-.58.75-.43-.75-.43-1.07-.62,31.34-18.06m0-.58L71.24,43.44l1.82,1.05-1,.58-12-6.94L40.32,49.5,58.42,60,63,57.36l1,.58L53,64.24,74.93,76.92l26.14-15.07L94,57.75l1-.58,10.91,6.31,32.34-18.64-34.65-20Z"/>
      </g>
      <g>
        <line class="cls-9" x1="74.09" y1="45.92" x2="74.09" y2="45.92"/>
        <line class="cls-10" x1="75.47" y1="46.72" x2="91.4" y2="55.93"/>
        <line class="cls-9" x1="92.09" y1="56.33" x2="92.09" y2="56.33"/>
      </g>
    </g>
  </g>
</svg>
