<?xml version="1.0" encoding="UTF-8"?>
<!DOCTYPE svg PUBLIC "-//W3C//DTD SVG 1.1//EN" "http://www.w3.org/Graphics/SVG/1.1/DTD/svg11.dtd">
<svg version="1.1" xmlns="http://www.w3.org/2000/svg" xmlns:xlink="http://www.w3.org/1999/xlink" x="0" y="0" width="433.22" height="370" viewBox="0, 0, 433.22, 370">
  <g id="Layer_1" transform="translate(0, 0)">
    <path d="M216.61,2 C303.718,1.942 378.794,63.292 396.089,148.666 C413.384,234.041 368.103,319.773 287.84,353.62 C194.714,392.959 87.329,349.356 47.99,256.23 C8.651,163.104 52.254,55.719 145.38,16.38 C167.914,6.843 192.141,1.952 216.61,2 M216.61,-0 C114.44,-0 31.61,82.83 31.61,185 C31.61,287.17 114.44,370 216.61,370 C318.78,370 401.61,287.17 401.61,185 C401.61,82.83 318.78,-0 216.61,-0 z" fill="#ABB4BB"/>
    <g>
      <path d="M216.61,363 C118.46,363 38.61,283.15 38.61,185 C38.61,86.85 118.46,7 216.61,7 C314.76,7 394.61,86.85 394.61,185 C394.61,283.15 314.76,363 216.61,363 z M216.61,53 C153.636,53.002 99.433,97.488 87.149,159.252 C74.866,221.016 107.922,282.856 166.103,306.953 C224.283,331.051 291.384,310.694 326.369,258.333 C361.355,205.971 354.48,136.188 309.95,91.66 C285.249,66.824 251.638,52.903 216.61,53 z" fill="#16181A"/>
      <path d="M216.61,10 C287.39,9.999 351.202,52.635 378.29,118.027 C405.378,183.419 390.408,258.689 340.36,308.74 C296.217,353.273 231.621,370.785 171.03,354.646 C110.439,338.506 63.113,291.183 46.971,230.592 C30.829,170.001 48.339,105.405 92.87,61.26 C125.615,28.333 170.173,9.875 216.61,10 M216.61,320 C281.015,319.999 336.451,274.504 349.015,211.336 C361.579,148.169 327.773,84.922 268.27,60.276 C208.768,35.63 140.141,56.448 104.36,109.999 C68.579,163.55 75.609,234.919 121.15,280.46 C146.412,305.86 180.786,320.098 216.61,320 M216.61,4 C116.646,4 35.61,85.036 35.61,185 C35.61,284.964 116.646,366 216.61,366 C316.574,366 397.61,284.964 397.61,185 C397.61,85.036 316.574,4 216.61,4 z M216.61,314 C155.068,313.997 102.098,270.521 90.094,210.161 C78.09,149.8 110.397,89.366 167.255,65.817 C224.114,42.269 289.69,62.164 323.879,113.336 C358.068,164.508 351.349,232.704 307.83,276.22 C283.689,300.491 250.842,314.095 216.61,314 z" fill="#ABB4BB"/>
    </g>
    <path d="M275.18,331.79 L273,326.22 C274.83,325.49 276.65,324.72 278.43,323.93 L280.87,329.41 C279,330.23 277.08,331 275.18,331.79 z M155.91,330.92 C154.05,330.14 152.17,329.32 150.33,328.47 L152.85,323.02 C154.62,323.84 156.43,324.63 158.22,325.38 z M288.19,325.92 L285.47,320.57 C287.2,319.69 288.95,318.75 290.67,317.79 L293.6,323 C291.82,324 290,325 288.2,325.89 z M143.03,324.92 C141.23,323.97 139.44,322.98 137.69,321.92 L140.69,316.72 C142.37,317.72 144.1,318.65 145.83,319.56 z M300.61,318.92 L297.41,313.84 C299.06,312.84 300.72,311.71 302.33,310.61 L305.72,315.61 C304.05,316.63 302.33,317.76 300.62,318.84 z M130.74,317.73 C129.04,316.63 127.34,315.48 125.68,314.31 L129.14,309.41 C130.74,310.54 132.37,311.64 134.01,312.7 z M312.34,310.78 L308.7,306.01 C310.25,304.83 311.8,303.6 313.31,302.35 L317.13,306.98 C315.57,308.2 314,309.48 312.34,310.71 z M119.15,309.44 C117.55,308.19 115.96,306.89 114.42,305.58 L118.3,301.01 C119.79,302.27 121.3,303.52 122.85,304.73 z M323.29,301.62 L319.24,297.2 C320.68,295.89 322.11,294.52 323.5,293.14 L327.72,297.41 C326.27,298.77 324.78,300.19 323.29,301.55 z M108.35,300.14 C106.88,298.75 105.41,297.31 103.98,295.87 L108.26,291.66 C109.63,293.05 111.05,294.44 112.47,295.77 z M333.35,291.52 L328.92,287.52 C330.24,286.08 331.54,284.59 332.8,283.1 L337.38,286.97 C336.09,288.42 334.73,290 333.36,291.46 z M98.35,289.91 C97,288.39 95.67,286.83 94.35,285.26 L98.99,281.45 C100.23,282.96 101.52,284.45 102.81,285.92 z M342.43,280.57 L337.65,276.94 C338.83,275.38 340,273.79 341.11,272.19 L346.02,275.63 C344.93,277.23 343.72,278.89 342.49,280.51 z M89.43,278.76 C88.23,277.13 87.04,275.45 85.89,273.76 L90.89,270.39 C91.99,272.01 93.14,273.62 94.3,275.19 z M350.6,268.76 L345.52,265.57 C346.52,263.92 347.52,262.23 348.52,260.57 L353.72,263.57 C352.72,265.31 351.66,267.07 350.59,268.79 z M81.47,266.91 C80.41,265.17 79.38,263.39 78.39,261.62 L83.64,258.71 C84.59,260.42 85.58,262.13 86.64,263.8 z M357.6,256.39 L352.25,253.68 C353.13,251.95 353.99,250.17 354.8,248.4 L360.25,250.9 C359.41,252.74 358.52,254.59 357.6,256.39 z M74.6,254.39 C73.7,252.56 72.83,250.69 72.01,248.84 L77.5,246.41 C78.29,248.19 79.13,249.99 79.99,251.75 z M363.44,243.39 L357.87,241.17 C358.59,239.37 359.28,237.51 359.94,235.66 L365.6,237.66 C364.93,239.62 364.21,241.54 363.46,243.42 z M68.92,241.27 C68.2,239.37 67.5,237.43 66.85,235.5 L72.54,233.58 C73.17,235.43 73.84,237.3 74.54,239.13 z M368.12,229.94 L362.37,228.23 C362.92,226.37 363.45,224.46 363.93,222.56 L369.74,224.04 C369.25,226 368.7,228 368.13,229.94 z M64.45,227.7 C63.9,225.7 63.39,223.75 62.92,221.78 L68.76,220.39 C69.21,222.28 69.71,224.2 70.23,226.08 z M371.55,216.09 L365.67,214.91 C366.05,212.99 366.4,211.05 366.67,209.12 L372.6,210.06 C372.31,212.08 372,214.1 371.55,216.09 z M61.23,213.81 C60.86,211.81 60.53,209.81 60.23,207.81 L66.17,206.95 C66.45,208.88 66.77,210.83 67.17,212.75 z M373.71,202 L367.71,201.36 C367.92,199.41 368.09,197.44 368.22,195.5 L374.22,195.91 C374.1,197.92 373.92,200 373.71,202 z M59.29,199.68 C59.1,197.68 58.95,195.61 58.85,193.58 L64.85,193.26 C64.95,195.21 65.1,197.18 65.28,199.13 z M374.59,187.76 L368.59,187.66 Q368.59,186.33 368.59,185 Q368.59,183.38 368.59,181.77 L374.59,181.65 Q374.59,183.32 374.59,185 Q374.61,186.39 374.59,187.76 z M58.59,185.44 L58.59,185 C58.59,183.11 58.59,181.21 58.69,179.33 L64.69,179.54 C64.63,181.35 64.59,183.19 64.59,185 L64.59,185.42 z M368.19,173.94 C368.05,171.94 367.87,170.02 367.66,168.08 L373.66,167.42 C373.88,169.42 374.07,171.48 374.22,173.51 z M65.19,171.71 L59.19,171.19 C59.37,169.19 59.58,167.12 59.84,165.11 L65.84,165.86 C65.56,167.79 65.35,169.76 65.18,171.71 z M366.62,160.31 C366.3,158.38 365.95,156.43 365.56,154.53 L371.44,153.33 C371.84,155.33 372.21,157.33 372.54,159.33 z M67,158.11 L61.09,157.06 C61.45,155.06 61.85,153.06 62.28,151.06 L68.14,152.34 C67.71,154.24 67.33,156.18 67,158.11 z M363.81,146.89 C363.32,145.01 362.81,143.1 362.23,141.23 L368,139.5 C368.59,141.45 369.14,143.43 369.64,145.39 z M70,144.73 L64.21,143.15 C64.74,141.15 65.33,139.22 65.94,137.28 L71.66,139.09 C71.08,141 70.52,142.85 70,144.73 z M359.76,133.73 C359.1,131.89 358.4,130.04 357.66,128.22 L363.22,125.98 C363.98,127.87 364.72,129.8 365.4,131.71 z M74.23,131.67 L68.61,129.56 C69.32,127.67 70.08,125.76 70.86,123.89 L76.39,126.21 C75.64,128 74.91,129.85 74.23,131.67 z M354.54,121 C353.72,119.24 352.85,117.46 351.95,115.71 L357.29,112.97 C358.22,114.79 359.13,116.64 359.98,118.47 z M79.61,119.09 L74.2,116.49 C75.08,114.67 76,112.84 76.96,111.05 L82.26,113.86 C81.34,115.58 80.45,117.34 79.61,119.09 z M348.2,108.85 C347.2,107.16 346.2,105.46 345.15,103.85 L350.22,100.64 C351.3,102.35 352.37,104.12 353.39,105.87 z M86.1,107 L81,103.95 C82,102.21 83.13,100.47 84.24,98.77 L89.24,102.05 C88.16,103.68 87.11,105.35 86.1,107 z M340.77,97.26 C339.64,95.67 338.47,94.07 337.28,92.52 L342,88.9 C343.24,90.51 344.46,92.17 345.63,93.83 z M93.67,95.6 L88.82,92.07 C90.01,90.43 91.25,88.8 92.51,87.2 L97.22,90.92 C96,92.45 94.82,94 93.67,95.6 z M332.34,86.45 C331.08,84.97 329.77,83.45 328.44,82.05 L332.85,78 C334.23,79.5 335.6,81 336.91,82.58 z M102.23,84.89 L97.72,80.89 C99.05,79.37 100.44,77.89 101.84,76.37 L106.2,80.49 C104.85,82 103.51,83.43 102.23,84.89 z" fill="#438BE2"/>
    <g opacity="0.5">
      <path d="M216.61,317 C143.82,317 84.61,257.79 84.61,185 C84.61,112.21 143.82,53 216.61,53 C289.4,53 348.61,112.21 348.61,185 C348.61,257.79 289.4,317 216.61,317 z" fill="#16181A"/>
      <path d="M216.61,56 C278.153,55.998 331.127,99.471 343.135,159.832 C355.142,220.193 322.838,280.629 265.979,304.181 C209.121,327.732 143.543,307.839 109.353,256.666 C75.162,205.494 81.881,137.296 125.4,93.78 C149.538,69.512 182.381,55.908 216.61,56 M216.61,50 C142.052,50 81.61,110.442 81.61,185 C81.61,259.558 142.052,320 216.61,320 C291.168,320 351.61,259.558 351.61,185 C351.61,110.442 291.168,50 216.61,50 z" fill="#16181A"/>
    </g>
    <g>
      <path d="M151.244,73.782 L152.976,72.782 L281.976,296.217 L280.244,297.217 z" fill="#16181A"/>
      <path d="M216.61,62 C275.289,62.025 325.779,103.495 337.204,161.051 C348.629,218.607 317.808,276.218 263.588,298.654 C209.367,321.09 146.849,302.102 114.265,253.302 C81.681,204.501 88.106,139.48 129.61,98 C152.637,74.86 183.965,61.897 216.61,62 M216.61,56 C145.365,56 87.61,113.755 87.61,185 C87.61,256.245 145.365,314 216.61,314 C287.855,314 345.61,256.245 345.61,185 C345.61,113.755 287.855,56 216.61,56 z" fill="#16181A"/>
      <path d="M215.61,56 L217.61,56 L217.61,314 L215.61,314 z" fill="#16181A"/>
      <path d="M87.61,184 L345.61,184 L345.61,186 L87.61,186 z" fill="#16181A"/>
      <path d="M91.747,217.425 L340.956,150.65 L341.474,152.582 L92.265,219.357 z" fill="#16181A"/>
      <path d="M151.244,73.782 L152.976,72.782 L281.976,296.217 L280.244,297.217 z" fill="#16181A"/>
      <path d="M104.382,248.643 L327.839,119.682 L328.839,121.414 L105.382,250.375 z" fill="#16181A"/>
      <path d="M124.687,275.508 L307.121,93.074 L308.535,94.489 L126.101,276.922 z" fill="#16181A"/>
      <path d="M104.392,121.366 L105.392,119.634 L328.827,248.634 L327.827,250.366 z" fill="#16181A"/>
      <path d="M151.256,296.212 L280.217,72.755 L281.95,73.755 L152.989,297.212 z" fill="#16181A"/>
      <path d="M124.687,94.489 L126.101,93.074 L308.535,275.508 L307.121,276.922 z" fill="#16181A"/>
      <path d="M182.255,309.348 L249.031,60.139 L250.963,60.657 L184.187,309.866 z" fill="#16181A"/>
      <path d="M92.229,151.768 L92.749,149.828 L343.009,216.908 L342.489,218.848 z" fill="#16181A"/>
      <path d="M182.257,60.658 L184.189,60.14 L250.964,309.349 L249.032,309.867 z" fill="#16181A"/>
      <path d="M137.286,83.273 L138.872,82.055 L295.933,286.74 L294.346,287.958 z" fill="#16181A"/>
      <path d="M198.785,57.238 L200.768,56.977 L234.444,312.77 L232.461,313.031 z" fill="#16181A"/>
      <path d="M88.567,200.84 L344.366,167.209 L344.627,169.192 L88.828,202.823 z" fill="#16181A"/>
      <path d="M97.059,233.451 L335.402,134.677 L336.168,136.524 L97.824,235.298 z" fill="#16181A"/>
      <path d="M137.286,83.273 L138.872,82.055 L295.933,286.74 L294.346,287.958 z" fill="#16181A"/>
      <path d="M113.69,262.77 L318.32,105.638 L319.539,107.224 L114.908,264.356 z" fill="#16181A"/>
      <path d="M137.325,286.767 L294.314,82.027 L295.902,83.244 L138.913,287.984 z" fill="#16181A"/>
      <path d="M97.048,136.563 L97.813,134.715 L336.174,233.447 L335.409,235.295 z" fill="#16181A"/>
      <path d="M166.303,303.798 L265.076,65.455 L266.924,66.22 L168.15,304.564 z" fill="#16181A"/>
      <path d="M113.663,107.266 L114.88,105.679 L319.566,262.739 L318.348,264.326 z" fill="#16181A"/>
      <path d="M198.733,312.754 L232.498,56.973 L234.481,57.235 L200.716,313.016 z" fill="#16181A"/>
      <path d="M88.584,169.154 L88.845,167.171 L344.637,200.847 L344.376,202.83 z" fill="#16181A"/>
      <path d="M166.318,66.207 L168.166,65.442 L266.898,303.802 L265.05,304.568 z" fill="#16181A"/>
      <path d="M216.61,302 C151.993,302 99.61,249.617 99.61,185 C99.61,120.383 151.993,68 216.61,68 C281.227,68 333.61,120.383 333.61,185 C333.538,249.588 281.198,301.928 216.61,302 z M216.61,70 C192.203,69.937 168.419,77.7 148.75,92.15 C108.576,121.513 91.845,173.383 107.289,220.687 C122.733,267.99 166.849,299.994 216.61,299.994 C266.371,299.994 310.487,267.99 325.931,220.687 C341.375,173.383 324.644,121.513 284.47,92.15 C264.801,77.7 241.017,69.937 216.61,70 z" fill="#16181A"/>
      <path d="M216.61,294 C156.411,294 107.61,245.199 107.61,185 C107.61,124.801 156.411,76 216.61,76 C276.809,76 325.61,124.801 325.61,185 C325.544,245.172 276.782,293.934 216.61,294 z M216.61,78 C193.902,77.938 171.772,85.158 153.47,98.6 C116.091,125.921 100.524,174.183 114.894,218.195 C129.264,262.207 170.311,291.985 216.61,291.985 C262.909,291.985 303.956,262.207 318.326,218.195 C332.696,174.183 317.129,125.921 279.75,98.6 C261.448,85.158 239.318,77.938 216.61,78 z" fill="#16181A"/>
    </g>
    <g>
      <path d="M174.61,247.7 L258.61,247.7 C268.551,247.7 276.61,255.759 276.61,265.7 L276.61,265.7 C276.61,275.641 268.551,283.7 258.61,283.7 L174.61,283.7 C164.669,283.7 156.61,275.641 156.61,265.7 L156.61,265.7 C156.61,255.759 164.669,247.7 174.61,247.7 z" fill="#C3CCD4"/>
      <path d="M168.959,265.7 L174.616,260.044 L180.273,265.7 L174.616,271.357 z" fill="#16181A"/>
      <path d="M252.956,265.703 L258.613,260.047 L264.27,265.703 L258.613,271.36 z" fill="#16181A"/>
      <g>
        <path d="M188.14,267.25 L183.58,260.08 L187.07,260.08 L189.68,264.51 L192.25,260.08 L195.76,260.08 L191.22,267.25 L191.22,272.09 L188.12,272.09 z" fill="#16181A"/>
        <path d="M198.45,260.09 L207.25,260.09 L207.25,262.7 L201.54,262.7 L201.54,264.7 L207.12,264.7 L207.12,267.33 L201.54,267.33 L201.54,269.49 L207.25,269.49 L207.25,272.1 L198.45,272.1 z" fill="#16181A"/>
        <path d="M218.54,270.28 L213.54,270.28 L212.93,272.1 L209.56,272.1 L214.08,260.1 L218,260.1 L222.54,272.1 L219.17,272.1 z M214.36,267.67 L217.73,267.67 L216,262.79 z" fill="#16181A"/>
        <path d="M229.88,268 L228.3,268 L228.3,272.07 L225.2,272.07 L225.2,260.07 L231.2,260.07 C232.302,259.981 233.39,260.367 234.188,261.131 C234.987,261.896 235.421,262.965 235.38,264.07 C235.459,265.664 234.49,267.124 232.99,267.67 L235.44,272.08 L231.9,272.08 z M230.74,262.67 L228.3,262.67 L228.3,265.37 L230.75,265.37 C231.272,265.434 231.783,265.191 232.064,264.747 C232.345,264.303 232.345,263.737 232.064,263.293 C231.783,262.849 231.272,262.606 230.75,262.67 z" fill="#16181A"/>
        <path d="M239.67,268.08 C240.688,269.092 242.065,269.66 243.5,269.66 C244.56,269.66 245.21,269.21 245.21,268.66 C245.21,268.11 244.44,267.66 243.16,267.44 C241.16,267.04 238.41,266.54 238.41,263.69 C238.41,261.69 240.12,259.93 243.2,259.93 C244.975,259.877 246.709,260.47 248.08,261.6 L246.39,263.81 C245.431,263.035 244.243,262.599 243.01,262.57 C242.01,262.57 241.59,262.98 241.59,263.51 C241.59,264.04 242.33,264.36 243.66,264.61 C245.66,265.02 248.38,265.61 248.38,268.32 C248.38,270.73 246.6,272.32 243.38,272.32 C241.401,272.432 239.461,271.739 238,270.4 z" fill="#16181A"/>
      </g>
    </g>
    <g>
      <path d="M112.66,57.57 L122.43,50.15 L123.34,51.35 L114.89,57.77 L119.22,63.47 L127.51,57.17 L128.42,58.37 L120.13,64.67 L124.76,70.76 L133.21,64.34 L134.12,65.54 L124.37,73 z" fill="#F2F2F6"/>
      <path d="M132.51,43.69 L133.95,42.89 L142.62,58.48 L150.81,53.93 L151.54,55.25 L141.91,60.61 z" fill="#F2F2F6"/>
      <path d="M151.09,34.13 L162.51,29.64 L163.06,31.04 L153.18,34.93 L155.8,41.6 L165.49,37.79 L166.04,39.19 L156.36,43 L159.16,50.13 L169,46.23 L169.55,47.63 L158.13,52.12 z" fill="#F2F2F6"/>
      <path d="M174.1,36 C173.401,33.45 173.785,30.724 175.161,28.466 C176.537,26.208 178.783,24.618 181.37,24.07 C184.066,23.401 186.919,24.051 189.06,25.82 L187.9,27.01 C186.185,25.562 183.883,25.016 181.7,25.54 C177.32,26.54 174.7,30.69 175.79,35.61 C176.88,40.53 181.11,43.11 185.49,42.11 C187.678,41.635 189.511,40.151 190.43,38.11 L191.98,38.65 C190.838,41.191 188.547,43.032 185.82,43.6 C183.252,44.227 180.539,43.767 178.32,42.329 C176.102,40.89 174.575,38.601 174.1,36 z" fill="#F2F2F6"/>
      <path d="M203.23,22.7 L196.93,23.18 L196.81,21.68 L211.09,20.59 L211.21,22.09 L204.91,22.57 L206.27,40.35 L204.59,40.48 z" fill="#F2F2F6"/>
      <path d="M226.08,32.28 L221.82,32 L221.32,40 L219.67,39.9 L220.88,20.59 L228.09,21.04 C231.42,21.25 233.83,23.52 233.61,27.04 C233.583,28.501 232.958,29.887 231.881,30.874 C230.803,31.86 229.368,32.362 227.91,32.26 L233,40.74 L231,40.62 z M227.85,22.54 L222.44,22.2 L221.92,30.51 L227.33,30.85 C229.625,30.994 231.601,29.25 231.745,26.955 C231.889,24.66 230.145,22.684 227.85,22.54 z" fill="#F2F2F6"/>
      <path d="M253.22,24.43 C258.73,25.68 261.42,30.75 260.16,36.27 C258.9,41.79 254.3,45.2 248.78,43.94 C243.26,42.68 240.58,37.62 241.84,32.1 C243.1,26.58 247.68,23.17 253.22,24.43 z M252.89,25.9 C248.31,24.9 244.64,27.68 243.54,32.49 C242.44,37.3 244.54,41.43 249.12,42.49 C253.7,43.55 257.39,40.65 258.47,35.9 C259.55,31.15 257.41,26.93 252.88,25.9 z" fill="#F2F2F6"/>
      <path d="M273.24,33.37 L266.81,48.79 L265.28,48.15 L272.73,30.3 L274.28,30.95 L279.12,50.82 L285.46,35.62 L286.99,36.26 L279.55,54.1 L278.05,53.47 z" fill="#F2F2F6"/>
      <path d="M298,42.18 L299.43,43.01 L289.76,59.76 L288.33,58.93 z" fill="#F2F2F6"/>
      <path d="M302.33,56 C303.817,53.815 306.139,52.339 308.748,51.921 C311.358,51.502 314.025,52.179 316.12,53.79 C318.382,55.41 319.741,58.008 319.78,60.79 L318.13,60.68 C318.12,58.431 317.039,56.322 315.22,55 C311.61,52.32 306.74,53 303.73,57 C300.72,61 301.48,65.91 305.08,68.59 C306.866,69.946 309.189,70.372 311.34,69.74 L311.94,71.27 C309.267,72.05 306.382,71.504 304.18,69.8 C302.047,68.257 300.641,65.906 300.292,63.297 C299.942,60.688 300.679,58.05 302.33,56 z" fill="#F2F2F6"/>
    </g>
    <g>
      <path d="M14,196 C7.925,196 3,191.075 3,185 L3,176 C3,174.895 3.895,174 5,174 L59.22,174 C65.295,174 70.22,178.925 70.22,185 L70.22,194 C70.22,195.105 69.325,196 68.22,196 z" fill="#C3CCD4"/>
      <path d="M59.22,175 C64.743,175 69.22,179.477 69.22,185 L69.22,194 C69.22,194.552 68.772,195 68.22,195 L14,195 C8.477,195 4,190.523 4,185 L4,176 C4,175.448 4.448,175 5,175 L59.22,175 M59.22,173 L5,173 C3.343,173 2,174.343 2,176 L2,185 C2,191.627 7.373,197 14,197 L68.22,197 C69.877,197 71.22,195.657 71.22,194 L71.22,185 C71.22,178.373 65.847,173 59.22,173 z" fill="#16181A"/>
      <path d="M59.22,173 C65.847,173 71.22,178.373 71.22,185 L71.22,194 C71.22,195.657 69.877,197 68.22,197 L14,197 C7.373,197 2,191.627 2,185 L2,176 C2,174.343 3.343,173 5,173 L59.22,173 M59.22,171 L5,171 C2.239,171 -0,173.239 -0,176 L-0,185 C-0,192.732 6.268,199 14,199 L68.22,199 C70.981,199 73.22,196.761 73.22,194 L73.22,185 C73.22,177.268 66.952,171 59.22,171 z" fill="#C3CCD4"/>
    </g>
    <g>
      <path d="M30.78,190.36 L20.78,190.36 L20.78,190.2 C21.045,190.195 21.308,190.151 21.56,190.07 C21.726,190.003 21.871,189.892 21.98,189.75 C22.084,189.607 22.156,189.443 22.19,189.27 L22.19,189.01 Q22.19,188.88 22.19,188.71 Q22.19,188.54 22.19,188.28 L22.19,181.53 C22.198,181.278 22.174,181.026 22.12,180.78 C22.075,180.608 22.001,180.446 21.9,180.3 C21.799,180.156 21.656,180.048 21.49,179.99 C21.233,179.913 20.968,179.866 20.7,179.85 L20.7,179.69 L30.12,179.69 L30.76,183.37 L30.6,183.37 L30.37,182.83 C30.306,182.685 30.233,182.545 30.15,182.41 C30.07,182.279 29.983,182.152 29.89,182.03 L29.55,181.62 C29.099,181.058 28.528,180.604 27.88,180.29 C27.222,180.001 26.509,179.858 25.79,179.87 L25.34,179.87 L25.34,184.8 C25.728,184.771 26.111,184.694 26.48,184.57 C26.792,184.455 27.082,184.29 27.34,184.08 C27.529,183.926 27.697,183.748 27.84,183.55 C27.942,183.4 28.026,183.239 28.09,183.07 C28.154,182.868 28.201,182.66 28.23,182.45 L28.39,182.45 L28.39,187.38 L28.23,187.38 C28.091,186.708 27.74,186.099 27.23,185.64 C27.002,185.433 26.738,185.27 26.45,185.16 C26.097,185.048 25.73,184.987 25.36,184.98 L25.36,188.76 C25.325,189.143 25.391,189.529 25.55,189.88 C25.736,190.096 26.017,190.205 26.3,190.17 C26.821,190.165 27.335,190.053 27.81,189.84 C28.329,189.614 28.811,189.31 29.24,188.94 C29.706,188.536 30.116,188.072 30.46,187.56 C30.827,187.02 31.122,186.435 31.34,185.82 L31.5,185.82 z" fill="#16181A"/>
      <path d="M39.15,188.83 C38.973,189.187 38.721,189.501 38.41,189.75 C38.073,190.018 37.69,190.221 37.28,190.35 C36.821,190.498 36.342,190.573 35.86,190.57 L35.42,190.57 L35,190.5 L34.44,190.39 L33.72,190.19 L33.28,190.06 L32.97,189.96 L32.69,189.86 L32.36,189.73 L32.2,186.55 L32.36,186.55 C32.598,187.101 32.878,187.633 33.2,188.14 C33.486,188.58 33.822,188.986 34.2,189.35 C34.493,189.653 34.83,189.909 35.2,190.11 C35.509,190.273 35.851,190.362 36.2,190.37 C36.515,190.386 36.823,190.27 37.05,190.05 C37.266,189.829 37.381,189.529 37.37,189.22 C37.383,188.897 37.264,188.583 37.04,188.35 C36.698,188.056 36.295,187.84 35.86,187.72 L35.08,187.45 C34.277,187.22 33.531,186.825 32.89,186.29 C32.461,185.903 32.22,185.348 32.23,184.77 C32.233,184.42 32.323,184.077 32.49,183.77 C32.67,183.446 32.915,183.164 33.21,182.94 C33.535,182.695 33.901,182.509 34.29,182.39 C34.73,182.253 35.189,182.185 35.65,182.19 C36.085,182.192 36.52,182.225 36.95,182.29 C37.474,182.373 37.992,182.49 38.5,182.64 L38.66,185.26 L38.5,185.26 C38.335,184.857 38.131,184.472 37.89,184.11 C37.674,183.781 37.422,183.475 37.14,183.2 C36.897,182.962 36.621,182.76 36.32,182.6 C36.075,182.463 35.801,182.388 35.52,182.38 C35.226,182.375 34.942,182.486 34.73,182.69 C34.515,182.884 34.395,183.161 34.4,183.45 Q34.4,184.45 35.92,184.91 L37.01,185.26 C37.698,185.447 38.335,185.789 38.87,186.26 C39.249,186.642 39.458,187.161 39.45,187.7 C39.437,188.095 39.334,188.481 39.15,188.83 z" fill="#16181A"/>
      <path d="M45.28,190.3 C44.863,190.478 44.414,190.57 43.96,190.57 C43.39,190.591 42.83,190.41 42.38,190.06 C42.119,189.854 41.924,189.576 41.82,189.26 C41.698,188.817 41.644,188.359 41.66,187.9 L41.66,183.1 L39.66,183.1 L40.25,182.83 L40.72,182.57 L41.15,182.3 L41.65,181.95 C42.122,181.622 42.573,181.265 43,180.88 L43.42,180.47 Q43.6,180.29 43.77,180.09 Q43.94,179.89 44.1,179.66 L44.49,179.11 L44.49,182.37 L46.49,182.37 L46.09,183.11 L44.49,183.11 L44.49,187.73 C44.449,188.187 44.554,188.646 44.79,189.04 C45.045,189.318 45.414,189.461 45.79,189.43 C45.93,189.442 46.07,189.442 46.21,189.43 C46.381,189.399 46.548,189.352 46.71,189.29 L46.81,189.42 C46.334,189.769 45.821,190.064 45.28,190.3 z" fill="#16181A"/>
      <path d="M50.07,190.12 C49.788,190.413 49.397,190.576 48.99,190.57 C48.575,190.573 48.178,190.407 47.887,190.111 C47.597,189.815 47.439,189.414 47.45,189 C47.443,188.593 47.606,188.202 47.9,187.92 C48.191,187.629 48.588,187.47 49,187.48 C49.405,187.473 49.795,187.632 50.08,187.92 C50.374,188.202 50.537,188.593 50.53,189 C50.543,189.422 50.376,189.829 50.07,190.12 z" fill="#16181A"/>
    </g>
    <g>
      <path d="M365,196 C363.895,196 363,195.105 363,194 L363,185 C363,178.925 367.925,174 374,174 L428.22,174 C429.325,174 430.22,174.895 430.22,176 L430.22,185 C430.22,191.075 425.295,196 419.22,196 z" fill="#C3CCD4"/>
      <path d="M428.22,175 C428.772,175 429.22,175.448 429.22,176 L429.22,185 C429.22,190.523 424.743,195 419.22,195 L365,195 C364.448,195 364,194.552 364,194 L364,185 C364,179.477 368.477,175 374,175 L428.22,175 M428.22,173 L374,173 C367.373,173 362,178.373 362,185 L362,194 C362,195.657 363.343,197 365,197 L419.22,197 C425.847,197 431.22,191.627 431.22,185 L431.22,176 C431.22,174.343 429.877,173 428.22,173 z" fill="#16181A"/>
      <path d="M428.22,173 C429.877,173 431.22,174.343 431.22,176 L431.22,185 C431.22,191.627 425.847,197 419.22,197 L365,197 C363.343,197 362,195.657 362,194 L362,185 C362,178.373 367.373,173 374,173 L428.22,173 M428.22,171 L374,171 C366.268,171 360,177.268 360,185 L360,194 C360,196.761 362.239,199 365,199 L419.22,199 C426.952,199 433.22,192.732 433.22,185 L433.22,176 C433.22,173.239 430.981,171 428.22,171 z" fill="#C3CCD4"/>
    </g>
    <g>
      <path d="M380.47,190.36 L380.47,190.17 C380.735,190.164 380.998,190.121 381.25,190.04 C381.416,189.973 381.561,189.862 381.67,189.72 C381.786,189.584 381.859,189.417 381.88,189.24 C381.885,189.157 381.885,189.073 381.88,188.99 C381.88,188.91 381.88,188.82 381.88,188.71 C381.88,188.6 381.88,188.48 381.88,188.33 L381.88,183.66 C381.901,183.374 381.901,183.086 381.88,182.8 C381.859,182.634 381.798,182.476 381.7,182.34 C381.581,182.193 381.408,182.099 381.22,182.08 C381.02,182.034 380.815,182.014 380.61,182.02 L380.26,182.02 L380.26,181.84 L380.51,181.75 L380.69,181.68 C381,181.56 381.32,181.43 381.69,181.27 C382.06,181.11 382.41,180.92 382.86,180.67 L383.37,180.38 L383.78,180.16 L384.07,179.98 L384.35,179.8 L384.66,179.59 L385.05,179.32 L385.05,187.59 C385.05,187.96 385.05,188.27 385.05,188.5 C385.039,188.693 385.039,188.887 385.05,189.08 C385.065,189.207 385.095,189.331 385.14,189.45 C385.179,189.543 385.229,189.63 385.29,189.71 C385.394,189.857 385.541,189.969 385.71,190.03 C385.963,190.109 386.225,190.152 386.49,190.16 L386.49,190.35 z" fill="#16181A"/>
      <path d="M393.41,188.86 L392.67,189.39 C392.419,189.565 392.159,189.725 391.89,189.87 L391.35,190.16 L390.89,190.37 L390.41,190.55 L389.82,190.73 L389.74,190.6 L389.93,190.46 L390.07,190.37 C390.751,189.901 391.341,189.311 391.81,188.63 C392.018,188.313 392.199,187.978 392.35,187.63 L392.47,187.33 C392.47,187.23 392.54,187.13 392.57,187.03 C392.6,186.93 392.63,186.8 392.67,186.67 C392.71,186.54 392.74,186.38 392.8,186.2 L392.61,186.35 L392.45,186.47 C391.987,186.749 391.45,186.882 390.91,186.85 C390.395,186.853 389.884,186.765 389.4,186.59 C388.958,186.431 388.548,186.194 388.19,185.89 C387.492,185.293 387.093,184.419 387.1,183.5 C387.095,182.961 387.211,182.428 387.44,181.94 C387.666,181.458 387.985,181.027 388.38,180.67 C388.787,180.301 389.258,180.01 389.77,179.81 C390.312,179.6 390.889,179.495 391.47,179.5 C392.093,179.495 392.711,179.611 393.29,179.84 C393.829,180.052 394.319,180.372 394.73,180.78 C395.133,181.187 395.453,181.67 395.67,182.2 C395.902,182.771 396.018,183.383 396.01,184 C395.973,185.943 395.006,187.751 393.41,188.86 z M391.51,179.68 Q389.94,179.68 389.94,183.1 C389.893,183.989 390.019,184.879 390.31,185.72 C390.479,186.226 390.956,186.566 391.49,186.56 Q393.03,186.56 393.03,183.26 Q393,179.68 391.51,179.68 z" fill="#16181A"/>
      <path d="M403,188.86 L402.26,189.39 C402.009,189.565 401.749,189.725 401.48,189.87 L400.94,190.16 L400.48,190.37 L400,190.55 L399.41,190.73 L399.33,190.6 L399.52,190.46 L399.66,190.37 C400.341,189.901 400.931,189.311 401.4,188.63 C401.608,188.313 401.789,187.978 401.94,187.63 L402.06,187.33 C402.06,187.23 402.13,187.13 402.16,187.03 C402.19,186.93 402.22,186.8 402.26,186.67 C402.3,186.54 402.33,186.38 402.39,186.2 L402.2,186.35 L402.04,186.47 C401.577,186.749 401.04,186.882 400.5,186.85 C399.985,186.853 399.474,186.765 398.99,186.59 C398.548,186.431 398.138,186.194 397.78,185.89 C397.082,185.293 396.683,184.419 396.69,183.5 C396.685,182.961 396.801,182.428 397.03,181.94 C397.256,181.458 397.575,181.027 397.97,180.67 C398.377,180.301 398.848,180.01 399.36,179.81 C399.902,179.6 400.479,179.495 401.06,179.5 C401.683,179.495 402.301,179.611 402.88,179.84 C403.419,180.052 403.909,180.372 404.32,180.78 C404.723,181.187 405.043,181.67 405.26,182.2 C405.492,182.771 405.608,183.383 405.6,184 C405.563,185.943 404.596,187.751 403,188.86 z M401.1,179.68 Q399.53,179.68 399.53,183.1 C399.483,183.989 399.609,184.879 399.9,185.72 C400.069,186.226 400.546,186.566 401.08,186.56 Q402.62,186.56 402.62,183.26 Q402.66,179.68 401.14,179.68 z" fill="#16181A"/>
      <path d="M406.9,190.36 L406.9,190.17 C407.165,190.164 407.428,190.121 407.68,190.04 C407.846,189.973 407.991,189.862 408.1,189.72 C408.216,189.584 408.289,189.417 408.31,189.24 C408.314,189.157 408.314,189.073 408.31,188.99 C408.31,188.91 408.31,188.82 408.31,188.71 C408.31,188.6 408.31,188.48 408.31,188.33 L408.31,183.66 C408.331,183.374 408.331,183.086 408.31,182.8 C408.289,182.634 408.228,182.476 408.13,182.34 C408.011,182.193 407.838,182.099 407.65,182.08 C407.45,182.034 407.245,182.014 407.04,182.02 L406.69,182.02 L406.69,181.84 L406.94,181.75 L407.12,181.68 Q407.58,181.5 408.12,181.27 Q408.66,181.04 409.29,180.67 L409.8,180.38 L410.21,180.16 L410.5,179.98 L410.77,179.8 L411.08,179.59 L411.47,179.32 L411.47,187.59 Q411.47,188.15 411.47,188.5 C411.459,188.693 411.459,188.887 411.47,189.08 C411.484,189.207 411.515,189.331 411.56,189.45 C411.599,189.543 411.649,189.63 411.71,189.71 C411.814,189.857 411.961,189.969 412.13,190.03 C412.383,190.109 412.645,190.152 412.91,190.16 L412.91,190.35 z" fill="#16181A"/>
    </g>
    <g>
      <path d="M182.38,337.16 L170.52,334 L168.15,342.89 L166.55,342.46 L171.55,323.76 L173.15,324.19 L170.93,332.54 L182.79,335.7 L185.01,327.35 L186.64,327.78 L181.64,346.48 L180,346 z" fill="#F2F2F6"/>
      <path d="M204.46,329.84 C210.1,330.31 213.46,334.95 213,340.59 C212.54,346.23 208.45,350.25 202.81,349.78 C197.17,349.31 193.81,344.67 194.27,339.03 C194.73,333.39 198.8,329.37 204.46,329.84 z M204.34,331.34 C199.66,330.95 196.42,334.26 196.01,339.18 C195.6,344.1 198.26,347.89 202.94,348.28 C207.62,348.67 210.87,345.28 211.27,340.45 C211.67,335.62 209,331.73 204.34,331.34 z" fill="#F2F2F6"/>
      <path d="M238.92,331.35 L233.63,349.14 L233,349.2 L224.24,332.83 L225.96,349.91 L224.31,350.08 L222.38,330.83 L224.83,330.58 L232.98,345.88 L237.9,329.27 L240.38,329.02 L242.31,348.27 L240.64,348.44 z" fill="#F2F2F6"/>
      <path d="M249.61,327 L261.44,323.76 L261.84,325.21 L251.6,328 L253.49,334.91 L263.49,332.16 L263.89,333.62 L253.89,336.37 L255.89,343.75 L266.13,340.95 L266.53,342.4 L254.7,345.64 z" fill="#F2F2F6"/>
    </g>
    <g>
      <g>
        <path d="M109.28,151.64 C107.641,151.094 106.299,149.896 105.573,148.329 C104.846,146.762 104.798,144.964 105.44,143.36 C106.089,141.374 107.774,139.904 109.83,139.53 L110.08,141.61 C108.78,141.858 107.707,142.774 107.26,144.02 C106.595,146.303 107.813,148.711 110.046,149.529 C112.279,150.346 114.764,149.293 115.73,147.12 C116.203,145.882 115.978,144.486 115.14,143.46 L116.68,142.03 C118.005,143.645 118.342,145.854 117.56,147.79 C117.016,149.431 115.819,150.775 114.252,151.504 C112.684,152.233 110.885,152.282 109.28,151.64 z" fill="#C3CCD4"/>
        <path d="M109.42,134.31 L113.35,126.72 L115.06,127.6 L112.14,133.25 L115.01,134.74 L117.87,129.21 L119.58,130.09 L116.72,135.62 L119.79,137.21 L122.71,131.56 L124.42,132.44 L120.51,140 z" fill="#C3CCD4"/>
        <path d="M116,122.3 L117.21,120.48 L125.99,126.33 L129.04,121.75 L130.64,122.82 L126.38,129.22 z" fill="#C3CCD4"/>
        <path d="M123.2,112 L128.7,105.45 L130.18,106.69 L126.09,111.56 L128.57,113.64 L132.57,108.87 L134.05,110.11 L130.05,114.88 L132.7,117.1 L136.79,112.23 L138.27,113.47 L132.77,120.02 z" fill="#C3CCD4"/>
        <path d="M132.31,101.61 L136.79,97.42 C138.46,95.86 140.36,96.03 141.56,97.32 C142.53,98.264 142.686,99.767 141.93,100.89 C143.192,100.138 144.81,100.385 145.79,101.48 C147.11,102.89 147.15,104.82 145.44,106.42 L140.83,110.72 z M139.99,101.5 C140.644,100.89 140.68,99.864 140.07,99.21 C139.46,98.556 138.434,98.52 137.78,99.13 L135.22,101.52 L137.43,103.89 z M143.74,105.37 C144.147,105.083 144.405,104.63 144.446,104.134 C144.486,103.638 144.305,103.149 143.95,102.8 C143.624,102.433 143.156,102.223 142.665,102.223 C142.174,102.223 141.706,102.433 141.38,102.8 L138.76,105.25 L141.12,107.78 z" fill="#C3CCD4"/>
        <path d="M151.74,95.34 L150,96.61 L152.73,100.39 L150.96,101.67 L143.65,91.55 L148.09,88.34 C148.913,87.642 149.995,87.327 151.065,87.476 C152.134,87.625 153.089,88.223 153.69,89.12 C154.83,90.517 154.722,92.552 153.44,93.82 L158.76,96 L156.76,97.48 z M149,90.08 L146.57,91.83 L148.85,95 L151.28,93.25 C152.033,92.927 152.514,92.177 152.491,91.358 C152.469,90.538 151.949,89.815 151.179,89.534 C150.41,89.252 149.546,89.468 149,90.08 z" fill="#C3CCD4"/>
        <path d="M167.61,88.25 L162.41,91.07 L162.74,93.61 L160.63,94.75 L159,81.44 L161.4,80.14 L171.65,88.78 L169.54,89.92 z M162.04,89.08 L166.15,86.85 L161.09,82.42 z" fill="#C3CCD4"/>
        <path d="M172,77.28 L168.5,78.69 L167.78,76.9 L176.78,73.26 L177.5,75.05 L174,76.46 L178,86.25 L176,87.07 z" fill="#C3CCD4"/>
        <path d="M181.19,71.91 L183.28,71.28 L186.89,83.22 L184.8,83.85 z" fill="#C3CCD4"/>
        <path d="M191.33,72.65 L193.07,81.57 L190.92,81.99 L188.54,69.75 L190.74,69.32 L198.69,76.79 L197,68.1 L199.15,67.68 L201.53,79.92 L199.46,80.32 z" fill="#C3CCD4"/>
        <path d="M210.93,66.45 C212.936,66.291 214.883,67.17 216.09,68.78 L214.35,69.88 C213.54,68.871 212.292,68.316 211,68.39 C208.661,68.697 206.951,70.751 207.074,73.107 C207.197,75.463 209.112,77.328 211.47,77.39 C212.554,77.323 213.578,76.873 214.36,76.12 L214.26,74.18 L210.54,74.37 L210.44,72.45 L216.34,72.14 L216.58,76.81 C215.357,78.336 213.534,79.258 211.58,79.34 C208.015,79.525 204.975,76.785 204.79,73.22 C204.605,69.655 207.345,66.615 210.91,66.43 z" fill="#C3CCD4"/>
        <path d="M228.63,67.05 L237.1,68.2 L236.84,70.11 L230.54,69.25 L230.1,72.46 L236.27,73.3 L236,75.21 L229.83,74.37 L229.36,77.8 L235.66,78.66 L235.4,80.57 L227,79.42 z" fill="#C3CCD4"/>
        <path d="M245,77.79 L240.37,81.62 L237.84,80.95 L244,76 L241.3,69 L243.83,69.67 L245.77,74.92 L250,71.26 L252.55,71.93 L246.77,76.67 L249.63,84.06 L247.1,83.39 z" fill="#C3CCD4"/>
        <path d="M253.68,78.89 C254.282,77.27 255.526,75.971 257.118,75.299 C258.71,74.627 260.509,74.642 262.09,75.34 C264.05,76.059 265.459,77.794 265.76,79.86 L263.67,80.04 C263.463,78.731 262.581,77.629 261.35,77.14 C259.106,76.459 256.714,77.607 255.842,79.784 C254.969,81.961 255.907,84.443 258,85.5 C259.221,86.015 260.623,85.839 261.68,85.04 L263,86.62 C261.338,87.886 259.117,88.143 257.21,87.29 C255.597,86.683 254.304,85.439 253.636,83.85 C252.968,82.261 252.984,80.467 253.68,78.89 z" fill="#C3CCD4"/>
        <path d="M271,79.66 L278.46,83.85 L277.52,85.53 L272,82.41 L270.41,85.23 L275.84,88.28 L274.9,90 L269.47,86.95 L267.77,89.95 L273.32,93 L272.38,94.68 L264.93,90.49 z" fill="#C3CCD4"/>
        <path d="M282.79,86.65 L284.57,87.93 L278.42,96.5 L282.89,99.71 L281.77,101.28 L275.52,96.8 z" fill="#C3CCD4"/>
        <path d="M292.79,94.19 L294.42,95.65 L287.42,103.52 L291.52,107.18 L290.24,108.62 L284.5,103.5 z" fill="#C3CCD4"/>
        <path d="M302,102.74 L307.72,109.09 L306.29,110.38 L302,105.66 L299.59,107.82 L303.76,112.45 L302.33,113.74 L298.16,109.11 L295.59,111.42 L299.84,116.15 L298.41,117.44 L292.69,111.09 z" fill="#C3CCD4"/>
        <path d="M309.5,117 L302,122.13 L300.76,120.33 L311,113.24 L312.28,115.09 L308.63,125.37 L315.91,120.37 L317.15,122.17 L306.89,129.26 L305.69,127.52 z" fill="#C3CCD4"/>
        <path d="M314.31,129.44 C315.828,128.616 317.619,128.454 319.26,128.994 C320.901,129.533 322.247,130.726 322.98,132.29 C323.986,134.12 323.91,136.354 322.78,138.11 L321.08,136.87 C321.785,135.748 321.846,134.338 321.24,133.16 C319.967,131.258 317.474,130.608 315.434,131.646 C313.395,132.683 312.452,135.081 313.24,137.23 C313.821,138.422 314.996,139.212 316.32,139.3 L316.32,141.4 C314.236,141.266 312.391,140.004 311.51,138.11 C310.682,136.598 310.513,134.812 311.043,133.172 C311.573,131.532 312.754,130.182 314.31,129.44 z" fill="#C3CCD4"/>
        <path d="M326.89,141.41 L329.76,149.46 L327.94,150.11 L325.81,144.11 L322.81,145.19 L324.9,151.06 L323.08,151.71 L320.99,145.84 L317.68,147 L319.81,153 L317.99,153.65 L315.12,145.6 z" fill="#C3CCD4"/>
      </g>
    </g>
    <g>
      <g>
        <g>
          <path d="M178.54,123.76 C182.649,123.717 186.734,124.394 190.61,125.76 C194.119,126.99 197.366,128.87 200.18,131.3 C202.853,133.643 205.003,136.522 206.49,139.75 C208.025,143.068 208.808,146.684 208.78,150.34 C208.791,153.892 208.059,157.408 206.63,160.66 C205.174,163.969 203.077,166.956 200.46,169.45 C198.195,171.63 195.681,173.537 192.97,175.13 C189.94,176.967 186.734,178.498 183.4,179.7 Q182.7,179.98 181.18,180.53 Q179.66,181.08 177.3,182 Q173.3,183.52 169.67,185 Q166.04,186.48 164.54,187.21 C162.388,188.332 160.304,189.581 158.3,190.95 Q157.05,191.95 156.01,192.68 C155.334,193.173 154.686,193.704 154.07,194.27 C153.425,194.873 152.823,195.522 152.27,196.21 Q151.37,197.32 150.12,198.7 L184.12,198.7 Q188.56,198.7 191.82,198.56 C193.828,198.483 195.831,198.299 197.82,198.01 C200.456,197.728 202.994,196.849 205.24,195.44 C207.309,193.879 208.992,191.864 210.16,189.55 L211.55,189.55 L210.55,192.88 Q209.16,197.46 208.26,200.51 Q207.36,203.56 206.6,206.2 Q205.84,208.84 205.07,211.61 Q204.3,214.38 203.2,218.27 L202.37,221.32 L201,221.32 C200.952,220.26 200.412,219.284 199.54,218.68 C198.206,218.113 196.755,217.876 195.31,217.99 L190.31,217.99 C189.31,217.99 188.41,217.99 187.67,217.92 C186.93,217.85 186.28,217.85 185.73,217.85 L142.62,217.85 Q142.9,214.25 143.11,212.24 C143.27,210.772 143.524,209.316 143.87,207.88 C144.196,206.265 144.685,204.687 145.33,203.17 C145.959,201.739 146.726,200.372 147.62,199.09 C148.651,197.628 149.812,196.262 151.09,195.01 Q153.17,192.94 156.22,190.44 L161.63,185.87 Q171.63,177.42 175.92,170.57 C178.654,166.436 180.146,161.606 180.22,156.65 Q180.22,149.18 175.71,144.65 Q171.2,140.12 163.71,140.15 C160.376,140.031 157.078,140.874 154.21,142.58 C151.423,144.478 149.195,147.089 147.76,150.14 L146.37,150.14 Q150.37,136.55 158.16,130.14 Q165.95,123.73 178.55,123.69 M178.55,119.69 C169.22,119.69 161.5,122.17 155.61,127.06 C149.72,131.95 145.44,139.25 142.54,149.06 C142.184,150.27 142.419,151.577 143.175,152.587 C143.931,153.597 145.119,154.191 146.38,154.19 L147.77,154.19 C149.27,154.191 150.644,153.353 151.33,152.02 C152.44,149.615 154.165,147.546 156.33,146.02 C158.56,144.735 161.109,144.111 163.68,144.22 C167.6,144.22 170.6,145.31 172.85,147.55 C175.1,149.79 176.18,152.78 176.18,156.69 C176.111,160.893 174.83,164.987 172.49,168.48 C169.86,172.68 165.32,177.48 159.01,182.85 L153.63,187.4 C151.52,189.12 149.7,190.74 148.23,192.21 C146.779,193.638 145.46,195.194 144.29,196.86 C143.251,198.357 142.36,199.951 141.63,201.62 C140.887,203.369 140.32,205.188 139.94,207.05 C139.559,208.637 139.278,210.247 139.1,211.87 C138.96,213.26 138.79,215.19 138.6,217.58 C138.513,218.693 138.896,219.792 139.656,220.611 C140.416,221.43 141.483,221.893 142.6,221.89 L185.73,221.89 C186.19,221.89 186.73,221.89 187.42,221.95 C188.11,222.01 189.16,222.03 190.3,222.03 L195.3,222.03 C195.888,222.022 196.476,222.052 197.06,222.12 C197.408,224.022 199.067,225.403 201,225.4 L202.39,225.4 C204.195,225.4 205.776,224.192 206.25,222.45 L207.08,219.4 C207.81,216.84 208.44,214.61 208.95,212.75 C209.46,210.89 209.95,209.18 210.46,207.39 C210.97,205.6 211.52,203.75 212.12,201.73 C212.72,199.71 213.48,197.17 214.4,194.13 L215.4,190.76 C215.753,189.551 215.515,188.247 214.76,187.24 C214.005,186.233 212.819,185.64 211.56,185.64 L210.17,185.64 C208.713,185.641 207.373,186.434 206.67,187.71 C205.793,189.482 204.528,191.033 202.97,192.25 C201.228,193.299 199.274,193.948 197.25,194.15 C195.387,194.423 193.511,194.596 191.63,194.67 C189.55,194.76 187.02,194.81 184.1,194.81 L160,194.81 L160.67,194.3 C162.484,193.067 164.367,191.938 166.31,190.92 C167.31,190.46 169.03,189.73 171.25,188.79 C173.63,187.79 176.15,186.79 178.74,185.79 L178.84,185.79 C180.35,185.17 181.61,184.68 182.57,184.33 C183.53,183.98 184.33,183.68 184.85,183.48 C188.386,182.176 191.786,180.528 195,178.56 C197.969,176.813 200.725,174.726 203.21,172.34 C206.206,169.481 208.608,166.059 210.28,162.27 C211.928,158.512 212.776,154.453 212.77,150.35 C212.796,146.111 211.888,141.918 210.11,138.07 C208.384,134.343 205.898,131.018 202.81,128.31 C199.631,125.551 195.965,123.411 192,122 C187.688,120.475 183.143,119.714 178.57,119.75 z" fill="#ABB4BB"/>
          <path d="M286.45,121 L287.84,121.42 Q286.18,124.61 285.34,126.55 Q284.5,128.49 283.26,132.1 Q282.7,133.76 282.26,134.94 Q281.82,136.12 281.5,137.3 Q281.15,138.48 280.88,139.73 C280.69,140.56 280.46,141.53 280.19,142.64 L232.43,142.64 L230.8,153.74 C233.262,153.299 235.751,153.022 238.25,152.91 Q241.25,152.77 245.39,152.77 C250.964,152.68 256.532,153.183 262,154.27 C266.494,155.24 270.803,156.928 274.76,159.27 C279.461,162.027 283.304,166.036 285.86,170.85 C288.522,175.76 289.898,181.265 289.86,186.85 C289.908,191.393 288.93,195.888 287,200 C285.085,204.035 282.318,207.607 278.89,210.47 C275.246,213.484 271.085,215.812 266.61,217.34 C261.66,219.043 256.455,219.888 251.22,219.84 Q236.38,219.84 227.78,214.5 Q219.18,209.16 219.18,199.87 C219.013,196.692 220.206,193.593 222.462,191.349 C224.718,189.104 227.823,187.926 231,188.11 C234.115,187.984 237.129,189.226 239.25,191.51 C241.389,193.933 242.507,197.091 242.37,200.32 Q242.37,200.88 242.3,202.12 Q242.23,203.36 242.09,205.31 C242.09,205.77 242.09,206.23 242.02,206.7 C241.972,207.162 241.949,207.626 241.95,208.09 Q241.95,213.36 244.45,215.79 Q246.95,218.22 252.45,218.22 C257.259,218.355 261.836,216.153 264.73,212.31 Q269.37,206.4 269.38,196.52 Q269.38,185.39 261.82,179.69 Q254.26,173.99 239.71,174 Q237.91,174 236.24,174.14 L233.05,174.42 C231.582,174.573 230.123,174.803 228.68,175.11 Q226.81,175.53 223.76,176.5 Q224.76,173.31 225.36,171.02 Q225.96,168.73 226.54,166.1 Q227.09,163.47 227.54,160.1 Q227.99,156.73 228.86,151.29 Q229.69,145.74 230.18,142.21 Q230.67,138.68 231,136 Q231.34,133.44 231.48,131.08 Q231.62,128.72 231.76,125.53 L273.65,125.53 C275.156,125.542 276.662,125.471 278.16,125.32 C279.291,125.208 280.407,124.977 281.49,124.63 C282.438,124.317 283.327,123.847 284.12,123.24 C284.973,122.572 285.742,121.803 286.41,120.95 M286.41,116.95 C285.196,116.951 284.049,117.503 283.29,118.45 C282.823,119.049 282.286,119.589 281.69,120.06 C281.247,120.398 280.75,120.659 280.22,120.83 C279.403,121.087 278.562,121.258 277.71,121.34 C276.358,121.473 274.999,121.533 273.64,121.52 L231.8,121.52 C229.659,121.518 227.896,123.201 227.8,125.34 C227.7,127.51 227.61,129.34 227.53,130.83 C227.45,132.32 227.29,133.83 227.07,135.46 C226.85,137.09 226.56,139.19 226.24,141.55 C225.92,143.91 225.46,147.04 224.93,150.55 C224.4,154.06 223.93,157.11 223.61,159.38 C223.29,161.65 222.97,163.48 222.61,165.16 C222.25,166.84 221.88,168.41 221.49,169.85 C221.1,171.29 220.58,173.08 219.93,175.22 C219.494,176.636 219.877,178.178 220.924,179.226 C221.972,180.273 223.514,180.656 224.93,180.22 C226.85,179.61 228.39,179.22 229.51,178.93 C230.798,178.656 232.1,178.449 233.41,178.31 L236.53,178.04 C237.53,177.96 238.59,177.92 239.66,177.92 C248.43,177.92 255.06,179.57 259.37,182.82 C263.37,185.82 265.37,190.31 265.37,196.46 C265.37,202.1 264.09,206.58 261.58,209.78 C259.45,212.662 256.031,214.302 252.45,214.16 C249.92,214.16 248.05,213.7 247.19,212.87 C246.13,211.87 245.91,209.67 245.91,208.04 C245.892,207.707 245.892,207.373 245.91,207.04 C245.97,206.47 246,205.92 246,205.39 Q246.13,203.51 246.2,202.28 C246.25,201.28 246.28,200.68 246.28,200.28 C246.424,196.05 244.93,191.927 242.11,188.77 C239.237,185.651 235.148,183.939 230.91,184.08 C226.67,183.903 222.55,185.51 219.55,188.51 C216.55,191.51 214.943,195.63 215.12,199.87 C215.12,207.41 218.75,213.64 225.61,217.87 C231.96,221.81 240.56,223.81 251.16,223.81 C256.851,223.859 262.508,222.939 267.89,221.09 C272.816,219.401 277.396,216.837 281.41,213.52 C285.274,210.288 288.396,206.259 290.56,201.71 C292.765,197.054 293.893,191.961 293.86,186.81 C293.893,180.55 292.345,174.383 289.36,168.88 C286.456,163.431 282.102,158.891 276.78,155.76 C272.458,153.21 267.755,151.37 262.85,150.31 C257.087,149.151 251.218,148.608 245.34,148.69 C242.54,148.69 240.08,148.69 238.01,148.83 C237.52,148.83 235.84,148.89 235.33,148.93 L235.69,146.56 L280.15,146.56 C281.977,146.563 283.573,145.329 284.03,143.56 C284.29,142.56 284.53,141.56 284.74,140.56 Q284.99,139.42 285.3,138.39 C285.51,137.69 285.74,136.96 286,136.23 C286.26,135.5 286.61,134.46 287,133.33 C287.78,131.07 288.45,129.33 289,128.09 C289.55,126.85 290.31,125.27 291.37,123.23 C291.921,122.172 291.971,120.924 291.507,119.825 C291.043,118.726 290.113,117.892 288.97,117.55 L287.58,117.13 C287.207,117.018 286.82,116.96 286.43,116.96 z" fill="#ABB4BB"/>
        </g>
        <g>
          <path d="M201.36,217.63 C201.119,217.405 200.854,217.207 200.57,217.04 C198.936,216.259 197.127,215.915 195.32,216.04 L190.32,216.04 C189.32,216.04 188.49,216.04 187.81,215.97 C187.13,215.9 186.33,215.9 185.74,215.9 L144.74,215.9 C144.85,214.54 144.96,213.4 145.05,212.5 C145.202,211.116 145.443,209.743 145.77,208.39 C146.068,206.892 146.517,205.428 147.11,204.02 C147.609,202.885 148.205,201.794 148.89,200.76 L184.05,200.76 C187.05,200.76 189.67,200.76 191.83,200.62 C193.919,200.537 196.002,200.344 198.07,200.04 C201.008,199.714 203.833,198.722 206.33,197.14 C206.711,196.876 207.078,196.592 207.43,196.29 Q206.81,198.36 206.33,199.99 Q205.42,203.05 204.66,205.69 Q203.9,208.33 203.13,211.12 Q202.43,213.87 201.36,217.63 z M166.64,184.2 C170.835,180.537 174.533,176.342 177.64,171.72 C180.575,167.262 182.174,162.057 182.25,156.72 C182.25,151.21 180.54,146.72 177.16,143.33 C173.78,139.94 169.27,138.24 163.75,138.24 C160.018,138.119 156.331,139.077 153.13,141 C152.617,141.325 152.123,141.679 151.65,142.06 C153.492,138.113 156.142,134.597 159.43,131.74 C164.22,127.74 170.64,125.74 178.54,125.74 C182.418,125.703 186.272,126.343 189.93,127.63 C193.202,128.778 196.231,130.528 198.86,132.79 C201.323,134.952 203.305,137.606 204.68,140.58 C206.086,143.633 206.803,146.959 206.78,150.32 C206.78,153.594 206.099,156.833 204.78,159.83 C203.424,162.897 201.477,165.666 199.05,167.98 C196.898,170.048 194.512,171.857 191.94,173.37 C189.013,175.142 185.918,176.619 182.7,177.78 C182.18,177.99 181.46,178.26 180.48,178.61 C179.5,178.96 178.11,179.51 176.48,180.16 C173.87,181.16 171.28,182.16 168.83,183.21 z" fill="#FFFFFF"/>
          <path d="M243.25,217.42 C238.172,216.952 233.256,215.39 228.84,212.84 C223.69,209.64 221.19,205.41 221.19,199.91 C221.014,197.264 221.989,194.67 223.864,192.794 C225.74,190.919 228.334,189.944 230.98,190.12 C233.535,189.994 236.015,191 237.76,192.87 C239.561,194.925 240.49,197.601 240.35,200.33 C240.35,200.68 240.35,201.24 240.28,202.03 C240.21,202.82 240.16,203.9 240.07,205.19 L240.07,205.33 C240.07,205.72 240.07,206.12 240.01,206.52 C239.955,207.045 239.929,207.572 239.93,208.1 C239.93,212.16 240.93,215.23 243.03,217.23 z M263.81,216.18 C264.73,215.38 265.571,214.492 266.32,213.53 C269.69,209.24 271.39,203.53 271.39,196.53 C271.39,188.53 268.58,182.28 263.03,178.1 C257.66,174 249.82,172 239.71,172 C238.47,172 237.25,172 236.08,172.15 L232.88,172.43 C231.328,172.591 229.786,172.835 228.26,173.16 C227.8,173.26 227.26,173.39 226.74,173.54 C226.95,172.83 227.13,172.17 227.3,171.54 C227.72,169.99 228.13,168.3 228.51,166.54 C228.89,164.78 229.25,162.66 229.57,160.38 Q229.83,158.56 230.19,156.15 L232.19,155.75 C234.217,155.331 236.273,155.064 238.34,154.95 C240.34,154.86 242.68,154.81 245.34,154.81 C250.784,154.729 256.221,155.225 261.56,156.29 C265.859,157.195 269.985,158.785 273.78,161 C278.165,163.583 281.75,167.327 284.14,171.82 C286.648,176.445 287.948,181.629 287.92,186.89 C287.95,191.149 287.02,195.36 285.2,199.21 C283.401,202.985 280.809,206.328 277.6,209.01 C274.152,211.847 270.223,214.042 266,215.49 Q264.89,215.86 263.8,216.18 z M232.44,140.62 Q232.77,138.2 233.03,136.3 C233.27,134.54 233.43,132.83 233.53,131.23 Q233.63,129.59 233.72,127.56 L273.72,127.56 C275.299,127.572 276.878,127.498 278.45,127.34 C279.721,127.209 280.975,126.944 282.19,126.55 C282.599,126.413 283,126.253 283.39,126.07 C282.84,127.38 282.17,129.18 281.39,131.42 C281.02,132.54 280.7,133.48 280.39,134.25 C280.08,135.02 279.83,135.91 279.59,136.71 C279.35,137.51 279.13,138.39 278.93,139.27 Q278.79,139.89 278.62,140.61 z" fill="#FFFFFF"/>
        </g>
        <g>
          <path d="M178.54,125.76 C182.418,125.723 186.272,126.363 189.93,127.65 C193.202,128.798 196.231,130.548 198.86,132.81 C201.323,134.972 203.305,137.626 204.68,140.6 C206.086,143.653 206.803,146.979 206.78,150.34 C206.78,153.614 206.099,156.853 204.78,159.85 C203.427,162.916 201.483,165.685 199.06,168 C196.9,170.076 194.503,171.892 191.92,173.41 C189.003,175.177 185.918,176.651 182.71,177.81 L182.64,177.81 C182.19,177.99 181.44,178.27 180.48,178.62 C179.52,178.97 178.12,179.51 176.54,180.16 C173.89,181.16 171.3,182.16 168.87,183.22 L166.62,184.22 C170.815,180.557 174.513,176.362 177.62,171.74 C180.551,167.281 182.147,162.076 182.22,156.74 C182.22,151.23 180.51,146.74 177.13,143.35 C173.75,139.96 169.24,138.26 163.72,138.26 C160,138.139 156.324,139.09 153.13,141 C152.617,141.326 152.123,141.679 151.65,142.06 C153.494,138.112 156.149,134.596 159.44,131.74 C164.22,127.74 170.65,125.74 178.55,125.74 M207.49,196.31 Q206.87,198.38 206.39,200.01 Q205.48,203.07 204.72,205.71 C204.19,207.53 203.72,209.35 203.19,211.15 C202.66,212.95 202.09,215.1 201.37,217.62 C201.129,217.395 200.864,217.197 200.58,217.03 C198.946,216.249 197.137,215.905 195.33,216.03 L190.33,216.03 C189.33,216.03 188.5,216.03 187.82,215.96 C187.14,215.89 186.35,215.89 185.75,215.89 L144.75,215.89 C144.86,214.53 144.97,213.39 145.06,212.49 C145.215,211.089 145.458,209.7 145.79,208.33 C146.087,206.849 146.533,205.402 147.12,204.01 C147.677,202.774 148.346,201.593 149.12,200.48 C149.424,200.656 149.769,200.749 150.12,200.75 L184.12,200.75 C187.12,200.75 189.74,200.75 191.9,200.61 C193.989,200.531 196.072,200.34 198.14,200.04 C201.081,199.715 203.91,198.723 206.41,197.14 C206.791,196.876 207.159,196.592 207.51,196.29 M178.57,123.72 Q165.95,123.72 158.18,130.17 Q150.41,136.62 146.39,150.17 L147.78,150.17 C149.215,147.119 151.443,144.508 154.23,142.61 C157.098,140.904 160.396,140.061 163.73,140.18 Q171.22,140.18 175.73,144.68 Q180.24,149.18 180.24,156.68 C180.166,161.636 178.674,166.466 175.94,170.6 Q171.64,177.45 161.65,185.9 L156.24,190.47 Q153.19,192.96 151.11,195.04 C149.832,196.292 148.671,197.658 147.64,199.12 C146.746,200.402 145.979,201.769 145.35,203.2 C144.705,204.717 144.216,206.295 143.89,207.91 C143.544,209.346 143.29,210.802 143.13,212.27 Q142.92,214.27 142.64,217.88 L185.77,217.88 C186.33,217.88 186.97,217.88 187.71,217.95 C188.45,218.02 189.33,218.02 190.35,218.02 L195.35,218.02 C196.795,217.906 198.246,218.143 199.58,218.71 C200.45,219.333 200.977,220.33 201,221.4 L202.39,221.4 L203.22,218.35 Q204.33,214.47 205.09,211.69 Q205.85,208.91 206.62,206.28 Q207.38,203.65 208.28,200.59 Q209.18,197.53 210.57,192.96 L211.57,189.63 L210.18,189.63 C209.012,191.944 207.329,193.959 205.26,195.52 C203.014,196.929 200.476,197.808 197.84,198.09 C195.851,198.379 193.848,198.563 191.84,198.64 Q188.58,198.78 184.14,198.78 L150.14,198.78 Q151.39,197.4 152.29,196.29 C152.843,195.602 153.445,194.953 154.09,194.35 C154.706,193.784 155.354,193.253 156.03,192.76 Q157.03,192 158.32,191.03 C160.324,189.661 162.408,188.412 164.56,187.29 Q166.08,186.6 169.69,185.08 Q173.3,183.56 177.32,182.08 Q179.68,181.08 181.2,180.56 Q182.72,180.04 183.42,179.73 C186.754,178.528 189.96,176.997 192.99,175.16 C195.701,173.567 198.215,171.661 200.48,169.48 C203.097,166.986 205.194,163.999 206.65,160.69 C208.078,157.438 208.811,153.922 208.8,150.37 C208.828,146.714 208.045,143.098 206.51,139.78 C205.023,136.552 202.873,133.673 200.2,131.33 C197.386,128.9 194.139,127.02 190.63,125.79 C186.754,124.424 182.669,123.747 178.56,123.79 z" fill="#16181A"/>
          <path d="M283.36,126.08 C282.81,127.39 282.14,129.19 281.36,131.45 Q280.81,133.1 280.36,134.26 C280.07,135.1 279.8,135.92 279.56,136.72 C279.32,137.52 279.1,138.4 278.9,139.27 C278.8,139.71 278.7,140.16 278.59,140.62 L233.47,140.62 C233.088,140.618 232.713,140.726 232.39,140.93 L233.02,136.29 C233.26,134.53 233.42,132.82 233.52,131.22 C233.58,130.14 233.65,128.93 233.71,127.56 L273.71,127.56 C275.289,127.572 276.868,127.499 278.44,127.34 C279.711,127.212 280.964,126.951 282.18,126.56 C282.589,126.423 282.989,126.263 283.38,126.08 M245.38,154.75 C250.82,154.669 256.254,155.165 261.59,156.23 C265.886,157.156 270.005,158.766 273.79,161 C278.17,163.581 281.752,167.322 284.14,171.81 C286.648,176.435 287.948,181.619 287.92,186.88 C287.95,191.139 287.021,195.35 285.2,199.2 C283.404,202.974 280.815,206.317 277.61,209 C274.16,211.842 270.228,214.04 266,215.49 Q264.94,215.86 263.85,216.18 C264.77,215.38 265.611,214.492 266.36,213.53 C269.73,209.24 271.43,203.53 271.43,196.53 C271.43,188.53 268.62,182.28 263.07,178.1 C257.66,174 249.82,172 239.71,172 C238.47,172 237.25,172 236.07,172.15 L232.83,172.43 C231.292,172.593 229.763,172.836 228.25,173.16 C227.79,173.26 227.25,173.39 226.73,173.54 C226.94,172.83 227.12,172.17 227.29,171.54 C227.71,169.99 228.12,168.3 228.5,166.54 C228.88,164.78 229.24,162.66 229.56,160.38 C229.77,158.92 230.18,156.15 232.2,155.75 C234.227,155.331 236.283,155.064 238.35,154.95 C240.35,154.86 242.7,154.81 245.4,154.81 M231,190.11 C233.555,189.983 236.036,190.989 237.78,192.86 C239.581,194.915 240.51,197.591 240.37,200.32 C240.37,200.64 240.37,201.21 240.31,202.01 C240.25,202.81 240.19,203.89 240.1,205.18 Q240.1,205.25 240.1,205.32 C240.1,205.71 240.1,206.11 240.04,206.5 C239.985,207.032 239.958,207.566 239.96,208.1 C239.96,212.16 240.96,215.23 243.06,217.23 L243.28,217.43 C238.202,216.963 233.286,215.4 228.87,212.85 C223.72,209.65 221.22,205.42 221.22,199.92 C221.044,197.273 222.019,194.68 223.894,192.804 C225.77,190.929 228.363,189.954 231.01,190.13 M286.45,121 C285.782,121.853 285.013,122.622 284.16,123.29 C283.367,123.897 282.478,124.367 281.53,124.68 C280.447,125.027 279.331,125.258 278.2,125.37 C276.702,125.521 275.196,125.592 273.69,125.58 L231.8,125.58 Q231.66,128.77 231.52,131.13 Q231.38,133.49 231,136 Q230.65,138.57 230.17,142.1 Q229.69,145.63 228.85,151.18 Q228.02,156.59 227.53,159.99 Q227.04,163.39 226.53,165.99 Q225.97,168.63 225.35,170.91 Q224.73,173.19 223.75,176.39 Q226.75,175.39 228.67,175 C230.113,174.693 231.572,174.463 233.04,174.31 L236.23,174.03 Q237.9,173.89 239.7,173.89 Q254.26,173.89 261.82,179.6 Q269.38,185.31 269.38,196.43 Q269.38,206.31 264.73,212.22 C261.836,216.063 257.259,218.265 252.45,218.13 Q246.9,218.13 244.45,215.7 Q242,213.27 241.95,208 C241.949,207.536 241.972,207.072 242.02,206.61 C242.02,206.15 242.09,205.69 242.09,205.22 Q242.23,203.28 242.3,202.03 Q242.37,200.78 242.37,200.23 C242.507,197.001 241.389,193.843 239.25,191.42 C237.129,189.136 234.115,187.894 231,188.02 C227.823,187.845 224.721,189.03 222.47,191.28 C220.22,193.531 219.035,196.633 219.21,199.81 Q219.21,209.1 227.81,214.44 Q236.41,219.78 251.25,219.78 C256.485,219.828 261.69,218.983 266.64,217.28 C271.115,215.752 275.276,213.424 278.92,210.41 C282.33,207.561 285.086,204.01 287,200 C288.952,195.882 289.947,191.377 289.91,186.82 C289.948,181.235 288.572,175.73 285.91,170.82 C283.354,166.006 279.511,161.997 274.81,159.24 C270.853,156.898 266.544,155.21 262.05,154.24 C256.573,153.14 250.995,152.627 245.41,152.71 Q241.25,152.71 238.27,152.85 C235.771,152.962 233.282,153.239 230.82,153.68 L232.45,142.58 L280.23,142.58 C280.51,141.47 280.74,140.5 280.92,139.67 C281.1,138.84 281.31,138.03 281.54,137.24 C281.77,136.45 282.03,135.67 282.3,134.88 C282.57,134.09 282.9,133.15 283.3,132.04 Q284.55,128.44 285.38,126.49 Q286.21,124.54 287.88,121.36 L286.49,120.94 z" fill="#16181A"/>
        </g>
      </g>
    </g>
    <path d="M216.61,56 C278.153,55.998 331.127,99.471 343.135,159.832 C355.142,220.193 322.838,280.629 265.979,304.181 C209.121,327.732 143.543,307.839 109.353,256.666 C75.162,205.494 81.881,137.296 125.4,93.78 C149.538,69.512 182.381,55.908 216.61,56 M216.61,50 C142.052,50 81.61,110.442 81.61,185 C81.61,259.558 142.052,320 216.61,320 C291.168,320 351.61,259.558 351.61,185 C351.61,110.442 291.168,50 216.61,50 z" fill="#ABB4BB"/>
  </g>
</svg>
