<svg id="Layer_1" data-name="Layer 1" xmlns="http://www.w3.org/2000/svg" width="433.22" height="370" viewBox="0 0 433.22 370"><path d="M216.61,2c101,.07,182.89,82,182.82,183.08S317.39,368,216.35,367.9s-182.9-82-182.82-183.08A182.95,182.95,0,0,1,216.61,2m0-2c-102.17,0-185,82.83-185,185s82.83,185,185,185,185-82.83,185-185S318.78,0,216.61,0Z" style="fill:#abb4bb"/><path d="M216.61,363c-98.15,0-178-79.85-178-178S118.46,7,216.61,7s178,79.85,178,178S314.76,363,216.61,363Zm0-310A132,132,0,1,0,310,91.66,132,132,0,0,0,216.61,53Z" style="fill:#16181a"/><path d="M216.61,10A175.78,175.78,0,1,1,92.87,61.26,175.78,175.78,0,0,1,216.61,10m0,310a135,135,0,1,0-95.46-39.54A135,135,0,0,0,216.61,320m0-316a181,181,0,1,0,181,181h0A181,181,0,0,0,216.61,4Zm0,310a129,129,0,1,1,91.22-37.78A129,129,0,0,1,216.61,314Z" style="fill:#abb4bb"/><path d="M275.18,331.79,273,326.22c1.83-.73,3.65-1.5,5.43-2.29l2.44,5.48C279,330.23,277.08,331,275.18,331.79Zm-119.27-.87c-1.86-.78-3.74-1.6-5.58-2.45l2.52-5.45c1.77.82,3.58,1.61,5.37,2.36Zm132.28-5-2.72-5.35c1.73-.88,3.48-1.82,5.2-2.78L293.6,323c-1.78,1-3.6,2-5.4,2.89Zm-145.16-1c-1.8-.95-3.59-1.94-5.34-3l3-5.2c1.68,1,3.41,1.93,5.14,2.84Zm157.58-6-3.2-5.08c1.65-1,3.31-2.13,4.92-3.23l3.39,5c-1.67,1-3.39,2.15-5.1,3.23Zm-169.87-1.19c-1.7-1.1-3.4-2.25-5.06-3.42l3.46-4.9c1.6,1.13,3.23,2.23,4.87,3.29Zm181.6-7L308.7,306c1.55-1.18,3.1-2.41,4.61-3.66l3.82,4.63c-1.56,1.22-3.13,2.5-4.79,3.73Zm-193.19-1.34c-1.6-1.25-3.19-2.55-4.73-3.86L118.3,301c1.49,1.26,3,2.51,4.55,3.72Zm204.14-7.82-4.05-4.42c1.44-1.31,2.87-2.68,4.26-4.06l4.22,4.27c-1.45,1.36-2.94,2.78-4.43,4.14Zm-214.94-1.48c-1.47-1.39-2.94-2.83-4.37-4.27l4.28-4.21c1.37,1.39,2.79,2.78,4.21,4.11Zm225-8.62-4.43-4c1.32-1.44,2.62-2.93,3.88-4.42l4.58,3.87c-1.29,1.45-2.65,3-4,4.49Zm-235-1.61c-1.35-1.52-2.68-3.08-4-4.65L99,281.45c1.24,1.51,2.53,3,3.82,4.47Zm244.08-9.34-4.78-3.63c1.18-1.56,2.35-3.15,3.46-4.75l4.91,3.44c-1.09,1.6-2.3,3.26-3.53,4.88Zm-253-1.81c-1.2-1.63-2.39-3.31-3.54-5l5-3.37c1.1,1.62,2.25,3.23,3.41,4.8Zm261.17-10-5.08-3.19c1-1.65,2-3.34,3-5l5.2,3c-1,1.74-2.06,3.5-3.13,5.22Zm-269.13-1.8c-1.06-1.74-2.09-3.52-3.08-5.29l5.25-2.91c1,1.71,1.94,3.42,3,5.09ZM357.6,256.39l-5.35-2.71c.88-1.73,1.74-3.51,2.55-5.28l5.45,2.5C359.41,252.74,358.52,254.59,357.6,256.39Zm-283-2c-.9-1.83-1.77-3.7-2.59-5.55l5.49-2.43c.79,1.78,1.63,3.58,2.49,5.34Zm288.84-11-5.57-2.22c.72-1.8,1.41-3.66,2.07-5.51l5.66,2c-.67,2-1.39,3.88-2.14,5.76ZM68.92,241.27c-.72-1.9-1.42-3.84-2.07-5.77l5.69-1.92c.63,1.85,1.3,3.72,2,5.55Zm299.2-11.33-5.75-1.71c.55-1.86,1.08-3.77,1.56-5.67l5.81,1.48c-.49,2-1,4-1.61,5.9ZM64.45,227.7c-.55-2-1.06-3.95-1.53-5.92l5.84-1.39c.45,1.89.95,3.81,1.47,5.69Zm307.1-11.61-5.88-1.18c.38-1.92.73-3.86,1-5.79l5.93.94C372.31,212.08,372,214.1,371.55,216.09ZM61.23,213.81q-.55-3-1-6l5.94-.86c.28,1.93.6,3.88,1,5.8ZM373.71,202l-6-.64c.21-2,.38-3.92.51-5.86l6,.41C374.1,197.92,373.92,200,373.71,202ZM59.29,199.68c-.19-2-.34-4.07-.44-6.1l6-.32c.1,2,.25,3.92.43,5.87Zm315.3-11.92-6-.1v-5.89l6-.12V185Q374.61,186.4,374.59,187.76Zm-316-2.32V185c0-1.89,0-3.79.1-5.67l6,.21c-.06,1.81-.1,3.65-.1,5.46v.42Zm309.6-11.5c-.14-2-.32-3.92-.53-5.86l6-.66c.22,2,.41,4.06.56,6.09Zm-303-2.23-6-.52c.18-2,.39-4.07.65-6.08l6,.75c-.28,1.93-.49,3.9-.66,5.85Zm301.43-11.4c-.32-1.93-.67-3.88-1.06-5.78l5.88-1.2q.6,3,1.1,6ZM67,158.11l-5.91-1.05q.54-3,1.19-6l5.86,1.28C67.71,154.24,67.33,156.18,67,158.11Zm296.81-11.22c-.49-1.88-1-3.79-1.58-5.66L368,139.5c.59,1.95,1.14,3.93,1.64,5.89ZM70,144.73l-5.79-1.58c.53-2,1.12-3.93,1.73-5.87l5.72,1.81C71.08,141,70.52,142.85,70,144.73Zm289.76-11c-.66-1.84-1.36-3.69-2.1-5.51l5.56-2.24c.76,1.89,1.5,3.82,2.18,5.73ZM74.23,131.67l-5.62-2.11c.71-1.89,1.47-3.8,2.25-5.67l5.53,2.32C75.64,128,74.91,129.85,74.23,131.67ZM354.54,121c-.82-1.76-1.69-3.54-2.59-5.29l5.34-2.74c.93,1.82,1.84,3.67,2.69,5.5ZM79.61,119.09l-5.41-2.6c.88-1.82,1.8-3.65,2.76-5.44l5.3,2.81C81.34,115.58,80.45,117.34,79.61,119.09ZM348.2,108.85c-1-1.69-2-3.39-3.05-5l5.07-3.21c1.08,1.71,2.15,3.48,3.17,5.23ZM86.1,107,81,104c1-1.74,2.13-3.48,3.24-5.18l5,3.28C88.16,103.68,87.11,105.35,86.1,107Zm254.67-9.74c-1.13-1.59-2.3-3.19-3.49-4.74L342,88.9c1.24,1.61,2.46,3.27,3.63,4.93ZM93.67,95.6l-4.85-3.53c1.19-1.64,2.43-3.27,3.69-4.87l4.71,3.72C96,92.45,94.82,94,93.67,95.6Zm238.67-9.15c-1.26-1.48-2.57-3-3.9-4.4l4.41-4c1.38,1.5,2.75,3,4.06,4.58ZM102.23,84.89l-4.51-4c1.33-1.52,2.72-3,4.12-4.52l4.36,4.12C104.85,82,103.51,83.43,102.23,84.89Z" style="fill:#438be2"/><g style="opacity:0.5"><path d="M216.61,317a132,132,0,1,1,132-132h0A132.14,132.14,0,0,1,216.61,317Z" style="fill:#16181a"/><path d="M216.61,56A129,129,0,1,1,125.4,93.78,129,129,0,0,1,216.61,56m0-6a135,135,0,1,0,135,135h0A135,135,0,0,0,216.61,50Z" style="fill:#16181a"/></g><path d="M151.24,73.78l1.74-1L282,296.22l-1.74,1Z" style="fill:#16181a"/><path d="M216.61,62a123,123,0,1,1-87,36,123,123,0,0,1,87-36m0-6a129,129,0,1,0,129,129h0A129,129,0,0,0,216.61,56Z" style="fill:#16181a"/><path d="M215.61,56h2V314h-2Z" style="fill:#16181a"/><path d="M87.61,184h258v2h-258Z" style="fill:#16181a"/><path d="M91.75,217.43,341,150.65l.51,1.93L92.26,219.36Z" style="fill:#16181a"/><path d="M151.24,73.78l1.74-1L282,296.22l-1.74,1Z" style="fill:#16181a"/><path d="M104.38,248.64l223.46-129,1,1.73-223.46,129Z" style="fill:#16181a"/><path d="M124.69,275.51,307.12,93.07l1.42,1.42L126.1,276.92Z" style="fill:#16181a"/><path d="M104.39,121.37l1-1.74,223.44,129-1,1.74Z" style="fill:#16181a"/><path d="M151.26,296.21l129-223.46,1.73,1L153,297.21Z" style="fill:#16181a"/><path d="M124.69,94.49l1.41-1.42L308.54,275.51l-1.42,1.41Z" style="fill:#16181a"/><path d="M182.26,309.35,249,60.14l1.93.52L184.19,309.87Z" style="fill:#16181a"/><path d="M92.23,151.77l.52-1.94L343,216.91l-.52,1.94Z" style="fill:#16181a"/><path d="M182.26,60.66l1.93-.52L251,309.35l-1.93.52Z" style="fill:#16181a"/><path d="M137.29,83.27l1.58-1.21L295.93,286.74,294.35,288Z" style="fill:#16181a"/><path d="M198.79,57.24l2-.26,33.67,255.79-2,.26Z" style="fill:#16181a"/><path d="M88.57,200.84l255.8-33.63.26,2L88.83,202.82Z" style="fill:#16181a"/><path d="M97.06,233.45,335.4,134.68l.77,1.84L97.82,235.3Z" style="fill:#16181a"/><path d="M137.29,83.27l1.58-1.21L295.93,286.74,294.35,288Z" style="fill:#16181a"/><path d="M113.69,262.77,318.32,105.64l1.22,1.58L114.91,264.36Z" style="fill:#16181a"/><path d="M137.32,286.77,294.31,82l1.59,1.21L138.91,288Z" style="fill:#16181a"/><path d="M97.05,136.56l.76-1.85,238.36,98.74-.76,1.84Z" style="fill:#16181a"/><path d="M166.3,303.8,265.08,65.46l1.84.76L168.15,304.56Z" style="fill:#16181a"/><path d="M113.66,107.27l1.22-1.59L319.57,262.74l-1.22,1.59Z" style="fill:#16181a"/><path d="M198.73,312.75,232.5,57l2,.27L200.72,313Z" style="fill:#16181a"/><path d="M88.58,169.15l.27-2,255.79,33.68-.26,2Z" style="fill:#16181a"/><path d="M166.32,66.21l1.85-.77L266.9,303.8l-1.85.77Z" style="fill:#16181a"/><path d="M216.61,302a117,117,0,1,1,117-117h0A117,117,0,0,1,216.61,302Zm0-232a115,115,0,1,0,67.86,22.15A115,115,0,0,0,216.61,70Z" style="fill:#16181a"/><path d="M216.61,294a109,109,0,1,1,109-109h0A109,109,0,0,1,216.61,294Zm0-216a107,107,0,1,0,63.14,20.6A107,107,0,0,0,216.61,78Z" style="fill:#16181a"/><path d="M174.61,247.7h84a18,18,0,0,1,18,18h0a18,18,0,0,1-18,18h-84a18,18,0,0,1-18-18h0a18,18,0,0,1,18-18Z" style="fill:#c3ccd4"/><path d="M169,265.7l5.66-5.66,5.65,5.66-5.65,5.66Z" style="fill:#16181a"/><path d="M253,265.7l5.65-5.65,5.66,5.65-5.66,5.66Z" style="fill:#16181a"/><path d="M188.14,267.25l-4.56-7.17h3.49l2.61,4.43,2.57-4.43h3.51l-4.54,7.17v4.84h-3.1Z" style="fill:#16181a"/><path d="M198.45,260.09h8.8v2.61h-5.71v2h5.58v2.63h-5.58v2.16h5.71v2.61h-8.8Z" style="fill:#16181a"/><path d="M218.54,270.28h-5l-.61,1.82h-3.37l4.52-12H218l4.54,12h-3.37Zm-4.18-2.61h3.37L216,262.79Z" style="fill:#16181a"/><path d="M229.88,268H228.3v4.07h-3.1v-12h6a3.87,3.87,0,0,1,4.17,3.54,3.57,3.57,0,0,1,0,.46,3.65,3.65,0,0,1-2.39,3.6l2.45,4.41H231.9Zm.86-5.33H228.3v2.7h2.45a1.37,1.37,0,0,0,1.31-.62,1.33,1.33,0,0,0,0-1.46,1.37,1.37,0,0,0-1.31-.62Z" style="fill:#16181a"/><path d="M239.67,268.08a5.45,5.45,0,0,0,3.83,1.58c1.06,0,1.71-.45,1.71-1s-.77-1-2.05-1.22c-2-.4-4.75-.9-4.75-3.75,0-2,1.71-3.76,4.79-3.76a7.33,7.33,0,0,1,4.88,1.67l-1.69,2.21a5.63,5.63,0,0,0-3.38-1.24c-1,0-1.42.41-1.42.94s.74.85,2.07,1.1c2,.41,4.72,1,4.72,3.71,0,2.41-1.78,4-5,4A7.35,7.35,0,0,1,238,270.4Z" style="fill:#16181a"/><path d="M112.66,57.57l9.77-7.42.91,1.2-8.45,6.42,4.33,5.7,8.29-6.3.91,1.2-8.29,6.3,4.63,6.09,8.45-6.42.91,1.2L124.37,73Z" style="fill:#f2f2f6"/><path d="M132.51,43.69l1.44-.8,8.67,15.59,8.19-4.55.73,1.32-9.63,5.36Z" style="fill:#f2f2f6"/><path d="M151.09,34.13l11.42-4.49.55,1.4-9.88,3.89,2.62,6.67,9.69-3.81.55,1.4L156.36,43l2.8,7.13,9.84-3.9.55,1.4-11.42,4.49Z" style="fill:#f2f2f6"/><path d="M174.1,36a9.61,9.61,0,0,1,6.72-11.8l.55-.13a8.75,8.75,0,0,1,7.69,1.75L187.9,27a7.07,7.07,0,0,0-6.2-1.47c-4.38,1-7,5.15-5.91,10.07s5.32,7.5,9.7,6.5a7.07,7.07,0,0,0,4.94-4l1.55.54a8.7,8.7,0,0,1-6.16,5,9.61,9.61,0,0,1-11.6-7.06C174.18,36.39,174.13,36.2,174.1,36Z" style="fill:#f2f2f6"/><path d="M203.23,22.7l-6.3.48-.12-1.5,14.28-1.09.12,1.5-6.3.48,1.36,17.78-1.68.13Z" style="fill:#f2f2f6"/><path d="M226.08,32.28,221.82,32l-.5,8-1.65-.1,1.21-19.31,7.21.45c3.33.21,5.74,2.48,5.52,6a5.34,5.34,0,0,1-5.45,5.23h-.25L233,40.74l-2-.12Zm1.77-9.74-5.41-.34-.52,8.31,5.41.34a4.16,4.16,0,1,0,.52-8.31Z" style="fill:#f2f2f6"/><path d="M253.22,24.43c5.51,1.25,8.2,6.32,6.94,11.84s-5.86,8.93-11.38,7.67-8.2-6.32-6.94-11.84S247.68,23.17,253.22,24.43Zm-.33,1.47c-4.58-1-8.25,1.78-9.35,6.59s1,8.94,5.58,10,8.27-1.84,9.35-6.59-1.06-9-5.59-10Z" style="fill:#f2f2f6"/><path d="M273.24,33.37l-6.43,15.42-1.53-.64,7.45-17.85,1.55.65,4.84,19.87,6.34-15.2,1.53.64L279.55,54.1l-1.5-.63Z" style="fill:#f2f2f6"/><path d="M298,42.18l1.43.83-9.67,16.75-1.43-.83Z" style="fill:#f2f2f6"/><path d="M302.33,56a9.61,9.61,0,0,1,13.34-2.54l.45.33a8.77,8.77,0,0,1,3.66,7l-1.65-.11A7.05,7.05,0,0,0,315.22,55c-3.61-2.68-8.48-2-11.49,2s-2.25,8.91,1.35,11.59a7.06,7.06,0,0,0,6.26,1.15l.6,1.53a8.71,8.71,0,0,1-7.76-1.47A9.59,9.59,0,0,1,302,56.4Z" style="fill:#f2f2f6"/><path d="M14,196A11,11,0,0,1,3,185v-9a2,2,0,0,1,2-2H59.22a11,11,0,0,1,11,11v9a2,2,0,0,1-2,2Z" style="fill:#c3ccd4"/><path d="M59.22,175a10,10,0,0,1,10,10v9a1,1,0,0,1-1,1H14A10,10,0,0,1,4,185v-9a1,1,0,0,1,1-1H59.22m0-2H5a3,3,0,0,0-3,3v9a12,12,0,0,0,12,12H68.22a3,3,0,0,0,3-3v-9A12,12,0,0,0,59.22,173Z" style="fill:#16181a"/><path d="M59.22,173a12,12,0,0,1,12,12v9a3,3,0,0,1-3,3H14A12,12,0,0,1,2,185v-9a3,3,0,0,1,3-3H59.22m0-2H5a5,5,0,0,0-5,5v9a14,14,0,0,0,14,14H68.22a5,5,0,0,0,5-5v-9A14,14,0,0,0,59.22,171Z" style="fill:#c3ccd4"/><path d="M30.78,190.36h-10v-.16a2.55,2.55,0,0,0,.78-.13,1,1,0,0,0,.42-.32,1.22,1.22,0,0,0,.21-.48v-7.74a3.18,3.18,0,0,0-.07-.75,1.49,1.49,0,0,0-.22-.48.85.85,0,0,0-.41-.31,3.54,3.54,0,0,0-.79-.14v-.16h9.42l.64,3.68H30.6l-.23-.54a2.1,2.1,0,0,0-.22-.42c-.08-.13-.17-.26-.26-.38l-.34-.41a4.81,4.81,0,0,0-1.67-1.33,5,5,0,0,0-2.09-.42h-.45v4.93a4.91,4.91,0,0,0,1.14-.23,3,3,0,0,0,.86-.49,2.52,2.52,0,0,0,.5-.53,2.19,2.19,0,0,0,.25-.48,4.29,4.29,0,0,0,.14-.62h.16v4.93h-.16a3.24,3.24,0,0,0-1-1.74,2.42,2.42,0,0,0-.78-.48,4,4,0,0,0-1.09-.18v3.78a2.27,2.27,0,0,0,.19,1.12.83.83,0,0,0,.75.29,3.94,3.94,0,0,0,1.51-.33,5.75,5.75,0,0,0,1.43-.9,6.67,6.67,0,0,0,1.22-1.38,7.69,7.69,0,0,0,.88-1.74h.16Z" style="fill:#16181a"/><path d="M39.15,188.83a2.76,2.76,0,0,1-.74.92,3.52,3.52,0,0,1-1.13.6,4.58,4.58,0,0,1-1.42.22h-.44L35,190.5l-.56-.11-.72-.2-.44-.13L33,190l-.28-.1-.33-.13-.16-3.18h.16a12.07,12.07,0,0,0,.84,1.59,6.85,6.85,0,0,0,1,1.21,4.13,4.13,0,0,0,1,.76,2.32,2.32,0,0,0,1,.26,1.1,1.1,0,0,0,1.17-1.15,1.21,1.21,0,0,0-.33-.87,3.14,3.14,0,0,0-1.18-.63l-.78-.27a6.09,6.09,0,0,1-2.19-1.16,2,2,0,0,1-.66-1.52,2.07,2.07,0,0,1,.26-1,2.86,2.86,0,0,1,.72-.83,3.67,3.67,0,0,1,1.08-.55,4.19,4.19,0,0,1,1.36-.2,9.36,9.36,0,0,1,1.3.1,12,12,0,0,1,1.55.35l.16,2.62H38.5a7,7,0,0,0-.61-1.15,6,6,0,0,0-.75-.91,3.46,3.46,0,0,0-.82-.6,1.71,1.71,0,0,0-.8-.22,1.15,1.15,0,0,0-.79.31,1,1,0,0,0-.33.76c0,.67.51,1.15,1.52,1.46l1.09.35a4.74,4.74,0,0,1,1.86,1,2,2,0,0,1,.58,1.44A2.61,2.61,0,0,1,39.15,188.83Z" style="fill:#16181a"/><path d="M45.28,190.3a3.35,3.35,0,0,1-1.32.27,2.44,2.44,0,0,1-1.58-.51,1.63,1.63,0,0,1-.56-.8,4.45,4.45,0,0,1-.16-1.36v-4.8h-2l.59-.27.47-.26.43-.27.5-.35A15.46,15.46,0,0,0,43,180.88l.42-.41c.12-.12.24-.25.35-.38s.22-.28.33-.43l.39-.55v3.26h2l-.4.74h-1.6v4.62a2.14,2.14,0,0,0,.3,1.31,1.21,1.21,0,0,0,1,.39h.42a2.85,2.85,0,0,0,.5-.14l.1.13A8.31,8.31,0,0,1,45.28,190.3Z" style="fill:#16181a"/><path d="M50.07,190.12a1.46,1.46,0,0,1-1.08.45A1.54,1.54,0,0,1,47.45,189v0a1.46,1.46,0,0,1,.45-1.08,1.51,1.51,0,0,1,1.1-.44A1.52,1.52,0,0,1,50.53,189,1.48,1.48,0,0,1,50.07,190.12Z" style="fill:#16181a"/><path d="M365,196a2,2,0,0,1-2-2v-9a11,11,0,0,1,11-11h54.22a2,2,0,0,1,2,2v9a11,11,0,0,1-11,11Z" style="fill:#c3ccd4"/><path d="M428.22,175a1,1,0,0,1,1,1v9a10,10,0,0,1-10,10H365a1,1,0,0,1-1-1v-9a10,10,0,0,1,10-10h54.22m0-2H374a12,12,0,0,0-12,12v9a3,3,0,0,0,3,3h54.22a12,12,0,0,0,12-12v-9A3,3,0,0,0,428.22,173Z" style="fill:#16181a"/><path d="M428.22,173a3,3,0,0,1,3,3v9a12,12,0,0,1-12,12H365a3,3,0,0,1-3-3v-9a12,12,0,0,1,12-12h54.22m0-2H374a14,14,0,0,0-14,14v9a5,5,0,0,0,5,5h54.22a14,14,0,0,0,14-14v-9A5,5,0,0,0,428.22,171Z" style="fill:#c3ccd4"/><path d="M380.47,190.36v-.19a3,3,0,0,0,.78-.13,1,1,0,0,0,.42-.32.84.84,0,0,0,.21-.48,1,1,0,0,0,0-.25v-5.33a6.17,6.17,0,0,0,0-.86,1,1,0,0,0-.18-.46.7.7,0,0,0-.48-.26,2.07,2.07,0,0,0-.61-.06h-.35v-.18l.25-.09.18-.07,1-.41c.37-.16.72-.35,1.17-.6l.51-.29.41-.22.29-.18.28-.18.31-.21.39-.27v9.18a5.61,5.61,0,0,0,0,.58,2.22,2.22,0,0,0,.09.37,1.35,1.35,0,0,0,.15.26.84.84,0,0,0,.42.32,3,3,0,0,0,.78.13v.19Z" style="fill:#16181a"/><path d="M393.41,188.86l-.74.53a6.28,6.28,0,0,1-.78.48l-.54.29-.46.21-.48.18-.59.18-.08-.13.19-.14.14-.09a6.85,6.85,0,0,0,1.74-1.74,6.43,6.43,0,0,0,.54-1l.12-.3a1.18,1.18,0,0,1,.1-.3,1.52,1.52,0,0,1,.1-.36c0-.13.07-.29.13-.47l-.19.15-.16.12a2.68,2.68,0,0,1-1.54.38,4.57,4.57,0,0,1-1.51-.26,4.07,4.07,0,0,1-1.21-.7,3.1,3.1,0,0,1-1.09-2.39,3.65,3.65,0,0,1,.34-1.56,4.2,4.2,0,0,1,.94-1.27,4.55,4.55,0,0,1,1.39-.86,4.49,4.49,0,0,1,1.7-.31,4.74,4.74,0,0,1,1.82.34,4.18,4.18,0,0,1,1.44.94,4.51,4.51,0,0,1,.94,1.42A4.6,4.6,0,0,1,396,184,6.05,6.05,0,0,1,393.41,188.86Zm-1.9-9.18c-1.05,0-1.57,1.14-1.57,3.42a6.86,6.86,0,0,0,.37,2.62,1.22,1.22,0,0,0,1.18.84c1,0,1.54-1.1,1.54-3.3C393,180.87,392.5,179.68,391.51,179.68Z" style="fill:#16181a"/><path d="M403,188.86l-.74.53a6.28,6.28,0,0,1-.78.48l-.54.29-.46.21-.48.18-.59.18-.08-.13.19-.14.14-.09a6.85,6.85,0,0,0,1.74-1.74,6.43,6.43,0,0,0,.54-1l.12-.3a1.18,1.18,0,0,1,.1-.3,1.52,1.52,0,0,1,.1-.36c0-.13.07-.29.13-.47l-.19.15-.16.12a2.68,2.68,0,0,1-1.54.38,4.57,4.57,0,0,1-1.51-.26,4.07,4.07,0,0,1-1.21-.7,3.1,3.1,0,0,1-1.09-2.39,3.51,3.51,0,0,1,.34-1.56,4.2,4.2,0,0,1,.94-1.27,4.55,4.55,0,0,1,1.39-.86,4.49,4.49,0,0,1,1.7-.31,4.74,4.74,0,0,1,1.82.34,4.18,4.18,0,0,1,1.44.94,4.51,4.51,0,0,1,.94,1.42,4.61,4.61,0,0,1,.34,1.8A6.06,6.06,0,0,1,403,188.86Zm-1.9-9.18c-1.05,0-1.57,1.14-1.57,3.42a6.86,6.86,0,0,0,.37,2.62,1.22,1.22,0,0,0,1.18.84c1,0,1.54-1.1,1.54-3.3,0-2.39-.47-3.58-1.48-3.58Z" style="fill:#16181a"/><path d="M406.9,190.36v-.19a3,3,0,0,0,.78-.13,1,1,0,0,0,.42-.32.84.84,0,0,0,.21-.48v-5.58a6.17,6.17,0,0,0,0-.86,1,1,0,0,0-.18-.46.7.7,0,0,0-.48-.26A2,2,0,0,0,407,182h-.35v-.18l.25-.09.18-.07,1-.41a9.23,9.23,0,0,0,1.17-.6l.51-.29.41-.22.29-.18.27-.18.31-.21.39-.27v9.18a5.61,5.61,0,0,0,0,.58,1.18,1.18,0,0,0,.09.37,1.35,1.35,0,0,0,.15.26.84.84,0,0,0,.42.32,3,3,0,0,0,.78.13v.19Z" style="fill:#16181a"/><path d="M182.38,337.16,170.52,334l-2.37,8.89-1.6-.43,5-18.7,1.6.43-2.22,8.35,11.86,3.16,2.22-8.35,1.63.43-5,18.7L180,346Z" style="fill:#f2f2f6"/><path d="M204.46,329.84c5.64.47,9,5.11,8.54,10.75s-4.55,9.66-10.19,9.19-9-5.11-8.54-10.75S198.8,329.37,204.46,329.84Zm-.12,1.5c-4.68-.39-7.92,2.92-8.33,7.84s2.25,8.71,6.93,9.1,7.93-3,8.33-7.83-2.27-8.72-6.93-9.11Z" style="fill:#f2f2f6"/><path d="M238.92,331.35l-5.29,17.79-.63.06-8.76-16.37L226,349.91l-1.65.17-1.93-19.25,2.45-.25,8.15,15.3,4.92-16.61,2.48-.25,1.93,19.25-1.67.17Z" style="fill:#f2f2f6"/><path d="M249.61,327l11.83-3.24.4,1.45L251.6,328l1.89,6.91,10-2.75.4,1.46-10,2.75,2,7.38,10.24-2.8.4,1.45-11.83,3.24Z" style="fill:#f2f2f6"/><path d="M109.28,151.64a6.27,6.27,0,0,1-4-7.91c0-.12.09-.25.14-.37a5.67,5.67,0,0,1,4.39-3.83l.25,2.08a3.74,3.74,0,0,0-2.82,2.41,4.52,4.52,0,0,0,8.47,3.1,3.7,3.7,0,0,0-.59-3.66l1.54-1.43a5.73,5.73,0,0,1,.88,5.76,6.27,6.27,0,0,1-7.94,4,3.4,3.4,0,0,1-.34-.12Z" style="fill:#c3ccd4"/><path d="M109.42,134.31l3.93-7.59,1.71.88-2.92,5.65,2.87,1.49,2.86-5.53,1.71.88-2.86,5.53,3.07,1.59,2.92-5.65,1.71.88L120.51,140Z" style="fill:#c3ccd4"/><path d="M116,122.3l1.21-1.82,8.78,5.85,3-4.58,1.6,1.07-4.26,6.4Z" style="fill:#c3ccd4"/><path d="M123.2,112l5.5-6.55,1.48,1.24-4.09,4.87,2.48,2.08,4-4.77,1.48,1.24-4,4.77,2.65,2.22,4.09-4.87,1.48,1.24-5.5,6.55Z" style="fill:#c3ccd4"/><path d="M132.31,101.61l4.48-4.19c1.67-1.56,3.57-1.39,4.77-.1a2.79,2.79,0,0,1,.37,3.57,3.08,3.08,0,0,1,3.86.59c1.32,1.41,1.36,3.34-.35,4.94l-4.61,4.3Zm7.68-.11a1.62,1.62,0,0,0-2.21-2.37l-2.56,2.39,2.21,2.37Zm3.75,3.87a1.75,1.75,0,0,0-2.16-2.76,1.8,1.8,0,0,0-.2.19l-2.62,2.45,2.36,2.53Z" style="fill:#c3ccd4"/><path d="M151.74,95.34,150,96.61l2.73,3.78L151,101.67l-7.31-10.12,4.44-3.21a3.79,3.79,0,0,1,5.35.46,3.92,3.92,0,0,1,.25.32,3.5,3.5,0,0,1-.25,4.7L158.76,96l-2,1.48ZM149,90.08l-2.43,1.75L148.85,95l2.43-1.75a2,2,0,1,0-1.58-3.68A2.07,2.07,0,0,0,149,90.08Z" style="fill:#c3ccd4"/><path d="M167.61,88.25l-5.2,2.82.33,2.54-2.11,1.14L159,81.44l2.4-1.3,10.25,8.64-2.11,1.14Zm-5.57.83,4.11-2.23-5.06-4.43Z" style="fill:#c3ccd4"/><path d="M172,77.28l-3.5,1.41-.72-1.79,9-3.64.72,1.79L174,76.46l4,9.79-2,.82Z" style="fill:#c3ccd4"/><path d="M181.19,71.91l2.09-.63,3.61,11.94-2.09.63Z" style="fill:#c3ccd4"/><path d="M191.33,72.65l1.74,8.92-2.15.42-2.38-12.24,2.2-.43,7.95,7.47L197,68.1l2.15-.42,2.38,12.24-2.07.4Z" style="fill:#c3ccd4"/><path d="M210.93,66.45a5.87,5.87,0,0,1,5.16,2.33l-1.74,1.1A4,4,0,0,0,211,68.39a4.52,4.52,0,0,0,.47,9,4.61,4.61,0,0,0,2.89-1.27l-.1-1.94-3.72.19-.1-1.92,5.9-.31.24,4.67a6.75,6.75,0,0,1-5,2.53,6.46,6.46,0,0,1-.67-12.91Z" style="fill:#c3ccd4"/><path d="M228.63,67.05l8.47,1.15-.26,1.91-6.3-.86-.44,3.21,6.17.84L236,75.21l-6.17-.84-.47,3.43,6.3.86-.26,1.91L227,79.42Z" style="fill:#c3ccd4"/><path d="M245,77.79l-4.63,3.83L237.84,81,244,76l-2.7-7,2.53.67,1.94,5.25L250,71.26l2.55.67-5.78,4.74,2.86,7.39-2.53-.67Z" style="fill:#c3ccd4"/><path d="M253.68,78.89a6.26,6.26,0,0,1,8.06-3.69l.35.14a5.68,5.68,0,0,1,3.67,4.52l-2.09.18a3.76,3.76,0,0,0-2.32-2.9A4.52,4.52,0,0,0,258,85.5a3.72,3.72,0,0,0,3.68-.46L263,86.62a5.71,5.71,0,0,1-5.79.67,6.28,6.28,0,0,1-3.65-8.09A2.85,2.85,0,0,1,253.68,78.89Z" style="fill:#c3ccd4"/><path d="M271,79.66l7.46,4.19-.94,1.68L272,82.41l-1.59,2.82,5.43,3L274.9,90l-5.43-3-1.7,3,5.55,3-.94,1.68-7.45-4.19Z" style="fill:#c3ccd4"/><path d="M282.79,86.65l1.78,1.28-6.15,8.57,4.47,3.21-1.12,1.57-6.25-4.48Z" style="fill:#c3ccd4"/><path d="M292.79,94.19l1.63,1.46-7,7.87,4.1,3.66-1.28,1.44-5.74-5.12Z" style="fill:#c3ccd4"/><path d="M302,102.74l5.72,6.35-1.43,1.29L302,105.66l-2.41,2.16,4.17,4.63-1.43,1.29-4.17-4.63-2.57,2.31,4.25,4.73-1.43,1.29-5.72-6.35Z" style="fill:#c3ccd4"/><path d="M309.5,117l-7.5,5.13-1.24-1.8L311,113.24l1.28,1.85-3.65,10.28,7.28-5,1.24,1.8-10.26,7.09-1.2-1.74Z" style="fill:#c3ccd4"/><path d="M314.31,129.44a6.25,6.25,0,0,1,8.49,2.5,3.84,3.84,0,0,1,.18.35,5.68,5.68,0,0,1-.2,5.82l-1.7-1.24a3.73,3.73,0,0,0,.16-3.71,4.52,4.52,0,0,0-8,4.07,3.71,3.71,0,0,0,3.08,2.07v2.1a5.71,5.71,0,0,1-4.81-3.29,6.25,6.25,0,0,1,2.47-8.5l.33-.17Z" style="fill:#c3ccd4"/><path d="M326.89,141.41l2.87,8.05-1.82.65-2.13-6-3,1.08,2.09,5.87-1.82.65L321,145.84,317.68,147l2.13,6-1.82.65-2.87-8.05Z" style="fill:#c3ccd4"/><path d="M216.61,56A129,129,0,1,1,125.4,93.78,129,129,0,0,1,216.61,56m0-6a135,135,0,1,0,135,135h0A135,135,0,0,0,216.61,50Z" style="fill:#abb4bb"/><path d="M201,230.62a3,3,0,0,1-2.94-2.41c-.25-1.24-1.69-1.5-2.86-1.5H149.35a3,3,0,0,1-3-3.41c1.81-13.13,12.16-22.67,22.16-31.89,2.13-1.95,4.13-3.8,6.07-5.69,7.7-7.57,12.84-14.23,12.84-22.11,0-7-6.35-13.17-13.58-13.17-8.53,0-15.4,4.53-18.36,12.11a3,3,0,0,1-2.79,1.91H152a3,3,0,0,1-3-3.29c1.46-15.24,15.47-31.55,34-31.55,16.81,0,30.49,13.31,30.49,29.68,0,18.36-15,25.91-28.27,32.56-6.49,3.26-12.71,6.39-17.31,10.53h26.87c3.06-.16,10.23-1.06,12.43-5.92a3,3,0,0,1,2.74-1.76h.94a3,3,0,0,1,2.7,4.31c-3.56,7.31-6.57,16.87-9.2,29.23a3,3,0,0,1-2.93,2.37Z" style="fill:#fff"/><path d="M183,132.62c15,0,27.49,11.72,27.49,26.68,0,27.49-36.93,27.76-49.19,46.09H194.9c5.52-.27,12.53-2,15.09-7.69h.94c-4.72,9.71-7.68,21.7-9.43,29.92H201c-.54-2.7-3-3.91-5.8-3.91H149.35c2-14.69,16.3-25.06,27.35-35.84,7.55-7.41,13.75-15,13.75-24.26,0-8.62-7.55-16.17-16.58-16.17-9.83,0-17.78,5.39-21.15,14H152c1.35-14,14.42-28.84,31-28.84m0-6c-20.14,0-35.38,17.72-37,34.26a6,6,0,0,0,6,6.58h.68a6,6,0,0,0,5.59-3.82c2.49-6.39,8.31-10.2,15.56-10.2,5.64,0,10.58,4.76,10.58,10.17,0,6.84-4.78,12.93-11.95,20-1.89,1.84-3.88,3.68-6,5.62-9.91,9.13-21.15,19.48-23.11,33.68a6,6,0,0,0,5.95,6.82h46a6,6,0,0,0,5.62,3.9h.54a6,6,0,0,0,5.87-4.75c2.54-11.94,5.56-21.55,9-28.54a6,6,0,0,0-5.4-8.63H210a6,6,0,0,0-5.47,3.53c-1.54,3.41-7.7,4-9.78,4.16H177.42c2.87-1.67,6-3.24,9.19-4.85,6.9-3.47,14-7,19.65-12.19a29.81,29.81,0,0,0,10.27-23c0-18-15-32.68-33.49-32.68Zm12.79,103.17Z" style="fill:#abb4bb"/><path d="M183,135.62c13.5,0,24.49,10.62,24.49,23.68,0,14.66-12.13,20.75-25,27.2l-.62.31c6.29-6.66,11.5-14.12,11.5-23.2,0-10.39-9-19.17-19.58-19.17a26.52,26.52,0,0,0-13.31,3.46c5.07-7,13.15-12.28,22.48-12.28m21,71c-1.54,4.47-3,9.47-4.29,15.07a10.42,10.42,0,0,0-4.6-1h-42.1a35.32,35.32,0,0,1,7-12.32H195a28.56,28.56,0,0,0,9-1.76m-21-74c-16.58,0-29.65,14.82-31,28.84h.68c3.37-8.63,11.32-14,21.15-14,9,0,16.58,7.55,16.58,16.17,0,9.3-6.2,16.85-13.75,24.26-11,10.78-25.33,21.15-27.35,35.84h45.81c2.83,0,5.26,1.21,5.8,3.91h.54c1.75-8.22,4.71-20.21,9.43-29.92H210c-2.56,5.66-9.57,7.42-15.09,7.69H161.34c12.26-18.33,49.19-18.6,49.19-46.09,0-15-12.54-26.68-27.49-26.68Z" style="fill:#231f20"/><path d="M229.38,228.73a5.37,5.37,0,0,1-1.86-.36l-.17-.06a3,3,0,0,1-2-2.85v-.67a3,3,0,0,1,1.8-2.75c13.39-5.86,24.47-17.71,30-31.76a37.36,37.36,0,0,1-8.9.86c-16.74,0-30.36-13.2-30.36-29.41,0-19.83,17.3-32.11,33.32-32.11,20.12,0,37.77,18.66,37.77,39.92,0,33.5-26.92,48.43-38.49,53.3C242.77,226.09,233.3,228.73,229.38,228.73Zm23.18-91.9c-6.4,0-8.45,6.51-8.45,26.78,0,4.42.8,18.83,11.15,18.83,2.35,0,3-.39,4.61-1.95a119.18,119.18,0,0,0,1.82-18.9C261.69,138.74,257.18,136.83,252.56,136.83Z" style="fill:#fff"/><path d="M251.21,132.62c18.6,0,34.77,17.11,34.77,36.92,0,31.26-24.8,45.55-36.65,50.53-7.68,3.24-16.71,5.66-20,5.66a3.12,3.12,0,0,1-1.08-.27v-.67c16.31-7.14,29.11-22.37,33.83-40-3.77,2.56-7.28,3.37-13.88,3.37-14.82,0-27.36-11.59-27.36-26.41,0-17.52,15.1-29.11,30.32-29.11m4,52.82c3.9,0,5.12-1.21,7.41-3.5a124.85,124.85,0,0,0,2-20.35c0-11.72-.27-27.76-12.13-27.76-9.84,0-11.45,10.65-11.45,29.78,0,12.8,4.85,21.83,14.15,21.83m-4-58.82a37.72,37.72,0,0,0-24.87,9.52,34,34,0,0,0-11.45,25.59c0,17.87,15,32.41,33.36,32.41,1.37,0,2.67,0,3.91-.11a55,55,0,0,1-26.26,25.26,6,6,0,0,0-3.6,5.5v.67a6,6,0,0,0,4.1,5.69l.12,0a8,8,0,0,0,2.86.54c4.83,0,15.12-3.11,22.28-6.13,12.12-5.09,40.32-20.76,40.32-56.06a44.25,44.25,0,0,0-12-30c-7.74-8.21-18.21-12.92-28.73-12.92Zm4,52.82c-1.92,0-8.15-1.14-8.15-15.83,0-7.32.2-15.46,1.74-20.22,1.16-3.56,2.34-3.56,3.71-3.56s3.29,0,4.74,5.12c1.39,4.91,1.39,12,1.39,16.64a112.68,112.68,0,0,1-1.62,17.4,2.33,2.33,0,0,1-1.81.45Z" style="fill:#abb4bb"/><path d="M241.67,137.33a20.19,20.19,0,0,0-1.38,3.29c-1.55,4.8-2.18,11.46-2.18,23,0,9.87,2.73,17.33,7.5,21.39-12.19-1.27-21.72-11.22-21.72-23.27,0-12.21,8.13-20.9,17.78-24.4m23.05,1.75A35.1,35.1,0,0,1,283,169.54c0,29.9-24.35,43.37-34.82,47.77-1.74.73-3.49,1.4-5.2,2A65.73,65.73,0,0,0,265,185.54c.15-.57.51-2.59.6-3.11a127.43,127.43,0,0,0,2.06-20.84c0-6.57-.14-13.45-1.73-19.09a24.6,24.6,0,0,0-1.24-3.42m-13.51-6.46c-15.22,0-30.32,11.59-30.32,29.11,0,14.82,12.54,26.41,27.36,26.41,6.6,0,10.11-.81,13.88-3.37-4.72,17.65-17.52,32.88-33.83,40v.67a3.12,3.12,0,0,0,1.08.27c3.24,0,12.27-2.42,20-5.66,11.85-5,36.65-19.27,36.65-50.53,0-19.81-16.17-36.92-34.77-36.92Zm4,52.82c-9.3,0-14.15-9-14.15-21.83,0-19.13,1.61-29.78,11.45-29.78,11.86,0,12.13,16,12.13,27.76a124.85,124.85,0,0,1-2,20.35c-2.29,2.29-3.51,3.5-7.41,3.5Z" style="fill:#231f20"/></svg>