<svg id="Layer_1" data-name="Layer 1" xmlns="http://www.w3.org/2000/svg" width="433.22" height="370" viewBox="0 0 433.22 370"><path d="M216.61,2c101,.07,182.89,82,182.82,183.08S317.39,368,216.35,367.9s-182.9-82-182.82-183.08S115.57,1.93,216.61,2h0m0-2c-102.17,0-185,82.83-185,185s82.83,185,185,185,185-82.83,185-185S318.78,0,216.61,0Z" style="fill:#abb4bb"/><path d="M216.61,363c-98.15,0-178-79.85-178-178S118.46,7,216.61,7s178,79.85,178,178S314.76,363,216.61,363Zm0-310A132,132,0,1,0,310,91.66,132,132,0,0,0,216.61,53Z" style="fill:#16181a"/><path d="M216.61,10A175.78,175.78,0,1,1,92.87,61.26,175.78,175.78,0,0,1,216.61,10m0,310a135,135,0,1,0-95.46-39.54A135,135,0,0,0,216.61,320m0-316a181,181,0,1,0,181,181h0A181,181,0,0,0,216.61,4Zm0,310a129,129,0,1,1,91.22-37.78A129,129,0,0,1,216.61,314Z" style="fill:#abb4bb"/><path d="M275.18,331.79,273,326.22c1.83-.73,3.65-1.5,5.43-2.29l2.44,5.48C279,330.23,277.08,331,275.18,331.79Zm-119.27-.87c-1.86-.78-3.74-1.6-5.58-2.45l2.52-5.45c1.77.82,3.58,1.61,5.37,2.36Zm132.28-5-2.72-5.35c1.73-.88,3.48-1.82,5.2-2.78L293.6,323c-1.78,1-3.6,2-5.4,2.89Zm-145.16-1c-1.8-.95-3.59-1.94-5.34-3l3-5.2c1.68,1,3.41,1.93,5.14,2.84Zm157.58-6-3.2-5.08c1.65-1,3.31-2.13,4.92-3.23l3.39,5c-1.67,1-3.39,2.15-5.1,3.23Zm-169.87-1.19c-1.7-1.1-3.4-2.25-5.06-3.42l3.46-4.9c1.6,1.13,3.23,2.23,4.87,3.29Zm181.6-7L308.7,306c1.55-1.18,3.1-2.41,4.61-3.66l3.82,4.63c-1.56,1.22-3.13,2.5-4.79,3.73Zm-193.19-1.34c-1.6-1.25-3.19-2.55-4.73-3.86L118.3,301c1.49,1.26,3,2.51,4.55,3.72Zm204.14-7.82-4.05-4.42c1.44-1.31,2.87-2.68,4.26-4.06l4.22,4.27c-1.45,1.36-2.94,2.78-4.43,4.14Zm-214.94-1.48c-1.47-1.39-2.94-2.83-4.37-4.27l4.28-4.21c1.37,1.39,2.79,2.78,4.21,4.11Zm225-8.62-4.43-4c1.32-1.44,2.62-2.93,3.88-4.42l4.58,3.87c-1.29,1.45-2.65,3-4,4.49Zm-235-1.61c-1.35-1.52-2.68-3.08-4-4.65L99,281.45c1.24,1.51,2.53,3,3.82,4.47Zm244.08-9.34-4.78-3.63c1.18-1.56,2.35-3.15,3.46-4.75l4.91,3.44c-1.09,1.6-2.3,3.26-3.53,4.88Zm-253-1.81c-1.2-1.63-2.39-3.31-3.54-5l5-3.37c1.1,1.62,2.25,3.23,3.41,4.8Zm261.17-10-5.08-3.19c1-1.65,2-3.34,3-5l5.2,3c-1,1.74-2.06,3.5-3.13,5.22Zm-269.13-1.8c-1.06-1.74-2.09-3.52-3.08-5.29l5.25-2.91c1,1.71,1.94,3.42,3,5.09ZM357.6,256.39l-5.35-2.71c.88-1.73,1.74-3.51,2.55-5.28l5.45,2.5C359.41,252.74,358.52,254.59,357.6,256.39Zm-283-2c-.9-1.83-1.77-3.7-2.59-5.55l5.49-2.43c.79,1.78,1.63,3.58,2.49,5.34Zm288.84-11-5.57-2.22c.72-1.8,1.41-3.66,2.07-5.51l5.66,2c-.67,2-1.39,3.88-2.14,5.76ZM68.92,241.27c-.72-1.9-1.42-3.84-2.07-5.77l5.69-1.92c.63,1.85,1.3,3.72,2,5.55Zm299.2-11.33-5.75-1.71c.55-1.86,1.08-3.77,1.56-5.67l5.81,1.48c-.49,2-1,4-1.61,5.9ZM64.45,227.7c-.55-2-1.06-3.95-1.53-5.92l5.84-1.39c.45,1.89.95,3.81,1.47,5.69Zm307.1-11.61-5.88-1.18c.38-1.92.73-3.86,1-5.79l5.93.94C372.31,212.08,372,214.1,371.55,216.09ZM61.23,213.81q-.55-3-1-6l5.94-.86c.28,1.93.6,3.88,1,5.8ZM373.71,202l-6-.64c.21-2,.38-3.92.51-5.86l6,.41C374.1,197.92,373.92,200,373.71,202ZM59.29,199.68c-.19-2-.34-4.07-.44-6.1l6-.32c.1,2,.25,3.92.43,5.87Zm315.3-11.92-6-.1v-5.89l6-.12V185Q374.61,186.4,374.59,187.76Zm-316-2.32V185c0-1.89,0-3.79.1-5.67l6,.21c-.06,1.81-.1,3.65-.1,5.46v.42Zm309.6-11.5c-.14-2-.32-3.92-.53-5.86l6-.66c.22,2,.41,4.06.56,6.09Zm-303-2.23-6-.52c.18-2,.39-4.07.65-6.08l6,.75c-.28,1.93-.49,3.9-.66,5.85Zm301.43-11.4c-.32-1.93-.67-3.88-1.06-5.78l5.88-1.2q.6,3,1.1,6ZM67,158.11l-5.91-1.05q.54-3,1.19-6l5.86,1.28C67.71,154.24,67.33,156.18,67,158.11Zm296.81-11.22c-.49-1.88-1-3.79-1.58-5.66L368,139.5c.59,1.95,1.14,3.93,1.64,5.89ZM70,144.73l-5.79-1.58c.53-2,1.12-3.93,1.73-5.87l5.72,1.81C71.08,141,70.52,142.85,70,144.73Zm289.76-11c-.66-1.84-1.36-3.69-2.1-5.51l5.56-2.24c.76,1.89,1.5,3.82,2.18,5.73ZM74.23,131.67l-5.62-2.11c.71-1.89,1.47-3.8,2.25-5.67l5.53,2.32C75.64,128,74.91,129.85,74.23,131.67ZM354.54,121c-.82-1.76-1.69-3.54-2.59-5.29l5.34-2.74c.93,1.82,1.84,3.67,2.69,5.5ZM79.61,119.09l-5.41-2.6c.88-1.82,1.8-3.65,2.76-5.44l5.3,2.81C81.34,115.58,80.45,117.34,79.61,119.09ZM348.2,108.85c-1-1.69-2-3.39-3.05-5l5.07-3.21c1.08,1.71,2.15,3.48,3.17,5.23ZM86.1,107,81,104c1-1.74,2.13-3.48,3.24-5.18l5,3.28C88.16,103.68,87.11,105.35,86.1,107Zm254.67-9.74c-1.13-1.59-2.3-3.19-3.49-4.74L342,88.9c1.24,1.61,2.46,3.27,3.63,4.93ZM93.67,95.6l-4.85-3.53c1.19-1.64,2.43-3.27,3.69-4.87l4.71,3.72C96,92.45,94.82,94,93.67,95.6Zm238.67-9.15c-1.26-1.48-2.57-3-3.9-4.4l4.41-4c1.38,1.5,2.75,3,4.06,4.58ZM102.23,84.89l-4.51-4c1.33-1.52,2.72-3,4.12-4.52l4.36,4.12C104.85,82,103.51,83.43,102.23,84.89Z" style="fill:#438be2"/><g style="opacity:0.5"><path d="M216.61,317a132,132,0,1,1,132-132h0A132.14,132.14,0,0,1,216.61,317Z" style="fill:#16181a"/><path d="M216.61,56A129,129,0,1,1,125.4,93.78,129,129,0,0,1,216.61,56m0-6a135,135,0,1,0,135,135h0A135,135,0,0,0,216.61,50Z" style="fill:#16181a"/></g><path d="M151.24,73.78l1.74-1L282,296.22l-1.74,1Z" style="fill:#16181a"/><path d="M216.61,62a123,123,0,1,1-87,36,123,123,0,0,1,87-36m0-6a129,129,0,1,0,129,129h0A129,129,0,0,0,216.61,56Z" style="fill:#16181a"/><path d="M215.61,56h2V314h-2Z" style="fill:#16181a"/><path d="M87.61,184h258v2h-258Z" style="fill:#16181a"/><path d="M91.75,217.43,341,150.65l.51,1.93L92.26,219.36Z" style="fill:#16181a"/><path d="M151.24,73.78l1.74-1L282,296.22l-1.74,1Z" style="fill:#16181a"/><path d="M104.38,248.64l223.46-129,1,1.73-223.46,129Z" style="fill:#16181a"/><path d="M124.69,275.51,307.12,93.07l1.42,1.42L126.1,276.92Z" style="fill:#16181a"/><path d="M104.39,121.37l1-1.74,223.44,129-1,1.74Z" style="fill:#16181a"/><path d="M151.26,296.21l129-223.46,1.73,1L153,297.21Z" style="fill:#16181a"/><path d="M124.69,94.49l1.41-1.42L308.54,275.51l-1.42,1.41Z" style="fill:#16181a"/><path d="M182.26,309.35,249,60.14l1.93.52L184.19,309.87Z" style="fill:#16181a"/><path d="M92.23,151.77l.52-1.94L343,216.91l-.52,1.94Z" style="fill:#16181a"/><path d="M182.26,60.66l1.93-.52L251,309.35l-1.93.52Z" style="fill:#16181a"/><path d="M137.29,83.27l1.58-1.21L295.93,286.74,294.35,288Z" style="fill:#16181a"/><path d="M198.79,57.24l2-.26,33.67,255.79-2,.26Z" style="fill:#16181a"/><path d="M88.57,200.84l255.8-33.63.26,2L88.83,202.82Z" style="fill:#16181a"/><path d="M97.06,233.45,335.4,134.68l.77,1.84L97.82,235.3Z" style="fill:#16181a"/><path d="M137.29,83.27l1.58-1.21L295.93,286.74,294.35,288Z" style="fill:#16181a"/><path d="M113.69,262.77,318.32,105.64l1.22,1.58L114.91,264.36Z" style="fill:#16181a"/><path d="M137.32,286.77,294.31,82l1.59,1.21L138.91,288Z" style="fill:#16181a"/><path d="M97.05,136.56l.76-1.85,238.36,98.74-.76,1.84Z" style="fill:#16181a"/><path d="M166.3,303.8,265.08,65.46l1.84.76L168.15,304.56Z" style="fill:#16181a"/><path d="M113.66,107.27l1.22-1.59L319.57,262.74l-1.22,1.59Z" style="fill:#16181a"/><path d="M198.73,312.75,232.5,57l2,.27L200.72,313Z" style="fill:#16181a"/><path d="M88.58,169.15l.27-2,255.79,33.68-.26,2Z" style="fill:#16181a"/><path d="M166.32,66.21l1.85-.77L266.9,303.8l-1.85.77Z" style="fill:#16181a"/><path d="M216.61,302a117,117,0,1,1,117-117h0A117,117,0,0,1,216.61,302Zm0-232a115,115,0,1,0,67.86,22.15A115,115,0,0,0,216.61,70Z" style="fill:#16181a"/><path d="M216.61,294a109,109,0,1,1,109-109h0A109,109,0,0,1,216.61,294Zm0-216a107,107,0,1,0,63.14,20.6A107,107,0,0,0,216.61,78Z" style="fill:#16181a"/><path d="M174.61,247.7h84a18,18,0,0,1,18,18h0a18,18,0,0,1-18,18h-84a18,18,0,0,1-18-18h0a18,18,0,0,1,18-18Z" style="fill:#c3ccd4"/><path d="M169,265.7l5.66-5.66,5.65,5.66-5.65,5.66Z" style="fill:#16181a"/><path d="M253,265.7l5.65-5.65,5.66,5.65-5.66,5.66Z" style="fill:#16181a"/><path d="M188.14,267.25l-4.56-7.17h3.49l2.61,4.43,2.57-4.43h3.51l-4.54,7.17v4.84h-3.1Z" style="fill:#16181a"/><path d="M198.45,260.09h8.8v2.61h-5.71v2h5.58v2.63h-5.58v2.16h5.71v2.61h-8.8Z" style="fill:#16181a"/><path d="M218.54,270.28h-5l-.61,1.82h-3.37l4.52-12H218l4.54,12h-3.37Zm-4.18-2.61h3.37L216,262.79Z" style="fill:#16181a"/><path d="M229.88,268H228.3v4.07h-3.1v-12h6a3.87,3.87,0,0,1,4.17,3.54,3.53,3.53,0,0,1,0,.46,3.65,3.65,0,0,1-2.39,3.6l2.45,4.41H231.9Zm.86-5.33H228.3v2.7h2.45a1.37,1.37,0,0,0,1.31-.62,1.33,1.33,0,0,0,0-1.46,1.37,1.37,0,0,0-1.31-.62Z" style="fill:#16181a"/><path d="M239.67,268.08a5.45,5.45,0,0,0,3.83,1.58c1.06,0,1.71-.45,1.71-1s-.77-1-2.05-1.22c-2-.4-4.75-.9-4.75-3.75,0-2,1.71-3.76,4.79-3.76a7.33,7.33,0,0,1,4.88,1.67l-1.69,2.21a5.63,5.63,0,0,0-3.38-1.24c-1,0-1.42.41-1.42.94s.74.85,2.07,1.1c2,.41,4.72,1,4.72,3.71,0,2.41-1.78,4-5,4A7.35,7.35,0,0,1,238,270.4Z" style="fill:#16181a"/><path d="M112.66,57.57l9.77-7.42.91,1.2-8.45,6.42,4.33,5.7,8.29-6.3.91,1.2-8.29,6.3,4.63,6.09,8.45-6.42.91,1.2L124.37,73Z" style="fill:#f2f2f6"/><path d="M132.51,43.69l1.44-.8,8.67,15.59,8.19-4.55.73,1.32-9.63,5.36Z" style="fill:#f2f2f6"/><path d="M151.09,34.13l11.42-4.49.55,1.4-9.88,3.89,2.62,6.67,9.69-3.81.55,1.4L156.36,43l2.8,7.13,9.84-3.9.55,1.4-11.42,4.49Z" style="fill:#f2f2f6"/><path d="M174.1,36a9.61,9.61,0,0,1,6.72-11.8l.55-.13a8.75,8.75,0,0,1,7.69,1.75L187.9,27a7.07,7.07,0,0,0-6.2-1.47c-4.38,1-7,5.15-5.91,10.07s5.32,7.5,9.7,6.5a7.07,7.07,0,0,0,4.94-4l1.55.54a8.7,8.7,0,0,1-6.16,5,9.61,9.61,0,0,1-11.6-7.06C174.18,36.39,174.13,36.2,174.1,36Z" style="fill:#f2f2f6"/><path d="M203.23,22.7l-6.3.48-.12-1.5,14.28-1.09.12,1.5-6.3.48,1.36,17.78-1.68.13Z" style="fill:#f2f2f6"/><path d="M226.08,32.28,221.82,32l-.5,8-1.65-.1,1.21-19.31,7.21.45c3.33.21,5.74,2.48,5.52,6a5.34,5.34,0,0,1-5.45,5.23h-.25L233,40.74l-2-.12Zm1.77-9.74-5.41-.34-.52,8.31,5.41.34a4.16,4.16,0,1,0,.52-8.31Z" style="fill:#f2f2f6"/><path d="M253.22,24.43c5.51,1.25,8.2,6.32,6.94,11.84s-5.86,8.93-11.38,7.67-8.2-6.32-6.94-11.84S247.68,23.17,253.22,24.43Zm-.33,1.47c-4.58-1-8.25,1.78-9.35,6.59s1,8.94,5.58,10,8.27-1.84,9.35-6.59-1.06-9-5.59-10Z" style="fill:#f2f2f6"/><path d="M273.24,33.37l-6.43,15.42-1.53-.64,7.45-17.85,1.55.65,4.84,19.87,6.34-15.2,1.53.64L279.55,54.1l-1.5-.63Z" style="fill:#f2f2f6"/><path d="M298,42.18l1.43.83-9.67,16.75-1.43-.83Z" style="fill:#f2f2f6"/><path d="M302.33,56a9.61,9.61,0,0,1,13.34-2.54l.45.33a8.77,8.77,0,0,1,3.66,7l-1.65-.11A7.05,7.05,0,0,0,315.22,55c-3.61-2.68-8.48-2-11.49,2s-2.25,8.91,1.35,11.59a7.06,7.06,0,0,0,6.26,1.15l.6,1.53a8.71,8.71,0,0,1-7.76-1.47A9.59,9.59,0,0,1,302,56.42v0Z" style="fill:#f2f2f6"/><path d="M14,196A11,11,0,0,1,3,185v-9a2,2,0,0,1,2-2H59.22a11,11,0,0,1,11,11v9a2,2,0,0,1-2,2Z" style="fill:#c3ccd4"/><path d="M59.22,175a10,10,0,0,1,10,10v9a1,1,0,0,1-1,1H14A10,10,0,0,1,4,185v-9a1,1,0,0,1,1-1H59.22m0-2H5a3,3,0,0,0-3,3v9a12,12,0,0,0,12,12H68.22a3,3,0,0,0,3-3v-9A12,12,0,0,0,59.22,173Z" style="fill:#16181a"/><path d="M59.22,173a12,12,0,0,1,12,12v9a3,3,0,0,1-3,3H14A12,12,0,0,1,2,185v-9a3,3,0,0,1,3-3H59.22m0-2H5a5,5,0,0,0-5,5v9a14,14,0,0,0,14,14H68.22a5,5,0,0,0,5-5v-9A14,14,0,0,0,59.22,171Z" style="fill:#c3ccd4"/><path d="M30.78,190.36h-10v-.16a2.55,2.55,0,0,0,.78-.13,1,1,0,0,0,.42-.32,1.22,1.22,0,0,0,.21-.48v-7.74a3.18,3.18,0,0,0-.07-.75,1.49,1.49,0,0,0-.22-.48.85.85,0,0,0-.41-.31,3.54,3.54,0,0,0-.79-.14v-.16h9.42l.64,3.68H30.6l-.23-.54a2.1,2.1,0,0,0-.22-.42c-.08-.13-.17-.26-.26-.38l-.34-.41a4.81,4.81,0,0,0-1.67-1.33,5,5,0,0,0-2.09-.42h-.45v4.93a4.91,4.91,0,0,0,1.14-.23,3,3,0,0,0,.86-.49,2.52,2.52,0,0,0,.5-.53,2.19,2.19,0,0,0,.25-.48,4.29,4.29,0,0,0,.14-.62h.16v4.93h-.16a3.24,3.24,0,0,0-1-1.74,2.42,2.42,0,0,0-.78-.48,4,4,0,0,0-1.09-.18v3.78a2.27,2.27,0,0,0,.19,1.12.83.83,0,0,0,.75.29,3.94,3.94,0,0,0,1.51-.33,5.75,5.75,0,0,0,1.43-.9,6.67,6.67,0,0,0,1.22-1.38,7.69,7.69,0,0,0,.88-1.74h.16Z" style="fill:#16181a"/><path d="M39.15,188.83a2.76,2.76,0,0,1-.74.92,3.52,3.52,0,0,1-1.13.6,4.58,4.58,0,0,1-1.42.22h-.44L35,190.5l-.56-.11-.72-.2-.44-.13L33,190l-.28-.1-.33-.13-.16-3.18h.16a12.07,12.07,0,0,0,.84,1.59,6.85,6.85,0,0,0,1,1.21,4.13,4.13,0,0,0,1,.76,2.32,2.32,0,0,0,1,.26,1.1,1.1,0,0,0,1.17-1v-.12a1.21,1.21,0,0,0-.33-.87,3.14,3.14,0,0,0-1.18-.63l-.78-.27a6.09,6.09,0,0,1-2.19-1.16,2,2,0,0,1-.66-1.52,2.07,2.07,0,0,1,.26-1,2.86,2.86,0,0,1,.72-.83,3.67,3.67,0,0,1,1.08-.55,4.19,4.19,0,0,1,1.36-.2,9.36,9.36,0,0,1,1.3.1,12,12,0,0,1,1.55.35l.16,2.62H38.5a7,7,0,0,0-.61-1.15,6,6,0,0,0-.75-.91,3.46,3.46,0,0,0-.82-.6,1.71,1.71,0,0,0-.8-.22,1.15,1.15,0,0,0-.79.31,1,1,0,0,0-.33.76c0,.67.51,1.15,1.52,1.46l1.09.35a4.74,4.74,0,0,1,1.86,1,2,2,0,0,1,.58,1.44A2.61,2.61,0,0,1,39.15,188.83Z" style="fill:#16181a"/><path d="M45.28,190.3a3.35,3.35,0,0,1-1.32.27,2.44,2.44,0,0,1-1.58-.51,1.63,1.63,0,0,1-.56-.8,4.45,4.45,0,0,1-.16-1.36v-4.8h-2l.59-.27.47-.26.43-.27.5-.35A15.46,15.46,0,0,0,43,180.88l.42-.41c.12-.12.24-.25.35-.38s.22-.28.33-.43l.39-.55v3.26h2l-.4.74h-1.6v4.62a2.14,2.14,0,0,0,.3,1.31,1.21,1.21,0,0,0,1,.39h.42a2.85,2.85,0,0,0,.5-.14l.1.13A8.31,8.31,0,0,1,45.28,190.3Z" style="fill:#16181a"/><path d="M50.07,190.12a1.46,1.46,0,0,1-1.08.45A1.54,1.54,0,0,1,47.45,189v0h0a1.46,1.46,0,0,1,.45-1.08A1.55,1.55,0,0,1,50.53,189h0A1.48,1.48,0,0,1,50.07,190.12Z" style="fill:#16181a"/><path d="M365,196a2,2,0,0,1-2-2v-9a11,11,0,0,1,11-11h54.22a2,2,0,0,1,2,2v9a11,11,0,0,1-11,11Z" style="fill:#c3ccd4"/><path d="M428.22,175a1,1,0,0,1,1,1v9a10,10,0,0,1-10,10H365a1,1,0,0,1-1-1v-9a10,10,0,0,1,10-10h54.22m0-2H374a12,12,0,0,0-12,12v9a3,3,0,0,0,3,3h54.22a12,12,0,0,0,12-12v-9A3,3,0,0,0,428.22,173Z" style="fill:#16181a"/><path d="M428.22,173a3,3,0,0,1,3,3v9a12,12,0,0,1-12,12H365a3,3,0,0,1-3-3v-9a12,12,0,0,1,12-12h54.22m0-2H374a14,14,0,0,0-14,14v9a5,5,0,0,0,5,5h54.22a14,14,0,0,0,14-14v-9A5,5,0,0,0,428.22,171Z" style="fill:#c3ccd4"/><path d="M380.47,190.36v-.19a3,3,0,0,0,.78-.13,1,1,0,0,0,.42-.32.84.84,0,0,0,.21-.48,1,1,0,0,0,0-.25v-5.33a6.17,6.17,0,0,0,0-.86,1,1,0,0,0-.18-.46.7.7,0,0,0-.48-.26,2.07,2.07,0,0,0-.61-.06h-.35v-.18l.25-.09.18-.07,1-.41c.37-.16.72-.35,1.17-.6l.51-.29.41-.22.29-.18.28-.18.31-.21.39-.27v9.18a5.61,5.61,0,0,0,0,.58,2.22,2.22,0,0,0,.09.37,1.35,1.35,0,0,0,.15.26.84.84,0,0,0,.42.32,3,3,0,0,0,.78.13v.19Z" style="fill:#16181a"/><path d="M393.41,188.86l-.74.53a6.28,6.28,0,0,1-.78.48l-.54.29-.46.21-.48.18-.59.18-.08-.13.19-.14.14-.09a6.85,6.85,0,0,0,1.74-1.74,6.43,6.43,0,0,0,.54-1l.12-.3a1.18,1.18,0,0,1,.1-.3,1.61,1.61,0,0,1,.1-.36,1.77,1.77,0,0,1,.13-.47l-.19.15-.16.12a2.68,2.68,0,0,1-1.54.38,4.61,4.61,0,0,1-1.51-.26,4.07,4.07,0,0,1-1.21-.7,3.1,3.1,0,0,1-1.09-2.39,3.65,3.65,0,0,1,.34-1.56,4.2,4.2,0,0,1,.94-1.27,4.55,4.55,0,0,1,1.39-.86,4.49,4.49,0,0,1,1.7-.31,4.74,4.74,0,0,1,1.82.34,4.18,4.18,0,0,1,1.44.94,4.51,4.51,0,0,1,.94,1.42A4.6,4.6,0,0,1,396,184,6.05,6.05,0,0,1,393.41,188.86Zm-1.9-9.18c-1.05,0-1.57,1.14-1.57,3.42a6.86,6.86,0,0,0,.37,2.62,1.22,1.22,0,0,0,1.18.84c1,0,1.54-1.1,1.54-3.3C393,180.87,392.5,179.68,391.51,179.68Z" style="fill:#16181a"/><path d="M403,188.86l-.74.53a6.28,6.28,0,0,1-.78.48l-.54.29-.46.21-.48.18-.59.18-.08-.13.19-.14.14-.09a6.85,6.85,0,0,0,1.74-1.74,6.43,6.43,0,0,0,.54-1l.12-.3a1.18,1.18,0,0,1,.1-.3,1.61,1.61,0,0,1,.1-.36,1.77,1.77,0,0,1,.13-.47l-.19.15-.16.12a2.68,2.68,0,0,1-1.54.38,4.61,4.61,0,0,1-1.51-.26,4.07,4.07,0,0,1-1.21-.7,3.1,3.1,0,0,1-1.09-2.39,3.51,3.51,0,0,1,.34-1.56,4.2,4.2,0,0,1,.94-1.27,4.55,4.55,0,0,1,1.39-.86,4.49,4.49,0,0,1,1.7-.31,4.74,4.74,0,0,1,1.82.34,4.18,4.18,0,0,1,1.44.94,4.51,4.51,0,0,1,.94,1.42,4.61,4.61,0,0,1,.34,1.8A6.06,6.06,0,0,1,403,188.86Zm-1.9-9.18c-1.05,0-1.57,1.14-1.57,3.42a6.86,6.86,0,0,0,.37,2.62,1.22,1.22,0,0,0,1.18.84c1,0,1.54-1.1,1.54-3.3,0-2.39-.47-3.58-1.48-3.58Z" style="fill:#16181a"/><path d="M406.9,190.36v-.19a3,3,0,0,0,.78-.13,1,1,0,0,0,.42-.32.84.84,0,0,0,.21-.48v-5.58a6.17,6.17,0,0,0,0-.86,1,1,0,0,0-.18-.46.7.7,0,0,0-.48-.26A2,2,0,0,0,407,182h-.35v-.18l.25-.09.18-.07,1-.41a9.23,9.23,0,0,0,1.17-.6l.51-.29.41-.22.29-.18.27-.18.31-.21.39-.27v9.18a5.61,5.61,0,0,0,0,.58,1.18,1.18,0,0,0,.09.37,1.35,1.35,0,0,0,.15.26.84.84,0,0,0,.42.32,3,3,0,0,0,.78.13v.19Z" style="fill:#16181a"/><path d="M182.38,337.16,170.52,334l-2.37,8.89-1.6-.43,5-18.7,1.6.43-2.22,8.35,11.86,3.16,2.22-8.35,1.63.43-5,18.7L180,346Z" style="fill:#f2f2f6"/><path d="M204.46,329.84c5.64.47,9,5.11,8.54,10.75s-4.55,9.66-10.19,9.19-9-5.11-8.54-10.75S198.8,329.37,204.46,329.84Zm-.12,1.5c-4.68-.39-7.92,2.92-8.33,7.84s2.25,8.71,6.93,9.1,7.93-3,8.33-7.83-2.27-8.72-6.93-9.11Z" style="fill:#f2f2f6"/><path d="M238.92,331.35l-5.29,17.79-.63.06-8.76-16.37L226,349.91l-1.65.17-1.93-19.25,2.45-.25,8.15,15.3,4.92-16.61,2.48-.25,1.93,19.25-1.67.17Z" style="fill:#f2f2f6"/><path d="M249.61,327l11.83-3.24.4,1.45L251.6,328l1.89,6.91,10-2.75.4,1.46-10,2.75,2,7.38,10.24-2.8.4,1.45-11.83,3.24Z" style="fill:#f2f2f6"/><path d="M109.28,151.64a6.27,6.27,0,0,1-4-7.91,1.12,1.12,0,0,1,.14-.37,5.67,5.67,0,0,1,4.39-3.83l.25,2.08a3.74,3.74,0,0,0-2.82,2.41,4.52,4.52,0,0,0,8.47,3.1,3.7,3.7,0,0,0-.59-3.66l1.54-1.43a5.73,5.73,0,0,1,.88,5.76,6.27,6.27,0,0,1-7.91,4h0a2,2,0,0,1-.34-.12Z" style="fill:#c3ccd4"/><path d="M109.42,134.31l3.93-7.59,1.71.88-2.92,5.65,2.87,1.49,2.86-5.53,1.71.88-2.86,5.53,3.07,1.59,2.92-5.65,1.71.88L120.51,140Z" style="fill:#c3ccd4"/><path d="M116,122.3l1.21-1.82,8.78,5.85,3-4.58,1.6,1.07-4.26,6.4Z" style="fill:#c3ccd4"/><path d="M123.2,112l5.5-6.55,1.48,1.24-4.09,4.87,2.48,2.08,4-4.77,1.48,1.24-4,4.77,2.65,2.22,4.09-4.87,1.48,1.24-5.5,6.55Z" style="fill:#c3ccd4"/><path d="M132.31,101.61l4.48-4.19c1.67-1.56,3.57-1.39,4.77-.1a2.79,2.79,0,0,1,.37,3.57,3.08,3.08,0,0,1,3.86.59c1.32,1.41,1.36,3.34-.35,4.94l-4.61,4.3Zm7.68-.11a1.62,1.62,0,0,0-2.21-2.37l-2.56,2.39,2.21,2.37Zm3.75,3.87a1.75,1.75,0,0,0-2.16-2.76,1.8,1.8,0,0,0-.2.19l-2.62,2.45,2.36,2.53Z" style="fill:#c3ccd4"/><path d="M151.74,95.34,150,96.61l2.73,3.78L151,101.67l-7.31-10.12,4.44-3.21a3.79,3.79,0,0,1,5.34.45h0a3.92,3.92,0,0,1,.25.32,3.5,3.5,0,0,1-.25,4.7L158.76,96l-2,1.48ZM149,90.08l-2.43,1.75L148.85,95l2.43-1.75a2,2,0,1,0-1.58-3.68h0A2,2,0,0,0,149,90.08Z" style="fill:#c3ccd4"/><path d="M167.61,88.25l-5.2,2.82.33,2.54-2.11,1.14L159,81.44l2.4-1.3,10.25,8.64-2.11,1.14Zm-5.57.83,4.11-2.23-5.06-4.43Z" style="fill:#c3ccd4"/><path d="M172,77.28l-3.5,1.41-.72-1.79,9-3.64.72,1.79L174,76.46l4,9.79-2,.82Z" style="fill:#c3ccd4"/><path d="M181.19,71.91l2.09-.63,3.61,11.94-2.09.63Z" style="fill:#c3ccd4"/><path d="M191.33,72.65l1.74,8.92-2.15.42-2.38-12.24,2.2-.43,7.95,7.47L197,68.1l2.15-.42,2.38,12.24-2.07.4Z" style="fill:#c3ccd4"/><path d="M210.93,66.45a5.87,5.87,0,0,1,5.16,2.33l-1.74,1.1A4,4,0,0,0,211,68.39a4.52,4.52,0,0,0,.47,9,4.61,4.61,0,0,0,2.89-1.27l-.1-1.94-3.72.19-.1-1.92,5.9-.31.24,4.67a6.75,6.75,0,0,1-5,2.53,6.46,6.46,0,0,1-.67-12.91Z" style="fill:#c3ccd4"/><path d="M228.63,67.05l8.47,1.15-.26,1.91-6.3-.86-.44,3.21,6.17.84L236,75.21l-6.17-.84-.47,3.43,6.3.86-.26,1.91L227,79.42Z" style="fill:#c3ccd4"/><path d="M245,77.79l-4.63,3.83L237.84,81,244,76l-2.7-7,2.53.67,1.94,5.25L250,71.26l2.55.67-5.78,4.74,2.86,7.39-2.53-.67Z" style="fill:#c3ccd4"/><path d="M253.68,78.89a6.26,6.26,0,0,1,8-3.7h0l.35.14a5.68,5.68,0,0,1,3.67,4.52l-2.09.18a3.76,3.76,0,0,0-2.32-2.9A4.52,4.52,0,0,0,258,85.5a3.72,3.72,0,0,0,3.68-.46L263,86.62a5.71,5.71,0,0,1-5.79.67,6.28,6.28,0,0,1-3.65-8.09A1.66,1.66,0,0,1,253.68,78.89Z" style="fill:#c3ccd4"/><path d="M271,79.66l7.46,4.19-.94,1.68L272,82.41l-1.59,2.82,5.43,3L274.9,90l-5.43-3-1.7,3,5.55,3-.94,1.68-7.45-4.19Z" style="fill:#c3ccd4"/><path d="M282.79,86.65l1.78,1.28-6.15,8.57,4.47,3.21-1.12,1.57-6.25-4.48Z" style="fill:#c3ccd4"/><path d="M292.79,94.19l1.63,1.46-7,7.87,4.1,3.66-1.28,1.44-5.74-5.12Z" style="fill:#c3ccd4"/><path d="M302,102.74l5.72,6.35-1.43,1.29L302,105.66l-2.41,2.16,4.17,4.63-1.43,1.29-4.17-4.63-2.57,2.31,4.25,4.73-1.43,1.29-5.72-6.35Z" style="fill:#c3ccd4"/><path d="M309.5,117l-7.5,5.13-1.24-1.8L311,113.24l1.28,1.85-3.65,10.28,7.28-5,1.24,1.8-10.26,7.09-1.2-1.74Z" style="fill:#c3ccd4"/><path d="M314.31,129.44a6.24,6.24,0,0,1,8.48,2.49h0a2.31,2.31,0,0,1,.18.35,5.68,5.68,0,0,1-.2,5.82l-1.7-1.24a3.73,3.73,0,0,0,.16-3.71,4.52,4.52,0,0,0-8,4.07,3.71,3.71,0,0,0,3.08,2.07v2.1a5.71,5.71,0,0,1-4.81-3.29,6.25,6.25,0,0,1,2.45-8.49h0l.33-.17Z" style="fill:#c3ccd4"/><path d="M326.89,141.41l2.87,8.05-1.82.65-2.13-6-3,1.08,2.09,5.87-1.82.65L321,145.84,317.68,147l2.13,6-1.82.65-2.87-8.05Z" style="fill:#c3ccd4"/><path d="M216.61,56A129,129,0,1,1,125.4,93.78,129,129,0,0,1,216.61,56m0-6a135,135,0,1,0,135,135h0A135,135,0,0,0,216.61,50Z" style="fill:#abb4bb"/><path d="M168.23,230a48.84,48.84,0,0,1-12.61-1.54,32.71,32.71,0,0,1-10.47-4.77,25.32,25.32,0,0,1-7.32-7.87A21.3,21.3,0,0,1,135,204.93a19,19,0,0,1,4.88-13.33,17.19,17.19,0,0,1,13-5.51,16.89,16.89,0,0,1,17.11,17.1,23.86,23.86,0,0,1-.33,3.64c-.19,1.13-.41,2.35-.67,3.69l-.08.32a12.9,12.9,0,0,0-.32,1.77c-.06.66-.09,1.25-.09,1.78h0a3.35,3.35,0,0,0,1.55.3c1.35,0,2.43-.38,3.63-2.25,1.59-2.47,2.39-6.19,2.39-11.06,0-5.74-1.23-10.54-3.66-14.24a13.54,13.54,0,0,0-8.75-6.22l-2.69-.61a3.46,3.46,0,0,1-2.68-3.37v-6.75a3.46,3.46,0,0,1,2.67-3.37l2.68-.62c2.49-.57,3.53-.89,3.93-1a9.81,9.81,0,0,0,1.72-.82,5.66,5.66,0,0,0,1.93-2.34,8.52,8.52,0,0,0,1-3.92,4,4,0,0,0-1.27-3.23,5.32,5.32,0,0,0-4-1.34,6.65,6.65,0,0,0-4,1.1,3.34,3.34,0,0,0-.68.55c-.17.2-.66.8-1.7,2.32L159,159.63a3.43,3.43,0,0,1-3.93,1.32l-6.82-2.27a3.45,3.45,0,0,1-2.2-4.33l1-3.25a29.61,29.61,0,0,1,11-15.58A30.72,30.72,0,0,1,176.32,130a36.49,36.49,0,0,1,11.05,1.63,28.54,28.54,0,0,1,9.35,5,24.7,24.7,0,0,1,6.46,7.95,22.5,22.5,0,0,1,2.43,10.29,25.29,25.29,0,0,1-1.35,8l-.06.19-.08.19a22.86,22.86,0,0,1-2.1,4.11c.47.48.92,1,1.35,1.52l2,2.46.14.19a31.94,31.94,0,0,1,5.84,18.63,37,37,0,0,1-3.44,15.77,39.64,39.64,0,0,1-9.32,12.71A43.51,43.51,0,0,1,184.9,227,46,46,0,0,1,168.23,230Z" style="fill:#abb4bb"/><path d="M252.43,230a38.29,38.29,0,0,1-9.65-1.28,47.57,47.57,0,0,1-9.34-3.57,52.17,52.17,0,0,1-8.54-5.46,45.87,45.87,0,0,1-7.31-7.16c-7.21-8.75-10.87-19.68-10.87-32.47s3.66-23.74,10.88-32.59a45.82,45.82,0,0,1,7.3-7.16,50.06,50.06,0,0,1,8.51-5.41,50.57,50.57,0,0,1,9.24-3.54,37.36,37.36,0,0,1,9.78-1.36,41.94,41.94,0,0,1,19,4.85,49.86,49.86,0,0,1,15.86,12.56c7.25,8.7,10.93,19.69,10.93,32.65s-3.68,23.83-10.93,32.53a49.86,49.86,0,0,1-15.86,12.56A41.94,41.94,0,0,1,252.43,230Zm-.13-84.69c-1,0-2.25,2.12-3.22,5.28-1.86,6.09-2.8,16-2.8,29.47,0,13.69.95,23.62,2.84,29.52.61,1.91,1.88,5.11,3.55,5.11,1.12,0,2.42-2.63,3.23-5.23,1.86-6,2.8-15.94,2.8-29.4,0-13.67-1-23.61-2.9-29.55C255.41,149.29,254,145.31,252.3,145.31Z" style="fill:#abb4bb"/><path d="M201.63,203a32.91,32.91,0,0,1-7.71,10.51,36.57,36.57,0,0,1-11.51,7,38.94,38.94,0,0,1-14.18,2.55,41.68,41.68,0,0,1-10.82-1.3,25.91,25.91,0,0,1-8.27-3.74,18.21,18.21,0,0,1-5.34-5.72,14.31,14.31,0,0,1-1.93-7.4,12.19,12.19,0,0,1,3-8.64,10.27,10.27,0,0,1,7.89-3.29A10,10,0,0,1,163,203.19a16.15,16.15,0,0,1-.25,2.55c-.16,1-.37,2.18-.62,3.42a20,20,0,0,0-.5,2.8q-.12,1.31-.12,2.43a6.52,6.52,0,0,0,2.36,5.22,9.14,9.14,0,0,0,6.1,2q6,0,9.45-5.43t3.48-14.79q0-10.73-4.79-18a20.54,20.54,0,0,0-13-9.18v-1.24c2.15-.5,3.7-.92,4.66-1.25a16.59,16.59,0,0,0,2.92-1.37,12.49,12.49,0,0,0,4.6-5.18,15.43,15.43,0,0,0,1.74-7,10.88,10.88,0,0,0-3.42-8.24,12.22,12.22,0,0,0-8.76-3.24,13.51,13.51,0,0,0-8,2.36,9.59,9.59,0,0,0-1.93,1.68,35.28,35.28,0,0,0-2.18,2.92l-1.12-.37a22.75,22.75,0,0,1,8.46-12,23.83,23.83,0,0,1,14.18-4.24,29.37,29.37,0,0,1,9,1.3,21.31,21.31,0,0,1,7.09,3.74,17.52,17.52,0,0,1,4.66,5.72,15.49,15.49,0,0,1,1.68,7.15,18.51,18.51,0,0,1-1,5.84,13.82,13.82,0,0,1-2.24,3.92,23.68,23.68,0,0,1-4.1,3.42q1.6,1,2.79,1.8a23,23,0,0,1,2.12,1.62,14.85,14.85,0,0,1,1.74,1.8l1.8,2.24a25.06,25.06,0,0,1,4.6,14.68A30.28,30.28,0,0,1,201.63,203Z" style="fill:#fff"/><path d="M168.23,224.82A43.26,43.26,0,0,1,157,223.45a27.42,27.42,0,0,1-8.82-4,19.93,19.93,0,0,1-5.84-6.26,16.08,16.08,0,0,1-2.17-8.27,13.92,13.92,0,0,1,3.51-9.81,11.94,11.94,0,0,1,9.16-3.85,11.72,11.72,0,0,1,11.93,11.92,18.76,18.76,0,0,1-.27,2.83c-.17,1-.38,2.21-.64,3.48a20.13,20.13,0,0,0-.47,2.62c-.07.82-.11,1.58-.11,2.27a4.76,4.76,0,0,0,1.74,3.9,7.46,7.46,0,0,0,5,1.58c3.38,0,6-1.51,8-4.63,2.13-3.32,3.21-8,3.21-13.86,0-6.77-1.51-12.52-4.5-17.08a18.7,18.7,0,0,0-11.94-8.43,1.73,1.73,0,0,1-1.34-1.69v-1.24a1.72,1.72,0,0,1,1.34-1.69c2.08-.48,3.59-.88,4.48-1.19a15.38,15.38,0,0,0,2.62-1.24,10.67,10.67,0,0,0,3.93-4.46,13.81,13.81,0,0,0,1.56-6.27,9.12,9.12,0,0,0-2.89-7,10.42,10.42,0,0,0-7.57-2.77,11.75,11.75,0,0,0-7,2,8,8,0,0,0-1.61,1.4,32,32,0,0,0-2.06,2.77,1.73,1.73,0,0,1-2,.66l-1.12-.37a1.72,1.72,0,0,1-1.1-2.16,24.48,24.48,0,0,1,9.1-12.93,25.61,25.61,0,0,1,15.18-4.57,31.34,31.34,0,0,1,9.48,1.39,23.09,23.09,0,0,1,7.65,4,19.33,19.33,0,0,1,5.11,6.27,17.35,17.35,0,0,1,1.87,7.94,20.22,20.22,0,0,1-1.08,6.39,15.74,15.74,0,0,1-2.58,4.5,17.84,17.84,0,0,1-2.35,2.18l.72.49a25.3,25.3,0,0,1,2.27,1.73,17,17,0,0,1,2,2l1.81,2.25a26.91,26.91,0,0,1,5,15.76,31.93,31.93,0,0,1-3,13.59h0a34.56,34.56,0,0,1-8.11,11.06A38.08,38.08,0,0,1,183,222.15,40.81,40.81,0,0,1,168.23,224.82Zm-15.42-30.1a8.57,8.57,0,0,0-6.63,2.74,10.5,10.5,0,0,0-2.58,7.47,12.76,12.76,0,0,0,1.69,6.53,16.78,16.78,0,0,0,4.85,5.19,24.29,24.29,0,0,0,7.72,3.47,36.64,36.64,0,0,0,5.08.95l-.17-.14a8.16,8.16,0,0,1-3-6.54c0-.8.05-1.68.13-2.59a19.86,19.86,0,0,1,.55-3.06c.22-1.14.42-2.25.59-3.27a15.15,15.15,0,0,0,.22-2.28,8.26,8.26,0,0,0-8.47-8.47Zm16.42-21a22.49,22.49,0,0,1,10.34,8.73c3.36,5.13,5.07,11.51,5.07,19,0,6.55-1.27,11.84-3.76,15.72A15.51,15.51,0,0,1,178.5,220c1.12-.31,2.22-.68,3.29-1.09a34.67,34.67,0,0,0,11-6.69,31.22,31.22,0,0,0,7.31-10h0a28.63,28.63,0,0,0,2.64-12.14,23.52,23.52,0,0,0-4.29-13.69l-1.73-2.14a13.6,13.6,0,0,0-1.53-1.59c-.57-.48-1.23-1-2-1.49s-1.68-1.11-2.73-1.76a1.73,1.73,0,0,1-.08-2.89,21.78,21.78,0,0,0,3.79-3.13A12.27,12.27,0,0,0,196.1,160a16.6,16.6,0,0,0,.88-5.2,13.9,13.9,0,0,0-1.5-6.37,15.89,15.89,0,0,0-4.21-5.16,19.66,19.66,0,0,0-6.52-3.43,27.92,27.92,0,0,0-8.43-1.22,22.28,22.28,0,0,0-13.18,3.92,19.54,19.54,0,0,0-4.56,4.56,15.38,15.38,0,0,1,8.29-2.24,13.93,13.93,0,0,1,9.95,3.72,12.57,12.57,0,0,1,4,9.49,17.19,17.19,0,0,1-1.93,7.83,14.26,14.26,0,0,1-5.24,5.87,18.9,18.9,0,0,1-3.25,1.53Z"/><path d="M282,208.17A42.93,42.93,0,0,1,268.34,219a35,35,0,0,1-15.91,4.1,30.85,30.85,0,0,1-7.9-1.06,39.7,39.7,0,0,1-8-3,44.63,44.63,0,0,1-7.4-4.73,39,39,0,0,1-6.22-6.09q-9.33-11.32-9.33-28.11T223,151.83a39,39,0,0,1,6.22-6.09,42.82,42.82,0,0,1,7.34-4.66,42.27,42.27,0,0,1,8-3.05,30,30,0,0,1,8-1.12,35,35,0,0,1,15.91,4.1A42.93,42.93,0,0,1,282,151.83q9.33,11.19,9.33,28.23T282,208.17Zm-19.65-59.79q-3.22-10-10.07-10t-9.82,10.17q-3.12,10.17-3.11,31.49,0,21.7,3.17,31.62t10.13,9.92q6.72,0,9.83-10.1t3.11-31.44Q265.61,158.36,262.37,148.38Z" style="fill:#fff"/><path d="M252.43,224.82a33.46,33.46,0,0,1-8.34-1.11,41.31,41.31,0,0,1-8.3-3.18,46.38,46.38,0,0,1-7.69-4.91,41.13,41.13,0,0,1-6.49-6.36c-6.44-7.82-9.71-17.64-9.71-29.2s3.27-21.41,9.71-29.32a41.58,41.58,0,0,1,6.49-6.36,44.71,44.71,0,0,1,15.91-8,32.18,32.18,0,0,1,8.42-1.18,36.88,36.88,0,0,1,16.69,4.29,44.6,44.6,0,0,1,14.23,11.26c6.45,7.74,9.73,17.61,9.73,29.33s-3.28,21.47-9.73,29.21a44.6,44.6,0,0,1-14.23,11.26A36.88,36.88,0,0,1,252.43,224.82Zm-7-85.25-.49.12a41.94,41.94,0,0,0-7.64,2.93,40.62,40.62,0,0,0-7,4.48,37.7,37.7,0,0,0-6,5.82c-5.93,7.28-8.94,16.41-8.94,27.14s3,19.82,8.93,27a37.8,37.8,0,0,0,6,5.83,42.88,42.88,0,0,0,7.11,4.55,38.75,38.75,0,0,0,7.61,2.91l.65.17a19.48,19.48,0,0,1-4.72-8.32c-2.16-6.75-3.25-17.57-3.25-32.15,0-14.32,1.07-25.09,3.18-32A20.09,20.09,0,0,1,245.41,139.57Zm13.83-.12a19.82,19.82,0,0,1,4.78,8.4h0c2.2,6.8,3.31,17.63,3.31,32.21,0,14.33-1.07,25.07-3.18,31.94a20.17,20.17,0,0,1-4.61,8.48,38.34,38.34,0,0,0,8-3,41.19,41.19,0,0,0,13.14-10.39h0c5.92-7.11,8.92-16.19,8.92-27s-3-20-8.92-27.12a41.19,41.19,0,0,0-13.14-10.39A37.74,37.74,0,0,0,259.24,139.45Zm-6.94.68c-3.66,0-6.33,2.92-8.17,8.94-2,6.58-3,17-3,31,0,14.23,1,24.69,3.09,31.1,1.88,5.86,4.66,8.71,8.49,8.71,3.66,0,6.34-2.9,8.18-8.88,2-6.54,3-17,3-30.93,0-14.21-1.06-24.69-3.15-31.15h0C258.81,143,256.06,140.13,252.3,140.13Z"/></svg>