<?xml version="1.0" encoding="utf-8"?>
<!-- Generator: Adobe Illustrator 28.3.0, SVG Export Plug-In . SVG Version: 6.00 Build 0)  -->
<svg version="1.1" id="Layer_1" xmlns="http://www.w3.org/2000/svg" xmlns:xlink="http://www.w3.org/1999/xlink" x="0px" y="0px"
	 viewBox="0 0 433.2 370" style="enable-background:new 0 0 433.2 370;" xml:space="preserve">
<style type="text/css">
	.st0{fill:#ABB4BB;}
	.st1{fill:#16181A;}
	.st2{fill:#438BE2;}
	.st3{opacity:0.5;}
	.st4{fill:#C3CCD4;}
	.st5{fill:#F2F2F6;}
	.st6{display:none;}
	.st7{display:inline;}
	.st8{fill:#FFFFFF;}
	.st9{fill:#231F20;}
</style>
<path class="st0" d="M216.6,2c101,0.1,182.9,82,182.8,183.1s-82,182.9-183.1,182.8s-182.9-82-182.8-183.1
	C33.6,83.8,115.6,1.9,216.6,2C216.6,2,216.6,2,216.6,2 M216.6,0c-102.2,0-185,82.8-185,185s82.8,185,185,185s185-82.8,185-185
	S318.8,0,216.6,0z"/>
<path class="st1" d="M216.6,363c-98.2,0-178-79.9-178-178S118.5,7,216.6,7s178,79.8,178,178S314.8,363,216.6,363z M216.6,53
	c-72.9,0-132,59.2-131.9,132.1c0,72.9,59.2,132,132.1,131.9c72.9,0,132-59.2,131.9-132.1c0-35-13.9-68.5-38.7-93.3
	C285.2,66.9,251.6,53,216.6,53z"/>
<path class="st0" d="M216.6,10c97.1-0.2,175.9,78.4,176.1,175.4c0.2,97.1-78.4,175.9-175.4,176.1c-97.1,0.2-175.9-78.4-176.1-175.4
	c-0.1-46.8,18.5-91.8,51.7-124.9C125.7,28.5,170.2,10.1,216.6,10 M216.6,320c74.6,0,135-60.4,135-135c0-74.6-60.4-135-135-135
	s-135,60.4-135,135c0,35.8,14.2,70.1,39.5,95.5C146.5,305.8,180.8,320,216.6,320 M216.6,4c-100,0-181,81-181,181s81,181,181,181
	s181-81,181-181l0,0l0,0C397.6,85,316.6,4,216.6,4z M216.6,314c-71.2,0-129-57.8-129-129s57.8-129,129-129c71.2,0,129,57.8,129,129
	c0,34.2-13.6,67-37.8,91.2C283.6,300.4,250.8,314,216.6,314z"/>
<path class="st2" d="M275.2,331.8l-2.2-5.6c1.8-0.7,3.6-1.5,5.4-2.3l2.4,5.5C279,330.2,277.1,331,275.2,331.8z M155.9,330.9
	c-1.9-0.8-3.7-1.6-5.6-2.5l2.5-5.5c1.8,0.8,3.6,1.6,5.4,2.4L155.9,330.9z M288.2,325.9l-2.7-5.4c1.7-0.9,3.5-1.8,5.2-2.8l2.9,5.2
	C291.8,324,290,325,288.2,325.9L288.2,325.9z M143,324.9c-1.8-1-3.6-1.9-5.3-3l3-5.2c1.7,1,3.4,1.9,5.1,2.8L143,324.9z M300.6,318.9
	l-3.2-5.1c1.6-1,3.3-2.1,4.9-3.2l3.4,5C304,316.6,302.3,317.8,300.6,318.9L300.6,318.9z M130.7,317.7c-1.7-1.1-3.4-2.2-5.1-3.4
	l3.5-4.9c1.6,1.1,3.2,2.2,4.9,3.3L130.7,317.7z M312.3,310.7l-3.6-4.7c1.5-1.2,3.1-2.4,4.6-3.7l3.8,4.6
	C315.6,308.2,314,309.5,312.3,310.7L312.3,310.7z M119.1,309.4c-1.6-1.2-3.2-2.5-4.7-3.9l3.9-4.5c1.5,1.3,3,2.5,4.6,3.7L119.1,309.4
	z M323.3,301.6l-4-4.4c1.4-1.3,2.9-2.7,4.3-4.1l4.2,4.3C326.3,298.7,324.8,300.1,323.3,301.6L323.3,301.6z M108.3,300.1
	c-1.5-1.4-2.9-2.8-4.4-4.3l4.3-4.2c1.4,1.4,2.8,2.8,4.2,4.1L108.3,300.1z M333.3,291.5l-4.4-4c1.3-1.4,2.6-2.9,3.9-4.4l4.6,3.9
	C336.1,288.4,334.7,289.9,333.3,291.5L333.3,291.5z M98.3,289.9c-1.3-1.5-2.7-3.1-4-4.6l4.7-3.8c1.2,1.5,2.5,3,3.8,4.5L98.3,289.9z
	 M342.4,280.5l-4.8-3.6c1.2-1.6,2.4-3.1,3.5-4.8l4.9,3.4C344.9,277.2,343.7,278.8,342.4,280.5L342.4,280.5z M89.4,278.7
	c-1.2-1.6-2.4-3.3-3.5-5l5-3.4c1.1,1.6,2.2,3.2,3.4,4.8L89.4,278.7z M350.6,268.7l-5.1-3.2c1-1.6,2-3.3,3-5l5.2,3
	C352.7,265.3,351.7,267,350.6,268.7L350.6,268.7z M81.5,266.9c-1.1-1.7-2.1-3.5-3.1-5.3l5.2-2.9c1,1.7,1.9,3.4,3,5.1L81.5,266.9z
	 M357.6,256.4l-5.4-2.7c0.9-1.7,1.7-3.5,2.5-5.3l5.5,2.5C359.4,252.7,358.5,254.6,357.6,256.4z M74.6,254.4
	c-0.9-1.8-1.8-3.7-2.6-5.6l5.5-2.4c0.8,1.8,1.6,3.6,2.5,5.3L74.6,254.4z M363.4,243.4l-5.6-2.2c0.7-1.8,1.4-3.7,2.1-5.5l5.7,2
	C364.9,239.7,364.2,241.5,363.4,243.4L363.4,243.4z M68.9,241.3c-0.7-1.9-1.4-3.8-2.1-5.8l5.7-1.9c0.6,1.9,1.3,3.7,2,5.6L68.9,241.3
	z M368.1,229.9l-5.8-1.7c0.5-1.9,1.1-3.8,1.6-5.7l5.8,1.5C369.2,226,368.7,228,368.1,229.9L368.1,229.9z M64.4,227.7
	c-0.5-2-1.1-3.9-1.5-5.9l5.8-1.4c0.4,1.9,0.9,3.8,1.5,5.7L64.4,227.7z M371.5,216.1l-5.9-1.2c0.4-1.9,0.7-3.9,1-5.8l5.9,0.9
	C372.3,212.1,372,214.1,371.5,216.1z M61.2,213.8c-0.4-2-0.7-4-1-6l5.9-0.9c0.3,1.9,0.6,3.9,1,5.8L61.2,213.8z M373.7,202l-6-0.6
	c0.2-2,0.4-3.9,0.5-5.9l6,0.4C374.1,197.9,373.9,200,373.7,202z M59.3,199.7c-0.2-2-0.3-4.1-0.4-6.1l6-0.3c0.1,2,0.2,3.9,0.4,5.9
	L59.3,199.7z M374.6,187.8l-6-0.1v-5.9l6-0.1v3.4C374.6,185.9,374.6,186.9,374.6,187.8z M58.6,185.4V185c0-1.9,0-3.8,0.1-5.7l6,0.2
	c-0.1,1.8-0.1,3.6-0.1,5.5v0.4L58.6,185.4z M368.2,173.9c-0.1-2-0.3-3.9-0.5-5.9l6-0.7c0.2,2,0.4,4.1,0.6,6.1L368.2,173.9z
	 M65.2,171.7l-6-0.5c0.2-2,0.4-4.1,0.7-6.1l6,0.8C65.6,167.8,65.4,169.8,65.2,171.7L65.2,171.7z M366.6,160.3
	c-0.3-1.9-0.7-3.9-1.1-5.8l5.9-1.2c0.4,2,0.8,4,1.1,6L366.6,160.3z M67,158.1l-5.9-1.1c0.4-2,0.8-4,1.2-6l5.9,1.3
	C67.7,154.2,67.3,156.2,67,158.1z M363.8,146.9c-0.5-1.9-1-3.8-1.6-5.7l5.8-1.7c0.6,1.9,1.1,3.9,1.6,5.9L363.8,146.9z M70,144.7
	l-5.8-1.6c0.5-2,1.1-3.9,1.7-5.9l5.7,1.8C71.1,141,70.5,142.9,70,144.7z M359.8,133.7c-0.7-1.8-1.4-3.7-2.1-5.5l5.6-2.2
	c0.8,1.9,1.5,3.8,2.2,5.7L359.8,133.7z M74.2,131.7l-5.6-2.1c0.7-1.9,1.5-3.8,2.2-5.7l5.5,2.3C75.6,128,74.9,129.9,74.2,131.7z
	 M354.5,121c-0.8-1.8-1.7-3.5-2.6-5.3l5.3-2.7c0.9,1.8,1.8,3.7,2.7,5.5L354.5,121z M79.6,119.1l-5.4-2.6c0.9-1.8,1.8-3.7,2.8-5.4
	l5.3,2.8C81.3,115.6,80.4,117.3,79.6,119.1z M348.2,108.8c-1-1.7-2-3.4-3-5l5.1-3.2c1.1,1.7,2.1,3.5,3.2,5.2L348.2,108.8z M86.1,107
	l-5.1-3c1-1.7,2.1-3.5,3.2-5.2l5,3.3C88.2,103.7,87.1,105.3,86.1,107z M340.8,97.3c-1.1-1.6-2.3-3.2-3.5-4.7l4.7-3.6
	c1.2,1.6,2.5,3.3,3.6,4.9L340.8,97.3z M93.7,95.6l-4.8-3.5c1.2-1.6,2.4-3.3,3.7-4.9l4.7,3.7C96,92.4,94.8,94,93.7,95.6z M332.3,86.4
	c-1.3-1.5-2.6-3-3.9-4.4l4.4-4c1.4,1.5,2.8,3,4.1,4.6L332.3,86.4z M102.2,84.9l-4.5-4c1.3-1.5,2.7-3,4.1-4.5l4.4,4.1
	C104.8,82,103.5,83.4,102.2,84.9z"/>
<g class="st3">
	<path class="st1" d="M216.6,317c-72.9,0-132-59.1-132-132s59.1-132,132-132s132,59.1,132,132v0l0,0
		C348.5,257.9,289.5,316.9,216.6,317z"/>
	<path class="st1" d="M216.6,56c71.2,0,129,57.8,129,129s-57.8,129-129,129s-129-57.8-129-129c0-34.2,13.6-67,37.8-91.2
		C149.6,69.6,182.4,56,216.6,56 M216.6,50c-74.6,0-135,60.4-135,135s60.4,135,135,135s135-60.4,135-135l0,0l0,0
		C351.6,110.4,291.2,50,216.6,50z"/>
</g>
<path class="st1" d="M151.2,73.8l1.7-1l129,223.4l-1.7,1L151.2,73.8z"/>
<path class="st1" d="M216.6,62c67.9,0,123,55.1,122.9,123.1S284.4,308,216.5,308s-123-55.1-122.9-123.1c0-32.6,13-63.9,36.1-86.9
	C152.7,74.9,184,62,216.6,62 M216.6,56c-71.2,0-129,57.8-129,129s57.8,129,129,129s129-57.8,129-129l0,0l0,0
	C345.6,113.8,287.9,56,216.6,56z"/>
<path class="st1" d="M215.6,56h2v258h-2V56z"/>
<path class="st1" d="M87.6,184h258v2h-258L87.6,184z"/>
<path class="st1" d="M91.8,217.4L341,150.6l0.5,1.9L92.3,219.4L91.8,217.4z"/>
<path class="st1" d="M151.2,73.8l1.7-1l129,223.4l-1.7,1L151.2,73.8z"/>
<path class="st1" d="M104.4,248.6l223.5-129l1,1.7l-223.5,129L104.4,248.6z"/>
<path class="st1" d="M124.7,275.5L307.1,93.1l1.4,1.4L126.1,276.9L124.7,275.5z"/>
<path class="st1" d="M104.4,121.4l1-1.7l223.4,129l-1,1.7L104.4,121.4z"/>
<path class="st1" d="M151.3,296.2l129-223.5l1.7,1L153,297.2L151.3,296.2z"/>
<path class="st1" d="M124.7,94.5l1.4-1.4l182.4,182.4l-1.4,1.4L124.7,94.5z"/>
<path class="st1" d="M182.3,309.4L249,60.1l1.9,0.5l-66.7,249.2L182.3,309.4z"/>
<path class="st1" d="M92.2,152.8l0.5-1.9L343,217.9l-0.5,1.9L92.2,152.8z"/>
<path class="st1" d="M182.3,60.7l1.9-0.5L251,309.4l-1.9,0.5L182.3,60.7z"/>
<path class="st1" d="M137.3,83.3l1.6-1.2l157.1,204.7l-1.6,1.3L137.3,83.3z"/>
<path class="st1" d="M198.8,57.2l2-0.3l33.7,255.8l-2,0.3L198.8,57.2z"/>
<path class="st1" d="M88.6,200.8l255.8-33.6l0.3,2L88.8,202.8L88.6,200.8z"/>
<path class="st1" d="M97.1,233.4l238.3-98.8l0.8,1.8L97.8,235.3L97.1,233.4z"/>
<path class="st1" d="M137.3,83.3l1.6-1.2l157.1,204.7l-1.6,1.3L137.3,83.3z"/>
<path class="st1" d="M113.7,262.8l204.6-157.1l1.2,1.6L114.9,264.4L113.7,262.8z"/>
<path class="st1" d="M137.3,286.8L294.3,82l1.6,1.2L138.9,288L137.3,286.8z"/>
<path class="st1" d="M97.1,136.6l0.8-1.9l238.4,98.7l-0.8,1.8L97.1,136.6z"/>
<path class="st1" d="M166.3,303.8l98.8-238.3l1.8,0.8l-98.8,238.3L166.3,303.8z"/>
<path class="st1" d="M113.7,107.3l1.2-1.6l204.7,157.1l-1.2,1.6L113.7,107.3z"/>
<path class="st1" d="M198.7,312.8L232.5,57l2,0.3L200.7,313L198.7,312.8z"/>
<path class="st1" d="M88.6,169.1l0.3-2l255.8,33.7l-0.3,2L88.6,169.1z"/>
<path class="st1" d="M166.3,66.2l1.9-0.8l98.7,238.4l-1.9,0.8L166.3,66.2z"/>
<path class="st1" d="M216.6,302c-64.6,0-117-52.4-117-117S152,68,216.6,68s117,52.4,117,117v0l0,0C333.6,249.6,281.2,302,216.6,302z
	 M216.6,70c-63.5,0-115,51.5-115,115s51.5,115,115,115s115-51.5,115-115c0-36.7-17.5-71.2-47.1-92.8C264.8,77.8,241,70,216.6,70z"/>
<path class="st1" d="M216.6,294c-60.2,0-109-48.8-109-109s48.8-109,109-109s109,48.8,109,109v0l0,0C325.6,245.2,276.8,294,216.6,294
	z M216.6,78c-59.1,0-107,47.9-107,107c0,59.1,47.9,107,107,107c59.1,0,107-47.9,107-107c0-34.1-16.3-66.2-43.9-86.4
	C261.4,85.2,239.3,78,216.6,78z"/>
<path class="st4" d="M174.6,247.7h84c9.9,0,18,8.1,18,18l0,0l0,0c0,9.9-8.1,18-18,18h-84c-9.9,0-18-8.1-18-18l0,0
	C156.6,255.8,164.7,247.7,174.6,247.7L174.6,247.7z"/>
<path class="st1" d="M169,265.7l5.7-5.7l5.6,5.7l-5.6,5.7L169,265.7z"/>
<path class="st1" d="M253,265.7l5.6-5.6l5.7,5.6l-5.7,5.7L253,265.7z"/>
<path class="st1" d="M188.1,267.2l-4.6-7.2h3.5l2.6,4.4l2.6-4.4h3.5l-4.5,7.2v4.8h-3.1L188.1,267.2z"/>
<path class="st1" d="M198.4,260.1h8.8v2.6h-5.7v2h5.6v2.6h-5.6v2.2h5.7v2.6h-8.8V260.1z"/>
<path class="st1" d="M218.5,270.3h-5l-0.6,1.8h-3.4l4.5-12h3.9l4.5,12h-3.4L218.5,270.3z M214.4,267.7h3.4l-1.7-4.9L214.4,267.7z"/>
<path class="st1" d="M229.9,268h-1.6v4.1h-3.1v-12h6c2.1-0.2,4,1.4,4.2,3.5c0,0.2,0,0.3,0,0.5c0.1,1.6-0.9,3.1-2.4,3.6l2.4,4.4h-3.5
	L229.9,268z M230.7,262.7h-2.4v2.7h2.4c0.5,0.1,1-0.2,1.3-0.6c0.3-0.4,0.3-1,0-1.5C231.8,262.9,231.3,262.6,230.7,262.7L230.7,262.7
	z"/>
<path class="st1" d="M239.7,268.1c1,1,2.4,1.6,3.8,1.6c1.1,0,1.7-0.5,1.7-1s-0.8-1-2.1-1.2c-2-0.4-4.8-0.9-4.8-3.8
	c0-2,1.7-3.8,4.8-3.8c1.8-0.1,3.5,0.5,4.9,1.7l-1.7,2.2c-1-0.8-2.1-1.2-3.4-1.2c-1,0-1.4,0.4-1.4,0.9s0.7,0.9,2.1,1.1
	c2,0.4,4.7,1,4.7,3.7c0,2.4-1.8,4-5,4c-2,0.1-3.9-0.6-5.4-1.9L239.7,268.1z"/>
<path class="st5" d="M112.7,57.6l9.8-7.4l0.9,1.2l-8.4,6.4l4.3,5.7l8.3-6.3l0.9,1.2l-8.3,6.3l4.6,6.1l8.4-6.4l0.9,1.2l-9.8,7.5
	L112.7,57.6z"/>
<path class="st5" d="M132.5,43.7l1.4-0.8l8.7,15.6l8.2-4.5l0.7,1.3l-9.6,5.4L132.5,43.7z"/>
<path class="st5" d="M151.1,34.1l11.4-4.5l0.6,1.4l-9.9,3.9l2.6,6.7l9.7-3.8l0.6,1.4l-9.7,3.8l2.8,7.1l9.8-3.9l0.6,1.4l-11.4,4.5
	L151.1,34.1z"/>
<path class="st5" d="M174.1,36c-1.4-5.1,1.6-10.4,6.7-11.8l0.6-0.1c2.7-0.7,5.5,0,7.7,1.8l-1.2,1.2c-1.7-1.4-4-2-6.2-1.5
	c-4.4,1-7,5.1-5.9,10.1s5.3,7.5,9.7,6.5c2.2-0.5,4-2,4.9-4l1.6,0.5c-1.1,2.6-3.4,4.4-6.2,5c-5.2,1.2-10.3-1.9-11.6-7.1
	C174.2,36.4,174.1,36.2,174.1,36z"/>
<path class="st5" d="M203.2,22.7l-6.3,0.5l-0.1-1.5l14.3-1.1l0.1,1.5l-6.3,0.5l1.4,17.8l-1.7,0.1L203.2,22.7z"/>
<path class="st5" d="M226.1,32.3l-4.3-0.3l-0.5,8l-1.6-0.1l1.2-19.3l7.2,0.5c3.3,0.2,5.7,2.5,5.5,6c-0.1,2.9-2.5,5.3-5.4,5.2
	c0,0,0,0,0,0h-0.2l5.1,8.5l-2-0.1L226.1,32.3z M227.9,22.5l-5.4-0.3l-0.5,8.3l5.4,0.3c2.3,0.1,4.3-1.6,4.4-3.9
	C231.9,24.7,230.1,22.7,227.9,22.5z"/>
<path class="st5" d="M253.2,24.4c5.5,1.2,8.2,6.3,6.9,11.8s-5.9,8.9-11.4,7.7s-8.2-6.3-6.9-11.8S247.7,23.2,253.2,24.4z M252.9,25.9
	c-4.6-1-8.2,1.8-9.4,6.6s1,8.9,5.6,10s8.3-1.8,9.4-6.6S257.4,26.9,252.9,25.9L252.9,25.9z"/>
<path class="st5" d="M273.2,33.4l-6.4,15.4l-1.5-0.6l7.5-17.9l1.5,0.6l4.8,19.9l6.3-15.2l1.5,0.6l-7.4,17.8l-1.5-0.6L273.2,33.4z"/>
<path class="st5" d="M298,42.2l1.4,0.8l-9.7,16.8l-1.4-0.8L298,42.2z"/>
<path class="st5" d="M302.3,56c3-4.4,9-5.5,13.3-2.5l0.5,0.3c2.3,1.6,3.6,4.2,3.7,7l-1.6-0.1c0-2.2-1.1-4.4-2.9-5.7
	c-3.6-2.7-8.5-2-11.5,2s-2.2,8.9,1.4,11.6c1.8,1.4,4.1,1.8,6.3,1.2l0.6,1.5c-2.7,0.8-5.6,0.2-7.8-1.5c-4.3-3.1-5.3-9.1-2.2-13.4
	c0,0,0,0,0,0L302.3,56z"/>
<path class="st4" d="M14,196c-6.1,0-11-4.9-11-11v-9c0-1.1,0.9-2,2-2h54.2c6.1,0,11,4.9,11,11v9c0,1.1-0.9,2-2,2H14z"/>
<path class="st1" d="M59.2,175c5.5,0,10,4.5,10,10v9c0,0.6-0.4,1-1,1H14c-5.5,0-10-4.5-10-10v-9c0-0.6,0.4-1,1-1H59.2 M59.2,173H5
	c-1.7,0-3,1.3-3,3v9c0,6.6,5.4,12,12,12h54.2c1.7,0,3-1.3,3-3v-9C71.2,178.4,65.8,173,59.2,173z"/>
<path class="st4" d="M59.2,173c6.6,0,12,5.4,12,12v9c0,1.7-1.3,3-3,3H14c-6.6,0-12-5.4-12-12v-9c0-1.7,1.3-3,3-3H59.2 M59.2,171H5
	c-2.8,0-5,2.2-5,5v9c0,7.7,6.3,14,14,14h54.2c2.8,0,5-2.2,5-5v-9C73.2,177.3,67,171,59.2,171z"/>
<path class="st1" d="M30.8,190.4h-10v-0.2c0.3,0,0.5,0,0.8-0.1c0.2-0.1,0.3-0.2,0.4-0.3c0.1-0.1,0.2-0.3,0.2-0.5v-7.7
	c0-0.3,0-0.5-0.1-0.8c0-0.2-0.1-0.3-0.2-0.5c-0.1-0.1-0.2-0.3-0.4-0.3c-0.3-0.1-0.5-0.1-0.8-0.1v-0.2h9.4l0.6,3.7h-0.2l-0.2-0.5
	c-0.1-0.1-0.1-0.3-0.2-0.4c-0.1-0.1-0.2-0.3-0.3-0.4l-0.3-0.4c-0.5-0.6-1-1-1.7-1.3c-0.7-0.3-1.4-0.4-2.1-0.4h-0.5v4.9
	c0.4,0,0.8-0.1,1.1-0.2c0.3-0.1,0.6-0.3,0.9-0.5c0.2-0.2,0.4-0.3,0.5-0.5c0.1-0.1,0.2-0.3,0.2-0.5c0.1-0.2,0.1-0.4,0.1-0.6h0.2v4.9
	h-0.2c-0.1-0.7-0.5-1.3-1-1.7c-0.2-0.2-0.5-0.4-0.8-0.5c-0.4-0.1-0.7-0.2-1.1-0.2v3.8c0,0.4,0,0.8,0.2,1.1c0.2,0.2,0.5,0.3,0.8,0.3
	c0.5,0,1-0.1,1.5-0.3c0.5-0.2,1-0.5,1.4-0.9c0.5-0.4,0.9-0.9,1.2-1.4c0.4-0.5,0.7-1.1,0.9-1.7h0.2L30.8,190.4z"/>
<path class="st1" d="M39.2,188.8c-0.2,0.4-0.4,0.7-0.7,0.9c-0.3,0.3-0.7,0.5-1.1,0.6c-0.5,0.1-0.9,0.2-1.4,0.2h-0.4l-0.4-0.1
	l-0.6-0.1l-0.7-0.2l-0.4-0.1L33,190l-0.3-0.1l-0.3-0.1l-0.2-3.2h0.2c0.2,0.6,0.5,1.1,0.8,1.6c0.3,0.4,0.6,0.8,1,1.2
	c0.3,0.3,0.6,0.6,1,0.8c0.3,0.2,0.7,0.2,1,0.3c0.6,0,1.1-0.4,1.2-1c0,0,0-0.1,0-0.1c0-0.3-0.1-0.6-0.3-0.9c-0.3-0.3-0.7-0.5-1.2-0.6
	l-0.8-0.3c-0.8-0.2-1.5-0.6-2.2-1.2c-0.4-0.4-0.7-0.9-0.7-1.5c0-0.3,0.1-0.7,0.3-1c0.2-0.3,0.4-0.6,0.7-0.8c0.3-0.2,0.7-0.4,1.1-0.6
	c0.4-0.1,0.9-0.2,1.4-0.2c0.4,0,0.9,0,1.3,0.1c0.5,0.1,1,0.2,1.5,0.4l0.2,2.6h-0.2c-0.2-0.4-0.4-0.8-0.6-1.1
	c-0.2-0.3-0.5-0.6-0.8-0.9c-0.2-0.2-0.5-0.4-0.8-0.6c-0.2-0.1-0.5-0.2-0.8-0.2c-0.3,0-0.6,0.1-0.8,0.3c-0.2,0.2-0.3,0.5-0.3,0.8
	c0,0.7,0.5,1.1,1.5,1.5l1.1,0.4c0.7,0.2,1.3,0.5,1.9,1c0.4,0.4,0.6,0.9,0.6,1.4C39.4,188.1,39.3,188.5,39.2,188.8z"/>
<path class="st1" d="M45.3,190.3c-0.4,0.2-0.9,0.3-1.3,0.3c-0.6,0-1.1-0.2-1.6-0.5c-0.3-0.2-0.5-0.5-0.6-0.8
	c-0.1-0.4-0.2-0.9-0.2-1.4v-4.8h-2l0.6-0.3l0.5-0.3l0.4-0.3l0.5-0.4c0.5-0.3,0.9-0.7,1.4-1.1l0.4-0.4c0.1-0.1,0.2-0.2,0.3-0.4
	s0.2-0.3,0.3-0.4l0.4-0.6v3.3h2l-0.4,0.7h-1.6v4.6c0,0.5,0.1,0.9,0.3,1.3c0.3,0.3,0.6,0.4,1,0.4h0.4c0.2,0,0.3-0.1,0.5-0.1l0.1,0.1
	C46.3,189.8,45.8,190.1,45.3,190.3z"/>
<path class="st1" d="M50.1,190.1c-0.3,0.3-0.7,0.5-1.1,0.4c-0.9,0-1.5-0.7-1.5-1.5c0,0,0,0,0,0l0,0c0-0.4,0.2-0.8,0.5-1.1
	c0.3-0.3,0.7-0.4,1.1-0.4c0.8,0,1.5,0.7,1.5,1.5c0,0,0,0,0,0C50.5,189.4,50.4,189.8,50.1,190.1z"/>
<path class="st4" d="M365,196c-1.1,0-2-0.9-2-2v-9c0-6.1,4.9-11,11-11h54.2c1.1,0,2,0.9,2,2v9c0,6.1-4.9,11-11,11H365z"/>
<path class="st1" d="M428.2,175c0.6,0,1,0.4,1,1v9c0,5.5-4.5,10-10,10H365c-0.6,0-1-0.4-1-1v-9c0-5.5,4.5-10,10-10H428.2 M428.2,173
	H374c-6.6,0-12,5.4-12,12v9c0,1.7,1.3,3,3,3h54.2c6.6,0,12-5.4,12-12v-9C431.2,174.3,429.9,173,428.2,173z"/>
<path class="st4" d="M428.2,173c1.7,0,3,1.3,3,3v9c0,6.6-5.4,12-12,12H365c-1.7,0-3-1.3-3-3v-9c0-6.6,5.4-12,12-12H428.2 M428.2,171
	H374c-7.7,0-14,6.3-14,14v9c0,2.8,2.2,5,5,5h54.2c7.7,0,14-6.3,14-14v-9C433.2,173.2,431,171,428.2,171z"/>
<path class="st1" d="M380.5,190.4v-0.2c0.3,0,0.5-0.1,0.8-0.1c0.2-0.1,0.3-0.2,0.4-0.3c0.1-0.1,0.2-0.3,0.2-0.5c0-0.1,0-0.2,0-0.2
	v-5.3c0-0.3,0-0.6,0-0.9c0-0.2-0.1-0.3-0.2-0.5c-0.1-0.1-0.3-0.2-0.5-0.3c-0.2-0.1-0.4-0.1-0.6-0.1h-0.4v-0.2l0.2-0.1l0.2-0.1l1-0.4
	c0.4-0.2,0.7-0.4,1.2-0.6l0.5-0.3l0.4-0.2l0.3-0.2l0.3-0.2l0.3-0.2l0.4-0.3v9.2c0,0.2,0,0.4,0,0.6c0,0.1,0,0.2,0.1,0.4
	c0,0.1,0.1,0.2,0.1,0.3c0.1,0.1,0.2,0.3,0.4,0.3c0.3,0.1,0.5,0.1,0.8,0.1v0.2L380.5,190.4z"/>
<path class="st1" d="M393.4,188.9l-0.7,0.5c-0.2,0.2-0.5,0.3-0.8,0.5l-0.5,0.3l-0.5,0.2l-0.5,0.2l-0.6,0.2l-0.1-0.1l0.2-0.1l0.1-0.1
	c0.7-0.5,1.3-1.1,1.7-1.7c0.2-0.3,0.4-0.7,0.5-1l0.1-0.3c0-0.1,0.1-0.2,0.1-0.3c0-0.1,0.1-0.2,0.1-0.4c0-0.1,0.1-0.3,0.1-0.5
	l-0.2,0.1l-0.2,0.1c-0.5,0.3-1,0.4-1.5,0.4c-0.5,0-1-0.1-1.5-0.3c-0.4-0.2-0.9-0.4-1.2-0.7c-0.7-0.6-1.1-1.5-1.1-2.4
	c0-0.5,0.1-1.1,0.3-1.6c0.2-0.5,0.5-0.9,0.9-1.3c0.4-0.4,0.9-0.7,1.4-0.9c0.5-0.2,1.1-0.3,1.7-0.3c0.6,0,1.2,0.1,1.8,0.3
	c0.5,0.2,1,0.5,1.4,0.9c0.4,0.4,0.7,0.9,0.9,1.4c0.2,0.6,0.3,1.2,0.3,1.8C396,185.9,395,187.7,393.4,188.9z M391.5,179.7
	c-1,0-1.6,1.1-1.6,3.4c0,0.9,0.1,1.8,0.4,2.6c0.2,0.5,0.6,0.8,1.2,0.8c1,0,1.5-1.1,1.5-3.3C393,180.9,392.5,179.7,391.5,179.7z"/>
<path class="st1" d="M403,188.9l-0.7,0.5c-0.2,0.2-0.5,0.3-0.8,0.5l-0.5,0.3l-0.5,0.2l-0.5,0.2l-0.6,0.2l-0.1-0.1l0.2-0.1l0.1-0.1
	c0.7-0.5,1.3-1.1,1.7-1.7c0.2-0.3,0.4-0.7,0.5-1l0.1-0.3c0-0.1,0.1-0.2,0.1-0.3c0-0.1,0.1-0.2,0.1-0.4c0-0.1,0.1-0.3,0.1-0.5
	l-0.2,0.1l-0.2,0.1c-0.5,0.3-1,0.4-1.5,0.4c-0.5,0-1-0.1-1.5-0.3c-0.4-0.2-0.9-0.4-1.2-0.7c-0.7-0.6-1.1-1.5-1.1-2.4
	c0-0.5,0.1-1.1,0.3-1.6c0.2-0.5,0.5-0.9,0.9-1.3c0.4-0.4,0.9-0.7,1.4-0.9c0.5-0.2,1.1-0.3,1.7-0.3c0.6,0,1.2,0.1,1.8,0.3
	c0.5,0.2,1,0.5,1.4,0.9c0.4,0.4,0.7,0.9,0.9,1.4c0.2,0.6,0.3,1.2,0.3,1.8C405.6,185.9,404.6,187.8,403,188.9z M401.1,179.7
	c-1,0-1.6,1.1-1.6,3.4c0,0.9,0.1,1.8,0.4,2.6c0.2,0.5,0.6,0.8,1.2,0.8c1,0,1.5-1.1,1.5-3.3C402.6,180.9,402.1,179.7,401.1,179.7
	L401.1,179.7z"/>
<path class="st1" d="M406.9,190.4v-0.2c0.3,0,0.5-0.1,0.8-0.1c0.2-0.1,0.3-0.2,0.4-0.3c0.1-0.1,0.2-0.3,0.2-0.5v-5.6
	c0-0.3,0-0.6,0-0.9c0-0.2-0.1-0.3-0.2-0.5c-0.1-0.1-0.3-0.2-0.5-0.3c-0.2-0.1-0.4-0.1-0.6-0.1h-0.4v-0.2l0.2-0.1l0.2-0.1l1-0.4
	c0.4-0.2,0.8-0.4,1.2-0.6l0.5-0.3l0.4-0.2l0.3-0.2l0.3-0.2l0.3-0.2l0.4-0.3v9.2c0,0.2,0,0.4,0,0.6c0,0.1,0,0.3,0.1,0.4
	c0,0.1,0.1,0.2,0.1,0.3c0.1,0.1,0.2,0.3,0.4,0.3c0.3,0.1,0.5,0.1,0.8,0.1v0.2L406.9,190.4z"/>
<path class="st5" d="M182.4,337.2l-11.9-3.2l-2.4,8.9l-1.6-0.4l5-18.7l1.6,0.4l-2.2,8.4l11.9,3.2l2.2-8.4l1.6,0.4l-5,18.7L180,346
	L182.4,337.2z"/>
<path class="st5" d="M204.5,329.8c5.6,0.5,9,5.1,8.5,10.8s-4.6,9.7-10.2,9.2s-9-5.1-8.5-10.8S198.8,329.4,204.5,329.8z M204.3,331.3
	c-4.7-0.4-7.9,2.9-8.3,7.8s2.2,8.7,6.9,9.1s7.9-3,8.3-7.8S209,331.7,204.3,331.3L204.3,331.3z"/>
<path class="st5" d="M238.9,331.4l-5.3,17.8l-0.6,0.1l-8.8-16.4l1.8,17.1l-1.6,0.2l-1.9-19.2l2.4-0.2l8.1,15.3l4.9-16.6l2.5-0.2
	l1.9,19.2l-1.7,0.2L238.9,331.4z"/>
<path class="st5" d="M249.6,327l11.8-3.2l0.4,1.5l-10.2,2.8l1.9,6.9l10-2.8l0.4,1.5l-10,2.8l2,7.4l10.2-2.8l0.4,1.5l-11.8,3.2
	L249.6,327z"/>
<path class="st4" d="M109.3,151.6c-3.3-1.1-5.1-4.6-4-7.9c0-0.1,0.1-0.2,0.1-0.4c0.6-2,2.3-3.5,4.4-3.8l0.2,2.1
	c-1.3,0.2-2.4,1.2-2.8,2.4c-0.7,2.4,0.7,4.9,3.1,5.6c2.2,0.6,4.5-0.4,5.4-2.5c0.5-1.2,0.2-2.6-0.6-3.7l1.5-1.4
	c1.3,1.6,1.7,3.8,0.9,5.8c-1.1,3.3-4.6,5.1-7.9,4c0,0,0,0,0,0C109.5,151.8,109.4,151.7,109.3,151.6L109.3,151.6z"/>
<path class="st4" d="M109.4,134.3l3.9-7.6l1.7,0.9l-2.9,5.7l2.9,1.5l2.9-5.5l1.7,0.9l-2.9,5.5l3.1,1.6l2.9-5.6l1.7,0.9l-3.9,7.6
	L109.4,134.3z"/>
<path class="st4" d="M116,122.3l1.2-1.8l8.8,5.8l3-4.6l1.6,1.1l-4.3,6.4L116,122.3z"/>
<path class="st4" d="M123.2,112l5.5-6.6l1.5,1.2l-4.1,4.9l2.5,2.1l4-4.8l1.5,1.2l-4,4.8l2.6,2.2l4.1-4.9l1.5,1.2l-5.5,6.6L123.2,112
	z"/>
<path class="st4" d="M132.3,101.6l4.5-4.2c1.7-1.6,3.6-1.4,4.8-0.1c1,0.9,1.1,2.4,0.4,3.6c1.3-0.7,2.9-0.5,3.9,0.6
	c1.3,1.4,1.4,3.3-0.4,4.9l-4.6,4.3L132.3,101.6z M140,101.5c0.7-0.6,0.7-1.6,0.1-2.3c-0.6-0.7-1.6-0.7-2.3-0.1l-2.6,2.4l2.2,2.4
	L140,101.5z M143.7,105.4c0.8-0.6,0.9-1.7,0.3-2.5c-0.6-0.8-1.7-0.9-2.5-0.3c-0.1,0.1-0.1,0.1-0.2,0.2l-2.6,2.4l2.4,2.5L143.7,105.4
	z"/>
<path class="st4" d="M151.7,95.3l-1.7,1.3l2.7,3.8l-1.7,1.3l-7.3-10.1l4.4-3.2c1.6-1.4,4-1.1,5.3,0.4c0,0,0,0,0,0
	c0.1,0.1,0.2,0.2,0.2,0.3c1.1,1.4,1,3.4-0.2,4.7l5.3,2.2l-2,1.5L151.7,95.3z M149,90.1l-2.4,1.8l2.3,3.2l2.4-1.8
	c1-0.4,1.5-1.6,1.1-2.6c-0.4-1-1.6-1.5-2.6-1.1l0,0C149.4,89.7,149.2,89.9,149,90.1z"/>
<path class="st4" d="M167.6,88.2l-5.2,2.8l0.3,2.5l-2.1,1.1L159,81.4l2.4-1.3l10.2,8.6l-2.1,1.1L167.6,88.2z M162,89.1l4.1-2.2
	l-5.1-4.4L162,89.1z"/>
<path class="st4" d="M172,77.3l-3.5,1.4l-0.7-1.8l9-3.6l0.7,1.8l-3.5,1.4l4,9.8l-2,0.8L172,77.3z"/>
<path class="st4" d="M181.2,71.9l2.1-0.6l3.6,11.9l-2.1,0.6L181.2,71.9z"/>
<path class="st4" d="M191.3,72.7l1.7,8.9l-2.1,0.4l-2.4-12.2l2.2-0.4l7.9,7.5l-1.7-8.7l2.1-0.4l2.4,12.2l-2.1,0.4L191.3,72.7z"/>
<path class="st4" d="M210.9,66.4c2-0.2,4,0.7,5.2,2.3l-1.7,1.1c-0.8-1-2.1-1.6-3.3-1.5c-2.5,0.3-4.2,2.6-3.9,5.1
	c0.3,2.2,2.1,3.9,4.4,3.9c1.1-0.1,2.1-0.5,2.9-1.3l-0.1-1.9l-3.7,0.2l-0.1-1.9l5.9-0.3l0.2,4.7c-1.2,1.5-3,2.5-5,2.5
	c-3.6,0.2-6.6-2.6-6.8-6.1C204.6,69.7,207.3,66.6,210.9,66.4L210.9,66.4z"/>
<path class="st4" d="M228.6,67.1l8.5,1.2l-0.3,1.9l-6.3-0.9l-0.4,3.2l6.2,0.8l-0.3,1.9l-6.2-0.8l-0.5,3.4l6.3,0.9l-0.3,1.9l-8.4-1.2
	L228.6,67.1z"/>
<path class="st4" d="M245,77.8l-4.6,3.8l-2.5-0.6l6.2-5l-2.7-7l2.5,0.7l1.9,5.2l4.2-3.7l2.6,0.7l-5.8,4.7l2.9,7.4l-2.5-0.7L245,77.8
	z"/>
<path class="st4" d="M253.7,78.9c1.2-3.2,4.8-4.9,8-3.7c0,0,0,0,0,0l0.4,0.1c2,0.7,3.4,2.5,3.7,4.5l-2.1,0.2
	c-0.2-1.3-1.1-2.4-2.3-2.9c-2.4-0.7-4.9,0.6-5.6,3c-0.6,2.1,0.3,4.4,2.3,5.3c1.2,0.5,2.6,0.3,3.7-0.5l1.3,1.6
	c-1.7,1.3-3.9,1.5-5.8,0.7c-3.2-1.2-4.9-4.8-3.6-8.1C253.6,79.1,253.6,79,253.7,78.9z"/>
<path class="st4" d="M271,79.7l7.5,4.2l-0.9,1.7l-5.5-3.1l-1.6,2.8l5.4,3l-0.9,1.8l-5.4-3l-1.7,3l5.5,3l-0.9,1.7l-7.5-4.2L271,79.7z
	"/>
<path class="st4" d="M282.8,86.7l1.8,1.3l-6.1,8.6l4.5,3.2l-1.1,1.6l-6.2-4.5L282.8,86.7z"/>
<path class="st4" d="M292.8,94.2l1.6,1.5l-7,7.9l4.1,3.7l-1.3,1.4l-5.7-5.1L292.8,94.2z"/>
<path class="st4" d="M302,102.7l5.7,6.3l-1.4,1.3l-4.3-4.7l-2.4,2.2l4.2,4.6l-1.4,1.3l-4.2-4.6l-2.6,2.3l4.2,4.7l-1.4,1.3l-5.7-6.3
	L302,102.7z"/>
<path class="st4" d="M309.5,117l-7.5,5.1l-1.2-1.8l10.2-7.1l1.3,1.8l-3.6,10.3l7.3-5l1.2,1.8l-10.3,7.1l-1.2-1.7L309.5,117z"/>
<path class="st4" d="M314.3,129.4c3-1.7,6.8-0.5,8.5,2.5c0,0,0,0,0,0c0.1,0.1,0.1,0.2,0.2,0.4c1,1.8,0.9,4.1-0.2,5.8l-1.7-1.2
	c0.7-1.1,0.8-2.5,0.2-3.7c-1.4-2.1-4.2-2.6-6.3-1.2c-1.7,1.2-2.4,3.4-1.7,5.3c0.6,1.2,1.8,2,3.1,2.1v2.1c-2.1-0.1-3.9-1.4-4.8-3.3
	c-1.7-3-0.6-6.8,2.5-8.5c0,0,0,0,0,0L314.3,129.4L314.3,129.4z"/>
<path class="st4" d="M326.9,141.4l2.9,8.1l-1.8,0.6l-2.1-6l-3,1.1l2.1,5.9l-1.8,0.6l-2.1-5.9l-3.3,1.2l2.1,6l-1.8,0.6l-2.9-8.1
	L326.9,141.4z"/>
<path class="st0" d="M216.6,56c71.2,0,129,57.8,129,129s-57.8,129-129,129s-129-57.8-129-129c0-34.2,13.6-67,37.8-91.2
	C149.6,69.6,182.4,56,216.6,56 M216.6,50c-74.6,0-135,60.4-135,135s60.4,135,135,135s135-60.4,135-135l0,0l0,0
	C351.6,110.4,291.2,50,216.6,50z"/>
<g class="st6">
	<g class="st7">
		<path class="st8" d="M141.2,217.7c0-5.7,4-9.9,9.9-9.9c4.6,0,8.8,2.7,10.5,9.6c2.4,9.6,4.4,15,10.9,15c8.8,0,16.3-9.6,16.3-23.8
			c0-12.3-5.5-24.7-22.8-24.7h-7.2v-3.8c13.8-1,24-8.7,24-21c0-10.2-6.8-16-16.9-16c-8.5,0-14.5,3.8-18,10.5l-1.9-0.8
			c2.4-12.3,17.4-22,34.2-22c14.5,0,27.9,7.6,27.9,21c0,7.5-4.2,17.8-16.5,23.8c12.7,3,22.5,13.5,22.5,27.3
			c0,19.3-20.1,32.4-42.3,32.4C150.5,235.3,141.2,226.6,141.2,217.7z"/>
		<path class="st8" d="M219.2,217.7c0-5.7,4-9.9,9.9-9.9c4.6,0,8.8,2.7,10.5,9.6c2.4,9.6,4.4,15,10.9,15c8.8,0,16.3-9.6,16.3-23.8
			c0-12.3-5.5-24.7-22.8-24.7h-7.2v-3.8c13.8-1,24-8.7,24-21c0-10.2-6.8-16-16.9-16c-8.5,0-14.5,3.8-18,10.5l-1.9-0.8
			c2.4-12.3,17.4-22,34.2-22c14.5,0,27.9,7.6,27.9,21c0,7.5-4.2,17.8-16.5,23.8c12.7,3,22.5,13.5,22.5,27.3
			c0,19.3-20.1,32.4-42.3,32.4C228.5,235.3,219.2,226.6,219.2,217.7z"/>
	</g>
	<g class="st7">
		<g>
			<path class="st9" d="M180.2,133.7c12.4,0,24.9,6.2,24.9,18c0,6.7-3.9,15.8-14.8,21.2l-7.6,3.7l8.2,1.9
				c12.1,2.8,20.2,12.6,20.2,24.4c0,14.6-12.6,24.6-27.5,28c5.1-4.7,8.3-12.8,8.3-22.3c0-16.2-8.4-26.3-22.5-27.6
				c10.3-3.7,16.5-11.6,16.5-21.9c0-11.6-7.8-19-19.9-19c-3.4,0-6.5,0.5-9.3,1.6C162.6,136.8,171.2,133.7,180.2,133.7 M151.1,210.8
				c3.9,0,6.4,2.5,7.6,7.3c1.2,4.9,2.6,10.3,5.6,13.7c-5.8-0.7-10.6-2.2-14.1-4.5c-3.8-2.5-6-5.9-6-9.6
				C144.2,213.6,146.9,210.8,151.1,210.8 M180.2,130.7c-16.8,0-31.8,9.7-34.2,22l1.9,0.8c3.4-6.8,9.4-10.5,18-10.5
				c10.2,0,16.9,5.8,16.9,16c0,12.3-10.2,19.9-24,21v3.8h7.2c17.2,0,22.8,12.4,22.8,24.7c0,14.2-7.5,23.8-16.3,23.8
				c-6.6,0-8.5-5.4-10.9-15c-1.6-6.9-5.8-9.6-10.5-9.6c-5.8,0-9.9,4.2-9.9,9.9c0,8.8,9.3,17.5,30.6,17.5c22.2,0,42.3-13,42.3-32.4
				c0-13.8-9.7-24.3-22.5-27.3c12.3-6,16.5-16.3,16.5-23.8C208.1,138.4,194.7,130.7,180.2,130.7L180.2,130.7z"/>
		</g>
		<g>
			<path class="st9" d="M258.2,133.7c12.4,0,24.9,6.2,24.9,18c0,6.7-3.9,15.8-14.8,21.2l-7.6,3.7l8.2,1.9
				c12.1,2.8,20.2,12.6,20.2,24.4c0,14.6-12.6,24.6-27.5,28c5.1-4.7,8.3-12.8,8.3-22.3c0-16.2-8.4-26.3-22.5-27.6
				c10.3-3.7,16.5-11.6,16.5-21.9c0-11.6-7.8-19-19.9-19c-3.4,0-6.5,0.5-9.3,1.6C240.6,136.8,249.2,133.7,258.2,133.7 M229.1,210.8
				c3.9,0,6.4,2.5,7.6,7.3c1.2,4.9,2.6,10.3,5.6,13.7c-5.8-0.7-10.6-2.2-14.1-4.5c-3.8-2.5-6-5.9-6-9.6
				C222.2,213.6,224.9,210.8,229.1,210.8 M258.2,130.7c-16.8,0-31.8,9.7-34.2,22l1.9,0.8c3.4-6.8,9.4-10.5,18-10.5
				c10.2,0,16.9,5.8,16.9,16c0,12.3-10.2,19.9-24,21v3.8h7.2c17.2,0,22.8,12.4,22.8,24.7c0,14.2-7.5,23.8-16.3,23.8
				c-6.6,0-8.5-5.4-10.9-15c-1.6-6.9-5.8-9.6-10.5-9.6c-5.8,0-9.9,4.2-9.9,9.9c0,8.8,9.3,17.5,30.6,17.5c22.2,0,42.3-13,42.3-32.4
				c0-13.8-9.7-24.3-22.5-27.3c12.3-6,16.5-16.3,16.5-23.8C286.1,138.4,272.7,130.7,258.2,130.7L258.2,130.7z"/>
		</g>
	</g>
	<g class="st7">
		<g>
			<path class="st0" d="M180.2,130.7c14.5,0,27.9,7.6,27.9,21c0,7.5-4.2,17.8-16.5,23.8c12.7,3,22.5,13.5,22.5,27.3
				c0,19.3-20.1,32.4-42.3,32.4c-21.3,0-30.6-8.7-30.6-17.5c0-5.7,4-9.9,9.9-9.9c4.6,0,8.8,2.7,10.5,9.6c2.4,9.6,4.4,15,10.9,15
				c8.8,0,16.3-9.6,16.3-23.8c0-12.3-5.5-24.7-22.8-24.7h-7.2v-3.8c13.8-1,24-8.7,24-21c0-10.2-6.8-16-16.9-16
				c-8.5,0-14.5,3.8-18,10.5l-1.9-0.8C148.4,140.5,163.4,130.7,180.2,130.7 M180.2,127.7c-18.1,0-34.5,10.8-37.1,24.5l-0.5,2.5
				l2.3,0.9l1.9,0.8l2.5,1l1.2-2.4c3-5.9,8.2-8.9,15.3-8.9c8.9,0,13.9,4.8,13.9,13c0,7.9-5.6,16.8-21.2,18l-2.8,0.2v2.8v3.8v3h3h7.2
				c17.2,0,19.8,13.6,19.8,21.7c0,11.9-5.7,20.8-13.3,20.8c-3.9,0-5.5-2.5-8-12.7c-1.8-7.5-6.7-11.9-13.4-11.9
				c-7.5,0-12.9,5.4-12.9,12.9c0,9.5,8.8,20.5,33.6,20.5c11.7,0,22.8-3.4,31.2-9.5c9.1-6.6,14.1-15.8,14.1-25.9
				c0-12.4-7.2-23-18.4-28.1c9.1-6.6,12.4-15.9,12.4-23.1c0-7.2-3.5-13.6-9.8-18C195.7,129.9,188.2,127.7,180.2,127.7L180.2,127.7z"
				/>
		</g>
		<g>
			<path class="st0" d="M258.2,130.7c14.5,0,27.9,7.6,27.9,21c0,7.5-4.2,17.8-16.5,23.8c12.7,3,22.5,13.5,22.5,27.3
				c0,19.3-20.1,32.4-42.3,32.4c-21.3,0-30.6-8.7-30.6-17.5c0-5.7,4-9.9,9.9-9.9c4.6,0,8.8,2.7,10.5,9.6c2.4,9.6,4.4,15,10.9,15
				c8.8,0,16.3-9.6,16.3-23.8c0-12.3-5.5-24.7-22.8-24.7h-7.2v-3.8c13.8-1,24-8.7,24-21c0-10.2-6.8-16-16.9-16
				c-8.5,0-14.5,3.8-18,10.5l-1.9-0.8C226.4,140.5,241.4,130.7,258.2,130.7 M258.2,127.7c-18.1,0-34.5,10.8-37.1,24.5l-0.5,2.5
				l2.3,0.9l1.9,0.8l2.5,1l1.2-2.4c3-5.9,8.2-8.9,15.3-8.9c8.9,0,13.9,4.8,13.9,13c0,7.9-5.6,16.8-21.2,18l-2.8,0.2v2.8v3.8v3h3h7.2
				c17.2,0,19.8,13.6,19.8,21.7c0,11.9-5.7,20.8-13.3,20.8c-3.9,0-5.5-2.5-8-12.7c-1.8-7.5-6.7-11.9-13.4-11.9
				c-7.5,0-12.9,5.4-12.9,12.9c0,9.5,8.8,20.5,33.6,20.5c11.7,0,22.8-3.4,31.2-9.5c9.1-6.6,14.1-15.8,14.1-25.9
				c0-12.4-7.2-23-18.4-28.1c9.1-6.6,12.4-15.9,12.4-23.1c0-7.2-3.5-13.6-9.8-18C273.7,129.9,266.2,127.7,258.2,127.7L258.2,127.7z"
				/>
		</g>
	</g>
</g>
<g>
	<g>
		<path class="st8" d="M131.9,217.7c0-5.7,4-9.9,9.9-9.9c4.6,0,8.8,2.7,10.5,9.6c2.4,9.6,4.4,15,10.9,15c8.8,0,16.3-9.6,16.3-23.8
			c0-12.3-5.5-24.7-22.8-24.7h-7.2v-3.8c13.8-1,24-8.7,24-21c0-10.2-6.8-16-16.9-16c-8.5,0-14.5,3.8-18,10.5l-1.9-0.8
			c2.4-12.3,17.4-22,34.2-22c14.5,0,27.9,7.6,27.9,21c0,7.5-4.2,17.8-16.5,23.8c12.7,3,22.5,13.5,22.5,27.3
			c0,19.3-20.1,32.4-42.3,32.4C141.2,235.3,131.9,226.6,131.9,217.7z"/>
		<path class="st8" d="M281.2,209v23.2h-23.5V209h-43.5l-1.4-4.7l47.7-73h20.7v58.3c8.8-1.3,14.7-5.5,17.2-13.3h2.2l-6.1,32.7H281.2
			z M257.6,190.3v-48l-31,48H257.6z"/>
	</g>
	<g>
		<g>
			<path class="st9" d="M170.9,133.7c12.4,0,24.9,6.2,24.9,18c0,6.7-3.9,15.8-14.8,21.2l-7.6,3.7l8.2,1.9
				c12.1,2.8,20.2,12.6,20.2,24.4c0,14.6-12.6,24.6-27.5,28c5.1-4.7,8.3-12.8,8.3-22.3c0-16.2-8.4-26.3-22.5-27.6
				c10.3-3.7,16.5-11.6,16.5-21.9c0-11.6-7.8-19-19.9-19c-3.4,0-6.5,0.5-9.3,1.6C153.3,136.8,161.9,133.7,170.9,133.7 M141.8,210.8
				c3.9,0,6.4,2.5,7.6,7.3c1.2,4.9,2.6,10.3,5.6,13.7c-5.8-0.7-10.6-2.2-14.1-4.5c-3.8-2.5-6-5.9-6-9.6
				C134.9,213.6,137.7,210.8,141.8,210.8 M170.9,130.7c-16.8,0-31.8,9.7-34.2,22l1.9,0.8c3.4-6.8,9.4-10.5,18-10.5
				c10.2,0,16.9,5.8,16.9,16c0,12.3-10.2,19.9-24,21v3.8h7.2c17.2,0,22.8,12.4,22.8,24.7c0,14.2-7.5,23.8-16.3,23.8
				c-6.6,0-8.5-5.4-10.9-15c-1.6-6.9-5.8-9.6-10.5-9.6c-5.8,0-9.9,4.2-9.9,9.9c0,8.8,9.3,17.5,30.6,17.5c22.2,0,42.3-13,42.3-32.4
				c0-13.8-9.7-24.3-22.5-27.3c12.3-6,16.5-16.3,16.5-23.8C198.8,138.4,185.5,130.7,170.9,130.7L170.9,130.7z"/>
		</g>
		<g>
			<path class="st9" d="M278.2,134.3v55.3v3.5l3.5-0.5c5.9-0.9,10.7-3,14.1-6.4L292,206h-10.9h-3v3v20.2h-17.5V209v-3h-3h-41.2
				l-0.3-1.2l7.6-11.6h3h31h3v-3v-48v-5.7l1.5-2.3H278.2 M281.2,131.3h-20.7l-47.7,73l1.4,4.7h43.5v23.2h23.5V209h13.3l6.1-32.7
				h-2.2c-2.5,7.8-8.4,12-17.2,13.3V131.3L281.2,131.3z M226.6,190.3l31-48v48H226.6L226.6,190.3z"/>
		</g>
	</g>
	<g>
		<g>
			<path class="st0" d="M170.9,130.7c14.5,0,27.9,7.6,27.9,21c0,7.5-4.2,17.8-16.5,23.8c12.7,3,22.5,13.5,22.5,27.3
				c0,19.3-20.1,32.4-42.3,32.4c-21.3,0-30.6-8.7-30.6-17.5c0-5.7,4-9.9,9.9-9.9c4.6,0,8.8,2.7,10.5,9.6c2.4,9.6,4.4,15,10.9,15
				c8.8,0,16.3-9.6,16.3-23.8c0-12.3-5.5-24.7-22.8-24.7h-7.2v-3.8c13.8-1,24-8.7,24-21c0-10.2-6.8-16-16.9-16
				c-8.5,0-14.5,3.8-18,10.5l-1.9-0.8C139.1,140.5,154.1,130.7,170.9,130.7 M170.9,127.7c-18.1,0-34.5,10.8-37.1,24.5l-0.5,2.5
				l2.3,0.9l1.9,0.8l2.5,1l1.2-2.4c3-5.9,8.2-8.9,15.3-8.9c8.9,0,13.9,4.8,13.9,13c0,7.9-5.6,16.8-21.2,18l-2.8,0.2v2.8v3.8v3h3h7.2
				c17.2,0,19.8,13.6,19.8,21.7c0,11.9-5.7,20.8-13.3,20.8c-3.9,0-5.5-2.5-8-12.7c-1.8-7.5-6.7-11.9-13.4-11.9
				c-7.5,0-12.9,5.4-12.9,12.9c0,9.5,8.8,20.5,33.6,20.5c11.7,0,22.8-3.4,31.2-9.5c9.1-6.6,14.1-15.8,14.1-25.9
				c0-12.4-7.2-23-18.4-28.1c9.1-6.6,12.4-15.9,12.4-23.1c0-7.2-3.5-13.6-9.8-18C186.4,129.9,178.9,127.7,170.9,127.7L170.9,127.7z"
				/>
		</g>
		<g>
			<path class="st0" d="M281.2,131.3v58.3c8.8-1.3,14.7-5.5,17.2-13.3h2.2l-6.1,32.7h-13.3v23.2h-23.5V209h-43.5l-1.4-4.7l47.7-73
				H281.2 M226.6,190.3h31v-48L226.6,190.3 M284.2,128.3h-3h-20.7h-1.6l-0.9,1.4l-47.7,73l-0.8,1.2l0.4,1.3l1.4,4.7l0.6,2.2h2.3
				h40.5v20.2v3h3h23.5h3v-3V212h10.3h2.5l0.5-2.4l6.1-32.7l0.7-3.6h-3.6h-2.2h-2.2l-0.7,2.1c-1.8,5.5-5.5,8.9-11.4,10.6v-54.7
				V128.3L284.2,128.3z M232.1,187.3l22.5-34.8v34.8H232.1L232.1,187.3z"/>
		</g>
	</g>
</g>
<g class="st6">
	<g class="st7">
		<path class="st8" d="M141,219.4c0-5.7,4-9.9,9.9-9.9c4.6,0,8.8,2.7,10.5,9.6c2.4,9.6,4.4,15,10.9,15c8.8,0,16.3-9.6,16.3-23.8
			c0-12.3-5.5-24.7-22.8-24.7h-7.2v-3.8c13.8-1,24-8.7,24-21c0-10.2-6.8-16-16.9-16c-8.5,0-14.5,3.8-18,10.5l-1.9-0.8
			c2.4-12.3,17.4-22,34.2-22c14.5,0,27.9,7.6,27.9,21c0,7.5-4.2,17.8-16.5,23.8c12.7,3,22.5,13.5,22.5,27.3
			c0,19.3-20.1,32.4-42.3,32.4C150.3,236.9,141,228.2,141,219.4z"/>
		<path class="st8" d="M220.7,219.5c0-5.7,4.2-10,9.7-10c4.6,0,9,3,10.3,9.9c1.8,10,3.4,14.8,10.8,14.8c9.1,0,16.6-9,16.6-23.7
			c0-14.8-8.4-21.9-19.6-21.9c-7.5,0-13.9,2.9-18.3,6.6l-4.9-3.9l7-56.5h40.3c6.1,0,11.4-1.5,12.9-5.7h2.1l-5.7,25.6h-48.6
			l-2.5,20.7c6.9-4.3,15.1-7.2,25.2-7.2c20.5,0,36.1,12.5,36.1,32.4c0,20.2-18.3,36.3-40.9,36.3S220.7,227.2,220.7,219.5z"/>
	</g>
	<g class="st7">
		<g>
			<path class="st9" d="M180,135.4c12.4,0,24.9,6.2,24.9,18c0,6.7-3.9,15.8-14.8,21.2l-7.6,3.7l8.2,1.9
				c12.1,2.8,20.2,12.6,20.2,24.4c0,14.6-12.6,24.6-27.5,28c5.1-4.7,8.3-12.8,8.3-22.3c0-16.2-8.4-26.3-22.5-27.6
				c10.3-3.7,16.5-11.6,16.5-21.9c0-11.6-7.8-19-19.9-19c-3.4,0-6.5,0.5-9.3,1.6C162.4,138.5,171,135.4,180,135.4 M150.9,212.5
				c3.9,0,6.4,2.5,7.6,7.3c1.2,4.9,2.6,10.3,5.6,13.7c-5.8-0.7-10.6-2.2-14.1-4.5c-3.8-2.5-6-5.9-6-9.6
				C144,215.2,146.8,212.5,150.9,212.5 M180,132.4c-16.8,0-31.8,9.7-34.2,22l1.9,0.8c3.4-6.8,9.4-10.5,18-10.5
				c10.2,0,16.9,5.8,16.9,16c0,12.3-10.2,19.9-24,21v3.8h7.2c17.2,0,22.8,12.4,22.8,24.7c0,14.2-7.5,23.8-16.3,23.8
				c-6.6,0-8.5-5.4-10.9-15c-1.6-6.9-5.8-9.6-10.5-9.6c-5.8,0-9.9,4.2-9.9,9.9c0,8.8,9.3,17.5,30.6,17.5c22.2,0,42.3-13,42.3-32.4
				c0-13.8-9.7-24.3-22.5-27.3c12.3-6,16.5-16.3,16.5-23.8C207.9,140,194.6,132.4,180,132.4L180,132.4z"/>
		</g>
		<g>
			<path class="st9" d="M283.1,135.8l-3.5,15.9h-46.2h-0.1l1.7-13.9h37.7C277.4,137.8,280.7,137,283.1,135.8 M256.1,171.2
				c19.8,0,33.1,11.8,33.1,29.4c0,8.9-3.9,17.2-11,23.5c-4.2,3.7-9.2,6.4-14.7,8c0.8-0.8,1.5-1.6,2.2-2.5c3.6-4.9,5.5-11.5,5.5-19.1
				c0-15.4-8.7-24.9-22.6-24.9c-6.6,0-13.1,2.1-18.3,5.8l-1.8-1.4l1.3-10.4l2.7-1.7C239.7,173.4,247.4,171.2,256.1,171.2
				 M230.4,212.5c3.8,0,6.5,2.7,7.4,7.4c0.9,5,1.8,10.1,4.5,13.4c-14.5-2.1-18.7-9.3-18.7-13.8C223.7,215.4,226.5,212.5,230.4,212.5
				 M287.7,129.1h-2.1c-1.5,4.2-6.7,5.7-12.9,5.7h-40.3l-7,56.5l4.9,3.9c4.3-3.8,10.8-6.6,18.3-6.6c11.2,0,19.6,7,19.6,21.9
				c0,14.7-7.5,23.7-16.6,23.7c-7.3,0-9-4.8-10.8-14.8c-1.4-6.9-5.7-9.9-10.3-9.9c-5.5,0-9.7,4.3-9.7,10c0,7.6,7.9,17.4,30.6,17.4
				s40.9-16,40.9-36.3c0-19.9-15.6-32.4-36.1-32.4c-10,0-18.3,2.9-25.2,7.2l2.5-20.7H282L287.7,129.1L287.7,129.1z"/>
		</g>
	</g>
	<g class="st7">
		<g>
			<path class="st0" d="M180,132.4c14.5,0,27.9,7.6,27.9,21c0,7.5-4.2,17.8-16.5,23.8c12.7,3,22.5,13.5,22.5,27.3
				c0,19.3-20.1,32.4-42.3,32.4c-21.3,0-30.6-8.7-30.6-17.5c0-5.7,4-9.9,9.9-9.9c4.6,0,8.8,2.7,10.5,9.6c2.4,9.6,4.4,15,10.9,15
				c8.8,0,16.3-9.6,16.3-23.8c0-12.3-5.5-24.7-22.8-24.7h-7.2v-3.8c13.8-1,24-8.7,24-21c0-10.2-6.8-16-16.9-16
				c-8.5,0-14.5,3.8-18,10.5l-1.9-0.8C148.2,142.1,163.2,132.4,180,132.4 M180,129.4c-18.1,0-34.5,10.8-37.1,24.5l-0.5,2.5l2.3,0.9
				l1.9,0.8l2.5,1l1.2-2.4c3-5.9,8.2-8.9,15.3-8.9c8.9,0,13.9,4.8,13.9,13c0,7.9-5.6,16.8-21.2,18l-2.8,0.2v2.8v3.8v3h3h7.2
				c17.2,0,19.8,13.6,19.8,21.7c0,11.9-5.7,20.8-13.3,20.8c-3.9,0-5.5-2.5-8-12.7c-1.8-7.5-6.7-11.9-13.4-11.9
				c-7.5,0-12.9,5.4-12.9,12.9c0,9.5,8.8,20.5,33.6,20.5c11.7,0,22.8-3.4,31.2-9.5c9.1-6.6,14.1-15.8,14.1-25.9
				c0-12.4-7.2-23-18.4-28.1c9.1-6.6,12.4-15.9,12.4-23.1c0-7.2-3.5-13.6-9.8-18C195.5,131.5,188,129.4,180,129.4L180,129.4z"/>
		</g>
		<g>
			<path class="st0" d="M287.7,129.1l-5.7,25.6h-48.6l-2.5,20.7c6.9-4.3,15.1-7.2,25.2-7.2c20.5,0,36.1,12.5,36.1,32.4
				c0,20.2-18.3,36.3-40.9,36.3s-30.6-9.8-30.6-17.4c0-5.7,4.2-10,9.7-10c4.6,0,9,3,10.3,9.9c1.8,10,3.4,14.8,10.8,14.8
				c9.1,0,16.6-9,16.6-23.7c0-14.8-8.4-21.9-19.6-21.9c-7.5,0-13.9,2.9-18.3,6.6l-4.9-3.9l7-56.5h40.3c6.1,0,11.4-1.5,12.9-5.7
				H287.7 M291.4,126.1h-3.7h-2.1h-2.1l-0.7,2c-1.2,3.2-6.8,3.7-10.1,3.7h-40.3h-2.6l-0.3,2.6l-7,56.5l-0.2,1.7l1.3,1l4.9,3.9
				l1.9,1.5l1.9-1.6c4.3-3.7,10.3-5.9,16.3-5.9c10.6,0,16.6,6.9,16.6,18.9c0,12.2-5.6,20.7-13.6,20.7c-4.4,0-5.9-1.5-7.8-12.4
				c-1.2-6-5.3-12.4-13.3-12.4c-7.1,0-12.7,5.7-12.7,13c0,5.3,2.9,10.4,8.1,14c6,4.2,14.6,6.4,25.5,6.4c11.7,0,22.7-4,31-11.3
				c8.4-7.4,13-17.3,13-28c0-20.8-16.1-35.4-39.1-35.4c-7.6,0-14.9,1.6-21.5,4.7l1.5-12.2H282h2.4l0.5-2.3l5.7-25.6L291.4,126.1
				L291.4,126.1z"/>
		</g>
	</g>
</g>
<g class="st6">
	<g class="st7">
		<path class="st8" d="M131.6,216.7c0-6,4.7-10.7,11.4-10.7c6.2,0,11,4.3,11.8,10.9c1.5,12,3.2,16.3,9.9,16.3
			c8.6,0,15.9-9,15.9-24.1c0-16.7-7.3-24.9-21.2-24.9h-7.9v-3.9c13.9-1.3,24-8.6,24-20.8c0-9.7-6.9-15.7-17.8-15.7
			c-8,0-15.2,3-20.2,11.2l-2.6-1.1c3.6-12.5,17.4-24.1,36.9-24.1c20.6,0,32.2,8.8,32.2,22.3c0,10.1-7.1,19.3-18.2,23.8
			c15,3.4,23.8,13.7,23.8,26.2c0,18.3-18.3,34.4-44.6,34.4C142.7,236.3,131.6,226.6,131.6,216.7z"/>
		<path class="st8" d="M220,191.6c0-36.3,33.9-61.2,71.3-61.2v2.1c-19.8,1.5-33.9,17.6-38.7,43.1c8-7.7,16.3-11.2,24-11.2
			c14.6,0,25.1,12.9,25.1,30.1c0,22.8-18,41.9-40.2,41.9C236.3,236.3,220,216.3,220,191.6z M273,206.6c0-19.5-5.6-28.3-14-28.3
			c-2.4,0-4.9,0.7-7.1,2.1c-0.7,5.1-1.1,10.3-1.1,15.9c0,26.4,4.9,36.9,11.4,36.9C268.3,233.2,273,224.6,273,206.6z"/>
	</g>
	<g class="st7">
		<g>
			<path class="st9" d="M171.9,133.4c17.8,0,28.5,6.9,28.5,18.5c0,8.6-6.1,16.3-15.8,20.3l-11.1,4.5l11.6,2.6
				c12.9,2.9,20.9,11.5,20.9,22.6c0,12.6-10.6,25.5-28.9,29.5c4.3-4.5,7.4-11.9,7.4-22.4c0-16.4-6.9-26.2-19.7-28.2
				c9.3-4.1,14.6-11.7,14.6-21.4c0-11.8-8.4-19.5-21.5-19.5c-3.8,0-7.3,0.6-10.5,1.8C153.1,136.9,161.4,133.4,171.9,133.4
				 M143,209.8c4.4,0,7.5,3,8.1,7.6c0.6,5.1,1.3,10.6,3.7,14.5c-13.3-2.2-19.5-8.9-19.5-15.1C135.4,212.6,138.5,209.8,143,209.8
				 M171.9,129.7c-19.5,0-33.3,11.6-36.9,24.1l2.6,1.1c5.1-8.2,12.2-11.2,20.2-11.2c10.9,0,17.8,6,17.8,15.7
				c0,12.2-10.1,19.5-24,20.8v3.9h7.9c13.9,0,21.2,8.2,21.2,24.9c0,15.2-7.3,24.1-15.9,24.1c-6.7,0-8.4-4.3-9.9-16.3
				c-0.7-6.6-5.6-10.9-11.8-10.9c-6.7,0-11.4,4.7-11.4,10.7c0,9.9,11,19.7,33.5,19.7c26.2,0,44.6-16.1,44.6-34.4
				c0-12.5-8.8-22.8-23.8-26.2c11-4.5,18.2-13.7,18.2-23.8C204.1,138.4,192.5,129.7,171.9,129.7L171.9,129.7z"/>
		</g>
		<g>
			<path class="st9" d="M269,137.4c-1.9,1.5-3.7,3.2-5.4,5.2c-7,7.9-12.1,19.1-14.6,32.3l-2.2,11.5l0.7-0.7c-0.3,3.5-0.5,7-0.5,10.7
				c0,17.4,2.1,29.3,6.4,35.5c-7.5-1.5-14.1-5.3-19.2-11.1c-6.7-7.5-10.3-17.8-10.3-29.1c0-16,7.2-30.6,20.2-41.3
				C251.1,144.5,259.7,140.1,269,137.4 M276.5,168c12.4,0,21.3,11.1,21.3,26.4c0,17.3-11,31.9-26.1,36.6c2.8-4.3,5-11.8,5-24.4
				c0-27.2-10.6-31.8-17.3-32C265.1,170.3,270.9,168,276.5,168 M291.3,130.4c-37.4,0-71.3,24.9-71.3,61.2
				c0,24.7,16.3,44.7,41.4,44.7c22.3,0,40.2-19.1,40.2-41.9c0-17.2-10.5-30.1-25.1-30.1c-7.7,0-15.9,3.6-24,11.2
				c4.9-25.5,18.9-41.6,38.7-43.1V130.4L291.3,130.4z M262.1,233.2c-6.6,0-11.4-10.5-11.4-36.9c0-5.6,0.4-10.9,1.1-15.9
				c2.2-1.3,4.7-2.1,7.1-2.1c8.4,0,14,8.8,14,28.3C273,224.6,268.3,233.2,262.1,233.2L262.1,233.2z"/>
		</g>
	</g>
	<g class="st7">
		<g>
			<path class="st0" d="M171.9,129.7c20.6,0,32.2,8.8,32.2,22.3c0,10.1-7.1,19.3-18.2,23.8c15,3.4,23.8,13.7,23.8,26.2
				c0,18.3-18.3,34.4-44.6,34.4c-22.5,0-33.5-9.7-33.5-19.7c0-6,4.7-10.7,11.4-10.7c6.2,0,11,4.3,11.8,10.9
				c1.5,12,3.2,16.3,9.9,16.3c8.6,0,15.9-9,15.9-24.1c0-16.7-7.3-24.9-21.2-24.9h-7.9v-3.9c13.9-1.3,24-8.6,24-20.8
				c0-9.7-6.9-15.7-17.8-15.7c-8,0-15.2,3-20.2,11.2l-2.6-1.1C138.6,141.3,152.4,129.7,171.9,129.7 M171.9,125.9
				c-22.6,0-36.8,13.9-40.5,26.9l-0.9,3.2l3,1.3l2.6,1.1l3,1.3l1.7-2.8c4-6.4,9.4-9.4,17-9.4c8.9,0,14,4.4,14,12
				c0,9.5-7.7,15.8-20.6,17.1l-3.4,0.3v3.4v3.9v3.7h3.7h7.9c11.9,0,17.4,6.7,17.4,21.2c0,11.8-5.1,20.4-12.2,20.4c-3,0-4.6,0-6.2-13
				c-0.9-8.3-7.3-14.1-15.5-14.1c-8.6,0-15.2,6.2-15.2,14.4c0,6.5,3.6,12.4,10,16.7c6.7,4.4,16.1,6.7,27.2,6.7
				c27.1,0,48.3-16.8,48.3-38.2c0-12-6.8-21.8-18.2-27c7.9-5.7,12.6-13.9,12.6-22.9C207.8,135.9,194,125.9,171.9,125.9L171.9,125.9z
				"/>
		</g>
		<g>
			<path class="st0" d="M291.3,130.4v2.1c-19.8,1.5-33.9,17.6-38.7,43.1c8-7.7,16.3-11.2,24-11.2c14.6,0,25.1,12.9,25.1,30.1
				c0,22.8-18,41.9-40.2,41.9c-25.1,0-41.4-20-41.4-44.7C220,155.3,253.9,130.4,291.3,130.4 M262.1,233.2c6.2,0,10.9-8.6,10.9-26.6
				c0-19.5-5.6-28.3-14-28.3c-2.4,0-4.9,0.7-7.1,2.1c-0.7,5.1-1.1,10.3-1.1,15.9C250.7,222.7,255.5,233.2,262.1,233.2 M295,126.7
				h-3.7c-19.5,0-38,6.3-52.1,17.8c-14.8,12.1-23,28.9-23,47.1c0,13.1,4.3,25.3,12.2,34.1c8.2,9.3,19.9,14.4,32.9,14.4
				c24.3,0,44-20.5,44-45.7c0-9.2-2.8-17.7-7.9-23.9c-5.3-6.4-12.7-10-20.9-10c-5.9,0-11.8,1.8-17.6,5.3c6-17.9,17.5-28.5,32.7-29.7
				l3.5-0.3v-3.5v-2.1V126.7L295,126.7z M255.2,182.8c1.2-0.5,2.5-0.8,3.7-0.8c9.3,0,10.3,17.1,10.3,24.5c0,10.1-1.5,15.6-2.8,18.5
				c-0.9,2-2.3,4.3-4.3,4.3c-2.3,0-4-4.2-4.6-6c-2-5.9-3-15-3-27.1C254.4,191.6,254.7,187.2,255.2,182.8L255.2,182.8z"/>
		</g>
	</g>
</g>
<g class="st6">
	<g class="st7">
		<path class="st8" d="M142,217.7c0-5.7,4-9.9,9.9-9.9c4.6,0,8.8,2.7,10.5,9.6c2.4,9.6,4.4,15,10.9,15c8.8,0,16.3-9.6,16.3-23.8
			c0-12.3-5.5-24.7-22.8-24.7h-7.2v-3.8c13.8-1,24-8.7,24-21c0-10.2-6.8-16-16.9-16c-8.5,0-14.5,3.8-18,10.5l-1.9-0.8
			c2.4-12.3,17.4-22,34.2-22c14.5,0,27.9,7.6,27.9,21c0,7.5-4.2,17.8-16.5,23.8c12.7,3,22.5,13.5,22.5,27.3
			c0,19.3-20.1,32.4-42.3,32.4C151.3,235.3,142,226.6,142,217.7z"/>
		<path class="st8" d="M235,232.3v-1.5c4.9-29.8,17.5-53.8,44.1-77.7h-31.3c-13,0-21.4,3.9-24.7,13.8h-2.2l7.8-33.7h62.7v8.5
			c-25.9,29.5-30.4,62.2-26.2,90.6H235z"/>
	</g>
	<g class="st7">
		<g>
			<path class="st9" d="M181,133.7c12.4,0,24.9,6.2,24.9,18c0,6.7-3.9,15.8-14.8,21.2l-7.6,3.7l8.2,1.9
				c12.1,2.8,20.2,12.6,20.2,24.4c0,14.6-12.6,24.6-27.5,28.1c5.1-4.7,8.3-12.8,8.3-22.3c0-16.2-8.4-26.3-22.5-27.6
				c10.3-3.7,16.5-11.6,16.5-21.9c0-11.6-7.8-19-19.9-19c-3.4,0-6.5,0.5-9.3,1.6C163.4,136.8,172,133.7,181,133.7 M151.9,210.8
				c3.9,0,6.4,2.5,7.6,7.3c1.2,4.9,2.6,10.3,5.6,13.7c-5.8-0.7-10.6-2.2-14.1-4.5c-3.8-2.5-6-5.9-6-9.6
				C145,213.6,147.8,210.8,151.9,210.8 M181,130.7c-16.8,0-31.8,9.8-34.2,22l1.9,0.8c3.4-6.7,9.4-10.5,18-10.5
				c10.2,0,16.9,5.8,16.9,16c0,12.3-10.2,19.9-24,21v3.8h7.2c17.2,0,22.8,12.4,22.8,24.8c0,14.2-7.5,23.8-16.3,23.8
				c-6.6,0-8.5-5.4-10.9-15c-1.6-6.9-5.8-9.6-10.5-9.6c-5.8,0-9.9,4.2-9.9,9.9c0,8.8,9.3,17.6,30.6,17.6c22.2,0,42.3-13.1,42.3-32.4
				c0-13.8-9.7-24.3-22.5-27.3c12.3-6,16.5-16.3,16.5-23.8C208.9,138.4,195.5,130.7,181,130.7L181,130.7z"/>
		</g>
		<g>
			<path class="st9" d="M288.2,136.1v4.4c-2.7,3.1-5.2,6.3-7.4,9.5h-1.7h-31.3c-9.5,0-16.7,2.1-21.5,6.4l4.7-20.3H288.2
				 M272.8,163.2c-3.9,7.5-6.9,15.3-8.9,23.5c-3.4,13.5-4.1,27.8-2.3,42.6h-23.3C243,203.2,253.5,182.8,272.8,163.2 M291.2,133.1
				h-62.7l-7.8,33.7h2.2c3.3-9.9,11.7-13.8,24.7-13.8h31.3c-26.5,23.8-39.1,47.8-44.1,77.7v1.5h30c-4.2-28.3,0.3-61,26.2-90.6V133.1
				L291.2,133.1z"/>
		</g>
	</g>
	<g class="st7">
		<g>
			<path class="st0" d="M181,130.7c14.5,0,27.9,7.7,27.9,21c0,7.5-4.2,17.8-16.5,23.8c12.7,3,22.5,13.5,22.5,27.3
				c0,19.3-20.1,32.4-42.3,32.4c-21.3,0-30.6-8.7-30.6-17.6c0-5.7,4-9.9,9.9-9.9c4.6,0,8.8,2.7,10.5,9.6c2.4,9.6,4.4,15,10.9,15
				c8.8,0,16.3-9.6,16.3-23.8c0-12.3-5.5-24.8-22.8-24.8h-7.2v-3.8c13.8-1,24-8.7,24-21c0-10.2-6.8-16-16.9-16
				c-8.5,0-14.5,3.8-18,10.5l-1.9-0.8C149.2,140.5,164.2,130.7,181,130.7 M181,127.7c-18.1,0-34.5,10.8-37.1,24.5l-0.5,2.5l2.3,0.9
				l1.9,0.8l2.5,1l1.2-2.4c3-5.9,8.2-8.9,15.3-8.9c8.9,0,13.9,4.8,13.9,13c0,7.9-5.6,16.8-21.2,18l-2.8,0.2v2.8v3.8v3h3h7.2
				c17.2,0,19.8,13.6,19.8,21.8c0,11.9-5.7,20.8-13.3,20.8c-3.9,0-5.5-2.5-8-12.7c-1.8-7.5-6.7-11.9-13.4-11.9
				c-7.5,0-12.9,5.4-12.9,12.9c0,9.5,8.8,20.6,33.6,20.6c11.7,0,22.8-3.4,31.2-9.5c9.1-6.6,14.1-15.8,14.1-25.9
				c0-12.4-7.2-23-18.4-28.1c9.1-6.6,12.4-15.9,12.4-23.1c0-7.2-3.5-13.6-9.8-18C196.5,129.9,189,127.7,181,127.7L181,127.7z"/>
		</g>
		<g>
			<path class="st0" d="M291.2,133.1v8.5c-25.9,29.5-30.4,62.2-26.2,90.6h-30v-1.5c4.9-29.8,17.5-53.8,44.1-77.7h-31.3
				c-13,0-21.4,3.9-24.7,13.8h-2.2l7.8-33.7H291.2 M294.2,130.1h-3h-62.7h-2.4l-0.5,2.3l-7.8,33.7l-0.8,3.7h3.8h2.2h2.2l0.7-2.1
				c2.7-8.1,9.5-11.7,21.9-11.7h23.7c-22.3,21.7-34.6,44.9-39.5,74.2l0,0.2v0.2v1.5v3h3h30h3.5l-0.5-3.4
				c-2.3-15.2-1.7-29.9,1.8-43.7c4-16.1,12-31.1,23.8-44.5l0.7-0.8v-1.1v-8.5V130.1L294.2,130.1z"/>
		</g>
	</g>
</g>
<g class="st6">
	<g class="st7">
		<path class="st8" d="M132.7,216.8c0-6,4.7-10.7,11.4-10.7c6.2,0,11,4.3,11.8,10.9c1.5,12,3.2,16.3,9.9,16.3
			c8.6,0,15.9-9,15.9-24.1c0-16.7-7.3-24.9-21.2-24.9h-7.9v-3.9c13.9-1.3,24-8.6,24-20.8c0-9.7-6.9-15.7-17.8-15.7
			c-8,0-15.2,3-20.2,11.2l-2.6-1.1c3.6-12.5,17.4-24.1,36.9-24.1c20.6,0,32.2,8.8,32.2,22.3c0,10.1-7.1,19.3-18.2,23.8
			c15,3.4,23.8,13.7,23.8,26.2c0,18.3-18.3,34.4-44.6,34.4C143.8,236.4,132.7,226.7,132.7,216.8z"/>
		<path class="st8" d="M219.2,210c0-11.8,9.4-21.2,21.9-26c-8.8-7.7-15.5-16.3-15.5-27.3c0-16.3,15.9-27.3,35.9-27.3
			c20.8,0,33.1,11.2,33.1,22.3c0,7.7-6.2,14.8-20,20.6c12.9,9,25.8,19.1,25.8,33.7c0,16.5-16.7,30.7-41.4,30.7
			C231,236.6,219.2,223.7,219.2,210z M275.8,221.1c0-12.5-15.3-21.7-29-32.4c-3,4.1-4.9,10.3-4.9,18.3c0,16.8,7.3,26.6,19.3,26.6
			C269.6,233.6,275.8,228.8,275.8,221.1z M270,168.9c2.2-3.9,3.4-8.8,3.4-15c0-14.8-5.4-21.9-13.9-21.9c-6.7,0-11.4,4.5-11.4,11.4
			C248.1,153.3,258.5,161,270,168.9z"/>
	</g>
	<g class="st7">
		<g>
			<path class="st9" d="M173,133.5c17.8,0,28.5,6.9,28.5,18.5c0,8.6-6.1,16.3-15.8,20.3l-11.1,4.5l11.6,2.6
				c12.9,2.9,20.9,11.5,20.9,22.6c0,12.6-10.6,25.5-28.9,29.5c4.3-4.5,7.4-11.9,7.4-22.4c0-16.4-6.9-26.2-19.7-28.2
				c9.3-4.1,14.6-11.7,14.6-21.4c0-11.8-8.4-19.5-21.5-19.5c-3.8,0-7.3,0.6-10.5,1.8C154.2,137,162.5,133.5,173,133.5 M144.2,209.9
				c4.4,0,7.5,3,8.1,7.6c0.6,5.1,1.3,10.6,3.7,14.5c-13.3-2.2-19.5-8.9-19.5-15.1C136.5,212.7,139.6,209.9,144.2,209.9 M173,129.7
				c-19.5,0-33.3,11.6-36.9,24.1l2.6,1.1c5.1-8.2,12.2-11.2,20.2-11.2c10.9,0,17.8,6,17.8,15.7c0,12.2-10.1,19.5-24,20.8v3.9h7.9
				c13.9,0,21.2,8.2,21.2,24.9c0,15.2-7.3,24.1-15.9,24.1c-6.7,0-8.4-4.3-9.9-16.3c-0.7-6.6-5.6-10.9-11.8-10.9
				c-6.7,0-11.4,4.7-11.4,10.7c0,9.9,11,19.7,33.5,19.7c26.2,0,44.6-16.1,44.6-34.4c0-12.5-8.8-22.8-23.8-26.2
				c11-4.5,18.2-13.7,18.2-23.8C205.2,138.5,193.6,129.7,173,129.7L173,129.7z"/>
		</g>
		<g>
			<path class="st9" d="M271.9,134.2c12.1,2.8,19,10.2,19,17.4c0,7.6-8.7,13.2-16.5,16.6c1.8-4,2.6-8.8,2.6-14.3
				C277.1,144.1,274.9,138,271.9,134.2 M246.2,135.7c-1.2,2.2-1.8,4.8-1.8,7.7c0,12,12.4,20.8,22.7,28l-0.1,0l5.6,3.9
				c12.3,8.5,24.2,17.9,24.2,30.6c0,7-3.5,13.6-10,18.6c-2.8,2.2-6.1,4-9.8,5.3c1.6-2.5,2.5-5.4,2.5-8.8c0-12.5-11.7-21.2-24-30.5
				c-2.1-1.6-4.3-3.2-6.4-4.9l-2.3-1.8l-3.2-2.8c-9.9-8.6-14.3-16.2-14.3-24.5C229.3,147.2,235.9,139.5,246.2,135.7 M243.2,187.2
				c-3.3,5-5.1,11.8-5.1,19.8c0,11.1,3.1,19.7,8.6,24.8c-17.2-3.1-23.7-12.7-23.7-21.8c0-9.4,7.3-17.8,19.5-22.5L243.2,187.2
				 M261.5,129.4c-20,0-35.9,11-35.9,27.3c0,11,6.7,19.7,15.5,27.3c-12.5,4.9-21.9,14.2-21.9,26c0,13.7,11.8,26.6,39.9,26.6
				c24.7,0,41.4-14.2,41.4-30.7c0-14.6-12.9-24.7-25.8-33.7c13.9-5.8,20-12.9,20-20.6C294.7,140.6,282.3,129.4,261.5,129.4
				L261.5,129.4z M270,168.9c-11.4-7.9-21.9-15.5-21.9-25.5c0-6.9,4.7-11.4,11.4-11.4c8.4,0,13.9,7.1,13.9,21.9
				C273.3,160.1,272.2,164.9,270,168.9L270,168.9z M261.2,233.6c-12,0-19.3-9.7-19.3-26.6c0-8,1.9-14.2,4.9-18.3
				c13.7,10.7,29,19.8,29,32.4C275.8,228.8,269.6,233.6,261.2,233.6L261.2,233.6z"/>
		</g>
	</g>
	<g class="st7">
		<g>
			<path class="st0" d="M173,129.7c20.6,0,32.2,8.8,32.2,22.3c0,10.1-7.1,19.3-18.2,23.8c15,3.4,23.8,13.7,23.8,26.2
				c0,18.3-18.3,34.4-44.6,34.4c-22.5,0-33.5-9.7-33.5-19.7c0-6,4.7-10.7,11.4-10.7c6.2,0,11,4.3,11.8,10.9
				c1.5,12,3.2,16.3,9.9,16.3c8.6,0,15.9-9,15.9-24.1c0-16.7-7.3-24.9-21.2-24.9h-7.9v-3.9c13.9-1.3,24-8.6,24-20.8
				c0-9.7-6.9-15.7-17.8-15.7c-8,0-15.2,3-20.2,11.2l-2.6-1.1C139.7,141.4,153.5,129.7,173,129.7 M173,126
				c-22.6,0-36.8,13.9-40.5,26.9l-0.9,3.2l3,1.3l2.6,1.1l3,1.3l1.7-2.8c4-6.4,9.4-9.4,17-9.4c8.9,0,14,4.4,14,12
				c0,9.5-7.7,15.8-20.6,17.1l-3.4,0.3v3.4v3.9v3.7h3.7h7.9c11.9,0,17.4,6.7,17.4,21.2c0,11.8-5.1,20.4-12.2,20.4c-3,0-4.6,0-6.2-13
				c-0.9-8.3-7.3-14.1-15.5-14.1c-8.6,0-15.2,6.2-15.2,14.4c0,6.5,3.6,12.4,10,16.7c6.7,4.4,16.1,6.7,27.2,6.7
				c27.1,0,48.3-16.8,48.3-38.2c0-12-6.8-21.8-18.2-27c7.9-5.7,12.6-13.9,12.6-22.9C208.9,136,195.2,126,173,126L173,126z"/>
		</g>
		<g>
			<path class="st0" d="M261.5,129.4c20.8,0,33.1,11.2,33.1,22.3c0,7.7-6.2,14.8-20,20.6c12.9,9,25.8,19.1,25.8,33.7
				c0,16.5-16.7,30.7-41.4,30.7c-28.1,0-39.9-12.9-39.9-26.6c0-11.8,9.4-21.2,21.9-26c-8.8-7.7-15.5-16.3-15.5-27.3
				C225.6,140.4,241.5,129.4,261.5,129.4 M270,168.9c2.2-3.9,3.4-8.8,3.4-15c0-14.8-5.4-21.9-13.9-21.9c-6.7,0-11.4,4.5-11.4,11.4
				C248.1,153.3,258.5,161,270,168.9 M261.2,233.6c8.4,0,14.6-4.9,14.6-12.5c0-12.5-15.3-21.7-29-32.4c-3,4.1-4.9,10.3-4.9,18.3
				C241.9,223.9,249.2,233.6,261.2,233.6 M261.5,125.6c-10.6,0-20.5,2.9-27.7,8.3c-7.7,5.7-12,13.8-12,22.8c0,11.3,6.4,20,12.6,26.2
				c-12,6.2-19,16.1-19,27.1c0,8.4,3.9,16,10.9,21.4c7.8,5.9,18.8,8.9,32.7,8.9c12.5,0,23.9-3.5,32.2-10
				c8.3-6.4,12.9-15.1,12.9-24.5c0-14.2-10.3-24.3-22.2-33c10.9-5.8,16.4-12.9,16.4-21.3c0-6.8-3.8-13.5-10.3-18.3
				C281.3,128.3,272.1,125.6,261.5,125.6L261.5,125.6z M268.4,163.2c-9.4-6.6-16.6-12.9-16.6-19.8c0-4.7,2.9-7.7,7.7-7.7
				c4.6,0,10.1,3.2,10.1,18.2C269.6,157.5,269.2,160.5,268.4,163.2L268.4,163.2z M261.2,229.9c-14,0-15.5-16-15.5-22.8
				c0-5,0.8-9.3,2.2-12.8c1,0.8,2.1,1.6,3.1,2.3c10.8,8.1,21,15.8,21,24.5C272,227.6,266.2,229.9,261.2,229.9L261.2,229.9z"/>
		</g>
	</g>
</g>
<g class="st6">
	<g class="st7">
		<path class="st8" d="M139.1,217.3c0-5.7,4-9.9,9.9-9.9c4.6,0,8.8,2.7,10.5,9.6c2.4,9.6,4.4,15,10.9,15c8.8,0,16.3-9.6,16.3-23.8
			c0-12.3-5.5-24.7-22.8-24.7h-7.2v-3.8c13.8-1,24-8.7,24-21c0-10.2-6.8-16-16.9-16c-8.5,0-14.5,3.8-18,10.5l-1.9-0.8
			c2.4-12.3,17.4-22,34.2-22c14.5,0,27.9,7.6,27.9,21c0,7.5-4.2,17.8-16.5,23.8c12.7,3,22.5,13.5,22.5,27.3
			c0,19.3-20.1,32.4-42.3,32.4C148.4,234.8,139.1,226.1,139.1,217.3z"/>
		<path class="st8" d="M228.1,233.5c20.7-1.6,34.6-18.1,38.4-45.9c-6,6.9-14.1,11.1-23.1,11.1c-15,0-24.9-11.7-24.9-28.8
			c0-22.5,18.7-39.6,37.6-39.6c20.5,0,37.9,16.5,37.9,44.2c0,37.9-34.2,61.2-66,61.2V233.5z M267.1,182.9c0.3-3.6,0.5-7.2,0.5-11.1
			c0-27-5.5-38.8-12.6-38.8c-6.9,0-11.7,10-11.7,26.2c0,18.8,5.7,27,15.1,27C261.8,186.2,264.5,185.2,267.1,182.9z"/>
	</g>
	<g class="st7">
		<g>
			<path class="st9" d="M178.1,133.3c12.4,0,24.9,6.2,24.9,18c0,6.7-3.9,15.8-14.8,21.2l-7.6,3.7l8.2,1.9
				c12.1,2.8,20.2,12.6,20.2,24.4c0,14.6-12.6,24.6-27.5,28c5.1-4.7,8.3-12.8,8.3-22.3c0-16.2-8.4-26.3-22.5-27.6
				c10.3-3.7,16.5-11.6,16.5-21.9c0-11.6-7.8-19-19.9-19c-3.4,0-6.5,0.5-9.3,1.6C160.5,136.4,169.1,133.3,178.1,133.3 M149,210.4
				c3.9,0,6.4,2.5,7.6,7.3c1.2,4.9,2.6,10.3,5.6,13.7c-5.8-0.7-10.6-2.2-14.1-4.5c-3.8-2.5-6-5.9-6-9.6
				C142.1,213.1,144.9,210.4,149,210.4 M178.1,130.3c-16.8,0-31.8,9.7-34.2,22l1.9,0.8c3.4-6.8,9.4-10.5,18-10.5
				c10.2,0,16.9,5.8,16.9,16c0,12.3-10.2,19.9-24,21v3.8h7.2c17.2,0,22.8,12.4,22.8,24.7c0,14.2-7.5,23.8-16.3,23.8
				c-6.6,0-8.5-5.4-10.9-15c-1.6-6.9-5.8-9.6-10.5-9.6c-5.8,0-9.9,4.2-9.9,9.9c0,8.8,9.3,17.5,30.6,17.5c22.2,0,42.3-13,42.3-32.4
				c0-13.8-9.7-24.3-22.5-27.3c12.3-6,16.5-16.3,16.5-23.8C206,137.9,192.7,130.3,178.1,130.3L178.1,130.3z"/>
		</g>
		<g>
			<path class="st9" d="M262.8,133.9c6.8,1.4,13,4.8,17.8,10.1c6.9,7.5,10.5,18.1,10.5,30.5c0,16.6-7.1,31.7-20,42.5
				c-6.7,5.7-14.8,10-23.3,12.6c11.4-7.9,19-22.2,21.7-41.7l0.5-3.6l0,0l0-0.6l0.8-5.8l-0.4,0.5c0.1-2.2,0.2-4.4,0.2-6.7
				C270.5,159.9,269.4,141.8,262.8,133.9 M245.8,135.1c-3.6,5-5.6,13.3-5.6,24.1c0,24.8,9.9,30,18.1,30c0.8,0,1.6,0,2.3-0.1
				c-5.1,4.3-11.1,6.6-17.3,6.6c-6.4,0-11.9-2.4-15.8-6.9c-4-4.6-6.1-11.2-6.1-18.9c0-9.8,3.9-19.1,10.9-26.1
				C236.3,139.8,240.9,136.9,245.8,135.1 M256.1,130.3c-18.9,0-37.6,17.1-37.6,39.6c0,17.1,9.9,28.8,24.9,28.8
				c9,0,17.1-4.2,23.1-11.1c-3.7,27.7-17.7,44.2-38.4,45.9v2.2c31.8,0,66-23.2,66-61.2C294.1,146.8,276.7,130.3,256.1,130.3
				L256.1,130.3z M258.4,186.2c-9.4,0-15.1-8.2-15.1-27c0-16.2,4.8-26.2,11.7-26.2c7,0,12.6,11.8,12.6,38.8c0,3.9-0.2,7.5-0.5,11.1
				C264.5,185.2,261.8,186.2,258.4,186.2L258.4,186.2z"/>
		</g>
	</g>
	<g class="st7">
		<g>
			<path class="st0" d="M178.1,130.3c14.5,0,27.9,7.6,27.9,21c0,7.5-4.2,17.8-16.5,23.8c12.7,3,22.5,13.5,22.5,27.3
				c0,19.3-20.1,32.4-42.3,32.4c-21.3,0-30.6-8.7-30.6-17.5c0-5.7,4-9.9,9.9-9.9c4.6,0,8.8,2.7,10.5,9.6c2.4,9.6,4.4,15,10.9,15
				c8.8,0,16.3-9.6,16.3-23.8c0-12.3-5.5-24.7-22.8-24.7h-7.2v-3.8c13.8-1,24-8.7,24-21c0-10.2-6.8-16-16.9-16
				c-8.5,0-14.5,3.8-18,10.5l-1.9-0.8C146.3,140,161.3,130.3,178.1,130.3 M178.1,127.3c-18.1,0-34.5,10.8-37.1,24.5l-0.5,2.5
				l2.3,0.9l1.9,0.8l2.5,1l1.2-2.4c3-5.9,8.2-8.9,15.3-8.9c8.9,0,13.9,4.8,13.9,13c0,7.9-5.6,16.8-21.2,18l-2.8,0.2v2.8v3.8v3h3h7.2
				c17.2,0,19.8,13.6,19.8,21.7c0,11.9-5.7,20.8-13.3,20.8c-3.9,0-5.5-2.5-8-12.7c-1.8-7.5-6.7-11.9-13.4-11.9
				c-7.5,0-12.9,5.4-12.9,12.9c0,9.5,8.8,20.5,33.6,20.5c11.7,0,22.8-3.4,31.2-9.5c9.1-6.6,14.1-15.8,14.1-25.9
				c0-12.4-7.2-23-18.4-28.1c9.1-6.6,12.4-15.9,12.4-23.1c0-7.2-3.5-13.6-9.8-18C193.7,129.4,186.2,127.3,178.1,127.3L178.1,127.3z"
				/>
		</g>
		<g>
			<path class="st0" d="M256.1,130.3c20.5,0,37.9,16.5,37.9,44.2c0,37.9-34.2,61.2-66,61.2v-2.2c20.7-1.6,34.6-18.1,38.4-45.9
				c-6,6.9-14.1,11.1-23.1,11.1c-15,0-24.9-11.7-24.9-28.8C218.5,147.4,237.2,130.3,256.1,130.3 M258.4,186.2c3.4,0,6.1-1,8.7-3.3
				c0.3-3.6,0.5-7.2,0.5-11.1c0-27-5.5-38.8-12.6-38.8c-6.9,0-11.7,10-11.7,26.2C243.2,178,248.9,186.2,258.4,186.2 M256.1,127.3
				c-10.1,0-20.3,4.5-28,12.2c-8.1,8.2-12.6,19-12.6,30.4c0,9.1,2.6,17,7.5,22.8c5.1,5.9,12.1,9,20.3,9c6.6,0,13-2.1,18.6-6
				c-2.2,9.3-5.7,16.9-10.6,22.7c-6.1,7.3-14,11.3-23.5,12.1l-2.8,0.2v2.8v2.2v3h3c16.9,0,34-6.2,46.9-17.1
				c14.3-12,22.1-28.8,22.1-47.1c0-14-4.2-25.9-12.1-34.6C277.6,131.8,267.3,127.3,256.1,127.3L256.1,127.3z M258.4,183.2
				c-8.1,0-12.1-8.1-12.1-24c0-15.3,4.4-23.2,8.7-23.2c3.6,0,9.6,7.6,9.6,35.8c0,3.3-0.1,6.4-0.3,9.6
				C262.5,182.7,260.7,183.2,258.4,183.2L258.4,183.2z"/>
		</g>
	</g>
</g>
<g class="st6">
	<g class="st7">
		<path class="st8" d="M200.7,232.3h-48.9v-1.9c7.5-0.6,10.7-4.7,10.7-15.3v-7.7h-44.9l-1.3-4.7l51.9-72.4h21.3v55.8
			c9.7-0.9,15.7-5.1,18.7-13.7h2.8l-6.9,35h-14.6v5.8c0,10.7,3,16.7,11.2,17.2V232.3z M162.5,186.3v-41.4l-29.6,41.4H162.5z"/>
		<path class="st8" d="M268.6,132c28.8,0,48.7,22.8,48.7,51.7c0,28.8-20.8,52-48.7,52c-28.1,0-48.7-22.8-48.7-51.7
			C220,155.2,241.7,132,268.6,132z M267.7,135.2c-7.3,0.2-14.8,11.2-14.8,47.7c0,32.8,6.6,50,16.1,50c7.7,0,15.3-10.9,15.3-48.1
			C284.4,151.8,277.8,135.2,267.7,135.2z"/>
	</g>
	<g class="st7">
		<g>
			<path class="st9" d="M185.7,134.1v52v4.1l4.1-0.4c6.3-0.6,11.3-2.5,15-5.7l-3.9,19.6h-11.5h-3.7v3.7v5.8c0,3.1,0,10.3,3.7,15.3
				h-26.2c2.6-3.8,3.1-8.8,3.1-13.5v-7.7v-3.7h-3.7h-42.1l-0.1-0.2L130,190h2.9h29.6h3.7v-3.7v-41.4v-5.6l3.8-5.3H185.7
				 M189.5,130.3h-21.3l-51.9,72.4l1.3,4.7h44.9v7.7c0,10.7-3.2,14.8-10.7,15.3v1.9h48.9v-1.9c-8.2-0.6-11.2-6.6-11.2-17.2v-5.8
				h14.6l6.9-35h-2.8c-3,8.6-9,12.7-18.7,13.7V130.3L189.5,130.3z M132.9,186.3l29.6-41.4v41.4H132.9L132.9,186.3z"/>
		</g>
		<g>
			<path class="st9" d="M278.2,136.7c8.9,1.8,16.8,6.2,22.9,12.9c8.1,8.8,12.5,20.9,12.5,34.1c0,13.1-4.6,25.3-12.9,34.3
				c-5.8,6.3-13,10.6-21,12.6c1.2-1.7,2.4-3.8,3.4-6.4c3.4-8.6,5.1-21.8,5.1-39.4c0-16.5-1.6-29.4-4.7-38.4
				C281.8,142.1,280.1,138.9,278.2,136.7 M257.7,137.2c-6.8,9.4-8.5,28.8-8.5,45.7c0,27.6,4.3,41.3,9.4,47.9
				c-20.4-4.6-34.8-23.2-34.8-46.8c0-13,4.7-25.2,13.2-34.3C242.7,143.5,249.9,139.2,257.7,137.2 M268.6,132
				c-27,0-48.7,23.2-48.7,52c0,28.8,20.6,51.7,48.7,51.7c27.9,0,48.7-23.2,48.7-52C317.3,154.8,297.5,132,268.6,132L268.6,132z
				 M269,232.9c-9.5,0-16.1-17.2-16.1-50c0-36.5,7.5-47.5,14.8-47.7c10.1,0,16.7,16.7,16.7,49.6C284.4,222,276.7,232.9,269,232.9
				L269,232.9z"/>
		</g>
	</g>
	<g class="st7">
		<g>
			<path class="st0" d="M189.5,130.3v55.8c9.7-0.9,15.7-5.1,18.7-13.7h2.8l-6.9,35h-14.6v5.8c0,10.7,3,16.7,11.2,17.2v1.9h-48.9
				v-1.9c7.5-0.6,10.7-4.7,10.7-15.3v-7.7h-44.9l-1.3-4.7l51.9-72.4H189.5 M132.9,186.3h29.6v-41.4L132.9,186.3 M193.2,126.6h-3.7
				h-21.3h-1.9l-1.1,1.6l-51.9,72.4l-1,1.5l0.5,1.7l1.3,4.7l0.8,2.7h2.8h41.2v3.9c0,10.3-3,11.3-7.2,11.6l-3.5,0.3v3.5v1.9v3.7h3.7
				h48.9h3.7v-3.7v-1.9V227l-3.5-0.2c-3.7-0.3-7.7-1.5-7.7-13.5v-2.1h10.9h3.1l0.6-3l6.9-35l0.9-4.5H211h-2.8h-2.7l-0.9,2.5
				c-2,5.8-5.5,9.1-11.4,10.5v-51.4V126.6L193.2,126.6z M140.2,182.5l18.6-26v26H140.2L140.2,182.5z"/>
		</g>
		<g>
			<path class="st0" d="M268.6,132c28.8,0,48.7,22.8,48.7,51.7c0,28.8-20.8,52-48.7,52c-28.1,0-48.7-22.8-48.7-51.7
				C220,155.2,241.7,132,268.6,132 M269,232.9c7.7,0,15.3-10.9,15.3-48.1c0-32.9-6.6-49.6-16.7-49.6c-7.3,0.2-14.8,11.2-14.8,47.7
				C252.9,215.7,259.5,232.9,269,232.9 M268.6,128.2c-14.1,0-27.3,5.8-37.2,16.4c-9.8,10.5-15.2,24.5-15.2,39.4
				c0,15,5.3,28.9,14.8,39.2c9.7,10.5,23.1,16.2,37.6,16.2c14.4,0,27.8-5.8,37.5-16.4c9.6-10.4,14.9-24.4,14.9-39.4
				c0-15.1-5.2-29-14.5-39.2C296.9,134,283.4,128.2,268.6,128.2L268.6,128.2z M269,229.1c-6,0-12.4-14.5-12.4-46.2
				c0-16.3,1.5-28.4,4.4-36.2c1.1-2.9,3.4-7.7,6.7-7.8c5.9,0.1,12.9,12.1,12.9,45.9c0,16.6-1.5,28.9-4.5,36.7
				C274.7,225,272.4,229.1,269,229.1L269,229.1z"/>
		</g>
	</g>
</g>
</svg>
