<?xml version="1.0" encoding="utf-8"?>
<!-- Generator: Adobe Illustrator 21.0.0, SVG Export Plug-In . SVG Version: 6.00 Build 0)  -->
<svg version="1.1" id="Layer_1" xmlns="http://www.w3.org/2000/svg" xmlns:xlink="http://www.w3.org/1999/xlink" x="0px" y="0px"
	 width="180.5px" height="180.5px" viewBox="0 0 180.5 180.5" style="enable-background:new 0 0 180.5 180.5;" xml:space="preserve"
	>
<style type="text/css">
	.st0{opacity:0.75;}
	.st1{fill:none;stroke:#1F2123;stroke-miterlimit:10;}
</style>
<g class="st0">
	<polyline class="st1" points="0.5,0 0.5,90 10.1,90 10.1,9 19.1,9 19.1,90 28.1,90 28.1,9 37.1,9 37.1,90 46.1,90 46.1,9 55.1,9 
		55.1,90 64.1,90 64.1,9 73.1,9 73.1,90 82.1,90 82.1,9 	"/>
	<path class="st1" d="M91.1,90"/>
	<polyline class="st1" points="1.1,180 82.1,180 82.1,171 1.1,171 1.1,162 82.1,162 82.1,153 1.1,153 1.1,144 82.1,144 82.1,135 
		1.1,135 1.1,126 82.1,126 82.1,117 1.1,117 1.1,108 82.1,108 82.1,99 0.5,99 	"/>
	<polyline class="st1" points="180.5,99 172.1,99 172.1,180 163.1,180 163.1,99 154.1,99 154.1,180 145.1,180 145.1,99 136.1,99 
		136.1,180 127.1,180 127.1,99 118.1,99 118.1,180 109.1,180 109.1,99 100.1,99 100.1,180 91.1,180 91.1,90 	"/>
	<polyline class="st1" points="91.1,90 172.1,90 172.1,81 91.1,81 91.1,72 172.1,72 172.1,63 91.1,63 91.1,54 172.1,54 172.1,45 
		91.1,45 91.1,36 172.1,36 172.1,27 91.1,27 91.1,18 172.1,18 172.1,9 82.1,9 	"/>
</g>
</svg>
