<?xml version="1.0" standalone="no"?>
<!DOCTYPE svg PUBLIC "-//W3C//DTD SVG 20010904//EN"
 "http://www.w3.org/TR/2001/REC-SVG-20010904/DTD/svg10.dtd">
<svg version="1.0" xmlns="http://www.w3.org/2000/svg"
 width="16.000000pt" height="16.000000pt" viewBox="0 0 16.000000 16.000000"
 preserveAspectRatio="xMidYMid meet">
<metadata>
Created by potrace 1.11, written by Peter Selinger 2001-2013
</metadata>
<g transform="translate(0.000000,16.000000) scale(0.002286,-0.002286)"
fill="#000000" stroke="none">
<path d="M0 3500 l0 -3500 3500 0 3500 0 0 3500 0 3500 -3500 0 -3500 0 0
-3500z m3220 975 l0 -175 -625 0 -625 0 0 -300 0 -300 580 0 580 0 0 -165 0
-165 -580 0 -580 0 0 -335 0 -335 635 0 635 0 0 -175 0 -175 -835 0 -835 0 0
1150 0 1150 825 0 825 0 0 -175z m768 -287 l2 -458 520 0 520 0 0 460 0 460
200 0 200 0 0 -1150 0 -1150 -200 0 -200 0 0 520 0 520 -520 0 -520 0 -2 -517
-3 -518 -200 0 -200 0 -3 1135 c-1 624 0 1141 3 1148 3 10 50 12 202 10 l198
-3 3 -457z"/>
</g>
</svg>
